<svg version="1.1" id="US_UK_Download_on_the" xmlns="http://www.w3.org/2000/svg" xmlns:xlink="http://www.w3.org/1999/xlink"
	x="0px" y="0px" viewBox="-238 377 135 40" style="enable-background:new -238 377 135 40;" xml:space="preserve">
	<style type="text/css">
		.st0{fill:#A6A6A6;}
		.st1{fill:#FFFFFF;}
		.st2{enable-background:new    ;}
	</style>
	<g>
		<path class="st0" d="M-107.8,417h-125.5c-2.6,0-4.7-2.1-4.7-4.7v-30.5c0-2.6,2.1-4.7,4.7-4.7h125.5c2.6,0,4.8,2.1,4.8,4.7v30.5
			C-103,414.9-105.2,417-107.8,417L-107.8,417z"/>
			<path d="M-104,412.3c0,2.1-1.7,3.8-3.8,3.8h-125.5c-2.1,0-3.8-1.7-3.8-3.8v-30.5c0-2.1,1.7-3.8,3.8-3.8h125.5
				c2.1,0,3.8,1.7,3.8,3.8V412.3L-104,412.3z"/>
				<g>
					<g>
						<path class="st1" d="M-207.9,396.8c0-3.2,2.6-4.8,2.8-4.9c-1.5-2.2-3.9-2.5-4.7-2.5c-2-0.2-3.9,1.2-4.9,1.2s-2.6-1.2-4.2-1.1
							c-2.1,0-4.1,1.3-5.2,3.2c-2.3,3.9-0.6,9.7,1.6,12.9c1.1,1.6,2.4,3.3,4,3.2c1.6-0.1,2.2-1,4.2-1c1.9,0,2.5,1,4.2,1
							s2.8-1.6,3.9-3.1c1.3-1.8,1.8-3.5,1.8-3.6C-204.5,401.9-207.8,400.6-207.9,396.8z"/>
							<path class="st1" d="M-211.1,387.3c0.9-1.1,1.5-2.6,1.3-4.1c-1.3,0.1-2.8,0.9-3.8,1.9c-0.8,0.9-1.5,2.5-1.3,3.9
								C-213.4,389.2-212,388.4-211.1,387.3z"/>
							</g>
						</g>
						<g>
							<path class="st1" d="M-184.4,408.5h-2.3l-1.2-3.9h-4.3l-1.2,3.9h-2.2l4.3-13.3h2.6L-184.4,408.5z M-188.2,403l-1.1-3.5
								c-0.1-0.4-0.3-1.2-0.7-2.5l0,0c-0.1,0.6-0.3,1.4-0.6,2.5l-1.1,3.5H-188.2z"/>
								<path class="st1" d="M-173.3,403.6c0,1.6-0.4,2.9-1.3,3.9c-0.8,0.8-1.8,1.3-2.9,1.3c-1.3,0-2.2-0.5-2.7-1.4l0,0v5.1h-2.1v-10.3
									c0-1,0-2.1-0.1-3.2h1.9l0.1,1.5l0,0c0.7-1.1,1.8-1.7,3.2-1.7c1.1,0,2.1,0.4,2.8,1.3C-173.7,400.9-173.3,402.1-173.3,403.6z
									M-175.5,403.7c0-0.9-0.2-1.7-0.6-2.3c-0.5-0.6-1.1-0.9-1.9-0.9c-0.5,0-1,0.2-1.4,0.5c-0.4,0.4-0.7,0.8-0.8,1.4
									c-0.1,0.3-0.1,0.5-0.1,0.6v1.6c0,0.7,0.2,1.3,0.6,1.8c0.4,0.5,1,0.7,1.7,0.7c0.8,0,1.4-0.3,1.9-0.9
									C-175.7,405.5-175.5,404.7-175.5,403.7z"/>
									<path class="st1" d="M-162.3,403.6c0,1.6-0.4,2.9-1.3,3.9c-0.8,0.8-1.8,1.3-2.9,1.3c-1.3,0-2.2-0.5-2.7-1.4l0,0v5.1h-2.1v-10.3
										c0-1,0-2.1-0.1-3.2h1.9l0.1,1.5l0,0c0.7-1.1,1.8-1.7,3.2-1.7c1.1,0,2.1,0.4,2.8,1.3C-162.7,400.9-162.3,402.1-162.3,403.6z
										M-164.5,403.7c0-0.9-0.2-1.7-0.6-2.3c-0.5-0.6-1.1-0.9-1.9-0.9c-0.5,0-1,0.2-1.4,0.5c-0.4,0.4-0.7,0.8-0.8,1.4
										c-0.1,0.3-0.1,0.5-0.1,0.6v1.6c0,0.7,0.2,1.3,0.6,1.8c0.4,0.5,1,0.7,1.7,0.7c0.8,0,1.4-0.3,1.9-0.9
										C-164.7,405.5-164.5,404.7-164.5,403.7z"/>
										<path class="st1" d="M-150,404.8c0,1.1-0.4,2.1-1.2,2.8c-0.9,0.8-2.1,1.2-3.6,1.2c-1.4,0-2.6-0.3-3.4-0.8l0.5-1.8
											c0.9,0.6,2,0.9,3.1,0.9c0.8,0,1.4-0.2,1.9-0.5c0.4-0.4,0.7-0.8,0.7-1.5c0-0.5-0.2-1-0.6-1.4c-0.4-0.4-1-0.7-1.8-1
											c-2.3-0.9-3.5-2.1-3.5-3.8c0-1.1,0.4-2,1.2-2.7s1.9-1,3.3-1c1.2,0,2.2,0.2,3,0.6l-0.5,1.7c-0.8-0.4-1.6-0.6-2.5-0.6
											c-0.8,0-1.3,0.2-1.8,0.6c-0.4,0.3-0.5,0.7-0.5,1.2s0.2,1,0.6,1.3c0.4,0.3,1,0.7,1.9,1c1.1,0.5,2,1,2.5,1.6
											C-150.2,403.1-150,403.9-150,404.8z"/>
											<path class="st1" d="M-142.9,400.5h-2.3v4.7c0,1.2,0.4,1.8,1.2,1.8c0.4,0,0.7,0,0.9-0.1l0.1,1.6c-0.4,0.2-1,0.2-1.7,0.2
												c-0.8,0-1.5-0.3-2-0.8s-0.7-1.4-0.7-2.6v-4.8h-1.4v-1.6h1.4v-1.8l2.1-0.6v2.4h2.4C-142.9,398.9-142.9,400.5-142.9,400.5z"/>
												<path class="st1" d="M-132.3,403.6c0,1.5-0.4,2.7-1.3,3.6c-0.9,1-2.1,1.5-3.5,1.5s-2.5-0.5-3.4-1.4c-0.8-0.9-1.3-2.1-1.3-3.5
													c0-1.5,0.4-2.7,1.3-3.7c0.9-0.9,2-1.4,3.5-1.4c1.4,0,2.5,0.5,3.4,1.4C-132.7,401-132.3,402.2-132.3,403.6z M-134.5,403.7
													c0-0.9-0.2-1.6-0.6-2.3c-0.4-0.8-1.1-1.1-1.9-1.1c-0.9,0-1.5,0.4-2,1.1c-0.4,0.6-0.6,1.4-0.6,2.3s0.2,1.6,0.6,2.3
													c0.5,0.8,1.1,1.1,1.9,1.1c0.8,0,1.5-0.4,1.9-1.2C-134.7,405.3-134.5,404.6-134.5,403.7z"/>
													<path class="st1" d="M-125.4,400.8c-0.2,0-0.4-0.1-0.7-0.1c-0.8,0-1.3,0.3-1.7,0.9c-0.4,0.5-0.5,1.1-0.5,1.9v5h-2.1v-6.6
														c0-1.1,0-2.1-0.1-3h1.9l0.1,1.8h0.1c0.2-0.6,0.6-1.1,1.1-1.5c0.5-0.3,1-0.5,1.5-0.5c0.2,0,0.4,0,0.5,0
														C-125.4,398.8-125.4,400.8-125.4,400.8z"/>
														<path class="st1" d="M-115.8,403.3c0,0.4,0,0.7-0.1,1h-6.4c0,0.9,0.3,1.7,0.9,2.2c0.5,0.4,1.2,0.7,2.1,0.7s1.8-0.2,2.6-0.5
															l0.3,1.5c-0.9,0.4-2,0.6-3.2,0.6c-1.5,0-2.7-0.4-3.5-1.3s-1.3-2-1.3-3.5c0-1.4,0.4-2.7,1.2-3.6c0.8-1,1.9-1.5,3.4-1.5
															c1.4,0,2.4,0.5,3.1,1.5C-116.1,401-115.8,402.1-115.8,403.3z M-117.9,402.7c0-0.6-0.1-1.2-0.4-1.6c-0.4-0.6-0.9-0.9-1.7-0.9
															c-0.7,0-1.3,0.3-1.7,0.9c-0.4,0.5-0.6,1-0.6,1.7L-117.9,402.7L-117.9,402.7z"/>
														</g>
														<g class="st2">
															<path class="st1" d="M-193.9,391v-7.6h5.5v0.9h-4.5v2.3h4.2v0.9h-4.2v2.6h4.7v0.9H-193.9z"/>
															<path class="st1" d="M-187,391v-5.5h0.8v0.8c0.2-0.3,0.4-0.5,0.7-0.7c0.3-0.2,0.6-0.2,1-0.2c0.4,0,0.7,0.1,1,0.3
																c0.3,0.2,0.4,0.4,0.6,0.7c0.4-0.6,1-1,1.7-1c0.5,0,1,0.2,1.3,0.5s0.4,0.8,0.4,1.4v3.8h-0.9v-3.5c0-0.4,0-0.6-0.1-0.8
																s-0.2-0.3-0.3-0.4c-0.2-0.1-0.3-0.2-0.6-0.2c-0.4,0-0.7,0.1-1,0.4c-0.3,0.3-0.4,0.7-0.4,1.2v3.2h-0.9v-3.6c0-0.4-0.1-0.7-0.2-0.9
																c-0.2-0.2-0.4-0.3-0.7-0.3c-0.3,0-0.5,0.1-0.7,0.2c-0.2,0.1-0.4,0.3-0.5,0.6c-0.1,0.3-0.2,0.7-0.2,1.2v2.9H-187z"/>
																<path class="st1" d="M-174.3,391h-0.9v-7.6h0.9v2.7c0.4-0.5,0.9-0.7,1.5-0.7c0.3,0,0.7,0.1,1,0.2s0.6,0.3,0.7,0.6
																	c0.2,0.2,0.3,0.5,0.5,0.9c0.1,0.3,0.2,0.7,0.2,1.1c0,0.9-0.2,1.7-0.7,2.2c-0.5,0.5-1,0.8-1.7,0.8c-0.7,0-1.2-0.3-1.5-0.8V391z
																	M-174.3,388.3c0,0.7,0.1,1.1,0.3,1.4c0.3,0.5,0.7,0.7,1.2,0.7c0.4,0,0.8-0.2,1.1-0.5s0.4-0.9,0.4-1.6c0-0.7-0.1-1.3-0.4-1.6
																	c-0.3-0.3-0.6-0.5-1-0.5c-0.4,0-0.8,0.2-1.1,0.5C-174.2,387.1-174.3,387.6-174.3,388.3z"/>
																	<path class="st1" d="M-169.3,391v-5.5h0.8v0.8c0.2-0.4,0.4-0.6,0.6-0.8c0.2-0.1,0.4-0.2,0.6-0.2c0.3,0,0.6,0.1,1,0.3l-0.3,0.9
																		c-0.2-0.1-0.5-0.2-0.7-0.2c-0.2,0-0.4,0.1-0.5,0.2c-0.2,0.1-0.3,0.3-0.3,0.5c-0.1,0.3-0.2,0.7-0.2,1.1v2.9H-169.3z"/>
																		<path class="st1" d="M-162,389.3l1,0.1c-0.2,0.6-0.4,1-0.8,1.3c-0.4,0.3-0.9,0.5-1.6,0.5c-0.8,0-1.4-0.2-1.9-0.7
																			c-0.5-0.5-0.7-1.2-0.7-2.1c0-0.9,0.2-1.6,0.7-2.2s1.1-0.8,1.9-0.8c0.7,0,1.3,0.3,1.8,0.8c0.5,0.5,0.7,1.2,0.7,2.1
																			c0,0.1,0,0.1,0,0.2h-4.1c0,0.6,0.2,1.1,0.5,1.4c0.3,0.3,0.7,0.5,1.2,0.5c0.3,0,0.6-0.1,0.9-0.3C-162.3,390-162.1,389.7-162,389.3z
																			M-165,387.8h3.1c0-0.5-0.2-0.8-0.4-1c-0.3-0.4-0.7-0.5-1.2-0.5c-0.4,0-0.8,0.1-1.1,0.4C-164.8,386.9-165,387.3-165,387.8z"/>
																			<path class="st1" d="M-158.3,391l-2.1-5.5h1l1.2,3.3c0.1,0.4,0.2,0.7,0.4,1.1c0.1-0.3,0.2-0.6,0.3-1l1.2-3.4h1l-2.1,5.5H-158.3z"
																				/>
																				<path class="st1" d="M-150.7,389.3l1,0.1c-0.2,0.6-0.4,1-0.8,1.3c-0.4,0.3-0.9,0.5-1.6,0.5c-0.8,0-1.4-0.2-1.9-0.7
																					c-0.5-0.5-0.7-1.2-0.7-2.1c0-0.9,0.2-1.6,0.7-2.2c0.5-0.5,1.1-0.8,1.9-0.8c0.7,0,1.3,0.3,1.8,0.8c0.5,0.5,0.7,1.2,0.7,2.1
																					c0,0.1,0,0.1,0,0.2h-4.1c0,0.6,0.2,1.1,0.5,1.4s0.7,0.5,1.2,0.5c0.3,0,0.6-0.1,0.9-0.3C-151.1,390-150.9,389.7-150.7,389.3z
																					M-153.8,387.8h3.1c0-0.5-0.2-0.8-0.4-1c-0.3-0.4-0.7-0.5-1.2-0.5c-0.4,0-0.8,0.1-1.1,0.4S-153.8,387.3-153.8,387.8z"/>
																					<path class="st1" d="M-145.7,391v-5.5h0.8v0.8c0.4-0.6,1-0.9,1.8-0.9c0.3,0,0.6,0.1,0.9,0.2c0.3,0.1,0.5,0.3,0.6,0.5
																						s0.2,0.4,0.3,0.7c0,0.2,0.1,0.5,0.1,0.9v3.4h-0.9v-3.3c0-0.4,0-0.7-0.1-0.9s-0.2-0.3-0.4-0.5c-0.2-0.1-0.4-0.2-0.7-0.2
																						c-0.4,0-0.7,0.1-1,0.4c-0.3,0.3-0.4,0.7-0.4,1.4v3H-145.7z"/>
																						<path class="st1" d="M-136.2,390.4c-0.3,0.3-0.7,0.5-1,0.6c-0.3,0.1-0.7,0.2-1,0.2c-0.6,0-1.1-0.1-1.4-0.4
																							c-0.3-0.3-0.5-0.7-0.5-1.1c0-0.3,0.1-0.5,0.2-0.7c0.1-0.2,0.3-0.4,0.5-0.5c0.2-0.1,0.4-0.2,0.7-0.3c0.2,0,0.5-0.1,0.8-0.1
																							c0.8-0.1,1.3-0.2,1.7-0.3c0-0.1,0-0.2,0-0.2c0-0.4-0.1-0.6-0.3-0.8c-0.2-0.2-0.6-0.3-1.1-0.3c-0.4,0-0.8,0.1-1,0.2
																							c-0.2,0.2-0.4,0.4-0.5,0.8l-0.9-0.1c0.1-0.4,0.2-0.7,0.4-0.9s0.5-0.4,0.8-0.6c0.4-0.1,0.8-0.2,1.2-0.2c0.5,0,0.9,0.1,1.1,0.2
																							c0.3,0.1,0.5,0.3,0.6,0.4c0.1,0.2,0.2,0.4,0.3,0.6c0,0.2,0,0.4,0,0.9v1.2c0,0.9,0,1.4,0.1,1.6c0,0.2,0.1,0.5,0.2,0.7h-1
																							C-136.1,390.9-136.1,390.6-136.2,390.4z M-136.2,388.3c-0.3,0.1-0.8,0.3-1.5,0.4c-0.4,0.1-0.7,0.1-0.8,0.2
																							c-0.2,0.1-0.3,0.2-0.4,0.3c-0.1,0.1-0.1,0.3-0.1,0.4c0,0.2,0.1,0.5,0.3,0.6s0.5,0.2,0.8,0.2c0.4,0,0.7-0.1,1-0.2s0.5-0.4,0.6-0.6
																							c0.1-0.2,0.2-0.5,0.2-0.9V388.3z"/>
																						</g>
																					</g>
																				</svg>
