<?xml version="1.0" encoding="utf-8"?>
<!-- Generator: Adobe Illustrator 18.1.1, SVG Export Plug-In . SVG Version: 6.00 Build 0)  -->
<svg version="1.1" id="Layer_1" xmlns="http://www.w3.org/2000/svg" xmlns:xlink="http://www.w3.org/1999/xlink" x="0px" y="0px"
	 viewBox="214.3 108 300 300" enable-background="new 214.3 108 300 300" xml:space="preserve">
<g>
	<g>
		<g>
			<g id="check">
				<g>
					
						<rect x="257.5" y="122.2" transform="matrix(-0.9914 0.1309 -0.1309 -0.9914 754.986 455.0846)" fill="#647386" width="210" height="260.4"/>
					
						<rect x="257.3" y="133.2" transform="matrix(-0.9979 -6.505723e-002 6.505723e-002 -0.9979 706.791 549.8632)" fill="#C7CAD0" width="210" height="260.4"/>
					<g>
						
							<rect x="244.5" y="135.6" transform="matrix(-0.9933 0.1156 -0.1156 -0.9933 727.3829 489.3827)" fill="#FFFFFF" width="210" height="260.4"/>
						<g>
							<g>
								
									<rect x="252.6" y="164.9" transform="matrix(-0.9933 0.1156 -0.1156 -0.9933 559.4753 332.2555)" fill="none" stroke="#333333" stroke-width="8" stroke-miterlimit="10" width="35" height="35"/>
								<polyline fill="none" stroke="#4ABC91" stroke-width="12" stroke-miterlimit="10" points="259.3,180.1 266.6,189.8 
									281.5,173.9 								"/>
								<g>
									
										<rect x="299.8" y="159.1" transform="matrix(-0.9933 0.1156 -0.1156 -0.9933 738.6279 279.1027)" fill="#989898" width="122.8" height="3.7"/>
									
										<rect x="301.1" y="170" transform="matrix(-0.9933 0.1156 -0.1156 -0.9933 742.4156 300.6193)" fill="#989898" width="122.8" height="3.7"/>
									
										<rect x="302.6" y="183.9" transform="matrix(-0.9933 0.1156 -0.1156 -0.9933 688.695 331.5252)" fill="#989898" width="64.3" height="3.7"/>
								</g>
							</g>
							<g>
								
									<rect x="257.8" y="209.6" transform="matrix(-0.9933 0.1156 -0.1156 -0.9933 574.9836 420.8562)" fill="none" stroke="#333333" stroke-width="8" stroke-miterlimit="10" width="35" height="35"/>
								<polyline fill="none" stroke="#4ABC91" stroke-width="12" stroke-miterlimit="10" points="264.6,224.9 271.8,234.7 
									286.7,218.6 								"/>
								<g>
									
										<rect x="305.1" y="203.8" transform="matrix(-0.9933 0.1156 -0.1156 -0.9933 754.3284 367.6702)" fill="#989898" width="122.8" height="3.7"/>
									
										<rect x="306.4" y="214.7" transform="matrix(-0.9933 0.1156 -0.1156 -0.9933 758.1164 389.1866)" fill="#989898" width="122.8" height="3.7"/>
									
										<rect x="307.8" y="228.6" transform="matrix(-0.9933 0.1156 -0.1156 -0.9933 704.2036 420.1257)" fill="#989898" width="64.3" height="3.7"/>
								</g>
							</g>
							<g>
								
									<rect x="263" y="254.5" transform="matrix(-0.9933 0.1157 -0.1157 -0.9933 590.5884 509.594)" fill="none" stroke="#333333" stroke-width="8" stroke-miterlimit="10" width="35" height="35"/>
								<polyline fill="none" stroke="#4ABC91" stroke-width="12" stroke-miterlimit="10" points="269.8,269.6 277,279.4 
									291.9,263.5 								"/>
								<g>
									
										<rect x="310.3" y="248.6" transform="matrix(-0.9933 0.1156 -0.1156 -0.9933 769.8374 456.2697)" fill="#989898" width="122.8" height="3.7"/>
									
										<rect x="311.6" y="259.5" transform="matrix(-0.9933 0.1156 -0.1156 -0.9933 773.6251 477.7869)" fill="#989898" width="122.8" height="3.7"/>
									
										<rect x="312.9" y="273.4" transform="matrix(-0.9933 0.1156 -0.1156 -0.9933 719.7112 508.7273)" fill="#989898" width="64.3" height="3.7"/>
								</g>
							</g>
							<g>
								
									<rect x="268.3" y="299.2" transform="matrix(-0.9933 0.1156 -0.1156 -0.9933 606.234 598.2106)" fill="none" stroke="#333333" stroke-width="8" stroke-miterlimit="10" width="35" height="35"/>
								<polyline fill="none" stroke="#4ABC91" stroke-width="12" stroke-miterlimit="10" points="275,314.4 282.2,324.2 
									297.2,308.2 								"/>
								<g>
									
										<rect x="315.5" y="293.3" transform="matrix(-0.9933 0.1156 -0.1156 -0.9933 785.3471 544.8687)" fill="#989898" width="122.8" height="3.7"/>
									
										<rect x="316.8" y="304.2" transform="matrix(-0.9933 0.1157 -0.1157 -0.9933 789.207 566.3005)" fill="#989898" width="122.8" height="3.7"/>
									
										<rect x="318.2" y="318.1" transform="matrix(-0.9933 0.1156 -0.1156 -0.9933 735.4137 597.2921)" fill="#989898" width="64.3" height="3.7"/>
								</g>
							</g>
							<g>
								
									<rect x="273.5" y="343.9" transform="matrix(-0.9933 0.1157 -0.1157 -0.9933 621.8218 686.7567)" fill="none" stroke="#333333" stroke-width="8" stroke-miterlimit="10" width="35" height="35"/>
								<polyline fill="none" stroke="#4ABC91" stroke-width="12" stroke-miterlimit="10" points="280.1,359.1 287.5,368.9 
									302.4,353 								"/>
								<g>
									
										<rect x="320.7" y="338.1" transform="matrix(-0.9933 0.1157 -0.1157 -0.9933 800.9375 633.3822)" fill="#989898" width="122.8" height="3.7"/>
									
										<rect x="321.9" y="349.1" transform="matrix(-0.9933 0.1156 -0.1156 -0.9933 804.678 655.1777)" fill="#989898" width="122.8" height="3.7"/>
									
										<rect x="323.4" y="362.8" transform="matrix(-0.9933 0.1157 -0.1157 -0.9933 751.0074 685.8164)" fill="#989898" width="64.3" height="3.7"/>
								</g>
							</g>
						</g>
					</g>
				</g>
			</g>
		</g>
	</g>
</g>
</svg>
