<?xml version="1.0" encoding="utf-8"?>
<!-- Generator: Adobe Illustrator 19.0.0, SVG Export Plug-In . SVG Version: 6.00 Build 0)  -->
<svg version="1.1" id="Layer_1" xmlns="http://www.w3.org/2000/svg" xmlns:xlink="http://www.w3.org/1999/xlink" x="0px" y="0px"
	 viewBox="-155 247 300 300" enable-background="new -155 247 300 300" xml:space="preserve">
<g id="Páginas">
	
		<rect id="Pagina_03" x="-104.4" y="262.9" transform="matrix(0.9914 -0.1309 0.1309 0.9914 -51.4566 3.4661)" fill="#647386" width="210" height="260.4"/>
	
		<rect id="Página_02" x="-104.5" y="274.1" transform="matrix(0.9979 6.505603e-002 -6.505603e-002 0.9979 26.3019 0.8265)" fill="#C7CAD0" width="210" height="260.4"/>
	<g id="Escritas">
		
			<rect id="Página_01_1_" x="-117.4" y="276.4" transform="matrix(0.9933 -0.1156 0.1156 0.9933 -47.0862 1.2891)" fill="#FFFFFF" width="210" height="260.4"/>
		<g id="tick_1">
			<g id="Linhas">
				
					<rect x="-109.3" y="305.6" transform="matrix(0.9933 -0.1156 0.1156 0.9933 -37.9701 -8.4489)" fill="none" stroke="#333333" stroke-width="8" stroke-miterlimit="10" width="35" height="35"/>
				<polyline fill="none" stroke="#4ABC91" stroke-width="12" stroke-miterlimit="10" points="-102.6,320.9 -95.3,330.6 
					-80.4,314.7 				"/>
				<g>
					
						<rect x="-62.1" y="300" transform="matrix(0.9933 -0.1156 0.1156 0.9933 -34.895 1.9442)" fill="#989898" width="122.8" height="3.7"/>
					
						<rect x="-60.8" y="310.8" transform="matrix(0.9933 -0.1156 0.1156 0.9933 -36.1398 2.1598)" fill="#989898" width="122.8" height="3.7"/>
					
						<rect x="-59.4" y="324.7" transform="matrix(0.9933 -0.1156 0.1156 0.9933 -37.9317 -0.9565)" fill="#989898" width="64.3" height="3.7"/>
				</g>
			</g>
			<g id="Linhas_2">
				
					<rect x="-104.2" y="350.4" transform="matrix(0.9933 -0.1156 0.1156 0.9933 -43.1144 -7.5503)" fill="none" stroke="#333333" stroke-width="8" stroke-miterlimit="10" width="35" height="35"/>
				<polyline fill="none" stroke="#4ABC91" stroke-width="12" stroke-miterlimit="10" points="-97.3,365.7 -90.1,375.5 -75.2,359.4 
									"/>
				<g>
					
						<rect x="-56.8" y="344.8" transform="matrix(0.9933 -0.1156 0.1156 0.9933 -40.0362 2.8535)" fill="#989898" width="122.8" height="3.7"/>
					
						<rect x="-55.6" y="355.6" transform="matrix(0.9933 -0.1156 0.1156 0.9933 -41.281 3.0691)" fill="#989898" width="122.8" height="3.7"/>
					
						<rect x="-54.2" y="369.5" transform="matrix(0.9933 -0.1156 0.1156 0.9933 -43.076 -5.778591e-002)" fill="#989898" width="64.3" height="3.7"/>
				</g>
			</g>
			<g id="Linhas_3">
				
					<rect x="-98.9" y="395.2" transform="matrix(0.9933 -0.1157 0.1157 0.9933 -48.2962 -6.6498)" fill="none" stroke="#333333" stroke-width="8" stroke-miterlimit="10" width="35" height="35"/>
				<polyline fill="none" stroke="#4ABC91" stroke-width="12" stroke-miterlimit="10" points="-92.1,410.4 -84.9,420.2 -70,404.3 
									"/>
				<g>
					
						<rect x="-51.7" y="389.5" transform="matrix(0.9933 -0.1156 0.1156 0.9933 -45.1689 3.7502)" fill="#989898" width="122.8" height="3.7"/>
					
						<rect x="-50.4" y="400.3" transform="matrix(0.9933 -0.1156 0.1156 0.9933 -46.4138 3.9658)" fill="#989898" width="122.8" height="3.7"/>
					
						<rect x="-48.9" y="414.2" transform="matrix(0.9933 -0.1156 0.1156 0.9933 -48.207 0.8502)" fill="#989898" width="64.3" height="3.7"/>
				</g>
			</g>
			<g id="Linhas_4">
				
					<rect x="-93.7" y="440" transform="matrix(0.9933 -0.1156 0.1156 0.9933 -53.3983 -5.7403)" fill="none" stroke="#333333" stroke-width="8" stroke-miterlimit="10" width="35" height="35"/>
				<polyline fill="none" stroke="#4ABC91" stroke-width="12" stroke-miterlimit="10" points="-86.9,455.2 -79.7,465 -64.7,449 				
					"/>
				<g>
					
						<rect x="-46.5" y="434.3" transform="matrix(0.9933 -0.1156 0.1156 0.9933 -50.313 4.649)" fill="#989898" width="122.8" height="3.7"/>
					
						<rect x="-45.2" y="445" transform="matrix(0.9933 -0.1157 0.1157 0.9933 -51.596 4.8759)" fill="#989898" width="122.8" height="3.7"/>
					
						<rect x="-43.7" y="459" transform="matrix(0.9933 -0.1156 0.1156 0.9933 -53.3479 1.7597)" fill="#989898" width="64.3" height="3.7"/>
				</g>
			</g>
			<g id="Linhas_5">
				<g>
					
						<rect x="-88.5" y="484.8" transform="matrix(0.9933 -0.1157 0.1157 0.9933 -58.5898 -4.838)" fill="none" stroke="#333333" stroke-width="8" stroke-miterlimit="10" width="35" height="35"/>
				</g>
				<polyline fill="none" stroke="#4ABC91" stroke-width="12" stroke-miterlimit="10" points="-81.8,499.9 -74.4,509.7 -59.5,493.8 
									"/>
				<g>
					
						<rect x="-41.3" y="478.9" transform="matrix(0.9933 -0.1157 0.1157 0.9933 -55.4872 5.5585)" fill="#989898" width="122.8" height="3.7"/>
					
						<rect x="-40" y="489.9" transform="matrix(0.9933 -0.1156 0.1156 0.9933 -56.6993 5.776)" fill="#989898" width="122.8" height="3.7"/>
					
						<rect x="-38.4" y="503.7" transform="matrix(0.9933 -0.1157 0.1157 0.9933 -58.5371 2.6689)" fill="#989898" width="64.3" height="3.7"/>
				</g>
			</g>
		</g>
	</g>
</g>
</svg>
