<svg version="1.1" id="Tudo" xmlns="http://www.w3.org/2000/svg" xmlns:xlink="http://www.w3.org/1999/xlink" x="0px" y="0px"
	 viewBox="-20 -102.6 799.9 799.9" style="enable-background:new -20 -102.6 799.9 799.9;" xml:space="preserve">

	<style>
	.Animate-Draw {
		display: none;
	}
	#hard:hover .Animate-Draw {
		display: block;
		fill-opacity: 0;
		animation-timing-function: ease-in-out;
		animation-fill-mode: forwards;
		animation-iteration: 1;
		animation-name: DrawLine, FadeStroke, FillIn;
		animation-duration: 4s, 1s, 1s;
		animation-delay: 0s, 3.5s, 1s;
		stroke: #8498B2;
  		stroke-miterlimit: 5;
		stroke-dashArray: 1100;
		stroke-dashoffset: 1100; 
	}

	@keyframes DrawLine {
		to {
			stroke-dashOffset: 0;
		}
	}
	@keyframes FadeStroke {
		to {
			stroke-opacity: 0;
		}
	}
	@keyframes FillIn {
		from {
			fill-opacity: 0;
		}
		to {
			fill-opacity: 1;
		}
	}

	</style>
<path id="Chão_1_" style="fill:#6B503F;" d="M342.6,589.5c205.5,0,373.1-11.2,373.1-24.9s-167.6-24.9-373.1-24.9
	s-373.1,11.2-373.1,24.9S137.2,589.5,342.6,589.5z"/>
<g id="All">
	<g id="Computador">
		<g>
			<polygon style="fill:#E5E5E5;" points="130.7,294.2 172.4,294.4 191.7,329.9 111,329.4 			"/>
			<path d="M54.1,175.7l196.4,1.3c5.5,0,10.1,4.6,10,10.1L259.9,294c0,5.5-4.6,10.1-10.1,10l-196.3-1.4c-5.5,0-10.1-4.6-10-10.1
				L44,185.6C44.1,180.1,48.6,175.6,54.1,175.7z"/>
			
				<rect x="50.4" y="182.1" transform="matrix(-1 -6.263951e-003 6.263951e-003 -1 302.4396 468.3205)" style="fill:#FFFFFF;" width="203.1" height="103.2"/>
			<circle style="fill:#FFFFFF;" cx="247.6" cy="294.9" r="1.3"/>
			<circle style="fill:#FFFFFF;" cx="242.5" cy="294.8" r="1.3"/>
			<circle style="fill:#FFFFFF;" cx="237.4" cy="294.9" r="1.3"/>
			<path style="fill:#FFFFFF;" d="M31.5,318.1l239.7,1.6c2.9,0,5.4,2.5,5.3,5.4l0,0c0,2.9-2.5,5.4-5.4,5.3l-239.7-1.6
				c-2.9,0-5.4-2.5-5.3-5.4l0,0C26.2,320.5,28.6,318.1,31.5,318.1z"/>
			<path d="M276.6,325c0,2.9-2.5,5.4-5.4,5.3l-239.7-1.5c-2.9,0-5.4-2.5-5.3-5.4L276.6,325z"/>
			<polygon points="249.9,303.9 51.9,302.5 26.2,324.1 276.2,326 			"/>
		</g>
		<g>
			<path class="Animate-Draw" style="fill:#8498B2;" d="M125.1,220.1l-45.5,52.7l-6.6-5.7l45.5-52.7l6.8,0.4L125.1,220.1L125.1,220.1z M118.4,214.4
				l3.7-4.2l3.1,4.6L118.4,214.4L118.4,214.4z M156,274.2l-37.8-54.6l7.2-4.9l37.8,54.6l-0.1,5.1L156,274.2L156,274.2z M163.1,274.4
				l-3.6,4.9l-3.5-5L163.1,274.4L163.1,274.4z M256.6,148l-93.5,126.4l-7-5.2l93.4-126.4L256.6,148L256.6,148z M283,104.8
				l-10.2,58.6L230,131.8L283,104.8z"/>
		</g>
		<g>
			<polygon style="fill:#FFFFFF;" points="186.1,320 130.5,320 133.5,298.7 174.5,298.5 			"/>
		</g>
	</g>
</g>
<g id="Mesa">
	<rect x="7.8" y="534.3" style="fill:#D08234;" width="128.3" height="15.1"/>
	<rect x="168.9" y="534.3" style="fill:#D08234;" width="128.3" height="15.1"/>
	<g>
		<polygon style="fill:#D7914C;" points="-8.9,565.1 53.8,351.2 72,351.2 9.3,565.1 		"/>
		<polygon style="fill:#D7914C;" points="152.9,565.1 90.2,351.2 72,351.2 134.7,565.1 		"/>
		<polygon style="fill:#D7914C;" points="154.8,565.1 217.5,351.2 235.7,351.2 173,565.1 		"/>
		<polygon style="fill:#D7914C;" points="316.6,565.1 253.9,351.2 235.7,351.2 298.4,565.1 		"/>
	</g>
	<rect x="40.8" y="352.7" style="fill:#C17629;" width="62.3" height="15.1"/>
	<g>
		<polygon style="fill:#C17629;" points="35,415.6 53.8,351.2 72,351.2 53.1,415.6 		"/>
		<polygon style="fill:#C17629;" points="109.1,415.6 90.2,351.2 72,351.2 90.9,415.6 		"/>
		<polygon style="fill:#C17629;" points="198.6,415.6 217.5,351.2 235.7,351.2 216.8,415.6 		"/>
		<polygon style="fill:#C17629;" points="272.8,415.6 253.9,351.2 235.7,351.2 254.6,415.6 		"/>
	</g>
	<rect x="203.4" y="352.7" style="fill:#C17629;" width="62.3" height="15.1"/>
	<rect x="-1.5" y="328.9" style="fill:#D08234;" width="282.7" height="24.2"/>
	<rect x="91.5" y="328.9" style="fill:#D7914C;" width="217.6" height="24.2"/>
</g>
<g id="Cadeira">
	<g>
		<path d="M523.3,524.1l168.8,0.9c3.8,0,7,3.2,6.9,7l0,0c0,3.8-3.2,7-7,6.9L523.2,538c-3.8,0-7-3.2-6.9-7l0,0
			C516.4,527.2,519.5,524.1,523.3,524.1z"/>
		<path d="M544.8,527.5L544.8,527.5c6.1,0,11.1,5.1,11.1,11.2l-0.1,14.6c0,6.1-5.1,11.1-11.2,11.1l0,0c-6.1,0-11.1-5.1-11.1-11.2
			l0.1-14.6C533.6,532.5,538.7,527.4,544.8,527.5z"/>
		<path d="M677.7,528.1L677.7,528.1c6.1,0,11.1,5.1,11.1,11.2l-0.1,14.6c0,6.1-5.1,11.1-11.2,11.1l0,0c-6.1,0-11.1-5.1-11.1-11.2
			l0.1-14.6C666.5,533.1,671.5,528.1,677.7,528.1z"/>
		<path d="M607.7,525.8L607.7,525.8c6.1,0,11.1,5.1,11.1,11.2l-0.1,14.6c0,6.1-5.1,11.1-11.2,11.1l0,0c-6.1,0-11.1-5.1-11.1-11.2
			l0.1-14.6C596.6,530.7,601.6,525.7,607.7,525.8z"/>
		<rect x="601.7" y="407" transform="matrix(-1 -4.848022e-003 4.848022e-003 -1 1213.811 909.2151)" width="12.6" height="92.3"/>
		<path d="M730.9,353.3l-0.1,35.8c-0.1,10.3-4.4,19.8-11.2,26.6c-6.9,6.8-16.3,11-26.7,11l-169.3-0.9c-10.3-0.1-19.8-4.4-26.6-11.2
			c-6.8-6.9-11-16.3-11-26.6l0.1-35.8h8.2l-0.1,35.8c-0.1,8.1,3.2,15.5,8.5,20.8c5.3,5.4,12.6,8.7,20.7,8.8l169.3,0.9
			c8.1,0.1,15.5-3.2,20.8-8.5c5.4-5.3,8.7-12.6,8.8-20.7l0.1-35.8L730.9,353.3z"/>
		<path style="fill:#C17629;" d="M593.3,431.9l29.9,0.2l0.7-158.1c0-8.2-6.6-15-14.9-15l0,0c-8.2,0-15,6.6-15,14.9L593.3,431.9z"/>
		<path style="fill:#D7914C;" d="M535.3,395.1l146.3,0.8c10,0,18.2,8.3,18.1,18.3l0,0c0,10-8.3,18.2-18.3,18.1l-146.2-0.7
			c-10,0-18.2-8.3-18.1-18.3l0,0C517,403.2,525.3,395.1,535.3,395.1z"/>
		
			<rect x="593" y="472.9" transform="matrix(-1 -4.979195e-003 4.979195e-003 -1 1213.322 1001.5955)" style="fill:#C17629;" width="29.8" height="52.8"/>
		<path style="fill:#D7914C;" d="M662.7,197.7l24.8,103c5.4,22.4-18.9,43.3-41.9,43.2l-74.1-0.4c-22.9-0.1-47-21.3-41.4-43.6
			L556,197.1C568.3,148.1,645.9,152.8,662.7,197.7z"/>
		<path style="fill:#C17629;" d="M719.9,339.3l13.9,0.1c4.3,0,7.9,3.6,7.9,7.9l-0.1,12.2c0,4.3-3.6,7.9-7.9,7.9l-13.9-0.1
			c-4.3,0-7.9-3.6-7.9-7.9l0.1-12.2C712,342.8,715.6,339.2,719.9,339.3z"/>
		<path style="fill:#C17629;" d="M483.5,338.1l13.9,0.1c4.3,0,7.9,3.6,7.9,7.9l-0.1,12.2c0,4.3-3.6,7.9-7.9,7.9l-13.9-0.1
			c-4.3,0-7.9-3.6-7.9-7.9l0.1-12.2C475.5,341.6,479.1,338.1,483.5,338.1z"/>
	</g>
</g>
<g id="pessoa">
	<path style="fill:#DCA77E;" d="M434.6,198.1l27.1,83.1c3.4,10.6,14.9,16.4,25.5,13c10.6-3.4,16.4-14.9,13-25.5l-27.1-83.1
		C465.2,161.4,427.1,175.2,434.6,198.1"/>
	<path d="M475.6,515.2c10.2,14.1,23.3,21.9,26.9,32.2c5.7,16.5-11.5,16.4-22.4,14.3c-11.8-2.3-17.5-9-23.9-10.6
		c-15.5-3.9-16.2-13-10.7-34.8C450.9,494.4,467.4,502,475.6,515.2"/>
	<path d="M377.4,518.5c-9.2,14.7-21.8,23.5-24.6,33.9c-4.8,17.4,14,15.6,24.8,12.3c10.6-3.3,15.7-9.9,21.7-11.8
		c15.2-5,15.3-14.1,8.4-35.4C400.7,496.1,384.8,504.8,377.4,518.5"/>
	<path style="fill:#DCA77E;" d="M341.5,328.7L341.5,328.7c1.8-2,5-2.1,7-0.2l8.7,8.1c2,1.8,2.1,5,0.2,7c-1.8,2-5,2.1-7,0.2l-8.7-8.1
		C339.7,333.8,339.6,330.7,341.5,328.7"/>
	<path style="fill:#E6952E;" d="M460.4,329.5l-108.7,3.7l15.7,197.7l45.2-1.5l-8.4-143.7c-0.7-9.2,8.2-10.3,10-0.3l27.9,143
		l45.2-1.5L460.4,329.5z"/>
	<path style="fill:#DCA77E;" d="M367.5,205.3L327,282.8c-5.2,9.9-17.5,13.7-27.3,8.5c-9.9-5.2-13.7-17.5-8.5-27.3l40.5-77.5
		C343.4,164,378.6,183.9,367.5,205.3"/>
	<path style="fill:#8498B2;" d="M367.5,205.3L340.9,256l-34.1-22.2l24.7-47.3C343.4,164,378.6,183.9,367.5,205.3"/>
	<path style="fill:#8498B2;" d="M434.6,198.1l16.5,50.5l38.7-11.9l-16.7-51.2C465.2,161.4,427.1,175.2,434.6,198.1"/>
	
		<rect x="349.3" y="174.7" transform="matrix(0.9994 -3.399474e-002 3.399474e-002 0.9994 -8.6221 13.8737)" style="fill:#425156;" width="108.8" height="171.5"/>
	<path style="fill:#8498B2;" d="M370.5,175.8l60.4-2.1l0.1,3.8c0.6,16.6-12.6,30.7-29.2,31.3c-16.6,0.6-30.7-12.6-31.3-29.2V175.8z"
		/>
	<path style="fill:#DCA77E;" d="M398,93.9L398,93.9c-13.5,0.5-24.2,11.9-23.7,25.4l1.9,56.3c0.5,13.5,11.9,24.2,25.4,23.7
		s24.2-11.9,23.7-25.4l-1.9-56.3C422.9,104.2,411.5,93.5,398,93.9"/>
	<path style="fill:#B8865F;" d="M375.5,157.3L375.5,157.3c0.7,21.1,49.8,19.4,49.1-1.7C423.9,134.5,374.8,136.2,375.5,157.3"/>
	<path style="fill:#6B503F;" d="M339.5,143.5c16.1-0.5,28.8-14.2,28.3-30.3s-14.2-28.8-30.3-28.3s-28.8,14.2-28.3,30.3
		C309.7,131.4,323.3,144.1,339.5,143.5"/>
	<path style="fill:#6B503F;" d="M454.1,140.6c16.1-0.5,28.8-14.1,28.3-30.3c-0.5-16.1-14.2-28.8-30.3-28.3s-28.8,14.1-28.3,30.3
		S438,141.1,454.1,140.6"/>
	<path style="fill:#6B503F;" d="M317,122.1c16.1-0.5,28.8-14.2,28.3-30.3S331.2,63,315,63.5c-16.1,0.5-28.8,14.1-28.3,30.3
		C287.3,109.9,300.9,122.6,317,122.1"/>
	<path style="fill:#6B503F;" d="M472.1,114.7c16.1-0.5,28.8-14.1,28.3-30.3c-0.5-16.1-14.1-28.8-30.3-28.3
		c-16.1,0.5-28.8,14.1-28.3,30.3C442.3,102.6,456,115.3,472.1,114.7"/>
	<path style="fill:#6B503F;" d="M311.9,94.2c16.1-0.5,28.8-14.2,28.3-30.3S326,35.1,309.9,35.6c-16.1,0.5-28.8,14.2-28.3,30.3
		C282.1,82.1,295.7,94.8,311.9,94.2"/>
	<path style="fill:#6B503F;" d="M475.3,84.1c16.1-0.5,28.8-14.2,28.3-30.3S489.5,25,473.3,25.5C457.2,26,444.5,39.7,445,55.8
		C445.6,72,459.2,84.7,475.3,84.1"/>
	<path style="fill:#DCA77E;" d="M393.5-36.9c138.4-4.7,111.9,197.3,6.8,200.8C295.3,167.5,255.2-32.2,393.5-36.9"/>
	<g>
		<path style="fill:#DCA77E;" d="M350.2,334.3l-2.1-6.3l-20.5,0.9l-17.2,11.4l2.1,6.3C321.8,374.3,361,366.4,350.2,334.3"/>
		<path style="fill:#DCA77E;" d="M348.1,328.1l-19.3-60.2c-3.4-10.6-15.1-16.3-25.6-12.7c-10.6,3.5-16.3,15.1-12.7,25.6l20,59.6
			L348.1,328.1z"/>
	</g>
	<path style="fill:#DCA77E;" d="M470.4,343.3L470.4,343.3c-2.7,0.2-4.8,2.5-4.6,5.2l0.7,11.9c0.2,2.7,2.5,4.8,5.2,4.6
		c2.7-0.1,4.8-2.5,4.6-5.2l-0.7-11.9C475.5,345.2,473.1,343.1,470.4,343.3"/>
	<path style="fill:#DCA77E;" d="M465.8,348.5l-0.3-6.6l17.7-7l21.9,5l0.3,6.6C506.6,375.7,467.2,382.2,465.8,348.5"/>
	<path style="fill:#DCA77E;" d="M465.5,341.9l-3.4-63.2c-0.6-11.1,8.3-20.6,19.4-21c11.1-0.4,20.6,8.3,21,19.4l2.5,62.8L465.5,341.9
		z"/>
	<path style="fill:#DCA77E;" d="M492.7,48.2c-7-1.5-15.2,8.4-18.2,22.1c-3,13.8,0.2,26.2,7.3,27.7c7,1.5,15.2-8.4,18.2-22.1
		S499.7,49.8,492.7,48.2"/>
	<path style="fill:#DCA77E;" d="M300.3,54.8c6.9-2,15.7,7.3,19.7,20.8c3.9,13.5,1.5,26.1-5.4,28.2c-6.9,2-15.7-7.3-19.7-20.8
		C291,69.4,293.4,56.8,300.3,54.8"/>
	<path style="fill:#425156;" d="M368.9,83.8c3.7-0.1,6.5-5.7,6.2-12.4c-0.2-6.7-3.4-12.1-7.1-12s-6.5,5.7-6.2,12.4
		C362,78.6,365.2,83.9,368.9,83.8"/>
	<path style="fill:#425156;" d="M426.3,81.9c3.7-0.1,6.5-5.7,6.2-12.4c-0.2-6.7-3.4-12.1-7.1-12s-6.5,5.7-6.2,12.4
		C419.5,76.6,422.6,82,426.3,81.9"/>
	<path style="fill:#9F7049;" d="M363.9,122.2c7.2,6.1,21.9,13.9,35.2,14.2c17.9,0.4,31.9-8.9,35.6-14.9c0,0-16.2,10.9-35.5,10.7
		C382.1,132.2,363.9,122.2,363.9,122.2"/>
	<path style="fill:#B8865F;" d="M384.6,97.1c5.6,13,22.2,12.2,27-0.9C404.2,103.7,392.8,104.4,384.6,97.1"/>
	<path style="fill:#6B503F;" d="M418.3,41.2c5.1-4.1,14.1-2,18.8,2.7c2.4,2.4,0.5,2.7-1.1,1.3c-5.1-4.3-11.4-4.1-16.4-1.3
		C416.9,45.4,415.5,43.5,418.3,41.2"/>
	<path style="fill:#6B503F;" d="M375.4,42.7c-5.5-3.4-14.2-0.3-18.3,4.9c-2.1,2.6-0.1,2.7,1.3,1.2c4.6-4.8,10.8-5.4,16.2-3.2
		C377.4,46.7,378.5,44.6,375.4,42.7"/>
	<path style="fill:#6B503F;" d="M336.1,26.8c16.1-0.5,28.8-14.2,28.3-30.3s-14.1-28.8-30.3-28.3c-16.1,0.5-28.8,14.2-28.3,30.3
		C306.4,14.7,320,27.4,336.1,26.8"/>
	<path style="fill:#6B503F;" d="M364.4,13c16.1-0.5,28.8-14.2,28.3-30.3s-14.1-28.8-30.3-28.3c-16.1,0.5-28.8,14.2-28.3,30.3
		C334.7,0.8,348.3,13.5,364.4,13"/>
	<path style="fill:#6B503F;" d="M408.2,6.9c16.1-0.5,28.8-14.1,28.3-30.3c-0.5-16.1-14.1-28.8-30.3-28.3
		c-16.1,0.5-28.8,14.2-28.3,30.3C378.5-5.2,392.1,7.5,408.2,6.9"/>
	<path style="fill:#6B503F;" d="M448.1,20c16.1-0.5,28.8-14.2,28.3-30.3s-14.2-28.8-30.3-28.3s-28.8,14.2-28.3,30.3
		C418.4,7.8,432,20.5,448.1,20"/>
	<path style="fill:#6B503F;" d="M471.9,51.8c16.1-0.5,28.8-14.2,28.3-30.3S486-7.3,469.9-6.8c-16.1,0.5-28.8,14.2-28.3,30.3
		C442.2,39.6,455.8,52.3,471.9,51.8"/>
	<path style="fill:#6B503F;" d="M312.1,58c16.1-0.5,28.8-14.2,28.3-30.3S326.3-1.1,310.1-0.6c-16.1,0.5-28.8,14.2-28.3,30.3
		C282.4,45.8,296,58.5,312.1,58"/>
	<path style="fill:#6B503F;" d="M400.4,23.5c16.1-0.5,28.8-14.2,28.3-30.3s-14.2-28.8-30.3-28.3s-28.8,14.2-28.3,30.3
		C370.7,11.3,384.3,24,400.4,23.5"/>
	<path style="fill:#6B503F;" d="M360.4,27.4c16.1-0.5,28.8-14.2,28.3-30.3s-14.2-28.8-30.3-28.3S329.6-17,330.1-0.9
		C330.7,15.2,344.3,27.9,360.4,27.4"/>
	<path style="fill:#6B503F;" d="M441.9,27.1c16.1-0.5,28.8-14.2,28.3-30.3S456.1-32,439.9-31.5c-16.1,0.5-28.8,14.2-28.3,30.3
		S425.7,27.6,441.9,27.1"/>
	<path style="fill:none;stroke:#6B503F;stroke-width:0.216;stroke-miterlimit:22.926;" d="M441.9,27.1c16.1-0.5,28.8-14.2,28.3-30.3
		S456.1-32,439.9-31.5c-16.1,0.5-28.8,14.2-28.3,30.3S425.7,27.6,441.9,27.1z"/>
	<path style="fill:#6B503F;" d="M463,38.6c13.7-0.5,24.5-12,24.1-25.8c-0.5-13.7-12-24.5-25.8-24.1c-13.7,0.5-24.5,12-24.1,25.8
		C437.8,28.2,449.3,39,463,38.6"/>
	<path style="fill:#6B503F;" d="M329.7,40c16.1-0.5,28.8-14.2,28.3-30.3s-14.1-28.8-30.3-28.3c-16.1,0.5-28.8,14.1-28.3,30.3
		S313.5,40.5,329.7,40"/>
	<path style="fill:#6B503F;" d="M313.4,65.5c11.4-0.4,20.3-10,20-21.4c-0.4-11.4-10-20.3-21.4-20c-11.4,0.4-20.3,10-20,21.4
		C292.4,56.9,302,65.9,313.4,65.5"/>
	<path style="fill:#6B503F;" d="M475.5,59.9c11-0.4,19.7-9.7,19.3-20.7s-9.7-19.7-20.7-19.3s-19.7,9.7-19.3,20.7
		S464.5,60.3,475.5,59.9"/>
	<path style="fill:#6B503F;" d="M472.6,76.2c7-0.2,12.6-6.2,12.4-13.2s-6.2-12.6-13.2-12.4s-12.6,6.2-12.4,13.2
		C459.6,70.9,465.5,76.4,472.6,76.2"/>
	<path style="fill:#6B503F;" d="M311.7,80.1c7-0.2,12.6-6.2,12.4-13.2s-6.2-12.6-13.2-12.4s-12.6,6.2-12.4,13.2
		C298.7,74.8,304.7,80.4,311.7,80.1"/>
	<path style="fill:#6B503F;" d="M470,90.7c5-0.2,8.9-4.4,8.7-9.3c-0.2-5-4.4-8.9-9.3-8.7c-5,0.2-8.9,4.4-8.7,9.3
		C460.9,87,465.1,90.9,470,90.7"/>
	<path style="fill:#6B503F;" d="M313.7,92.7c5-0.2,8.9-4.4,8.7-9.3c-0.2-5-4.4-8.9-9.3-8.7s-8.9,4.4-8.7,9.3
		C304.5,89,308.7,92.9,313.7,92.7"/>
	<path style="fill:#A4B6CD;" d="M500.9,544c0.6,1.1,1.1,2.2,1.5,3.3c5.8,16.7-11.9,16.4-22.9,14.2c-11.5-2.4-17.2-9-23.5-10.6
		c-8.3-2.1-12.4-5.7-13.5-11.9c9,6.5,22.4,11.6,36.6,15.8C484.9,547.9,493.4,544.3,500.9,544"/>
	<path style="fill:#A4B6CD;" d="M494.7,537.1c0.6,0.4,1.4,0.2,1.8-0.3c0.4-0.6,0.2-1.4-0.3-1.8c-1-0.7-2.6-1.3-4.5-1.7l0,0
		c0.4,0,0.7-0.1,1-0.4c0.1-0.1,0.2-0.2,0.3-0.3c0.4-0.6,0.2-1.4-0.3-1.8c-1.3-0.9-3.6-1.8-6.4-2.4c0.2,0,0.4,0,0.6,0
		c0.7,0,1.3-0.5,1.4-1.2c0-0.7-0.5-1.3-1.2-1.3c-2-0.1-3.8,0.1-5.3,0.7l0.1,3.7c1.9,0.2,3.7,0.6,5.3,1c-1.1,0.3-2.1,0.8-3,1.3
		c-0.7,0-1.5,0.1-2.2,0.1l0.2,5.2c0.5-0.7,1.1-1.3,1.7-1.9c0.4-0.3,0.7-0.6,1.1-0.9C489.1,535.1,492.9,535.9,494.7,537.1
		 M481.6,526.5c-0.7,0.3-1.4,0.6-2.1,0.9h-0.2c-4.2-0.2-8.6,0.4-11.7,2.2c-0.6,0.4-0.8,1.2-0.4,1.8s1.2,0.8,1.8,0.4
		c2-1.2,4.6-1.7,7.3-1.9c-1.7,1.8-2.9,3.8-3.8,5.5c-0.4,0.4-0.6,1.1-0.2,1.6c0.4,0.6,1.2,0.8,1.8,0.4c1.9-1.1,4.3-1.8,6.7-2.2
		c-1.6,1.8-2.7,3.8-3.6,5.5c-0.3,0.6-0.1,1.4,0.5,1.7s1.4,0.1,1.7-0.5c0.7-1.3,1.5-2.7,2.6-4.1l-0.2-5.2c-1.8,0.2-3.6,0.5-5.2,1
		c0.7-0.9,1.4-1.8,2.3-2.6c0.4-0.4,0.8-0.7,1.3-1c0.5,0,1,0.1,1.6,0.1L481.6,526.5z"/>
	<path style="fill:#A4B6CD;" d="M354.1,548.9c-0.5,1.1-1,2.2-1.3,3.4c-4.6,17,13,15.6,23.8,12.6c11.3-3.1,16.5-10.1,22.7-12.1
		c8.2-2.7,12-6.5,12.7-12.8c-8.5,7.1-21.6,13.1-35.4,18.2C370.3,551.8,361.6,548.8,354.1,548.9"/>
	<path style="fill:#A4B6CD;" d="M372.5,530.2c0.8,0.2,1.5,0.5,2.1,0.8h0.2c4.2-0.5,8.6-0.2,11.8,1.4c0.6,0.3,0.9,1.1,0.6,1.7
		c-0.3,0.6-1.1,0.9-1.7,0.6c-2-1-4.7-1.4-7.4-1.4c1.8,1.7,3.1,3.6,4.2,5.3c0.5,0.4,0.6,1,0.4,1.6c-0.3,0.6-1.1,0.9-1.7,0.6
		c-2-1-4.4-1.5-6.9-1.7c1.7,1.7,3,3.6,3.9,5.2c0.4,0.6,0.2,1.4-0.4,1.8c-0.6,0.4-1.4,0.2-1.8-0.4c-0.8-1.2-1.7-2.6-2.8-3.9l-0.2-5.2
		c1.8,0.1,3.6,0.3,5.3,0.6c-0.7-0.9-1.5-1.7-2.5-2.5c-0.4-0.3-0.9-0.6-1.3-0.9c-0.5,0.1-1,0.2-1.5,0.3L372.5,530.2z M360.2,541.6
		c-0.6,0.4-1.4,0.3-1.8-0.2c-0.4-0.6-0.3-1.4,0.2-1.8c1-0.8,2.5-1.5,4.4-2l0,0c-0.4,0-0.7-0.1-1-0.3c-0.1-0.1-0.3-0.2-0.4-0.3
		c-0.4-0.6-0.3-1.4,0.2-1.8c1.2-1,3.5-2,6.3-2.8c-0.2,0-0.4,0-0.6,0.1c-0.7,0.1-1.3-0.4-1.4-1.1c-0.1-0.7,0.4-1.3,1.1-1.4
		c2-0.3,3.8-0.1,5.3,0.3l0.1,3.7c-1.9,0.3-3.7,0.8-5.2,1.4c1.1,0.3,2.1,0.6,3.1,1.1c0.7,0,1.5,0,2.2,0l0.2,5.2
		c-0.6-0.6-1.2-1.2-1.8-1.8c-0.4-0.3-0.8-0.6-1.2-0.9C365.6,539.3,361.8,540.3,360.2,541.6"/>
</g>
</svg>
