<?xml version="1.0" encoding="utf-8"?>
<!-- Generator: Adobe Illustrator 18.1.1, SVG Export Plug-In . SVG Version: 6.00 Build 0)  -->
<svg version="1.1" xmlns="http://www.w3.org/2000/svg" xmlns:xlink="http://www.w3.org/1999/xlink" x="0px" y="0px"
	 viewBox="0 0 799.9 799.9" enable-background="new 0 0 799.9 799.9" xml:space="preserve">
<g id="Background">
</g>
<g id="Objects">
	<g>
		<g>
			<g>
				<path fill-rule="evenodd" clip-rule="evenodd" d="M528.5,664.7l155.3,66.1c3.5,1.5,5.2,5.6,3.7,9.1l0,0
					c-1.5,3.5-5.6,5.2-9.1,3.7l-155.3-66.1c-3.5-1.5-5.2-5.6-3.7-9.1v0C520.9,664.9,525,663.2,528.5,664.7z"/>
				<path fill-rule="evenodd" clip-rule="evenodd" d="M547,676.1L547,676.1c5.6,2.4,8.3,9,5.9,14.6l-5.7,13.4
					c-2.4,5.6-9,8.3-14.6,5.9l0,0c-5.6-2.4-8.3-9-5.9-14.6l5.7-13.4C534.8,676.4,541.4,673.7,547,676.1z"/>
				<path fill-rule="evenodd" clip-rule="evenodd" d="M669.3,728.1L669.3,728.1c5.6,2.4,8.3,9,5.9,14.6l-5.7,13.4
					c-2.4,5.6-9,8.3-14.6,5.9l0,0c-5.6-2.4-8.3-9-5.9-14.6l5.7-13.4C657.1,728.4,663.6,725.7,669.3,728.1z"/>
				<path fill-rule="evenodd" clip-rule="evenodd" d="M605.7,698.9L605.7,698.9c5.6,2.4,8.3,9,5.9,14.6l-5.7,13.4
					c-2.4,5.6-9,8.3-14.6,5.9l0,0c-5.6-2.4-8.3-9-5.9-14.6l5.7-13.4C593.5,699.1,600.1,696.5,605.7,698.9z"/>
				
					<rect x="627.8" y="586" transform="matrix(-0.9203 -0.3913 0.3913 -0.9203 970.2607 1461.9651)" fill-rule="evenodd" clip-rule="evenodd" width="12.6" height="92.3"/>
				<path d="M786,587.5l-14,33c-4.1,9.5-11.7,16.6-20.6,20.2c-9,3.6-19.3,3.8-28.9-0.2l-155.8-66.3c-9.5-4.1-16.6-11.7-20.2-20.6
					c-3.6-9-3.8-19.3,0.2-28.8l14-33l7.6,3.2l-14,33c-3.2,7.4-3,15.5-0.2,22.5c2.8,7,8.3,12.9,15.7,16.1l155.8,66.3
					c7.4,3.2,15.5,3,22.5,0.2c7-2.8,12.9-8.3,16.1-15.7l14-33L786,587.5z"/>
				<path fill-rule="evenodd" clip-rule="evenodd" fill="#C17629" d="M628.7,606.7l27.5,11.7L718,472.9c3.2-7.6-0.3-16.4-7.9-19.6h0
					c-7.6-3.2-16.4,0.3-19.6,7.9L628.7,606.7z"/>
				<path fill-rule="evenodd" clip-rule="evenodd" fill="#D7914C" d="M589.4,550.4L724,607.7c9.2,3.9,13.6,14.7,9.6,23.9l0,0
					c-3.9,9.2-14.7,13.6-23.9,9.6l-134.6-57.2c-9.2-3.9-13.6-14.7-9.6-23.9l0,0C569.4,550.8,580.2,546.5,589.4,550.4z"/>
				
					<rect x="601.1" y="648.2" transform="matrix(-0.9202 -0.3914 0.3914 -0.9202 918.9201 1536.4323)" fill-rule="evenodd" clip-rule="evenodd" fill="#C17629" width="29.8" height="52.8"/>
				<path fill-rule="evenodd" clip-rule="evenodd" fill="#D7914C" d="M783.3,417.6l-17,104.6c-3.7,22.7-34.2,32.6-55.3,23.6
					l-68.2-29c-21.1-9-35.1-37.8-21.3-56.2l63.6-84.8C715.4,335.4,785.2,369.7,783.3,417.6z"/>
				<path fill-rule="evenodd" clip-rule="evenodd" fill="#C17629" d="M781.3,570.3l12.8,5.5c4,1.7,5.9,6.4,4.2,10.3l-4.8,11.2
					c-1.7,4-6.4,5.9-10.3,4.2l-12.8-5.5c-4-1.7-5.9-6.4-4.2-10.3l4.8-11.2C772.6,570.5,777.3,568.6,781.3,570.3z"/>
				<path fill-rule="evenodd" clip-rule="evenodd" fill="#C17629" d="M563.7,477.8l12.8,5.5c4,1.7,5.9,6.4,4.2,10.3l-4.8,11.2
					c-1.7,4-6.4,5.9-10.3,4.2l-12.8-5.5c-4-1.7-5.9-6.4-4.2-10.3l4.8-11.2C555,477.9,559.7,476.1,563.7,477.8z"/>
			</g>
			<path fill-rule="evenodd" clip-rule="evenodd" fill="#6B503F" d="M376,784.7c204.6,0,371.5-6.3,371.5-14c0-7.7-166.9-14-371.5-14
				S4.5,763,4.5,770.7C4.5,778.4,171.4,784.7,376,784.7z"/>
			<g>
				<rect x="29.2" y="739" fill-rule="evenodd" clip-rule="evenodd" fill="#D08234" width="128.3" height="15.1"/>
				<rect x="190.3" y="739" fill-rule="evenodd" clip-rule="evenodd" fill="#D08234" width="128.3" height="15.1"/>
				<g>
					<polygon fill-rule="evenodd" clip-rule="evenodd" fill="#D7914C" points="12.5,769.8 75.2,555.9 93.4,555.9 30.7,769.8 					
						"/>
					<polygon fill-rule="evenodd" clip-rule="evenodd" fill="#D7914C" points="174.3,769.8 111.6,555.9 93.4,555.9 156.1,769.8 
											"/>
					<polygon fill-rule="evenodd" clip-rule="evenodd" fill="#D7914C" points="176.2,769.8 238.9,555.9 257.1,555.9 194.4,769.8 
											"/>
					<polygon fill-rule="evenodd" clip-rule="evenodd" fill="#D7914C" points="338,769.8 275.3,555.9 257.1,555.9 319.8,769.8 					
						"/>
				</g>
				<rect x="62.2" y="557.4" fill-rule="evenodd" clip-rule="evenodd" fill="#C17629" width="62.3" height="15.1"/>
				<g>
					<polygon fill-rule="evenodd" clip-rule="evenodd" fill="#C17629" points="56.4,620.3 75.2,555.9 93.4,555.9 74.5,620.3 					
						"/>
					<polygon fill-rule="evenodd" clip-rule="evenodd" fill="#C17629" points="130.5,620.3 111.6,555.9 93.4,555.9 112.3,620.3 
											"/>
					<polygon fill-rule="evenodd" clip-rule="evenodd" fill="#C17629" points="220,620.3 238.9,555.9 257.1,555.9 238.2,620.3 					
						"/>
					<polygon fill-rule="evenodd" clip-rule="evenodd" fill="#C17629" points="294.2,620.3 275.3,555.9 257.1,555.9 276,620.3 					
						"/>
				</g>
				<rect x="224.8" y="557.4" fill-rule="evenodd" clip-rule="evenodd" fill="#C17629" width="62.3" height="15.1"/>
				<rect x="19.9" y="533.6" fill-rule="evenodd" clip-rule="evenodd" fill="#D08234" width="282.7" height="24.2"/>
				<rect x="112.9" y="533.6" fill-rule="evenodd" clip-rule="evenodd" fill="#D7914C" width="217.6" height="24.2"/>
			</g>
			<g>
				<g>
					<polygon fill-rule="evenodd" clip-rule="evenodd" fill="#E5E5E5" points="168.3,467.2 209.4,460.2 234.6,491.8 155,505.3 					
						"/>
					<path fill-rule="evenodd" clip-rule="evenodd" d="M72.3,363.8l193.6-32.8c5.4-0.9,10.7,2.8,11.6,8.2l17.9,105.4
						c0.9,5.4-2.8,10.7-8.2,11.6L93.6,488.9c-5.4,0.9-10.7-2.8-11.6-8.2L64.1,375.3C63.2,369.9,66.9,364.7,72.3,363.8z"/>
					
						<rect x="77.2" y="352.4" transform="matrix(-0.9859 0.1672 -0.1672 -0.9859 422.5085 772.363)" fill-rule="evenodd" clip-rule="evenodd" fill="#FFFFFF" width="203.1" height="103.2"/>
					<circle fill-rule="evenodd" clip-rule="evenodd" fill="#FFFFFF" cx="283.6" cy="447.7" r="1.3"/>
					<circle fill-rule="evenodd" clip-rule="evenodd" fill="#FFFFFF" cx="278.5" cy="448.5" r="1.3"/>
					<circle fill-rule="evenodd" clip-rule="evenodd" fill="#FFFFFF" cx="273.5" cy="449.4" r="1.3"/>
					<path fill-rule="evenodd" clip-rule="evenodd" fill="#FFFFFF" d="M74.8,508L311.1,468c2.9-0.5,5.7,1.5,6.2,4.4l0,0
						c0.5,2.9-1.5,5.7-4.4,6.2L76.6,518.6c-2.9,0.5-5.7-1.5-6.2-4.4l0,0C70,511.3,71.9,508.5,74.8,508z"/>
					<path fill-rule="evenodd" clip-rule="evenodd" d="M317.3,472.3c0.5,2.9-1.5,5.7-4.4,6.2L76.6,518.6c-2.9,0.5-5.7-1.5-6.2-4.4
						L317.3,472.3z"/>
					<polygon fill-rule="evenodd" clip-rule="evenodd" points="287.4,456.1 92.1,489.1 70.6,514.8 317.1,473.3 					"/>
				</g>
				<g>
					<path fill="#8498B2" d="M149.9,395.3l-35.7,59.8l-7.5-4.5l35.7-59.8l6.8-0.8L149.9,395.3L149.9,395.3z M142.4,390.8l2.9-4.8
						l3.9,4L142.4,390.8L142.4,390.8z M189.8,443.2l-46.7-47.2l6.2-6.1l46.7,47.2l0.8,5L189.8,443.2L189.8,443.2z M196.8,442.1
						l-2.7,5.4l-4.3-4.3L196.8,442.1L196.8,442.1z M266.9,301.4l-70.1,140.7l-7.8-3.9l70.1-140.7L266.9,301.4L266.9,301.4z
						 M285.5,254.3l0.1,59.5l-47.7-23.7L285.5,254.3z"/>
				</g>
			</g>
			<g>
				<path fill-rule="evenodd" clip-rule="evenodd" fill="#DCA77E" d="M459.2,420.1l27.1,83.1c3.4,10.6,14.9,16.4,25.5,13
					c10.6-3.4,16.4-14.9,13-25.5l-27.1-83.1C489.8,383.4,451.7,397.2,459.2,420.1"/>
				<path fill-rule="evenodd" clip-rule="evenodd" d="M500.2,737.2c10.2,14.1,23.3,21.9,26.9,32.2c5.7,16.5-11.5,16.4-22.4,14.3
					c-11.8-2.3-17.5-9-23.9-10.6c-15.5-3.9-16.2-13-10.7-34.8C475.5,716.4,492,724,500.2,737.2"/>
				<path fill-rule="evenodd" clip-rule="evenodd" d="M402,740.5c-9.2,14.7-21.8,23.5-24.6,33.9c-4.8,17.4,14,15.6,24.8,12.3
					c10.6-3.3,15.7-9.9,21.7-11.8c15.2-5,15.3-14.1,8.4-35.4C425.3,718.1,409.4,726.8,402,740.5"/>
				<path fill-rule="evenodd" clip-rule="evenodd" fill="#DCA77E" d="M366.1,550.7L366.1,550.7c1.8-2,5-2.1,7-0.2l8.7,8.1
					c2,1.8,2.1,5,0.2,7c-1.8,2-5,2.1-7,0.2l-8.7-8.1C364.3,555.8,364.2,552.7,366.1,550.7"/>
				<path fill-rule="evenodd" clip-rule="evenodd" fill="#E6952E" d="M485,551.5l-108.7,3.7L392,752.9l45.2-1.5l-8.4-143.7
					c-0.7-9.2,8.2-10.3,10-0.3l27.9,143l45.2-1.5L485,551.5z"/>
				<path fill-rule="evenodd" clip-rule="evenodd" fill="#DCA77E" d="M392.1,427.3l-40.5,77.5c-5.2,9.9-17.5,13.7-27.3,8.5
					c-9.9-5.2-13.7-17.5-8.5-27.3l40.5-77.5C368,386,403.2,405.9,392.1,427.3"/>
				<path fill-rule="evenodd" clip-rule="evenodd" fill="#8498B2" d="M392.1,427.3L365.5,478l-34.1-22.2l24.7-47.3
					C368,386,403.2,405.9,392.1,427.3"/>
				<path fill-rule="evenodd" clip-rule="evenodd" fill="#8498B2" d="M459.2,420.1l16.5,50.5l38.7-11.9l-16.7-51.2
					C489.8,383.4,451.7,397.2,459.2,420.1"/>
				
					<rect x="373.8" y="396.7" transform="matrix(0.9994 -3.399324e-002 3.399324e-002 0.9994 -16.1539 14.8362)" fill-rule="evenodd" clip-rule="evenodd" fill="#425156" width="108.8" height="171.5"/>
				<path fill-rule="evenodd" clip-rule="evenodd" fill="#8498B2" d="M395.1,397.8l60.4-2.1l0.1,3.8c0.6,16.6-12.6,30.7-29.2,31.3
					c-16.6,0.6-30.7-12.6-31.3-29.2L395.1,397.8z"/>
				<path fill-rule="evenodd" clip-rule="evenodd" fill="#DCA77E" d="M422.6,315.9L422.6,315.9c-13.5,0.5-24.2,11.9-23.7,25.4
					l1.9,56.3c0.5,13.5,11.9,24.2,25.4,23.7c13.5-0.5,24.2-11.9,23.7-25.4l-1.9-56.3C447.5,326.2,436.1,315.5,422.6,315.9"/>
				<path fill-rule="evenodd" clip-rule="evenodd" fill="#B8865F" d="M400.1,379.3L400.1,379.3c0.7,21.1,49.8,19.4,49.1-1.7
					C448.5,356.5,399.4,358.2,400.1,379.3"/>
				<path fill-rule="evenodd" clip-rule="evenodd" fill="#6B503F" d="M364.1,365.5c16.1-0.5,28.8-14.2,28.3-30.3
					c-0.5-16.1-14.2-28.8-30.3-28.3s-28.8,14.2-28.3,30.3C334.3,353.4,347.9,366.1,364.1,365.5"/>
				<path fill-rule="evenodd" clip-rule="evenodd" fill="#6B503F" d="M478.7,362.6c16.1-0.5,28.8-14.1,28.3-30.3
					c-0.5-16.1-14.2-28.8-30.3-28.3s-28.8,14.1-28.3,30.3S462.6,363.1,478.7,362.6"/>
				<path fill-rule="evenodd" clip-rule="evenodd" fill="#6B503F" d="M341.6,344.1c16.1-0.5,28.8-14.2,28.3-30.3
					c-0.5-16.1-14.1-28.8-30.3-28.3c-16.1,0.5-28.8,14.1-28.3,30.3C311.9,331.9,325.5,344.6,341.6,344.1"/>
				<path fill-rule="evenodd" clip-rule="evenodd" fill="#6B503F" d="M496.7,336.7c16.1-0.5,28.8-14.1,28.3-30.3
					c-0.5-16.1-14.1-28.8-30.3-28.3c-16.1,0.5-28.8,14.1-28.3,30.3C466.9,324.6,480.6,337.3,496.7,336.7"/>
				<path fill-rule="evenodd" clip-rule="evenodd" fill="#6B503F" d="M336.5,316.2c16.1-0.5,28.8-14.2,28.3-30.3
					c-0.5-16.1-14.2-28.8-30.3-28.3c-16.1,0.5-28.8,14.2-28.3,30.3C306.7,304.1,320.3,316.8,336.5,316.2"/>
				<path fill-rule="evenodd" clip-rule="evenodd" fill="#6B503F" d="M499.9,306.1c16.1-0.5,28.8-14.2,28.3-30.3
					c-0.5-16.1-14.1-28.8-30.3-28.3c-16.1,0.5-28.8,14.2-28.3,30.3C470.2,294,483.8,306.7,499.9,306.1"/>
				<path fill-rule="evenodd" clip-rule="evenodd" fill="#DCA77E" d="M418.1,185.1c138.4-4.7,111.9,197.3,6.8,200.8
					C319.9,389.5,279.8,189.8,418.1,185.1"/>
				<path fill-rule="evenodd" clip-rule="evenodd" fill="#DCA77E" d="M374.8,556.3l-2.1-6.3l-20.5,0.9L335,562.3l2.1,6.3
					C346.4,596.3,385.6,588.4,374.8,556.3"/>
				<path fill-rule="evenodd" clip-rule="evenodd" fill="#DCA77E" d="M372.7,550.1l-19.3-60.2c-3.4-10.6-15.1-16.3-25.6-12.7
					c-10.6,3.5-16.3,15.1-12.7,25.6l20,59.6L372.7,550.1z"/>
				<path fill-rule="evenodd" clip-rule="evenodd" fill="#DCA77E" d="M495,565.3L495,565.3c-2.7,0.2-4.8,2.5-4.6,5.2l0.7,11.9
					c0.2,2.7,2.5,4.8,5.2,4.6c2.7-0.1,4.8-2.5,4.6-5.2l-0.7-11.9C500.1,567.2,497.7,565.1,495,565.3"/>
				<path fill-rule="evenodd" clip-rule="evenodd" fill="#DCA77E" d="M490.4,570.5l-0.3-6.6l17.7-7l21.9,5l0.3,6.6
					C531.2,597.7,491.8,604.2,490.4,570.5"/>
				<path fill-rule="evenodd" clip-rule="evenodd" fill="#DCA77E" d="M490.1,563.9l-3.4-63.2c-0.6-11.1,8.3-20.6,19.4-21
					c11.1-0.4,20.6,8.3,21,19.4l2.5,62.8L490.1,563.9z"/>
				<path fill-rule="evenodd" clip-rule="evenodd" fill="#DCA77E" d="M517.3,270.2c-7-1.5-15.2,8.4-18.2,22.1
					c-3,13.8,0.2,26.2,7.3,27.7c7,1.5,15.2-8.4,18.2-22.1S524.3,271.8,517.3,270.2"/>
				<path fill-rule="evenodd" clip-rule="evenodd" fill="#DCA77E" d="M324.9,276.8c6.9-2,15.7,7.3,19.7,20.8
					c3.9,13.5,1.5,26.1-5.4,28.2c-6.9,2-15.7-7.3-19.7-20.8C315.6,291.4,318,278.8,324.9,276.8"/>
				<path fill-rule="evenodd" clip-rule="evenodd" fill="#425156" d="M393.5,305.8c3.7-0.1,6.5-5.7,6.2-12.4
					c-0.2-6.7-3.4-12.1-7.1-12c-3.7,0.1-6.5,5.7-6.2,12.4C386.6,300.6,389.8,305.9,393.5,305.8"/>
				<path fill-rule="evenodd" clip-rule="evenodd" fill="#425156" d="M450.9,303.9c3.7-0.1,6.5-5.7,6.2-12.4
					c-0.2-6.7-3.4-12.1-7.1-12c-3.7,0.1-6.5,5.7-6.2,12.4C444.1,298.6,447.2,304,450.9,303.9"/>
				<path fill-rule="evenodd" clip-rule="evenodd" fill="#9F7049" d="M388.2,345.7c7.5,5.8,22.5,13,35.8,12.7
					c17.9-0.4,31.5-10.2,34.9-16.4c0,0-15.7,11.6-35,12.2C406.8,354.9,388.2,345.7,388.2,345.7"/>
				<path fill-rule="evenodd" clip-rule="evenodd" fill="#B8865F" d="M409.2,319.1c5.6,13,22.2,12.2,27-0.9
					C428.8,325.7,417.4,326.4,409.2,319.1"/>
				<path fill-rule="evenodd" clip-rule="evenodd" fill="#6B503F" d="M442.9,263.2c5.1-4.1,14.1-2,18.8,2.7c2.4,2.4,0.5,2.7-1.1,1.3
					c-5.1-4.3-11.4-4.1-16.4-1.3C441.5,267.4,440.1,265.5,442.9,263.2"/>
				<path fill-rule="evenodd" clip-rule="evenodd" fill="#6B503F" d="M400,264.7c-5.5-3.4-14.2-0.3-18.3,4.9
					c-2.1,2.6-0.1,2.7,1.3,1.2c4.6-4.8,10.8-5.4,16.2-3.2C402,268.7,403.1,266.6,400,264.7"/>
				<path fill-rule="evenodd" clip-rule="evenodd" fill="#6B503F" d="M360.7,248.8c16.1-0.5,28.8-14.2,28.3-30.3
					c-0.5-16.1-14.1-28.8-30.3-28.3c-16.1,0.5-28.8,14.2-28.3,30.3C331,236.7,344.6,249.4,360.7,248.8"/>
				<path fill-rule="evenodd" clip-rule="evenodd" fill="#6B503F" d="M389,235c16.1-0.5,28.8-14.2,28.3-30.3
					c-0.5-16.1-14.1-28.8-30.3-28.3c-16.1,0.5-28.8,14.2-28.3,30.3C359.3,222.8,372.9,235.5,389,235"/>
				<path fill-rule="evenodd" clip-rule="evenodd" fill="#6B503F" d="M432.8,228.9c16.1-0.5,28.8-14.1,28.3-30.3
					c-0.5-16.1-14.1-28.8-30.3-28.3c-16.1,0.5-28.8,14.2-28.3,30.3C403.1,216.8,416.7,229.5,432.8,228.9"/>
				<path fill-rule="evenodd" clip-rule="evenodd" fill="#6B503F" d="M472.7,242c16.1-0.5,28.8-14.2,28.3-30.3
					c-0.5-16.1-14.2-28.8-30.3-28.3c-16.1,0.5-28.8,14.2-28.3,30.3C443,229.8,456.6,242.5,472.7,242"/>
				<path fill-rule="evenodd" clip-rule="evenodd" fill="#6B503F" d="M496.5,273.8c16.1-0.5,28.8-14.2,28.3-30.3
					c-0.5-16.1-14.2-28.8-30.3-28.3c-16.1,0.5-28.8,14.2-28.3,30.3C466.8,261.6,480.4,274.3,496.5,273.8"/>
				<path fill-rule="evenodd" clip-rule="evenodd" fill="#6B503F" d="M336.7,280c16.1-0.5,28.8-14.2,28.3-30.3
					c-0.5-16.1-14.1-28.8-30.3-28.3c-16.1,0.5-28.8,14.2-28.3,30.3C307,267.8,320.6,280.5,336.7,280"/>
				<path fill-rule="evenodd" clip-rule="evenodd" fill="#6B503F" d="M425,245.5c16.1-0.5,28.8-14.2,28.3-30.3
					c-0.5-16.1-14.2-28.8-30.3-28.3s-28.8,14.2-28.3,30.3C395.3,233.3,408.9,246,425,245.5"/>
				<path fill-rule="evenodd" clip-rule="evenodd" fill="#6B503F" d="M385,249.4c16.1-0.5,28.8-14.2,28.3-30.3
					c-0.5-16.1-14.2-28.8-30.3-28.3s-28.8,14.2-28.3,30.3C355.3,237.2,368.9,249.9,385,249.4"/>
				<path fill-rule="evenodd" clip-rule="evenodd" fill="#6B503F" d="M466.5,249.1c16.1-0.5,28.8-14.2,28.3-30.3
					c-0.5-16.1-14.1-28.8-30.3-28.3c-16.1,0.5-28.8,14.2-28.3,30.3C436.7,236.9,450.3,249.6,466.5,249.1"/>
				<path fill="none" stroke="#6B503F" stroke-width="0.216" stroke-miterlimit="22.926" d="M466.5,249.1
					c16.1-0.5,28.8-14.2,28.3-30.3c-0.5-16.1-14.1-28.8-30.3-28.3c-16.1,0.5-28.8,14.2-28.3,30.3
					C436.7,236.9,450.3,249.6,466.5,249.1z"/>
				<path fill-rule="evenodd" clip-rule="evenodd" fill="#6B503F" d="M487.6,260.6c13.7-0.5,24.5-12,24.1-25.8
					c-0.5-13.7-12-24.5-25.8-24.1c-13.7,0.5-24.5,12-24.1,25.8C462.4,250.2,473.9,261,487.6,260.6"/>
				<path fill-rule="evenodd" clip-rule="evenodd" fill="#6B503F" d="M354.3,262c16.1-0.5,28.8-14.2,28.3-30.3
					c-0.5-16.1-14.1-28.8-30.3-28.3c-16.1,0.5-28.8,14.1-28.3,30.3S338.1,262.5,354.3,262"/>
				<path fill-rule="evenodd" clip-rule="evenodd" fill="#6B503F" d="M338,287.5c11.4-0.4,20.3-10,20-21.4
					c-0.4-11.4-10-20.3-21.4-20c-11.4,0.4-20.3,10-20,21.4C317,278.9,326.6,287.9,338,287.5"/>
				<path fill-rule="evenodd" clip-rule="evenodd" fill="#6B503F" d="M500.1,281.9c11-0.4,19.7-9.7,19.3-20.7
					c-0.4-11-9.7-19.7-20.7-19.3c-11,0.4-19.7,9.7-19.3,20.7C479.8,273.6,489.1,282.3,500.1,281.9"/>
				<path fill-rule="evenodd" clip-rule="evenodd" fill="#6B503F" d="M497.2,298.2c7-0.2,12.6-6.2,12.4-13.2
					c-0.2-7-6.2-12.6-13.2-12.4c-7,0.2-12.6,6.2-12.4,13.2C484.2,292.9,490.1,298.4,497.2,298.2"/>
				<path fill-rule="evenodd" clip-rule="evenodd" fill="#6B503F" d="M336.3,302.1c7-0.2,12.6-6.2,12.4-13.2
					c-0.2-7-6.2-12.6-13.2-12.4c-7,0.2-12.6,6.2-12.4,13.2C323.3,296.8,329.3,302.4,336.3,302.1"/>
				<path fill-rule="evenodd" clip-rule="evenodd" fill="#6B503F" d="M494.6,312.7c5-0.2,8.9-4.4,8.7-9.3c-0.2-5-4.4-8.9-9.3-8.7
					c-5,0.2-8.9,4.4-8.7,9.3C485.5,309,489.7,312.9,494.6,312.7"/>
				<path fill-rule="evenodd" clip-rule="evenodd" fill="#6B503F" d="M338.3,314.7c5-0.2,8.9-4.4,8.7-9.3c-0.2-5-4.4-8.9-9.3-8.7
					s-8.9,4.4-8.7,9.3C329.1,311,333.3,314.9,338.3,314.7"/>
				<path fill-rule="evenodd" clip-rule="evenodd" fill="#A4B6CD" d="M525.5,766c0.6,1.1,1.1,2.2,1.5,3.3
					c5.8,16.7-11.9,16.4-22.9,14.2c-11.5-2.4-17.2-9-23.5-10.6c-8.3-2.1-12.4-5.7-13.5-11.9c9,6.5,22.4,11.6,36.6,15.8
					C509.5,769.9,518,766.3,525.5,766"/>
				<path fill="#A4B6CD" d="M519.3,759.1c0.6,0.4,1.4,0.2,1.8-0.3c0.4-0.6,0.2-1.4-0.3-1.8c-1-0.7-2.6-1.3-4.5-1.7l0,0
					c0.4,0,0.7-0.1,1-0.4c0.1-0.1,0.2-0.2,0.3-0.3c0.4-0.6,0.2-1.4-0.3-1.8c-1.3-0.9-3.6-1.8-6.4-2.4c0.2,0,0.4,0,0.6,0
					c0.7,0,1.3-0.5,1.4-1.2c0-0.7-0.5-1.3-1.2-1.3c-2-0.1-3.8,0.1-5.3,0.7l0.1,3.7c1.9,0.2,3.7,0.6,5.3,1c-1.1,0.3-2.1,0.8-3,1.3
					c-0.7,0-1.5,0.1-2.2,0.1l0.2,5.2c0.5-0.7,1.1-1.3,1.7-1.9c0.4-0.3,0.7-0.6,1.1-0.9C513.7,757.1,517.5,757.9,519.3,759.1
					 M506.2,748.5c-0.7,0.3-1.4,0.6-2.1,0.9l-0.2,0c-4.2-0.2-8.6,0.4-11.7,2.2c-0.6,0.4-0.8,1.2-0.4,1.8c0.4,0.6,1.2,0.8,1.8,0.4
					c2-1.2,4.6-1.7,7.3-1.9c-1.7,1.8-2.9,3.8-3.8,5.5c-0.4,0.4-0.6,1.1-0.2,1.6c0.4,0.6,1.2,0.8,1.8,0.4c1.9-1.1,4.3-1.8,6.7-2.2
					c-1.6,1.8-2.7,3.8-3.6,5.5c-0.3,0.6-0.1,1.4,0.5,1.7c0.6,0.3,1.4,0.1,1.7-0.5c0.7-1.3,1.5-2.7,2.6-4.1l-0.2-5.2
					c-1.8,0.2-3.6,0.5-5.2,1c0.7-0.9,1.4-1.8,2.3-2.6c0.4-0.4,0.8-0.7,1.3-1c0.5,0,1,0.1,1.6,0.1L506.2,748.5z"/>
				<path fill-rule="evenodd" clip-rule="evenodd" fill="#A4B6CD" d="M378.7,770.9c-0.5,1.1-1,2.2-1.3,3.4
					c-4.6,17,13,15.6,23.8,12.6c11.3-3.1,16.5-10.1,22.7-12.1c8.2-2.7,12-6.5,12.7-12.8c-8.5,7.1-21.6,13.1-35.4,18.2
					C394.9,773.8,386.2,770.8,378.7,770.9"/>
				<path fill="#A4B6CD" d="M397.1,752.2c0.8,0.2,1.5,0.5,2.1,0.8l0.2,0c4.2-0.5,8.6-0.2,11.8,1.4c0.6,0.3,0.9,1.1,0.6,1.7
					c-0.3,0.6-1.1,0.9-1.7,0.6c-2-1-4.7-1.4-7.4-1.4c1.8,1.7,3.1,3.6,4.2,5.3c0.5,0.4,0.6,1,0.4,1.6c-0.3,0.6-1.1,0.9-1.7,0.6
					c-2-1-4.4-1.5-6.9-1.7c1.7,1.7,3,3.6,3.9,5.2c0.4,0.6,0.2,1.4-0.4,1.8c-0.6,0.4-1.4,0.2-1.8-0.4c-0.8-1.2-1.7-2.6-2.8-3.9
					l-0.2-5.2c1.8,0.1,3.6,0.3,5.3,0.6c-0.7-0.9-1.5-1.7-2.5-2.5c-0.4-0.3-0.9-0.6-1.3-0.9c-0.5,0.1-1,0.2-1.5,0.3L397.1,752.2z
					 M384.8,763.6c-0.6,0.4-1.4,0.3-1.8-0.2c-0.4-0.6-0.3-1.4,0.2-1.8c1-0.8,2.5-1.5,4.4-2l0,0c-0.4,0-0.7-0.1-1-0.3
					c-0.1-0.1-0.3-0.2-0.4-0.3c-0.4-0.6-0.3-1.4,0.2-1.8c1.2-1,3.5-2,6.3-2.8c-0.2,0-0.4,0-0.6,0.1c-0.7,0.1-1.3-0.4-1.4-1.1
					c-0.1-0.7,0.4-1.3,1.1-1.4c2-0.3,3.8-0.1,5.3,0.3l0.1,3.7c-1.9,0.3-3.7,0.8-5.2,1.4c1.1,0.3,2.1,0.6,3.1,1.1c0.7,0,1.5,0,2.2,0
					l0.2,5.2c-0.6-0.6-1.2-1.2-1.8-1.8c-0.4-0.3-0.8-0.6-1.2-0.9C390.2,761.3,386.4,762.3,384.8,763.6"/>
			</g>
		</g>
		<polygon fill-rule="evenodd" clip-rule="evenodd" fill="#FFFFFF" points="225,488.3 170.2,498 169.5,476.5 209.8,469.2 		"/>
	</g>
</g>
</svg>
