<?xml version="1.0" encoding="utf-8"?>
<!-- Generator: Adobe Illustrator 18.1.1, SVG Export Plug-In . SVG Version: 6.00 Build 0)  -->
<svg version="1.1" id="Layer_1" xmlns="http://www.w3.org/2000/svg" xmlns:xlink="http://www.w3.org/1999/xlink" x="0px" y="0px"
	 viewBox="214.3 108 300 300" enable-background="new 214.3 108 300 300" xml:space="preserve">
<g>
	<g>
		<g>
			<g id="phone">
				<g>
					<g>
						<path fill="#171717" d="M438.7,378.9c0,12.5-8.8,22.7-19.6,22.7H302.5c-10.8,0-19.6-10.2-19.6-22.7V139.4
							c0-12.5,8.8-22.7,19.6-22.7h116.6c10.8,0,19.6,10.2,19.6,22.7V378.9L438.7,378.9z"/>
						
							<linearGradient id="SVGID_1_" gradientUnits="userSpaceOnUse" x1="222.3753" y1="430.3539" x2="272.703" y2="324.9496" gradientTransform="matrix(1.2898 0 0 -1.2898 97.982 665.4078)">
							<stop  offset="0" style="stop-color:#535454"/>
							<stop  offset="1" style="stop-color:#171717"/>
						</linearGradient>
						<path fill="url(#SVGID_1_)" d="M419.1,116.7h-69.1l9.2,29.4h66.7v112l12.9,41.4V139.5C438.7,127,429.8,116.7,419.1,116.7z"/>
						<rect x="295.8" y="146.1" fill="#FFFFFF" width="130" height="226.1"/>
					</g>
					<g>
						<path fill="#010101" d="M380.9,132.3h-36.2c-2.2,0-4-2.1-4-4.5c0-2.5,1.8-4.5,4-4.5h36.2c2.2,0,4,2.1,4,4.5
							C385,130.2,383.1,132.3,380.9,132.3z M344.7,125.2c-1.2,0-2.1,1.2-2.1,2.6c0,1.4,0.9,2.6,2.1,2.6h36.2c1.2,0,2.1-1.2,2.1-2.6
							c0-1.4-0.9-2.6-2.1-2.6H344.7z"/>
					</g>
				</g>
				<g id="form">
					<rect x="305.4" y="164.8" fill="#57C3B5" width="114.5" height="24.6"/>
					<rect x="305.4" y="206.3" fill="#57C3B5" width="114.5" height="24.6"/>
					<rect x="305.4" y="248" fill="#57C3B5" width="114.5" height="24.6"/>
					<rect x="305.4" y="289.6" fill="#57C3B5" width="114.5" height="24.6"/>
					<rect x="306.4" y="289" fill="#57C3B5" width="114.5" height="24.6"/>
					<rect x="306.4" y="330.6" fill="#57C3B5" width="114.5" height="24.6"/>
				</g>
			</g>
		</g>
	</g>
</g>
</svg>
