<?xml version="1.0" encoding="utf-8"?>
<!-- Generator: Adobe Illustrator 19.0.0, SVG Export Plug-In . SVG Version: 6.00 Build 0)  -->
<svg version="1.1" id="Layer_1" xmlns="http://www.w3.org/2000/svg" xmlns:xlink="http://www.w3.org/1999/xlink" x="0px" y="0px"
	 viewBox="-270 148.3 300 300" style="enable-background:new -270 148.3 300 300;" xml:space="preserve">
<g>
	<g>
		<g>
			<g id="phone">
				<g>
					<g>
						<path style="fill:#171717;" d="M-47,418c0,12.5-8.8,22.7-19.6,22.7h-116.6c-10.8,0-19.6-10.2-19.6-22.7V178.5
							c0-12.5,8.8-22.7,19.6-22.7h116.6c10.8,0,19.6,10.2,19.6,22.7V418L-47,418z"/>
						
							<linearGradient id="SVGID_1_" gradientUnits="userSpaceOnUse" x1="-275.4911" y1="195.5355" x2="-225.1634" y2="300.9398" gradientTransform="matrix(1.2898 0 0 1.2898 254.474 -102.7554)">
							<stop  offset="0" style="stop-color:#535454"/>
							<stop  offset="1" style="stop-color:#171717"/>
						</linearGradient>
						<path style="fill:url(#SVGID_1_);" d="M-66.6,155.8h-69.1l9.2,29.4h66.7v112l12.9,41.4v-160C-47,166.1-55.9,155.8-66.6,155.8z
							"/>
						<rect x="-189.9" y="185.2" style="fill:#FFFFFF;" width="130" height="226.1"/>
					</g>
					<g>
						<path style="fill:#010101;" d="M-104.8,171.4H-141c-2.2,0-4-2.1-4-4.5c0-2.5,1.8-4.5,4-4.5h36.2c2.2,0,4,2.1,4,4.5
							C-100.7,169.3-102.6,171.4-104.8,171.4z M-141,164.3c-1.2,0-2.1,1.2-2.1,2.6c0,1.4,0.9,2.6,2.1,2.6h36.2
							c1.2,0,2.1-1.2,2.1-2.6c0-1.4-0.9-2.6-2.1-2.6H-141z"/>
					</g>
				</g>
				<g id="form">
					<rect x="-180.3" y="203.9" style="fill:#57C3B5;" width="114.5" height="24.6">
						 <animate attributeName="opacity"
								  values="0;1;1;1;1;1"  dur="1s"/>
					</rect>
					<rect x="-180.3" y="245.4" style="fill:#57C3B5;" width="114.5" height="24.6">
						 <animate attributeName="opacity"
								  values="0;0;1;1;1;1"  dur="1s"/>
					</rect>
					<rect x="-180.3" y="287.1" style="fill:#57C3B5;" width="114.5" height="24.6">
						 <animate attributeName="opacity"
								  values="0;0;0;1;1;1"  dur="1s"/>
					</rect>
					<rect x="-180.3" y="328.7" style="fill:#57C3B5;" width="114.5" height="24.6">
						 <animate attributeName="opacity"
								  values="0;0;0;0;1;1"  dur="1s"/>
					</rect>
					<rect x="-180.3" y="369.7" style="fill:#57C3B5;" width="114.5" height="24.6">
						 <animate attributeName="opacity"
								  values="0;0;0;0;0;1"  dur="1s"/>
					</rect>
				</g>
			</g>
		</g>
	</g>
</g>
</svg>
