<svg version="1.1" id="Camada_1" xmlns="http://www.w3.org/2000/svg" xmlns:xlink="http://www.w3.org/1999/xlink" x="0px" y="0px"
	 viewBox="-62 255.7 486.7 283.3" style="enable-background:new -62 255.7 486.7 283.3;" xml:space="preserve">
<g fill="#FFFFFF">
	<g>
		<path d="M41.1,306.7v108.6c0,10.3,2.2,17.7,6.6,22.3c4.4,4.6,10.6,6.9,18.8,6.9c8.3,0,14.6-2.3,18.8-6.9
			c4.3-4.6,6.4-12,6.4-22.3V306.7h31.7l-56.9-32.8L9.6,306.7H41.1z"/>
		<path d="M131.8,311.5v103.8c0,9.7-1.6,18.4-4.7,25.8c-3.1,7.5-7.5,13.7-13.3,18.8c-5.7,5.1-12.6,8.9-20.6,11.5
			c-8,2.6-17,3.9-26.8,3.9c-9.7,0-18.7-1.3-26.7-3.9c-8.1-2.6-15-6.4-20.7-11.5c-5.8-5.1-10.2-11.3-13.4-18.8
			c-3.2-7.5-4.8-16.1-4.8-25.8V311.8l-29.3,16.9c-9.4,5.4-15.2,15.5-15.2,26.4v92.2c0,10.9,5.8,20.9,15.2,26.4l79.8,46.1
			c9.4,5.4,21,5.4,30.5,0l79.8-46.1c9.4-5.4,15.2-15.5,15.2-26.4v-92.2c0-10.9-5.8-20.9-15.2-26.4L131.8,311.5z"/>
	</g>
	<g>
		<path d="M212.3,486.2v-99.4h-18.4v-24.2h18.4v-10.5c0-13.9,4-24.6,11.9-32.3c8-7.7,19.1-11.5,33.4-11.5
			c4.6,0,10.2,0.8,16.8,2.3l-0.3,25.6c-2.7-0.7-6.1-1-10.1-1c-12.4,0-18.6,5.8-18.6,17.5v9.9H270v24.2h-24.6v99.4L212.3,486.2
			L212.3,486.2z"/>
		<path d="M286.9,330.6c0-5,1.7-9,5-12.2c3.3-3.2,7.8-4.8,13.5-4.8c5.6,0,10.1,1.6,13.5,4.8c3.4,3.2,5,7.3,5,12.2
			c0,5-1.7,9.1-5.1,12.3c-3.4,3.2-7.9,4.8-13.4,4.8c-5.6,0-10-1.6-13.4-4.8C288.6,339.7,286.9,335.6,286.9,330.6z M322,486.2h-33.1
			V362.6H322V486.2z"/>
		<path d="M388.7,332.2v30.4h21.1v24.2h-21.1v61.7c0,4.6,0.9,7.8,2.6,9.8c1.8,2,5.1,3,10.1,3c3.7,0,6.9-0.3,9.7-0.8v25
			c-6.5,2-13.1,3-20,3c-23.2,0-35-11.7-35.4-35.1v-66.6h-18v-24.2h18v-30.4H388.7z"/>
	</g>
</g>
</svg>
