<?xml version="1.0" encoding="utf-8"?>
<!-- Generator: Adobe Illustrator 19.0.0, SVG Export Plug-In . SVG Version: 6.00 Build 0)  -->
<svg version="1.1" id="Camada_2" xmlns="http://www.w3.org/2000/svg" xmlns:xlink="http://www.w3.org/1999/xlink" x="0px" y="0px"
	 viewBox="-54 258.7 501.3 277.3" style="enable-background:new -54 258.7 501.3 277.3;" xml:space="preserve">
<style type="text/css">
	.st0{fill:#69AC92;}
	.st1{fill:#282828;}
</style>
<g>
	<g>
		<g>
			<path class="st0" d="M54.1,305.2v108.6c0,10.3,2.2,17.7,6.6,22.3c4.4,4.6,10.6,6.9,18.8,6.9c8.3,0,14.6-2.3,18.8-6.9
				c4.3-4.6,6.4-12,6.4-22.3V305.2h31.7l-56.9-32.8l-56.9,32.8H54.1z"/>
			<path class="st0" d="M144.8,310v103.8c0,9.7-1.6,18.4-4.7,25.8c-3.1,7.5-7.5,13.7-13.3,18.8c-5.7,5.1-12.6,8.9-20.6,11.5
				c-8,2.6-17,3.9-26.8,3.9c-9.7,0-18.7-1.3-26.7-3.9c-8.1-2.6-15-6.4-20.7-11.5c-5.8-5.1-10.2-11.3-13.4-18.8
				c-3.2-7.5-4.8-16.1-4.8-25.8V310.3l-29.3,16.9c-9.4,5.4-15.2,15.5-15.2,26.4v92.2c0,10.9,5.8,20.9,15.2,26.4l79.8,46.1
				c9.4,5.4,21,5.4,30.5,0l79.8-46.1c9.4-5.4,15.2-15.5,15.2-26.4v-92.2c0-10.9-5.8-20.9-15.2-26.4L144.8,310z"/>
		</g>
	</g>
	<g>
		<g>
			<path class="st1" d="M225.4,484.6v-99.4H207V361h18.4v-10.5c0-13.9,4-24.6,11.9-32.3c8-7.7,19.1-11.5,33.4-11.5
				c4.6,0,10.2,0.8,16.8,2.3l-0.3,25.6c-2.7-0.7-6.1-1-10.1-1c-12.4,0-18.6,5.8-18.6,17.5v9.9H283v24.2h-24.6v99.4H225.4z"/>
			<path class="st1" d="M299.9,329.1c0-4.9,1.7-9,5-12.2c3.3-3.2,7.8-4.8,13.5-4.8c5.6,0,10.1,1.6,13.5,4.8c3.4,3.2,5,7.3,5,12.2
				c0,5-1.7,9.1-5.1,12.3c-3.4,3.2-7.9,4.8-13.4,4.8c-5.6,0-10-1.6-13.4-4.8C301.6,338.2,299.9,334.1,299.9,329.1z M335,484.6h-33.1
				V361H335V484.6z"/>
			<path class="st1" d="M401.7,330.7V361h21.1v24.2h-21.1v61.7c0,4.6,0.9,7.8,2.6,9.8c1.8,2,5.1,3,10.1,3c3.7,0,6.9-0.3,9.7-0.8v25
				c-6.5,2-13.1,3-20,3c-23.2,0-35-11.7-35.4-35.1v-66.6h-18V361h18v-30.4H401.7z"/>
		</g>
	</g>
</g>
</svg>
