<?xml version="1.0" encoding="utf-8"?>
<!-- Generator: Adobe Illustrator 18.1.1, SVG Export Plug-In . SVG Version: 6.00 Build 0)  -->
<svg version="1.1" id="Layer_1" xmlns="http://www.w3.org/2000/svg" xmlns:xlink="http://www.w3.org/1999/xlink" x="0px" y="0px"
	 viewBox="214.3 108 300 300" enable-background="new 214.3 108 300 300" xml:space="preserve">
<g>
	<g>
		<g>
			<g id="phone">
				<g>
					<g>
						<path fill="#171717" d="M446.7,376.9c0,12.5-8.8,22.7-19.6,22.7H310.5c-10.8,0-19.6-10.2-19.6-22.7V137.4
							c0-12.5,8.8-22.7,19.6-22.7h116.6c10.8,0,19.6,10.2,19.6,22.7V376.9L446.7,376.9z"/>
						
							<linearGradient id="SVGID_1_" gradientUnits="userSpaceOnUse" x1="228.5779" y1="431.9045" x2="278.9057" y2="326.5002" gradientTransform="matrix(1.2898 0 0 -1.2898 97.982 665.4078)">
							<stop  offset="0" style="stop-color:#535454"/>
							<stop  offset="1" style="stop-color:#171717"/>
						</linearGradient>
						<path fill="url(#SVGID_1_)" d="M427.1,114.7h-69.1l9.2,29.4h66.7v112l12.9,41.4V137.5C446.7,125,437.8,114.7,427.1,114.7z"/>
						<rect x="303.8" y="144.1" fill="#FFFFFF" width="130" height="226.1"/>
					</g>
					<g>
						<path fill="#010101" d="M388.9,130.3h-36.2c-2.2,0-4-2.1-4-4.5c0-2.5,1.8-4.5,4-4.5h36.2c2.2,0,4,2.1,4,4.5
							C393,128.2,391.1,130.3,388.9,130.3z M352.7,123.2c-1.2,0-2.1,1.2-2.1,2.6c0,1.4,0.9,2.6,2.1,2.6h36.2c1.2,0,2.1-1.2,2.1-2.6
							c0-1.4-0.9-2.6-2.1-2.6H352.7z"/>
					</g>
				</g>
				<g id="Email_1_">
					<g>
						<polygon fill="#81D2E4" points="416.9,234 322.8,234 369.9,269.7 						"/>
						<polygon fill="#57C3B5" points="416.9,234 322.8,234 369.9,198.4 						"/>
						<g>
							<rect x="337" y="216.2" fill="#FFE7B8" width="65.8" height="67.6"/>
							<rect x="343.9" y="224.4" fill="#57C3B5" width="51.1" height="3"/>
							<rect x="343.9" y="231" fill="#57C3B5" width="51.1" height="3"/>
							<rect x="343.9" y="237.7" fill="#57C3B5" width="51.1" height="3"/>
							<rect x="343.9" y="244.4" fill="#57C3B5" width="51.1" height="3"/>
							<rect x="343.9" y="251.1" fill="#57C3B5" width="51.1" height="3"/>
						</g>
						<polygon fill="#26B99A" points="369.9,269.7 322.8,234 322.8,306.9 416.9,306.9 416.9,234 						"/>
					</g>
				</g>
			</g>
		</g>
	</g>
</g>
</svg>
