<svg version="1.1" id="Byztgxd0b" xmlns="http://www.w3.org/2000/svg" xmlnsXlink="http://www.w3.org/1999/xlink" x="0px" y="0px" viewBox="-180 247 300 300" enableBackground="new -155 247 300 300" xmlSpace="preserve">
<g id="rJgMKledRZ">
  <rect id="BkbMtxedR-" x="-104.4" y="262.9" width={210} height="260.4" />
  <rect id="H1zfYgg_0Z" x="-104.5" y="274.1" width={210} height="260.4" />
  <g id="BJQMYleu0-">
	<rect id="HyVfYeedRb" x="-117.4" y="276.4" width={210} height="260.4" />
	<g id="HJSGFxeOR-">
	  <g id="rkIMtlldAW">
		<rect x="-109.3" y="305.6" strokeMiterlimit={10} width={35} height={35} id="HkPMFelORZ" />
		<polyline strokeMiterlimit={10} points="-102.6,320.9 -95.3,330.6 -80.4,314.7" id="rydGtxgOR-" />
		<g>
		  <rect x="-62.1" y={300} width="122.8" height="3.7" id="By5GKgeuRZ" />
		  <rect x="-60.8" y="310.8" width="122.8" height="3.7" id="H1sGFxluCW" />
		  <rect x="-59.4" y="324.7" width="64.3" height="3.7" id="ByhMFxg_0Z" />
		</g>
	  </g>
	  <g id="rypMFgluRZ">
		<rect x="-104.2" y="350.4" strokeMiterlimit={10} width={35} height={35} id="SyRfYlgOCW" />
		<polyline strokeMiterlimit={10} points="-97.3,365.7 -90.1,375.5 -75.2,359.4" id="rJ1lztgeOAZ" />
		<g>
		  <rect x="-56.8" y="344.8" width="122.8" height="3.7" id="H1ZgGYxguA-" />
		  <rect x="-55.6" y="355.6" width="122.8" height="3.7" id="ByzgGYel_CW" />
		  <rect x="-54.2" y="369.5" width="64.3" height="3.7" id="BJ7ezKxlu0-" />
		</g>
	  </g>
	  <g id="H1NgztxxdC-">
		<rect x="-98.9" y="395.2" strokeMiterlimit={10} width={35} height={35} id="SyHlGFggOCW" />
		<polyline strokeMiterlimit={10} points="-92.1,410.4 -84.9,420.2 -70,404.3" id="BkUlMFxxuRZ" />
		<g>
		  <rect x="-51.7" y="389.5" width="122.8" height="3.7" id="r1OlfYeguRW" />
		  <rect x="-50.4" y="400.3" width="122.8" height="3.7" id="B1tlftlg_AW" />
		  <rect x="-48.9" y="414.2" width="64.3" height="3.7" id="Bk9gMtgldAZ" />
		</g>
	  </g>
	  <g id="HyjeGtgguCZ">
		<rect x="-93.7" y={440} strokeMiterlimit={10} width={35} height={35} id="ByngzKee_CZ" />
		<polyline strokeMiterlimit={10} points="-86.9,455.2 -79.7,465 -64.7,449" id="B1agMKexOCb" />
		<g>
		  <rect x="-46.5" y="434.3" width="122.8" height="3.7" id="Skk-ztleORZ" />
		  <rect x="-45.2" y={445} width="122.8" height="3.7" id="Syg-GKxe_RZ" />
		  <rect x="-43.7" y={459} width="64.3" height="3.7" id="rJbbMKlxuCb" />
		</g>
	  </g>
	  <g id="r1GbzYeluRW">
		<g>
		  <rect x="-88.5" y="484.8" strokeMiterlimit={10} width={35} height={35} id="Bk4WMtgeOCZ" />
		</g>
		<polyline strokeMiterlimit={10} points="-81.8,499.9 -74.4,509.7 -59.5,493.8" id="Byr-GFxe_RW" />
		<g>
		  <rect x="-41.3" y="478.9" width="122.8" height="3.7" id="BkDWMKgguAZ" />
		  <rect x={-40} y="489.9" width="122.8" height="3.7" id="ryuWzYgedRb" />
		  <rect x="-38.4" y="503.7" width="64.3" height="3.7" id="BJt-zFexOC-" />
		</g>
	  </g>
	</g>
  </g>
</g>
</svg>