<?xml version="1.0" encoding="utf-8"?>
<!-- Generator: Adobe Illustrator 18.1.1, SVG Export Plug-In . SVG Version: 6.00 Build 0)  -->
<svg version="1.1" id="Layer_1" xmlns="http://www.w3.org/2000/svg" xmlns:xlink="http://www.w3.org/1999/xlink" x="0px" y="0px"
	 viewBox="156 246 300 303" enable-background="new 156 246 300 303" xml:space="preserve">
<g>
	<path fill="#323333" d="M397.4,347.4c0.3-4.6,0.1-11.1-0.9-16.5c-0.1-2.1-6.1-2.7-6,0.7c0,0.9,0.1,2.4,0.3,4.1
		c0.3,3.4,0.7,9.2,0.4,10.9c-0.2,1,4.6,17-16.3,22.6c-4.6,1.6-4.2,9.5,3.3,6.7C402,369.3,397.2,348.8,397.4,347.4z"/>
	<path fill="#528E81" d="M382.8,399.6c-0.6-7.3-1.1-13.8-1.4-17.9c-2.4,0.4-5.1,0.7-7,0.9c0.3,4.3,0.8,10.5,1.3,17.6
		c0.8,10.4,1.8,22.3,2.2,30.1c0.8,13.7-4.1,38-10.3,52.1c-0.8,1.8,0,3.8,1.8,4.7c0.5,0.2,1,0.3,1.6,0.3c1.3-0.1,2.5-0.8,3-2.1
		c6-13.6,11.9-39,10.9-55.4C384.6,421.8,383.6,410,382.8,399.6z"/>
	<path fill="#929497" d="M369.6,475.2c-0.8,2.3-1.7,4.6-2.5,6.6c-0.8,1.8,0.7,4.4,2.4,5.1c0.5,0.2,1,0.3,1.6,0.3
		c1.3-0.1,3.3-0.7,3.8-1.9l2.5-6.6L369.6,475.2z"/>
	<path fill="#E2A876" d="M315.6,433.2c3.6-9.1-10.6-43.2-16.5-50.3c-1.6-1-16.8,6-20.3,7.5c1.1,3.2,19.6,34.6,19,37.3
		c-13.1,8-15.9,21.1-18,24.3c-3.3,4.9,4.1,6.6,5.5,7.9c9.1-8.6,13.8-12.7,24.2-19.8C311,439,314.7,435.6,315.6,433.2z"/>
	<polygon fill="#528E81" points="280.9,465.4 266,391.6 272.4,391.2 288.8,463.6 	"/>
	<path fill="#404041" d="M278.2,411.4l-10.5,0.3c7.3,59.1-34.1,48.1-24.6,101.2c20.9,26.6,97,13.1,127.1-28.5
		C305.5,451.6,296.6,483.2,278.2,411.4z"/>
	<path fill="#528E81" d="M374.5,479.5l-5-2.6c-1.6-0.8-4,1.8-5.7,2.7c-76.4,39.5-112.4,4-119.7,2.9c-5-0.7-10.8,50,22.4,50l89.3,0.2
		c6.2,0,11.8-3.8,13.8-9.7l7.2-37.9C377.6,483,376.6,480.6,374.5,479.5z"/>
	<path fill="#404041" d="M245.7,521.1c4,6.7,10.5,11.5,20.8,11.5l89.3,0.2c6.2,0,11.8-3.8,13.8-9.7l0.4-2H245.7z"/>
	<path fill="#58595B" d="M251.8,387.1c-1.3-4.1,4.4-8.6,14.6-7.7c10.2,1,10.6,7.3,19,8.7C332.6,395.8,256.9,402.9,251.8,387.1z"/>
	<path fill="#404041" d="M251.8,387.1c-0.8-2.4,0.8-5,4.4-6.4c1,1.6,2.9,3.5,6.4,5.8c8.4,5.3,33.3,6.1,38.2,7.1
		C298.4,397.9,255.6,398.8,251.8,387.1z"/>
	<path fill="#E2A876" d="M386.8,356l8.9,4.3c1.6-2.7,3.1-5.7,4.2-8.5c-2.2-1.3-6.1-2.1-8-2c-7.5,0.4-31.7-8-38.4-11.3
		c-1.9-0.3-2.9-1.7-3.2-2.8c-0.5-2.5-7.3-38.7-7.3-39.1c-3.5-10-5.8-11-8.7-12.5c-2.7-0.3-5.1,1.2-7.6,3c-3,2.2-4.1,7.8-3.5,11.6
		c0.3,2,4.9,10,5.5,12.3c0.6,2.2,4.7,14.1,6.1,17.4c1.4,3.3,4.7,12.2,5.4,14.3c0.7,2,0.6,4.3,5.1,5.6
		C361.7,353.2,369.6,354.3,386.8,356z"/>
	<path fill="#4E4D4D" d="M394.8,356.4c-34.5,1.7-32.1,23.1-20.6,22.4c6.3-1.3,16.3-4.8,19.2-6.3C401.1,368.5,402.1,357,394.8,356.4z
		"/>
	<path fill="#6D6E70" d="M388.5,365.7c-7.4,2.1-16.7,5.3-20.2,6.7c-3.1,1.3-1.2,9.4,5.6,7.9c6.8-1.5,15.1-4.8,18.8-6.5
		C396.8,371.9,390.3,365.2,388.5,365.7z"/>
	<circle fill="#404041" cx="287.4" cy="497.9" r="21.3"/>
	<circle fill="#323333" cx="287.4" cy="497.9" r="15.9"/>
	<circle fill="#404041" cx="287.4" cy="497.9" r="5.4"/>
	<path fill="#77787B" d="M328.9,495.5l-37,0.7c-0.9,0-1.8-0.2-2.6-0.7c-0.5-0.4-1.1-0.6-2.2-0.6c-0.7,0-1.5,0.3-2,0.8
		c-1.2,1.2-1.2,3.2,0.1,4.5c0.5,0.5,1.3,0.7,2,0.7c1.1,0,1.7-0.3,2.2-0.6c0.7-0.6,1.6-0.8,2.5-0.8l33.6-0.6L328.9,495.5z"/>
	<path fill="#404041" d="M334.1,496.7l-20.3-4.2c-1.3-0.3-2.5,0.2-2.7,1l-0.3,1.3c-0.2,0.8,0.7,1.7,2,2l20.3,4.2
		c1.3,0.3,2.5-0.2,2.7-1l0.3-1.3C336.3,497.8,335.4,496.9,334.1,496.7z"/>
	<path fill="#323333" d="M404.1,347.9c0.3-4.6,0.1-11.1-0.9-16.5c-0.1-2.1-6.1-2.7-6,0.7c0,0.9,0.1,2.4,0.3,4.1
		c0.3,3.4,0.7,9.2,0.4,10.9c-0.2,1,0.5,19.4-20.3,25c-4.6,1.6-4.2,9.5,3.3,6.7C404.6,372.3,403.9,349.3,404.1,347.9z"/>
	<path fill="#808184" d="M384.4,412.8l-7.7,0.5c-0.9,0.1-1.7-0.6-1.8-1.5l-0.4-5.9c-0.1-0.9,0.6-1.7,1.6-1.8l7.7-0.5
		c0.9-0.1,1.7,0.6,1.8,1.5l0.4,5.9C386.1,412,385.4,412.8,384.4,412.8z"/>
	<path fill="#F8BB84" d="M350.2,283.8c-1.2-2-2.3-4.8-0.4-10.1c-1.4,0.8-1.9-0.1-2.2-1.3c-4.1,7.4-12.8,7.5-21.2,11.1
		c10.8,1.8,12.8,2,16.2,16c1.3-2,3-4.2,5.3-6c2.8-2.2,5.3-3.2,7.5-3.5C353.5,287.9,351,285.2,350.2,283.8z"/>
	<path fill="#D39D6D" d="M349.8,273.6c-0.9,0.1-1.1,0.2-2.2-1.3c-0.1,1.4,0.4,1.6,1.3,2.3c-1.9,5.5-0.3,7.8,1,9.8
		c0.6,1,4.6,5.6,5.6,5.5c-1.8-2-4.3-4.8-5.2-6.2C348.9,281.7,347.8,279,349.8,273.6z"/>
	<path fill="#F8BB84" d="M372.3,277.6c0.1-1.9,2.1-2.2,3.1-5.1c-4.2,2.3-9.4,0.1-12.5-0.1c0.8-0.3,2.3-1.5,3.7-3
		c-0.8,0.5-7,3.6-10.8,2.2c1.4-0.7,1.9-0.5,5.8-3.7c-1.5,1-6,2.2-8.2,1.1c-0.4-0.2-0.8-0.5-1-1c0-2.4-0.9-4-1.5-4.6
		c-0.6-0.7-2-1.2-3.5-0.4c-3.2,1.7-0.2,12.1,2.4,10.5c-1.9,5.5-0.9,8.1,0.4,10.1c1.2,2,5.9,7,7.1,8.2c1,1,3.5,2.3,5.3,2
		c2.3-0.5,2.2-2.7,2.2-3.1c0-0.5,1-0.4,1.6-0.5c0.8-0.2-0.5-1.9-0.7-2.7c0.5,0.2,2.4,0.7,2.9,0.3c0.1-0.7,0.1-1.6,0.5-2.6
		c0.7,0.2,3.4,1,3.5-0.1C372.6,284,372.2,279.6,372.3,277.6z"/>
	<path fill="#A0587B" d="M342.2,300.1c-3.6-11.2-7.2-12.6-10.1-14.2c-2.2-1.2-5.1-1.7-7.1-1.6c1.4-0.8,2.7-1.4,3.8-1.8
		c2.5,0.4,5.3,1.2,7,2.9C338.6,288.1,342.4,295,342.2,300.1z"/>
	<path fill="#F8BB84" d="M332.8,333.8c-1.4-3.5-5.4-16.2-5.9-18.6c-0.6-2.4-5.1-11-5.4-13.2c-0.5-4.1,0.5-10.1,3.4-12.6
		c2.5-2,4.8-3.5,7.5-3.3c-0.1-0.1-0.3-0.1-0.4-0.2c-2.2-1.2-5.1-1.7-7.1-1.6l0,0c-2.5,1.4-5.2,3.3-6.9,5.2
		c-2.9,3.1-11.6,14.1-18.3,24.2c-6.7,10.1-11.8,19.9-18.2,24.2c-6.5,4.5-11.5,5.8-15.3,8.3c0.2,3.5,6.2,3.6,11.3,5.5
		c5.3,1.8,13.1,10.2,15,11.4c1.8,1.3,4.3,2.6,5.4,3.2c3.8-4.6,16.2-22.6,19.8-24.8c2.6-1.7,4.3-2.5,7.5-2.6c2.6-0.1,6.1,0,8.5-2.6
		C333.3,335.3,333,334.5,332.8,333.8z"/>
	<path fill="#A15641" d="M373.2,251.4c-4.7-5.1-12.9-8-19.1-5c-5.7,0.3-10.4,4.9-12.9,11.6c-1.5,4.4-1.1,15.3,2.5,18.5
		c0.3,0.2,1.4,0.1,3.7-4.3c-0.7-2.6-2.7-7.2,0.3-8.8c2.7-1.5,4.7,2.4,4.7,4.6c0.2,0.5,0.6,0.8,1,1c1,0.5,2.4,0.5,3.8,0.3
		c-2.3,2.5-3.7,3.2-3.7,3.2s0.5,0.3,3.2,0.7s4.7-0.1,4.7-0.1s-1.8,1.3-2,1.3s7.5,0,8.2-0.1c0.6-0.2-3.5,2.8-3.5,2.8s3,0,6.5-1.5
		c3.4-1.5,5.1-2.6,5.1-2.6s-2.2,3.3-2.4,3.5c-0.3,0.2,3.5-1.1,6-4.5s3-7.9,1.7-12.4C380.1,257.1,376.5,253.8,373.2,251.4z"/>
	<path fill="#A0587B" d="M299.7,313.5c-0.3,0.4-0.5,0.8-0.8,1.2c2.5,5,5.9,8.9,8.8,12.3c3.3,3.7,9.7,10.6,13,12.8
		c1.2-0.5,2.5-0.8,4.4-0.9c2.6-0.1,6.1,0,8.5-2.6c-0.3-0.9,1.7-5.5,1.4-6.1c-1-2.7-5.9-6.8-7.3-11.5c-6.2,1.1-10.7-1-13-2.4
		c-2.7-1.7-4.8-4.8-5.9-7.6c-0.7-1.9-0.1-5.5,0.8-9C306.6,303.7,302.9,308.8,299.7,313.5z"/>
	<path fill="#F8BB84" d="M405.6,350.9c-0.1,0.8-0.9,1.4-2.1,1.4c0.4,0.3,1,1.1,1,1.9c-0.1,1.1-0.7,1.9-2,1.8c0.8,0.4,1,1.2,0.9,1.9
		c-0.1,0.7-0.8,1.4-2,1.6c0.8,0.4,0.7,1.1,0.6,1.6c-0.1,0.4-0.3,0.8-1.5,0.9c-0.2,0-0.3,0-0.5,0.1c-1.6,0.1-5.8-0.7-6.8-1
		c-1.9-0.6-5.4-3.4-6.3-3.8c-2.3-1.1-25.4,3.7-44-2.2c-6-1.9-8.1-15.9-10.1-21.3c-1.4-3.5-5.4-16.2-5.9-18.6
		c-0.6-2.4-5.1-11-5.4-13.2c-0.5-4.1,0.5-10.1,3.4-12.6c2.5-2,4.8-3.5,7.5-3.3c2.9,1.5,6.3,3.2,9.7,14c0,1.7,1.1,9.4,1.6,12.7
		c1.4,9,4.2,19.2,5.9,28.7c0.2,1.2,0.9,1.7,2.8,2.1c12,2.6,20.4,4.8,29.5,4.8c6-0.8,8.5-2.5,11-3.2c1.9-0.5,4-1,4.9-0.8
		c0.3,3.1,0.5,4.6,3.6,4.5c0.6,0.1,1.3,0.1,1.9,0.2c0.5,0.1,1,0.2,1.2,0.3C405.4,349.4,405.7,350.1,405.6,350.9z"/>
	<path fill="#58574B" d="M307.8,327c-2.9-3.3-6.3-7.3-8.8-12.3c-0.9,1.4-1.8,2.8-2.7,4.3c2.5,4.5,5.7,8.2,8.4,11.3
		c2.9,3.3,8.4,9.2,12,12.1c0.4-0.3,0.7-0.6,1-0.8c1.2-0.8,2.1-1.3,3.1-1.8l0,0C317.5,337.6,311,330.8,307.8,327z"/>
	<path fill="#F8BB84" d="M309.3,478.9l2.8,5.2c0,0,13.9,0.4,17.2-4.1c-2.8-2.1-4.1-4.2-4.5-6c-0.3-1.8,1.7-7.5,3.4-12.4
		c2.4-7,7.2-18.1,10-24.3c2.7-6.1,6.3-13,10.1-18s4.5-8.9,3.5-14.6c-0.9-5.8-6.5-8.9-9.5-11.3c-2.9-2.5-11-9.2-19.1-13.9
		c-7.4-4.3-17.8-9.5-22.4-11c-3.6,1-10,4.2-10.5,5.9c-0.2-0.1-4.7,2.9-4.5,3.3c-0.8,0.9-6.6,7.3-12.9,10.4
		c4.4,1.9,10.4,4.4,14.9,5.9c6.1,2.2,16.1,7,22.9,9.4c6.7,2.4,19.1,6.8,20.3,7.1c-7.9,10.1-12.1,15.2-12.9,28.7
		c-0.3,4.6-1.1,8.9-1.5,11.5c-0.3,2.6-2.1,12.4-4.3,17.8c-1.5,3.7-2.9,7.4-3.6,8.3C308.8,477.4,309.3,478.9,309.3,478.9z"/>
	<path fill="#323333" d="M297.8,366.3c-1.8-1.3-15.1-12.9-20.3-14.7c-5.3-1.8-11.1-1.9-11.3-5.5c-5.3,3.2-10.4,10.1-10.9,17.3
		c-1.5,21,21.8,28.7,38.8,32.9c0.3-0.1,16.1-18.3,22.2-20.9C317.2,374.9,309.5,370.5,297.8,366.3z"/>
	<path fill="#A0587B" d="M279.6,348.6c-4.4-1.5-9.2-1.9-10.8-4.1c-0.9,0.5-1.8,0.9-2.5,1.5c0.2,3.5,6.2,3.6,11.3,5.5
		c5.3,1.8,13.1,10.2,15,11.4c1.8,1.3,4.3,2.6,5.4,3.2c0.8-0.9,1.5-1.8,2.2-2.8c-1.7-0.6-3.5-1.7-5.6-3.4
		C292.8,358.6,284.8,350.5,279.6,348.6z"/>
	<path fill="#A44685" d="M317.7,482c-4.2-1.3-6.6-5.1-7.8-7.1c-0.5-0.8-1.2-0.3-1.6,0.6c-0.7,1.5-1.7,5.1-1.7,8.1
		c0,1.4-2.6,2.5-1.5,3.6c4.7,4.9,46.8,17.9,45.2,7.6c-2.7-4.3-16.3-12.2-21.6-18C327.1,475.3,323.2,483.7,317.7,482z"/>
	<path fill="#8C7685" d="M306.5,483.9c-0.4,1.2-2.5,2.3-1.5,3.3c4.7,4.9,46.8,17.9,45.2,7.6l0,0c-13.9,1.2-24.2-2.1-26.5-2.7
		C317.4,490.4,307.1,484.5,306.5,483.9z"/>
	<path fill="#528E81" d="M317.7,482c-4.2-1.3-6.6-5.1-7.8-7.1c-0.5-0.8-1.2-0.3-1.6,0.6c-0.1,0.1-0.1,0.3-0.2,0.5
		c1.4,2.1,4.1,5.5,6,6.8c2.8,1.7,6.7,3,9.7,0.9c2.6-1.9,5.4-4.3,6.1-5.4c-0.5-0.5-0.9-0.9-1.3-1.3
		C327.1,475.3,323.2,483.7,317.7,482z"/>
	<path fill="#A15641" d="M341.2,261.7c-2.1,1.4-2.5,1.2-9.6,4.1c-11.4,4.6-18,28.8-17.2,28c10.5-9.4,15-6,20-20c2.1-6,8.5-8,8.5-8
		L341.2,261.7z"/>
	<path fill="#9A523D" d="M317,285c-2,5.1-2.9,9.1-2.5,8.7c10.4-9.3,14.9-6.1,19.8-19.4c-1.2,1.4-2.8,3.1-4.4,4.7
		c-3.2,3.1-4.9,4.5-4.9,4.5s0.4-1.5,1.8-4.3s8.3-12.3,8.8-12.4c0.5-0.2-1.9,0.8-8.1,8.3s-6.4,9.2-6.8,9.6c-0.3,0.4,0.4-1.3,1.5-4.1
		c1.1-2.7,5-9.9,5.4-10.2c0.4-0.3-1.4,1.1-5.1,6.7c-3.7,5.6-6.1,12.3-6.2,12.6C316.2,290,316.4,289,317,285z"/>
	<path fill="#528E81" d="M340.5,262.1c-1.7-0.6-3.3-0.4-3.5,1.5c-0.2,1.8,1.4,5.2,3,4.4C341.9,267.3,340.6,263.6,340.5,262.1z"/>
	<path fill="#929497" d="M274.3,422.8c2.3,0,4.2-1.8,4.2-4.2c0-2.3-1.8-4.2-4.2-4.2c-2.3,0-4.2,1.8-4.2,4.2
		C270.3,420.8,272.1,422.8,274.3,422.8z"/>
	<circle fill="#404041" cx="274.3" cy="418.6" r="1.7"/>
	<path fill="#929497" d="M380.2,412.6c2.3,0,4.2-1.8,4.2-4.2s-1.8-4.2-4.2-4.2s-4.2,1.8-4.2,4.2S378,412.6,380.2,412.6z"/>
	<circle fill="#404041" cx="380.2" cy="408.6" r="1.7"/>
	<path fill="#929497" d="M370.2,487.8c2.3,0,4.2-1.8,4.2-4.2s-1.8-4.2-4.2-4.2s-4.2,1.8-4.2,4.2S367.9,487.8,370.2,487.8z"/>
	<circle fill="#404041" cx="370.2" cy="483.7" r="1.7"/>
	<path fill="#E09F64" d="M347.6,265.7c-0.3,1,0.4,4.8,1.1,5.7c0.7,0.8,1.9-0.5,2-1.4c0.1-0.9-1.2-1.1-0.8-1.8c0.4-0.7,0.8-0.2,1-1.1
		C351.4,263.9,348,264.3,347.6,265.7z"/>
	
		<rect x="267" y="399.4" transform="matrix(-0.9806 0.1959 -0.1959 -0.9806 616.175 742.8203)" fill="#58595B" width="8.6" height="5.1"/>
	<path fill="#A15641" d="M357.6,267.6c-0.7,0.3-2.5-0.2-4.6,4.6c-1.9,4.8-2.8,8.8-2.5,6.8c0.2-1.5,0.9-14.2,3.8-12.3L357.6,267.6z"
		/>
	<g>
		<polygon fill="#528E81" points="380.5,540.4 344.5,516.2 349.3,509.8 384.9,535.3 		"/>
		<circle fill="#323333" cx="382.3" cy="538.2" r="8.6"/>
	</g>
	<circle fill="#404041" cx="382.3" cy="538.2" r="3.2"/>
	<g>
		<polygon fill="#528E81" points="230.8,540.4 266.7,516.2 262,509.8 226.5,535.3 		"/>
		<circle fill="#323333" cx="229" cy="538.2" r="8.6"/>
	</g>
	<circle fill="#404041" cx="229" cy="542.5" r="3.2"/>
</g>
</svg>
