<?xml version="1.0" encoding="utf-8"?>
<!-- Generator: Adobe Illustrator 19.0.0, SVG Export Plug-In . SVG Version: 6.00 Build 0)  -->
<svg version="1.1" id="artwork" xmlns="http://www.w3.org/2000/svg" xmlns:xlink="http://www.w3.org/1999/xlink" x="0px" y="0px"
	 viewBox="-218 377 135 40" style="enable-background:new -218 377 135 40;" xml:space="preserve">
<style type="text/css">
	.st0{fill:#FFFFFF;fill-opacity:0;}
	.st1{fill:#A6A6A6;}
	.st2{fill:#FFFFFF;}
	.st3{fill:url(#SVGID_1_);}
	.st4{fill:url(#SVGID_2_);}
	.st5{fill:url(#SVGID_3_);}
	.st6{fill:url(#SVGID_4_);}
	.st7{opacity:0.2;enable-background:new    ;}
	.st8{opacity:0.12;enable-background:new    ;}
	.st9{opacity:0.25;fill:#FFFFFF;enable-background:new    ;}
	.st10{fill:#FFFFFF;stroke:#FFFFFF;stroke-width:0.2;stroke-miterlimit:10;}
</style>
<title>pt-br_get</title>
<rect x="-228" y="367" class="st0" width="155" height="60"/>
<path d="M-213,377h125c2.8,0,5,2.2,5,5v30c0,2.8-2.2,5-5,5h-125c-2.8,0-5-2.2-5-5v-30C-218,379.2-215.8,377-213,377z"/>
<path class="st1" d="M-88,377.8c2.3,0,4.2,1.9,4.2,4.2v30c0,2.3-1.9,4.2-4.2,4.2h-125c-2.3,0-4.2-1.9-4.2-4.2l0,0v-30
	c0-2.3,1.9-4.2,4.2-4.2l0,0H-88 M-88,377h-125c-2.8,0-5,2.2-5,5v30c0,2.8,2.2,5,5,5h125c2.8,0,5-2.2,5-5v-30
	C-83,379.2-85.2,377-88,377z"/>
<path class="st2" d="M-149.9,398.8c-2.3,0-4.2,1.9-4.2,4.3c0,2.3,1.9,4.2,4.3,4.2c2.3,0,4.2-1.9,4.2-4.2c0-2.3-1.8-4.2-4.1-4.3
	C-149.8,398.7-149.8,398.7-149.9,398.8z M-149.9,405.6c-1.4,0.1-2.7-1-2.8-2.4c-0.1-1.4,1-2.7,2.4-2.8c1.4-0.1,2.7,1,2.8,2.4
	c0,0.1,0,0.1,0,0.2C-147.4,404.4-148.4,405.5-149.9,405.6C-149.8,405.6-149.8,405.6-149.9,405.6z M-159.2,398.8
	c-2.3,0-4.2,1.9-4.2,4.3c0,2.3,1.9,4.2,4.3,4.2c2.3,0,4.2-1.9,4.2-4.2c0-2.3-1.8-4.2-4.1-4.3C-159.1,398.7-159.1,398.7-159.2,398.8
	L-159.2,398.8z M-159.2,405.6c-1.4,0.1-2.7-1-2.8-2.4s1-2.7,2.4-2.8c1.4-0.1,2.7,1,2.8,2.4c0,0.1,0,0.1,0,0.2
	C-156.7,404.4-157.8,405.5-159.2,405.6C-159.1,405.6-159.2,405.6-159.2,405.6L-159.2,405.6z M-170.3,400.1v1.8h4.3
	c-0.1,0.8-0.4,1.6-1,2.3c-0.9,0.9-2.1,1.4-3.3,1.3c-2.7,0-4.8-2.1-4.8-4.8s2.1-4.8,4.8-4.8c1.2,0,2.4,0.4,3.3,1.3l1.3-1.3
	c-1.2-1.2-2.8-1.9-4.5-1.9c-3.6-0.1-6.7,2.7-6.9,6.3c-0.1,3.6,2.7,6.7,6.3,6.9c0.2,0,0.3,0,0.5,0c1.7,0.1,3.4-0.6,4.6-1.9
	c1-1.2,1.6-2.7,1.6-4.2c0-0.4,0-0.8-0.1-1.1L-170.3,400.1z M-124.9,401.5c-0.5-1.6-2-2.6-3.6-2.7c-2.2,0-4,1.8-4,4
	c0,0.1,0,0.2,0,0.3c0,2.3,1.8,4.2,4.1,4.2c0.1,0,0.1,0,0.2,0c1.4,0,2.8-0.7,3.5-1.9l-1.4-1c-0.4,0.7-1.2,1.2-2.1,1.2
	c-0.9,0-1.7-0.5-2.1-1.3l5.7-2.4L-124.9,401.5z M-130.8,402.9c-0.1-1.3,0.9-2.4,2.2-2.5c0,0,0,0,0,0c0.7,0,1.3,0.3,1.6,0.9
	L-130.8,402.9z M-135.4,407h1.9v-12.5h-1.9V407z M-138.4,399.7L-138.4,399.7c-0.6-0.6-1.5-1-2.3-1c-2.3,0.1-4.2,2.1-4,4.5
	c0.1,2.2,1.9,3.9,4,4c0.9,0,1.7-0.4,2.2-1h0.1v0.6c0,1.6-0.9,2.5-2.3,2.5c-1,0-1.8-0.6-2.1-1.5l-1.6,0.7c0.6,1.5,2.1,2.5,3.8,2.5
	c2.2,0,4-1.3,4-4.4V399h-1.7V399.7z M-140.6,405.6c-1.4-0.1-2.5-1.4-2.4-2.8c0.1-1.3,1.1-2.2,2.4-2.4c1.3,0.1,2.3,1.2,2.3,2.5
	c0,0,0,0,0,0.1c0.1,1.3-0.9,2.5-2.2,2.6C-140.5,405.6-140.5,405.6-140.6,405.6L-140.6,405.6z M-116.2,394.5h-4.5V407h1.9v-4.7h2.6
	c2.1,0.2,4-1.5,4.2-3.6c0.2-2.1-1.5-4-3.6-4.2C-115.8,394.5-116,394.5-116.2,394.5L-116.2,394.5z M-116.2,400.5h-2.6v-4.3h2.7
	c1.2,0,2.1,1,2.1,2.1C-114,399.6-115,400.5-116.2,400.5L-116.2,400.5z M-104.7,398.7c-1.4-0.1-2.7,0.7-3.3,1.9l1.7,0.7
	c0.3-0.6,1-1,1.7-0.9c1-0.1,1.9,0.6,2,1.6c0,0,0,0,0,0v0.1c-0.6-0.3-1.3-0.5-1.9-0.5c-1.8,0-3.6,1-3.6,2.8c0.1,1.6,1.4,2.8,3,2.8
	c0,0,0.1,0,0.1,0c1,0.1,1.9-0.4,2.4-1.2h0.1v1h1.8v-4.8C-100.8,400-102.5,398.7-104.7,398.7L-104.7,398.7z M-104.9,405.5
	c-0.6,0-1.5-0.3-1.5-1.1c0-1,1.1-1.3,2-1.3c0.6,0,1.2,0.1,1.7,0.4C-102.8,404.7-103.7,405.6-104.9,405.5L-104.9,405.5z M-94.3,399
	l-2.1,5.4h-0.1l-2.2-5.4h-2l3.3,7.6l-1.9,4.2h1.9l5.1-11.8H-94.3z M-111.1,407h1.9v-12.5h-1.9V407z"/>
<linearGradient id="SVGID_1_" gradientUnits="userSpaceOnUse" x1="-196.1975" y1="975.7125" x2="-212.9775" y2="992.4925" gradientTransform="matrix(1 0 0 1 0 -590)">
	<stop  offset="0" style="stop-color:#00A0FF"/>
	<stop  offset="1.000000e-002" style="stop-color:#00A1FF"/>
	<stop  offset="0.26" style="stop-color:#00BEFF"/>
	<stop  offset="0.51" style="stop-color:#00D2FF"/>
	<stop  offset="0.76" style="stop-color:#00DFFF"/>
	<stop  offset="1" style="stop-color:#00E3FF"/>
</linearGradient>
<path class="st3" d="M-207.6,384.5c-0.3,0.4-0.5,0.9-0.5,1.4v22.1c0,0.5,0.1,1,0.5,1.4l0.1,0.1l12.4-12.4v-0.3L-207.6,384.5
	L-207.6,384.5z"/>
<linearGradient id="SVGID_2_" gradientUnits="userSpaceOnUse" x1="-184.17" y1="987" x2="-208.36" y2="987" gradientTransform="matrix(1 0 0 1 0 -590)">
	<stop  offset="0" style="stop-color:#FFE000"/>
	<stop  offset="0.41" style="stop-color:#FFBD00"/>
	<stop  offset="0.78" style="stop-color:#FFA500"/>
	<stop  offset="1" style="stop-color:#FF9C00"/>
</linearGradient>
<path class="st4" d="M-191,401.3l-4.1-4.1v-0.3l4.1-4.1l0.1,0l4.9,2.8c1.4,0.8,1.4,2.1,0,2.9l-4.9,2.8L-191,401.3z"/>
<linearGradient id="SVGID_3_" gradientUnits="userSpaceOnUse" x1="-193.1725" y1="989.2975" x2="-215.9325" y2="1012.0475" gradientTransform="matrix(1 0 0 1 0 -590)">
	<stop  offset="0" style="stop-color:#FF3A44"/>
	<stop  offset="1" style="stop-color:#C31162"/>
</linearGradient>
<path class="st5" d="M-190.9,401.2l-4.2-4.2l-12.5,12.5c0.6,0.5,1.5,0.5,2.1,0.1L-190.9,401.2"/>
<linearGradient id="SVGID_4_" gradientUnits="userSpaceOnUse" x1="-210.7025" y1="967.1825" x2="-200.5425" y2="977.3425" gradientTransform="matrix(1 0 0 1 0 -590)">
	<stop  offset="0" style="stop-color:#32A071"/>
	<stop  offset="7.000000e-002" style="stop-color:#2DA771"/>
	<stop  offset="0.48" style="stop-color:#15CF74"/>
	<stop  offset="0.8" style="stop-color:#06E775"/>
	<stop  offset="1" style="stop-color:#00F076"/>
</linearGradient>
<path class="st6" d="M-190.9,392.8l-14.6-8.3c-0.6-0.5-1.5-0.5-2.1,0.1l12.5,12.5L-190.9,392.8z"/>
<path class="st7" d="M-191,401.1l-14.5,8.3c-0.6,0.4-1.4,0.4-2,0l0,0l-0.1,0.1l0,0l0.1,0.1l0,0c0.6,0.4,1.4,0.4,2,0l14.6-8.3
	L-191,401.1z"/>
<path class="st8" d="M-207.6,409.3c-0.3-0.4-0.5-0.9-0.5-1.4v0.2c0,0.5,0.1,1,0.5,1.4V409.3L-207.6,409.3z"/>
<path class="st8" d="M-186,398.3l-5,2.8l0.1,0.1l4.9-2.8c0.6-0.3,0.9-0.8,1-1.4l0,0C-185.1,397.6-185.5,398-186,398.3z"/>
<path class="st9" d="M-205.5,384.6l19.5,11.1c0.5,0.3,0.9,0.7,1,1.3l0,0c-0.1-0.6-0.4-1.2-1-1.4l-19.5-11.1
	c-1.4-0.8-2.5-0.1-2.5,1.5v0.1C-208,384.5-206.9,383.8-205.5,384.6z"/>
<path class="st10" d="M-176.7,390v-6h1.8c0.8,0,1.6,0.3,2.2,0.8c0.6,0.6,0.9,1.4,0.8,2.2c0,0.8-0.3,1.6-0.8,2.2
	c-0.6,0.6-1.4,0.9-2.2,0.8H-176.7z M-175.9,389.3h1.1c0.6,0,1.2-0.2,1.7-0.6c0.4-0.4,0.6-1,0.6-1.7c0.1-1.2-0.8-2.2-1.9-2.3
	c-0.1,0-0.2,0-0.3,0h-1.1V389.3z"/>
<path class="st10" d="M-170.7,390v-6h0.8v6H-170.7z"/>
<path class="st10" d="M-166.9,390.1c-0.5,0-0.9-0.2-1.3-0.4c-0.4-0.3-0.7-0.7-0.8-1.2l0.7-0.3c0.1,0.3,0.3,0.6,0.5,0.8
	c0.2,0.2,0.6,0.3,0.9,0.3c0.3,0,0.6-0.1,0.9-0.3c0.2-0.2,0.4-0.4,0.4-0.7c0-0.3-0.1-0.6-0.4-0.8c-0.3-0.2-0.7-0.4-1.1-0.5
	c-0.4-0.1-0.9-0.3-1.2-0.6c-0.3-0.3-0.4-0.6-0.4-1c0-0.4,0.2-0.8,0.5-1.1c0.4-0.3,0.8-0.5,1.3-0.5c0.4,0,0.9,0.1,1.2,0.4
	c0.3,0.2,0.5,0.5,0.6,0.8l-0.7,0.3c-0.1-0.2-0.2-0.4-0.4-0.5c-0.5-0.3-1.1-0.3-1.5,0c-0.2,0.1-0.3,0.4-0.3,0.6
	c0,0.2,0.1,0.4,0.3,0.6c0.3,0.2,0.5,0.3,0.9,0.4c0.3,0.1,0.5,0.2,0.7,0.3c0.2,0.1,0.4,0.2,0.6,0.4c0.2,0.1,0.4,0.3,0.5,0.5
	c0.1,0.2,0.2,0.5,0.2,0.8c0,0.3-0.1,0.5-0.2,0.8c-0.1,0.2-0.3,0.4-0.5,0.5c-0.2,0.1-0.4,0.2-0.6,0.3
	C-166.4,390.1-166.6,390.1-166.9,390.1z"/>
<path class="st10" d="M-163,390h-0.8v-6h2c0.5,0,1,0.2,1.3,0.5c0.7,0.7,0.8,1.8,0.1,2.5c0,0-0.1,0.1-0.1,0.1
	c-0.4,0.3-0.8,0.5-1.3,0.5h-1.2V390z M-163,386.8h1.3c0.3,0,0.6-0.1,0.8-0.3c0.4-0.4,0.4-1,0-1.4c0,0,0,0,0,0
	c-0.2-0.2-0.5-0.3-0.8-0.3h-1.3V386.8z"/>
<path class="st10" d="M-154,389.2c-1.2,1.2-3.2,1.2-4.4,0c-1.2-1.2-1.2-3.2,0-4.5c1.2-1.2,3.2-1.2,4.4,0c0,0,0,0,0,0
	C-152.8,386-152.8,388-154,389.2z M-157.8,388.7c0.9,0.9,2.4,0.9,3.3,0c0.9-1,0.9-2.5,0-3.4c-0.9-0.9-2.4-0.9-3.3,0
	C-158.7,386.3-158.7,387.7-157.8,388.7z"/>
<path class="st10" d="M-152,390v-6h0.9l2.9,4.7l0,0v-1.2V384h0.8v6h-0.8l-3-4.9l0,0v1.2v3.7H-152z"/>
<path class="st10" d="M-146,390v-6h0.8v6H-146z M-145.3,383.5h-0.7l0.4-1.1h0.8L-145.3,383.5z"/>
<path class="st10" d="M-142.4,390l-2.1-6h0.9l1.6,4.9l0,0l1.8-4.9h0.9l-2.2,6H-142.4z"/>
<path class="st10" d="M-135,384.7h-2.7v1.9h2.5v0.7h-2.5v1.9h2.7v0.7h-3.5v-6h3.5V384.7z"/>
<path class="st10" d="M-133.8,390v-6h0.8v5.3h2.6v0.7H-133.8z"/>
<path class="st10" d="M-127.4,390v-6h0.9l2.9,4.7l0,0v-1.2V384h0.8v6h-0.8l-3.1-4.9l0,0v1.2v3.7H-127.4z"/>
<path class="st10" d="M-116.5,389.2c-1.2,1.2-3.2,1.2-4.4,0c-1.2-1.2-1.2-3.2,0-4.5c1.2-1.2,3.2-1.2,4.4,0c0,0,0,0,0,0
	C-115.4,386-115.4,388-116.5,389.2z M-120.4,388.7c0.9,0.9,2.4,0.9,3.3,0c0.9-1,0.9-2.5,0-3.4c-0.9-0.9-2.4-0.9-3.3,0
	C-121.3,386.3-121.3,387.7-120.4,388.7z"/>
</svg>
