<svg version="1.1" id="artwork" xmlns="http://www.w3.org/2000/svg" xmlns:xlink="http://www.w3.org/1999/xlink" x="0px" y="0px"
	viewBox="-238 377 135 40" style="enable-background:new -238 377 135 40;" xml:space="preserve">
	<style type="text/css">
		.st0{fill:#A6A6A6;}
		.st1{fill:#FFFFFF;}
		.st2{fill:url(#SVGID_1_);}
		.st3{fill:url(#SVGID_2_);}
		.st4{fill:url(#SVGID_3_);}
		.st5{fill:url(#SVGID_4_);}
		.st6{opacity:0.2;enable-background:new    ;}
		.st7{opacity:0.12;enable-background:new    ;}
		.st8{opacity:0.25;fill:#FFFFFF;enable-background:new    ;}
		.st9{enable-background:new    ;}
	</style>
	<title>pt-br_get</title>
	<path d="M-233,377h125c2.8,0,5,2.2,5,5v30c0,2.8-2.2,5-5,5h-125c-2.8,0-5-2.2-5-5v-30C-238,379.2-235.8,377-233,377z"/>
	<path class="st0" d="M-108,377.8c2.3,0,4.2,1.9,4.2,4.2v30c0,2.3-1.9,4.2-4.2,4.2h-125c-2.3,0-4.2-1.9-4.2-4.2l0,0v-30
		c0-2.3,1.9-4.2,4.2-4.2l0,0H-108 M-108,377h-125c-2.8,0-5,2.2-5,5v30c0,2.8,2.2,5,5,5h125c2.8,0,5-2.2,5-5v-30
		C-103,379.2-105.2,377-108,377z"/>
		<path class="st1" d="M-169.9,398.8c-2.3,0-4.2,1.9-4.2,4.3c0,2.3,1.9,4.2,4.3,4.2c2.3,0,4.2-1.9,4.2-4.2s-1.8-4.2-4.1-4.3
			C-169.8,398.7-169.8,398.7-169.9,398.8z M-169.9,405.6c-1.4,0.1-2.7-1-2.8-2.4c-0.1-1.4,1-2.7,2.4-2.8s2.7,1,2.8,2.4
			c0,0.1,0,0.1,0,0.2C-167.4,404.4-168.4,405.5-169.9,405.6C-169.8,405.6-169.8,405.6-169.9,405.6z M-179.2,398.8
			c-2.3,0-4.2,1.9-4.2,4.3c0,2.3,1.9,4.2,4.3,4.2c2.3,0,4.2-1.9,4.2-4.2s-1.8-4.2-4.1-4.3C-179.1,398.7-179.1,398.7-179.2,398.8
			L-179.2,398.8z M-179.2,405.6c-1.4,0.1-2.7-1-2.8-2.4s1-2.7,2.4-2.8s2.7,1,2.8,2.4c0,0.1,0,0.1,0,0.2
			C-176.7,404.4-177.8,405.5-179.2,405.6C-179.1,405.6-179.2,405.6-179.2,405.6L-179.2,405.6z M-190.3,400.1v1.8h4.3
			c-0.1,0.8-0.4,1.6-1,2.3c-0.9,0.9-2.1,1.4-3.3,1.3c-2.7,0-4.8-2.1-4.8-4.8s2.1-4.8,4.8-4.8c1.2,0,2.4,0.4,3.3,1.3l1.3-1.3
			c-1.2-1.2-2.8-1.9-4.5-1.9c-3.6-0.1-6.7,2.7-6.9,6.3c-0.1,3.6,2.7,6.7,6.3,6.9c0.2,0,0.3,0,0.5,0c1.7,0.1,3.4-0.6,4.6-1.9
			c1-1.2,1.6-2.7,1.6-4.2c0-0.4,0-0.8-0.1-1.1L-190.3,400.1z M-144.9,401.5c-0.5-1.6-2-2.6-3.6-2.7c-2.2,0-4,1.8-4,4
			c0,0.1,0,0.2,0,0.3c0,2.3,1.8,4.2,4.1,4.2c0.1,0,0.1,0,0.2,0c1.4,0,2.8-0.7,3.5-1.9l-1.4-1c-0.4,0.7-1.2,1.2-2.1,1.2
			s-1.7-0.5-2.1-1.3l5.7-2.4L-144.9,401.5z M-150.8,402.9c-0.1-1.3,0.9-2.4,2.2-2.5l0,0c0.7,0,1.3,0.3,1.6,0.9L-150.8,402.9z
			M-155.4,407h1.9v-12.5h-1.9V407z M-158.4,399.7L-158.4,399.7c-0.6-0.6-1.5-1-2.3-1c-2.3,0.1-4.2,2.1-4,4.5c0.1,2.2,1.9,3.9,4,4
			c0.9,0,1.7-0.4,2.2-1h0.1v0.6c0,1.6-0.9,2.5-2.3,2.5c-1,0-1.8-0.6-2.1-1.5l-1.6,0.7c0.6,1.5,2.1,2.5,3.8,2.5c2.2,0,4-1.3,4-4.4V399
			h-1.7v0.7H-158.4z M-160.6,405.6c-1.4-0.1-2.5-1.4-2.4-2.8c0.1-1.3,1.1-2.2,2.4-2.4c1.3,0.1,2.3,1.2,2.3,2.5c0,0,0,0,0,0.1
			C-158.2,404.3-159.2,405.5-160.6,405.6C-160.5,405.6-160.5,405.6-160.6,405.6L-160.6,405.6z M-136.2,394.5h-4.5V407h1.9v-4.7h2.6
			c2.1,0.2,4-1.5,4.2-3.6s-1.5-4-3.6-4.2C-135.8,394.5-136,394.5-136.2,394.5L-136.2,394.5z M-136.2,400.5h-2.6v-4.3h2.7
			c1.2,0,2.1,1,2.1,2.1C-134,399.6-135,400.5-136.2,400.5L-136.2,400.5z M-124.7,398.7c-1.4-0.1-2.7,0.7-3.3,1.9l1.7,0.7
			c0.3-0.6,1-1,1.7-0.9c1-0.1,1.9,0.6,2,1.6l0,0v0.1c-0.6-0.3-1.3-0.5-1.9-0.5c-1.8,0-3.6,1-3.6,2.8c0.1,1.6,1.4,2.8,3,2.8h0.1
			c1,0.1,1.9-0.4,2.4-1.2h0.1v1h1.8v-4.8C-120.8,400-122.5,398.7-124.7,398.7L-124.7,398.7z M-124.9,405.5c-0.6,0-1.5-0.3-1.5-1.1
			c0-1,1.1-1.3,2-1.3c0.6,0,1.2,0.1,1.7,0.4C-122.8,404.7-123.7,405.6-124.9,405.5L-124.9,405.5z M-114.3,399l-2.1,5.4h-0.1l-2.2-5.4
			h-2l3.3,7.6l-1.9,4.2h1.9l5.1-11.8H-114.3L-114.3,399z M-131.1,407h1.9v-12.5h-1.9V407z"/>
			<linearGradient id="SVGID_1_" gradientUnits="userSpaceOnUse" x1="-216.23" y1="971.68" x2="-233.01" y2="988.46" gradientTransform="matrix(1 0 0 1 0 -586)">
				<stop  offset="0" style="stop-color:#00A0FF"/>
				<stop  offset="1.000000e-002" style="stop-color:#00A1FF"/>
				<stop  offset="0.26" style="stop-color:#00BEFF"/>
				<stop  offset="0.51" style="stop-color:#00D2FF"/>
				<stop  offset="0.76" style="stop-color:#00DFFF"/>
				<stop  offset="1" style="stop-color:#00E3FF"/>
			</linearGradient>
			<path class="st2" d="M-227.6,384.5c-0.3,0.4-0.5,0.9-0.5,1.4V408c0,0.5,0.1,1,0.5,1.4l0.1,0.1l12.4-12.4v-0.3L-227.6,384.5
				L-227.6,384.5z"/>
				<linearGradient id="SVGID_2_" gradientUnits="userSpaceOnUse" x1="-204.17" y1="983.05" x2="-228.36" y2="983.05" gradientTransform="matrix(1 0 0 1 0 -586)">
					<stop  offset="0" style="stop-color:#FFE000"/>
					<stop  offset="0.41" style="stop-color:#FFBD00"/>
					<stop  offset="0.78" style="stop-color:#FFA500"/>
					<stop  offset="1" style="stop-color:#FF9C00"/>
				</linearGradient>
				<path class="st3" d="M-211,401.3l-4.1-4.1v-0.3l4.1-4.1h0.1l4.9,2.8c1.4,0.8,1.4,2.1,0,2.9l-4.9,2.8L-211,401.3z"/>
				<linearGradient id="SVGID_3_" gradientUnits="userSpaceOnUse" x1="-213.185" y1="985.285" x2="-235.945" y2="1008.035" gradientTransform="matrix(1 0 0 1 0 -586)">
					<stop  offset="0" style="stop-color:#FF3A44"/>
					<stop  offset="1" style="stop-color:#C31162"/>
				</linearGradient>
				<path class="st4" d="M-210.9,401.2l-4.2-4.2l-12.5,12.5c0.6,0.5,1.5,0.5,2.1,0.1L-210.9,401.2"/>
				<linearGradient id="SVGID_4_" gradientUnits="userSpaceOnUse" x1="-230.735" y1="963.215" x2="-220.575" y2="973.375" gradientTransform="matrix(1 0 0 1 0 -586)">
					<stop  offset="0" style="stop-color:#32A071"/>
					<stop  offset="7.000000e-002" style="stop-color:#2DA771"/>
					<stop  offset="0.48" style="stop-color:#15CF74"/>
					<stop  offset="0.8" style="stop-color:#06E775"/>
					<stop  offset="1" style="stop-color:#00F076"/>
				</linearGradient>
				<path class="st5" d="M-210.9,392.8l-14.6-8.3c-0.6-0.5-1.5-0.5-2.1,0.1l12.5,12.5L-210.9,392.8z"/>
				<path class="st6" d="M-211,401.1l-14.5,8.3c-0.6,0.4-1.4,0.4-2,0l0,0l-0.1,0.1l0,0l0.1,0.1l0,0c0.6,0.4,1.4,0.4,2,0l14.6-8.3
					L-211,401.1z"/>
					<path class="st7" d="M-227.6,409.3c-0.3-0.4-0.5-0.9-0.5-1.4v0.2c0,0.5,0.1,1,0.5,1.4V409.3L-227.6,409.3z"/>
					<path class="st7" d="M-206,398.3l-5,2.8l0.1,0.1L-206,398.3c0.6-0.2,0.9-0.7,1-1.3l0,0C-205.1,397.6-205.5,398-206,398.3z"/>
					<path class="st8" d="M-225.5,384.6l19.5,11.1c0.5,0.3,0.9,0.7,1,1.3l0,0c-0.1-0.6-0.4-1.2-1-1.4L-225.5,384.6
						c-1.4-0.9-2.5-0.2-2.5,1.4v0.1C-228,384.5-226.9,383.8-225.5,384.6z"/>
						<g>
							<g class="st9">
								<path class="st1" d="M-196.3,390.7v-7.2h4.8v1.1h-3.6v1.9h3.2v1.1h-3.2v1.9h3.7v1.1H-196.3z"/>
								<path class="st1" d="M-190.1,383.2c0,0,0.1,0.2,0.2,0.3s0.3,0.4,0.4,0.6c0.2,0.2,0.4,0.5,0.6,0.8s0.4,0.6,0.6,0.9
									c0.2,0.3,0.4,0.6,0.6,0.9c0.2,0.3,0.4,0.5,0.6,0.8c0.2,0.2,0.3,0.4,0.4,0.6s0.2,0.3,0.2,0.3c0,0,0.1-0.1,0.2-0.3
									c0.1-0.1,0.2-0.3,0.4-0.6c0.2-0.2,0.3-0.5,0.5-0.8c0.2-0.3,0.4-0.6,0.6-0.9s0.4-0.6,0.6-0.9c0.2-0.3,0.4-0.6,0.6-0.8
									c0.2-0.2,0.3-0.4,0.4-0.6c0.1-0.2,0.2-0.3,0.2-0.3v7.5h-1.3V387c0-0.1,0-0.1,0-0.2c0-0.1,0-0.1,0-0.1l-2.4,3.4
									c0,0-0.1-0.1-0.2-0.3c-0.1-0.2-0.3-0.4-0.5-0.6s-0.4-0.5-0.6-0.8c-0.2-0.3-0.4-0.5-0.6-0.8c-0.2-0.2-0.3-0.4-0.4-0.6
									c-0.1-0.2-0.2-0.3-0.2-0.3c0,0,0,0,0,0.1c0,0.1,0,0.1,0,0.2v3.7h-1.2V383.2z"/>
									<path class="st1" d="M-178.9,390.7v-7.2h2c0.4,0,0.7,0,1,0.1c0.3,0.1,0.5,0.2,0.7,0.3s0.4,0.3,0.5,0.6c0.1,0.2,0.2,0.5,0.2,0.9
										c0,0.2,0,0.4-0.1,0.5c0,0.2-0.1,0.3-0.2,0.5c-0.1,0.1-0.2,0.3-0.3,0.4c-0.1,0.1-0.3,0.2-0.5,0.3c0.2,0,0.3,0.1,0.5,0.2
										c0.2,0.1,0.3,0.2,0.5,0.3c0.1,0.1,0.2,0.3,0.3,0.5c0.1,0.2,0.1,0.4,0.1,0.7c0,0.3-0.1,0.6-0.2,0.9c-0.1,0.2-0.3,0.5-0.5,0.6
										c-0.2,0.2-0.5,0.3-0.8,0.3c-0.3,0.1-0.6,0.1-0.9,0.1H-178.9z M-177.7,384.6v2h0.9c0.3,0,0.6-0.1,0.7-0.3c0.2-0.2,0.2-0.4,0.2-0.7
										c0-0.3-0.1-0.6-0.3-0.7s-0.5-0.2-0.8-0.2H-177.7z M-177.7,387.6v2h1c0.2,0,0.3,0,0.5-0.1c0.2,0,0.3-0.1,0.4-0.2
										c0.1-0.1,0.2-0.2,0.3-0.3c0.1-0.1,0.1-0.3,0.1-0.5c0-0.2,0-0.4-0.1-0.5c-0.1-0.1-0.2-0.2-0.3-0.3c-0.1-0.1-0.3-0.1-0.5-0.2
										s-0.3,0-0.5,0H-177.7z"/>
										<path class="st1" d="M-173,390.7v-7.2h2c0.4,0,0.8,0.1,1.1,0.2c0.3,0.1,0.6,0.3,0.8,0.5c0.2,0.2,0.4,0.4,0.5,0.7
											c0.1,0.3,0.2,0.6,0.2,1c0,0.2,0,0.4-0.1,0.6s-0.1,0.4-0.2,0.6c-0.1,0.2-0.2,0.4-0.3,0.5s-0.3,0.3-0.5,0.4c0.1,0.2,0.3,0.5,0.4,0.7
											c0.1,0.2,0.3,0.4,0.4,0.7s0.3,0.5,0.4,0.7c0.2,0.2,0.3,0.5,0.5,0.8h-1.5c-0.3-0.5-0.6-0.9-0.8-1.3c-0.3-0.4-0.5-0.8-0.8-1.2h-0.1
											h-1v2.5H-173z M-171.8,387.1h1c0.3,0,0.5,0,0.6-0.1c0.2-0.1,0.3-0.2,0.4-0.3c0.1-0.1,0.2-0.3,0.2-0.4c0-0.1,0.1-0.3,0.1-0.4
											c0-0.1,0-0.2-0.1-0.4c0-0.1-0.1-0.3-0.2-0.4c-0.1-0.1-0.2-0.2-0.4-0.3s-0.4-0.1-0.6-0.1h-1V387.1z"/>
											<path class="st1" d="M-166.7,390.7v-7.2h4.8v1.1h-3.6v1.9h3.2v1.1h-3.2v1.9h3.7v1.1H-166.7z"/>
											<path class="st1" d="M-160.2,383.5l1.9,4.6c0,0,0,0.1,0,0.1c0,0.1,0,0.2,0.1,0.2c0-0.1,0-0.2,0.1-0.2c0-0.1,0-0.1,0-0.1l1.9-4.6
												h1.2c0,0.1-0.1,0.2-0.2,0.4c-0.1,0.2-0.2,0.5-0.4,0.9s-0.3,0.7-0.5,1.2s-0.4,0.9-0.6,1.3c-0.2,0.4-0.4,0.9-0.6,1.3
												c-0.2,0.4-0.3,0.8-0.5,1.2c-0.1,0.3-0.3,0.6-0.4,0.9c-0.1,0.2-0.2,0.4-0.2,0.4c0-0.1-0.1-0.2-0.2-0.4c-0.1-0.2-0.2-0.5-0.4-0.9
												s-0.3-0.7-0.5-1.2c-0.2-0.4-0.4-0.9-0.6-1.3c-0.2-0.4-0.4-0.9-0.6-1.3s-0.3-0.8-0.5-1.2s-0.3-0.6-0.4-0.9
												c-0.1-0.2-0.2-0.4-0.2-0.4H-160.2z"/>
												<path class="st1" d="M-154.1,390.7v-7.2h4.8v1.1h-3.6v1.9h3.2v1.1h-3.2v1.9h3.7v1.1H-154.1z"/>
												<path class="st1" d="M-139.4,383.5v7.6c0-0.1-0.1-0.2-0.3-0.3c-0.2-0.2-0.4-0.3-0.6-0.6c-0.2-0.2-0.5-0.5-0.8-0.7
													c-0.3-0.3-0.6-0.5-0.9-0.8c-0.3-0.3-0.6-0.5-0.9-0.8c-0.3-0.3-0.5-0.5-0.8-0.7c-0.2-0.2-0.4-0.4-0.6-0.6c-0.2-0.2-0.3-0.3-0.3-0.3
													c0,0,0,0-0.1-0.1c0-0.1-0.1-0.1-0.1-0.2l0,0.3v4.5h-1.2v-7.5c0,0.1,0.1,0.2,0.3,0.3c0.2,0.2,0.4,0.3,0.6,0.6
													c0.2,0.2,0.5,0.5,0.8,0.7c0.3,0.3,0.6,0.5,0.9,0.8c0.3,0.3,0.6,0.5,0.9,0.8s0.5,0.5,0.8,0.7c0.2,0.2,0.4,0.4,0.6,0.5
													c0.2,0.2,0.3,0.3,0.3,0.3l0.2,0.3l0-0.3v-4.4H-139.4z"/>
													<path class="st1" d="M-138.2,387.1c0-0.5,0.1-1,0.3-1.4c0.2-0.4,0.5-0.8,0.8-1.2c0.3-0.3,0.7-0.6,1.2-0.8s0.9-0.3,1.4-0.3
														c0.5,0,1,0.1,1.4,0.3c0.4,0.2,0.8,0.5,1.2,0.8c0.3,0.3,0.6,0.7,0.8,1.2s0.3,0.9,0.3,1.4c0,0.5-0.1,1-0.3,1.4
														c-0.2,0.4-0.5,0.8-0.8,1.2c-0.3,0.3-0.7,0.6-1.2,0.8c-0.4,0.2-0.9,0.3-1.4,0.3c-0.5,0-1-0.1-1.4-0.3s-0.8-0.5-1.2-0.8
														c-0.3-0.3-0.6-0.7-0.8-1.2C-138.1,388.1-138.2,387.6-138.2,387.1z M-137,387.1c0,0.4,0.1,0.7,0.2,1c0.1,0.3,0.3,0.6,0.5,0.8
														c0.2,0.2,0.5,0.4,0.8,0.5s0.6,0.2,1,0.2c0.3,0,0.7-0.1,1-0.2c0.3-0.1,0.6-0.3,0.8-0.5s0.4-0.5,0.5-0.8c0.1-0.3,0.2-0.6,0.2-1
														c0-0.3-0.1-0.7-0.2-1c-0.1-0.3-0.3-0.6-0.5-0.8c-0.2-0.2-0.5-0.4-0.8-0.5c-0.3-0.1-0.6-0.2-1-0.2s-0.7,0.1-1,0.2
														c-0.3,0.1-0.6,0.3-0.8,0.5c-0.2,0.2-0.4,0.5-0.5,0.8S-137,386.7-137,387.1z"/>
													</g>
												</g>
											</svg>
