<?xml version="1.0" encoding="utf-8"?>
<!-- Generator: Adobe Illustrator 19.0.0, SVG Export Plug-In . SVG Version: 6.00 Build 0)  -->
<svg version="1.1" id="Layer_1" xmlns="http://www.w3.org/2000/svg" xmlns:xlink="http://www.w3.org/1999/xlink" x="0px" y="0px"
	 viewBox="-155 227 300 300" style="enable-background:new -155 227 300 300;" xml:space="preserve">
<style type="text/css">
	.st0{fill:#26B99A;}
	.st1{fill:#FFFFFF;}
	.st2{clip-path:url(#SVGID_2_);}
	.st3{fill:url(#XMLID_2_);}
	.st4{fill:url(#XMLID_3_);}
	.st5{fill:#F7D9B5;}
	.st6{fill:#EFBC8B;}
	.st7{fill:#342214;}
	.st8{fill:#BFD8E3;}
	.st9{fill:#C94431;}
	.st10{fill:#EAEAEA;}
	.st11{fill:none;stroke:#D5925E;stroke-width:0.9656;stroke-linecap:round;stroke-linejoin:round;stroke-miterlimit:10;}
	.st12{fill:url(#XMLID_4_);}
	.st13{fill:url(#XMLID_5_);}
	.st14{clip-path:url(#SVGID_4_);}
	.st15{fill:#F8D4B4;}
	.st16{fill:#598193;}
	.st17{fill:#F04B34;}
	.st18{fill:#F2B78B;}
	.st19{fill:#ED9E85;}
	.st20{fill:#FFFFFF;stroke:#F37F81;stroke-width:0.942;stroke-miterlimit:10;}
	.st21{fill:url(#XMLID_6_);}
	.st22{clip-path:url(#SVGID_6_);}
	.st23{fill:#ED7076;}
	.st24{fill:url(#XMLID_7_);}
	.st25{fill:url(#XMLID_8_);}
	.st26{clip-path:url(#SVGID_8_);}
	.st27{fill:#C68458;}
	.st28{fill:#E0D94D;}
	.st29{fill:#A56B42;}
	.st30{fill:#392012;}
	.st31{fill:url(#XMLID_9_);}
	.st32{fill:#8ECDC7;}
	.st33{clip-path:url(#SVGID_10_);}
	.st34{fill:#D8AA8B;}
	.st35{fill:#C0977A;}
	.st36{fill:#42438F;}
	.st37{fill:url(#XMLID_10_);}
	.st38{clip-path:url(#SVGID_12_);}
	.st39{fill:url(#XMLID_11_);}
	.st40{fill:#E5B295;}
	.st41{fill:#D39E7A;}
	.st42{fill:#FFFFFF;stroke:#D67029;stroke-width:1.5731;stroke-miterlimit:10;}
	.st43{fill:#E39F84;}
	.st44{fill:#FEF490;}
	.st45{fill:#C0C1E1;}
	.st46{fill:none;stroke:#FEF490;stroke-width:1.6323;stroke-miterlimit:10;}
	.st47{fill:none;stroke:#FFFFFF;stroke-width:0.8161;stroke-miterlimit:10;}
</style>
<g>
	<g>
		<g>
			<g id="share">
				<g id="linhas">
					<path id="XMLID_113_" class="st0" d="M-5.1,371.1L-5.1,371.1c-0.2-0.1-0.3-0.2-0.3-0.3l-21.9-85.4c-0.1-0.2,0-0.3,0.1-0.5
						c0.1-0.1,0.2-0.2,0.4-0.1l69.6,40.9c0.1,0.1,0.2,0.2,0.2,0.3c0,0.2,0,0.3-0.2,0.4L-5,370.8C-4.9,371-5,371.1-5.1,371.1z
						 M-26.3,286.1l21.4,83.8l47-43.7L-26.3,286.1z"/>
					<path id="XMLID_112_" class="st0" d="M-21.3,426.2c-0.1,0-0.2,0-0.2-0.1c-0.1-0.1-0.2-0.3-0.1-0.5l16.2-55.1
						c0-0.1,0.1-0.2,0.2-0.2l47.8-44.4c0.1-0.1,0.2-0.2,0.4-0.1c0.2,0.1,0.2,0.2,0.2,0.4l-4.1,66.5c0,0.2-0.1,0.3-0.2,0.4l-60,33.2
						C-21.2,426.2-21.2,426.2-21.3,426.2z M-4.7,370.8l-16,54.1l59-32.6l4-65.2L-4.7,370.8z"/>
					<path id="XMLID_111_" class="st0" d="M-5.1,371.1L-5.1,371.1l-121.5-10.6c-0.2,0-0.3-0.2-0.3-0.3c0-0.2,0-0.4,0.2-0.5
						l99.6-74.9c0.1-0.1,0.2-0.1,0.3-0.1c0.1,0.1,0.2,0.2,0.2,0.3l21.8,85.4c0,0.2,0,0.3-0.1,0.4C-4.9,371-5,371.1-5.1,371.1z
						 M-125.4,359.7l119.8,10.4l-21.5-84.2L-125.4,359.7z"/>
					<path id="XMLID_110_" class="st0" d="M-111.3,476.6c-0.2,0-0.2-0.1-0.3-0.2c-0.1-0.2-0.1-0.4,0.1-0.5L-5.2,370.3
						c0.2-0.2,0.3-0.2,0.5,0c0.2,0.1,0.2,0.3,0.2,0.5l-16.4,55c0,0.1-0.1,0.2-0.2,0.2L-111.3,476.6
						C-111.3,476.6-111.3,476.6-111.3,476.6z M-5.8,371.9l-103.1,102.5l87.4-49L-5.8,371.9z"/>
					<path id="XMLID_109_" class="st0" d="M-111.3,476.6c-0.1,0-0.1,0-0.2,0c-0.2-0.1-0.2-0.2-0.2-0.3l-15.1-116.2
						c0-0.2,0-0.2,0.1-0.4c0.1-0.1,0.2-0.2,0.3-0.2L-5,370.1c0.2,0,0.2,0.2,0.3,0.3c0.1,0.2,0,0.3-0.1,0.5l-106.3,105.7
						C-111.2,476.6-111.3,476.6-111.3,476.6z M-126.1,360.5l15,114.9l105-104.5L-126.1,360.5z"/>
					<path id="XMLID_108_" class="st0" d="M-3.1,515.4L-3.1,515.4c-0.2,0-0.3-0.2-0.3-0.3l-18.2-89.3c-0.1-0.2,0.1-0.4,0.2-0.5
						l60-33.2c0.2-0.1,0.3-0.1,0.4,0.1s0.2,0.3,0.1,0.5L-2.7,515.2C-2.8,515.4-2.9,515.4-3.1,515.4z M-20.9,426L-3,513.6l41-120.2
						L-20.9,426z"/>
					<path id="XMLID_107_" class="st0" d="M-3.1,515.4L-3.1,515.4l-108.3-38.8c-0.2-0.1-0.2-0.2-0.2-0.4c0-0.2,0.1-0.3,0.2-0.4
						l90.1-50.5c0.1-0.1,0.2-0.1,0.3,0c0.1,0.1,0.2,0.2,0.2,0.3l18.2,89.3c0,0.2,0,0.3-0.1,0.4C-2.9,515.4-3,515.4-3.1,515.4z
						 M-110.3,476.2l106.8,38.3l-18-88L-110.3,476.2z"/>
					<path id="XMLID_106_" class="st0" d="M-3.1,515.4c-0.1,0-0.2-0.1-0.2-0.1c-0.1-0.2-0.2-0.3-0.1-0.5l41.8-122.4
						c0.1-0.2,0.2-0.2,0.3-0.2c0.2,0,0.3,0.2,0.3,0.3l22.9,84.6c0.1,0.2,0,0.4-0.2,0.5L-3.1,515.4C-3,515.4-3,515.4-3.1,515.4z
						 M38.7,393.9L-2.4,514.2L61.1,477L38.7,393.9z"/>
					<path id="XMLID_105_" class="st0" d="M38.7,393c-0.1,0-0.2,0-0.2-0.1c-0.1-0.1-0.2-0.2-0.2-0.4l4.1-66.5c0-0.2,0.1-0.2,0.2-0.3
						c0.1-0.1,0.2-0.1,0.3-0.1l71.7,13.1c0.2,0,0.2,0.2,0.3,0.3s0,0.3-0.1,0.5l-39.6,40.8c-0.1,0.1-0.1,0.1-0.2,0.1L38.7,393
						L38.7,393z M43.1,326.6l-4,65.4l35.7-12.4l39-40.1L43.1,326.6z"/>
					<path id="XMLID_115_" class="st0" d="M61.6,477.6L61.6,477.6c-0.2-0.1-0.3-0.2-0.3-0.2l-14.7-52.7c0-0.2,0-0.2,0.1-0.4
						c0.1-0.1,0.2-0.2,0.3-0.2l78.6-2.4l0,0c0.2,0,0.3,0.1,0.3,0.3c0.1,0.2,0,0.4-0.2,0.5l-63.9,55.2
						C61.7,477.6,61.7,477.6,61.6,477.6z M47.3,424.9l14.4,51.6l62.6-54L47.3,424.9z"/>
					<path id="XMLID_116_" class="st0" d="M125.5,422.5c-0.1,0-0.2,0-0.2-0.1l-50.5-42c-0.1-0.1-0.2-0.2-0.2-0.3
						c0-0.2,0.1-0.2,0.2-0.3l39.6-40.8c0.1-0.1,0.2-0.2,0.4-0.1c0.2,0.1,0.2,0.2,0.2,0.3l11,82.9c0,0.2-0.1,0.3-0.2,0.4
						C125.5,422.4,125.5,422.5,125.5,422.5z M75.5,380l49.5,41.2l-10.7-81.1L75.5,380z"/>
					<path id="XMLID_103_" class="st0" d="M-3,368.9c0.8,1.3,0.5,3.2-0.6,4.2c-1.2,0.9-2.7,0.6-3.5-0.7s-0.5-3.2,0.6-4.2
						C-5.4,367.2-3.8,367.5-3,368.9z"/>
					<path id="XMLID_102_" class="st0" d="M44.8,324.4c0.8,1.3,0.5,3.2-0.6,4.2c-1.2,0.9-2.7,0.6-3.5-0.7s-0.5-3.2,0.6-4.2
						S44,323.1,44.8,324.4z"/>
					<path id="XMLID_101_" class="st0" d="M40.8,390.9c0.8,1.3,0.5,3.2-0.6,4.2c-1.2,0.9-2.7,0.6-3.5-0.7s-0.5-3.2,0.6-4.2
						S39.9,389.5,40.8,390.9z"/>
					<path id="XMLID_100_" class="st0" d="M77,378.3c0.8,1.3,0.5,3.2-0.6,4.2c-1.2,0.9-2.7,0.6-3.5-0.7s-0.5-3.2,0.6-4.2
						C74.6,376.6,76.2,376.9,77,378.3z"/>
					<path id="XMLID_99_" class="st0" d="M116.6,337.5c0.8,1.3,0.5,3.2-0.6,4.2c-1.2,0.9-2.7,0.6-3.5-0.7c-0.8-1.3-0.5-3.2,0.6-4.2
						S115.7,336.1,116.6,337.5z"/>
					<path id="XMLID_98_" class="st0" d="M127.5,420.3c0.8,1.3,0.5,3.2-0.6,4.2s-2.7,0.6-3.5-0.7c-0.8-1.3-0.5-3.2,0.6-4.2
						C125.1,418.6,126.7,418.9,127.5,420.3z"/>
					<path id="XMLID_97_" class="st0" d="M63.6,475.5c0.8,1.3,0.5,3.2-0.6,4.2c-1.2,0.9-2.7,0.6-3.5-0.7c-0.8-1.3-0.5-3.2,0.6-4.2
						C61.3,473.7,62.8,474.1,63.6,475.5z"/>
					<path id="XMLID_96_" class="st0" d="M49.3,422.9c0.8,1.3,0.5,3.2-0.6,4.2c-1.2,0.9-2.7,0.6-3.5-0.7s-0.5-3.2,0.6-4.2
						C47,421.2,48.6,421.5,49.3,422.9z"/>
					<path id="XMLID_95_" class="st0" d="M-1,513.3c0.8,1.3,0.5,3.2-0.6,4.2c-1.2,0.9-2.7,0.6-3.5-0.7c-0.8-1.3-0.5-3.2,0.6-4.2
						C-3.4,511.6-1.8,511.9-1,513.3z"/>
					<path id="XMLID_94_" class="st0" d="M-19.2,424c0.8,1.3,0.5,3.2-0.6,4.2c-1.2,0.9-2.7,0.6-3.5-0.7s-0.5-3.2,0.6-4.2
						S-20,422.6-19.2,424z"/>
					<path id="XMLID_93_" class="st0" d="M-109.2,474.5c0.8,1.3,0.5,3.2-0.6,4.2s-2.7,0.6-3.5-0.7c-0.8-1.3-0.5-3.2,0.6-4.2
						C-111.7,472.8-110.1,473.2-109.2,474.5z"/>
					<path id="XMLID_90_" class="st0" d="M-124.4,358.3c0.8,1.3,0.5,3.2-0.6,4.2c-1.2,0.9-2.7,0.6-3.5-0.7s-0.5-3.2,0.6-4.2
						C-126.8,356.6-125.2,356.9-124.4,358.3z"/>
					<path id="XMLID_89_" class="st0" d="M-24.8,283.5c0.8,1.3,0.5,3.2-0.6,4.2c-1.2,0.9-2.7,0.6-3.5-0.7c-0.8-1.3-0.5-3.2,0.6-4.2
						S-25.6,282.2-24.8,283.5z"/>
				</g>
				<g id="pessoa_6">
					<circle id="XMLID_333_" class="st0" cx="-126.4" cy="359.7" r="14.3"/>
					<g id="XMLID_260_">
						<circle id="XMLID_332_" class="st1" cx="-126.4" cy="359.7" r="13.1"/>
						<g id="XMLID_261_">
							<g>
								<g>
									<defs>
										<circle id="SVGID_1_" cx="-126.4" cy="359.7" r="13.1"/>
									</defs>
									<clipPath id="SVGID_2_">
										<use xlink:href="#SVGID_1_"  style="overflow:visible;"/>
									</clipPath>
									<g id="XMLID_1012_" class="st2">
										<g id="XMLID_1013_">
											
												<linearGradient id="XMLID_2_" gradientUnits="userSpaceOnUse" x1="-253.0151" y1="559.4361" x2="-253.0151" y2="555.4106" gradientTransform="matrix(1.2898 0 0 1.2898 196.133 -356.6935)">
												<stop  offset="0.1457" style="stop-color:#433B41"/>
												<stop  offset="1" style="stop-color:#676073"/>
											</linearGradient>
											<path id="XMLID_1036_" class="st3" d="M-130.6,351.6c-3.5,2.6-2.4,6.4-1.9,9.6c0.1,0.8,0.3,1.6,0.3,2.4s-0.3,1.7-1,2.1
												c0.9,0.1,1.8-0.2,2.4-0.8c-0.1,0.5-0.1,1.1-0.1,1.6c0.5-0.2,1.1-0.4,1.6-0.6c0.2,0.6,0.4,1.2,0.7,1.8
												c1.2-0.9,1.4-2.5,1.4-4c0-3.8-0.9-7.6-2.5-11"/>
											
												<linearGradient id="XMLID_3_" gradientUnits="userSpaceOnUse" x1="935.3813" y1="559.4361" x2="935.3813" y2="555.4106" gradientTransform="matrix(-1.2898 0 0 1.2898 1083.6534 -356.6935)">
												<stop  offset="0.1457" style="stop-color:#433B41"/>
												<stop  offset="1" style="stop-color:#676073"/>
											</linearGradient>
											<path id="XMLID_1035_" class="st4" d="M-122.4,351.6c3.5,2.6,2.4,6.4,1.9,9.6c-0.1,0.8-0.3,1.6-0.3,2.4s0.3,1.7,1,2.1
												c-0.9,0.1-1.8-0.2-2.4-0.8c0.1,0.5,0.1,1.1,0.1,1.6c-0.5-0.2-1.1-0.4-1.6-0.6c-0.2,0.6-0.4,1.2-0.7,1.8
												c-1.2-0.9-1.4-2.5-1.4-4c0-3.8,0.9-7.6,2.5-11"/>
											<path id="XMLID_1034_" class="st5" d="M-116.8,370.5c-0.4-0.3-0.9-0.5-1.4-0.7l-0.5-0.2l0,0l-4.4-1.4
												c-0.3-0.1-0.5-0.4-0.6-0.7c-0.2-0.9-0.2-3.2-0.2-3.5c0-0.1-0.1-0.1-0.1-0.1h-0.2h-4.4h-0.2c-0.1,0-0.1,0.1-0.1,0.1
												c0,0.4,0.1,2.6-0.2,3.5c-0.1,0.3-0.3,0.6-0.6,0.7l-4.5,1.4l0,0l-0.6,0.2c-0.5,0.1-0.9,0.3-1.3,0.5
												c-2,1.3-2.1,3.5-2.2,3.9c0,0.1,0.1,0.1,0.1,0.1h11.6h11.6c0.1,0,0.1-0.1,0.1-0.1C-114.9,373.8-114.9,371.8-116.8,370.5z"
												/>
											<g id="XMLID_1016_">
												<g id="XMLID_1032_">
													<path id="XMLID_1033_" class="st6" d="M-123.9,366.6c0-1.1-0.1-2-0.1-2.3c0-0.1-0.1-0.1-0.1-0.1h-4.8
														c-0.1,0-0.1,0.1-0.1,0.1c0,0.3-0.1,1.2-0.1,2.3c0.3,0.4,1.7,0.9,2.5,0.9S-124.3,366.9-123.9,366.6z"/>
												</g>
												<g id="XMLID_1029_">
													<path id="XMLID_1031_" class="st5" d="M-131,359.2c0.3,0.9,0.1,2.4-0.4,2.6c-0.6,0.3-1.3-0.7-1.7-1.7
														c-0.3-0.9-0.1-1.9,0.4-2.1C-132.1,357.7-131.3,358.3-131,359.2z"/>
													<path id="XMLID_1030_" class="st5" d="M-121.9,359.2c-0.3,0.9-0.1,2.4,0.4,2.6c0.6,0.3,1.3-0.7,1.7-1.7
														c0.4-1,0.1-1.9-0.4-2.1C-120.8,357.7-121.6,358.3-121.9,359.2z"/>
												</g>
												<path id="XMLID_1028_" class="st5" d="M-126.5,351c-5.7-0.2-5.8,5.3-5.7,7.1c0.1,1.3,0.4,3.2,0.7,4.2
													c0.2,0.5,0.5,1.4,0.9,1.8c1.1,1.1,2.5,2,3.4,2.4c0.2,0.1,0.5,0.1,0.9,0.1c0.3,0,0.7-0.1,0.9-0.1
													c0.9-0.3,2.3-1.3,3.4-2.4c0.4-0.4,0.7-1.3,0.9-1.8c0.3-1,0.6-2.8,0.7-4.2C-120.7,356.3-120.8,350.8-126.5,351z"/>
												<g id="XMLID_1025_">
													<path id="XMLID_1027_" class="st7" d="M-129.3,357.8c0.5,0,0.8,0.3,0.8,0.8c0,0.4-0.4,0.8-0.8,0.8s-0.8-0.5-0.8-1
														C-130.2,358-129.8,357.8-129.3,357.8z"/>
													<path id="XMLID_1026_" class="st7" d="M-123.6,357.8c0.5,0,0.8,0.1,0.8,0.5c0,0.4-0.4,1-0.8,1c-0.5,0-0.8-0.3-0.8-0.8
														C-124.4,358.2-124,357.8-123.6,357.8z"/>
												</g>
												<g id="XMLID_1018_">
													<path id="XMLID_1024_" class="st8" d="M-116.8,370.4c-0.4-0.3-0.9-0.5-1.4-0.7l-0.5-0.2l0,0l-4-1.3l-0.5-0.1
														c-0.1-0.1-0.2-0.1-0.3-0.1c-0.9,0.3-1.8,0.5-2.8,0.5c0.4,0,0.6,0,1,0.2c-1.4,0.2-3.2,0.5-4.2-0.6
														c-0.1,0.1-0.1,0.1-0.2,0.1l-0.5,0.1l-4,1.3l0,0l-0.6,0.2c-0.5,0.1-0.9,0.3-1.3,0.5c-2,1.3-2.1,3.5-2.2,3.9
														c0,0.1,0.1,0.1,0.1,0.1h11.6h11.6c0.1,0,0.1-0.1,0.1-0.1C-114.9,373.8-114.9,371.8-116.8,370.4z"/>
													<path id="XMLID_1023_" class="st9" d="M-127.4,370.5l-0.9-2h3.6l-0.9,2C-126,371.3-127,371.3-127.4,370.5z"/>
													<path id="XMLID_1022_" class="st9" d="M-125.6,371.3l0.9,3h-3.6l0.9-3C-127,370.6-126,370.6-125.6,371.3z"/>
													<g id="XMLID_1019_">
														<path id="XMLID_1021_" class="st10" d="M-129.1,367.2l-0.9,0.6l1.9,3l1.8-2.3C-126.3,368.6-129,367.8-129.1,367.2z"/>
														<path id="XMLID_1020_" class="st10" d="M-123.8,367.2l0.9,0.6l-1.9,3l-1.8-2.3C-126.6,368.6-123.9,367.8-123.8,367.2z
															"/>
													</g>
												</g>
												<path id="XMLID_1017_" class="st11" d="M-128,362.8c0.3,0.4,0.8,0.6,1.4,0.6c0.7,0,1.2-0.3,1.4-0.6"/>
											</g>
											
												<linearGradient id="XMLID_4_" gradientUnits="userSpaceOnUse" x1="-246.6077" y1="548.1026" x2="-246.6077" y2="552.0412" gradientTransform="matrix(1.2898 0 0 1.2898 196.133 -356.6935)">
												<stop  offset="0.1457" style="stop-color:#433B41"/>
												<stop  offset="1" style="stop-color:#676073"/>
											</linearGradient>
											<path id="XMLID_1015_" class="st12" d="M-121.4,360.6c0.1-1.9-0.4-3.8-1.5-5.3c-0.3-0.4-0.6-0.8-0.8-1.3
												c-0.2-0.5-0.3-1,0-1.4c1.4-2.2,3.1,0.5,3.4,1.8C-119.7,356.5-120.1,358.8-121.4,360.6z"/>
											
												<linearGradient id="XMLID_5_" gradientUnits="userSpaceOnUse" x1="-251.0293" y1="548.1026" x2="-251.0293" y2="552.0413" gradientTransform="matrix(1.2898 0 0 1.2898 196.133 -356.6935)">
												<stop  offset="0.1457" style="stop-color:#433B41"/>
												<stop  offset="1" style="stop-color:#676073"/>
											</linearGradient>
											<path id="XMLID_1014_" class="st13" d="M-123.6,350.3c-0.9-0.5-2-0.6-3.2-0.5c-1.8,0.2-3.4,1-4.6,2.2
												c-1.1,1.2-1.8,2.8-1.7,4.4c0.2-0.2,0.4-0.3,0.5-0.5c-0.1,1.7,0.3,3.3,1.2,4.7c-0.1-1.9,0.3-3.8,1.2-5.3
												c0.2-0.4,0.6-0.7,0.8-1.1c0.1-0.1-0.7,1.1-0.7,2.7c0-0.2,1.8-1.2,2-1.4c0.5-0.5,1-1,1.4-1.4c-0.3,0.4-0.5,0.8-0.6,1.2
												c-0.1,0.3-0.5,2-0.7,2c1.3-0.5,5.4-2.6,5.5-4.5C-122.2,351.8-122.7,350.8-123.6,350.3z"/>
										</g>
									</g>
								</g>
							</g>
						</g>
					</g>
				</g>
				<g id="pessoa_5">
					<animateTransform
						attributeName="transform"
						type="translate"
						values="0,0; -3,-3; 10,5; -2,4; -5,10; 0,0"
						dur="4s"
						repeatCount="indefinite"
					/>
					<circle id="XMLID_594_" class="st0" cx="-105.5" cy="469.4" r="34.3"/>
					<g id="XMLID_285_">
						<circle id="XMLID_593_" class="st1" cx="-105.5" cy="469.4" r="31.4"/>
					</g>
					<g id="XMLID_288_">
						<g>
							<g>
								<defs>
									<circle id="SVGID_3_" cx="-105.5" cy="469.4" r="31.4"/>
								</defs>
								<clipPath id="SVGID_4_">
									<use xlink:href="#SVGID_3_"  style="overflow:visible;"/>
								</clipPath>
								<g id="XMLID_290_" class="st14">
									<g id="XMLID_613_">
										<g id="XMLID_893_">
											<path id="XMLID_896_" class="st15" d="M-116,466.2c0.8,1.9,0.3,4.9-1,5.4s-3.1-1.5-3.9-3.4c-0.8-1.9-0.3-3.8,1-4.5
												C-118.6,463.2-116.8,464.3-116,466.2z"/>
											<path id="XMLID_895_" class="st15" d="M-94.7,466.2c-0.8,1.9-0.3,4.9,1,5.4s3.1-1.5,3.9-3.4s0.3-3.8-1-4.5
												C-92.2,463.2-93.9,464.3-94.7,466.2z"/>
										</g>
										<path id="XMLID_892_" class="st15" d="M-86.6,492.4c-0.9-0.7-1.9-1.2-3-1.6l-10-3.1l0,0c-0.7-0.2-1.1-0.9-1.3-1.6
											c-0.4-2.1-0.3-7.6-0.3-8.5c0-0.1-0.1-0.2-0.2-0.2h-8.8c-0.1,0-0.2,0.1-0.2,0.2c0,0.9,0.1,6.3-0.3,8.5
											c-0.2,0.7-0.5,1.4-1.3,1.6l0,0l-10,3.1c-0.9,0.3-1.8,0.7-2.6,1.3c-4.1,3-4.2,7.9-4.3,8.8c0,0.1,0.1,0.2,0.2,0.2h22.9h23.1
											c0.1,0,0.2-0.1,0.2-0.2C-82.7,500-82.7,495.4-86.6,492.4z"/>
										<g id="XMLID_887_">
											<path id="XMLID_891_" class="st15" d="M-112.4,495.9c3.8,1.1,6,3.1,7,4.4c1.1-1.4,3.1-3.3,7-4.5c4.8-1.4,6.2-4.3,6.6-5.8
												l-7.7-2.4c-0.7-0.2-1.1-0.9-1.3-1.6c-0.4-2.1-0.3-7.6-0.3-8.5c0-0.1-0.1-0.2-0.2-0.2h-8.8c-0.1,0-0.2,0.1-0.2,0.2
												c0,0.9,0.1,6.3-0.3,8.5c-0.2,0.7-0.5,1.4-1.3,1.6l-7.3,2.3C-118.6,491.5-117.3,494.5-112.4,495.9z"/>
											<path id="XMLID_890_" class="st16" d="M-86.6,492.4c-0.9-0.7-1.9-1.2-3-1.6l-0.9-0.2v10.3h-15h-15v-10.5l-1.2,0.4
												c-0.9,0.3-1.8,0.7-2.6,1.3c-4.1,3-4.2,7.9-4.3,8.8c0,0.1,0.1,0.2,0.2,0.2h22.9h22.8c0.1,0,0.2-0.1,0.2-0.2
												C-82.7,500-82.7,495.4-86.6,492.4z"/>
											<path id="XMLID_889_" class="st17" d="M-119,490l-1.4,0.5l0,0L-119,490L-119,490z"/>
											<path id="XMLID_888_" class="st16" d="M-105.4,500.9h15.1v-10.3l-1.4-0.5c-0.4,1.5-1.7,4.5-6.6,5.8c-3.8,1.1-6,3.1-7,4.5
												c-1.1-1.4-3.1-3.3-7-4.4c-4.9-1.4-6.3-4.5-6.6-6l-1.4,0.5V501L-105.4,500.9L-105.4,500.9z"/>
										</g>
										<g id="XMLID_885_">
											<path id="XMLID_886_" class="st18" d="M-101,482.2c-0.1-1.9,0-3.7,0-4.2c0-0.1-0.1-0.2-0.2-0.2h-8.9
												c-0.1,0-0.2,0.1-0.2,0.2c0,0.5,0,2.3,0,4.2C-107.2,483.2-104,483.2-101,482.2z"/>
										</g>
										<path id="XMLID_884_" class="st15" d="M-105.5,447.6c-13.6-0.5-13.7,12.3-13.6,16.6c0.2,3.1,1.3,7.5,2,9.8
											c0.4,1.3,1,2.4,2,3.4c3.5,3.4,9.5,4.5,9.5,4.5s6-1.2,9.5-4.5c0.9-0.9,1.6-2.1,2-3.4c0.6-2.2,1.9-6.7,2-9.8
											C-91.9,460.1-88.2,446.9-105.5,447.6z"/>
										<g id="XMLID_877_">
											<path id="XMLID_881_" class="st19" d="M-112.3,469.4c0.8,1.7-0.9,3.4-2.7,2.7c-0.4-0.2-0.7-0.5-0.9-0.9
												c-0.8-1.7,0.9-3.4,2.7-2.7C-112.8,468.6-112.4,469-112.3,469.4z"/>
											<path id="XMLID_878_" class="st19" d="M-95,469.4c0.8,1.7-0.9,3.4-2.7,2.7c-0.4-0.2-0.7-0.5-0.9-0.9
												c-0.8-1.7,0.9-3.4,2.7-2.7C-95.4,468.6-95.1,469-95,469.4z"/>
										</g>
										<g id="XMLID_813_">
											<g id="XMLID_874_">
												<ellipse id="XMLID_876_" class="st7" cx="-112.1" cy="465.2" rx="1.7" ry="2"/>
												<ellipse id="XMLID_875_" class="st7" cx="-98.6" cy="465.2" rx="1.7" ry="2"/>
											</g>
											<g id="XMLID_816_">
												<polygon id="XMLID_871_" class="st7" points="-98.2,464.9 -96.1,464.3 -96.8,465.4 												"/>
												<polygon id="XMLID_868_" class="st7" points="-112.6,464.9 -114.7,464.3 -113.9,465.4 												"/>
											</g>
										</g>
										<g id="XMLID_614_">
											<g>
												<path id="XMLID_18_" class="st20" d="M-108.8,474.2c0.6,1.3,1.9,2.2,3.4,2.2s2.8-0.9,3.4-2.2H-108.8z"/>
											</g>
										</g>
									</g>
									
										<linearGradient id="XMLID_6_" gradientUnits="userSpaceOnUse" x1="-230.8309" y1="635.2363" x2="-238.8871" y2="624.3914" gradientTransform="matrix(1.2898 0 0 1.2898 196.133 -356.6935)">
										<stop  offset="0" style="stop-color:#F04B34"/>
										<stop  offset="1" style="stop-color:#99362A"/>
									</linearGradient>
									<path id="XMLID_612_" class="st21" d="M-90.3,455.1c-0.1-2.2-0.9-4.4-2.4-6.3c-2-2.5-5.4-4.4-9.1-5.1
										c-3.4-0.6-6.7,0.7-8.4,3.1c-0.1-0.1-0.2-0.2-0.4-0.2c-2.2-0.7-4.6,0-6.4,1.9c-1.8,1.8-3.8,4.8-3.8,7.8c0,0.3,0,0.6,0,0.9
										c0.5,1.9,1,3.8,1.6,5.5c0.4,1.3,0.9,2.8,1.6,4.2c0.1-0.1,0.1-0.2,0.2-0.2v-0.1c-0.3-1.1-0.4-2.2-0.2-3.3
										c0-3.5,0.9-7.1,4.4-8.3c0.2-0.1,1.7-0.9,2.7-1.8c1.8,3.9,6.5,6.7,11.1,6.4c-0.8-0.9-1.3-2-1.7-3.2c1.1,1,2.6,1.8,3.8,2.7
										c1.6,1.1,3.1,2.7,3.1,4.6c0.8-1.6,1-3.4,0.8-5.1c0.1,0.2,0.1,0.5,0.2,0.6c0.4,2.8,0.2,5.7-0.5,8.5c1.3-2.1,2.6-4.2,3.3-6.6
										C-90.1,459.1-89.9,457-90.3,455.1z"/>
								</g>
							</g>
						</g>
					</g>
				</g>
				<g id="pessoa_4">
					<animateTransform
						attributeName="transform"
						type="translate"
						values="0,0; 3,9; -2,5; 5,7; 0,15;0,0"
						dur="5s"
						repeatCount="indefinite"
					/>
					<circle id="XMLID_675_" class="st0" cx="-23.8" cy="265.7" r="28.2"/>
					<g id="XMLID_518_">
						<circle id="XMLID_674_" class="st1" cx="-23.8" cy="265.7" r="25.8"/>
						<g id="XMLID_520_">
							<g>
								<g>
									<defs>
										<circle id="SVGID_5_" cx="-23.8" cy="265.7" r="25.8"/>
									</defs>
									<clipPath id="SVGID_6_">
										<use xlink:href="#SVGID_5_"  style="overflow:visible;"/>
									</clipPath>
									<g id="XMLID_956_" class="st22">
										<g id="XMLID_962_">
											<path id="XMLID_976_" class="st15" d="M-5.7,285.1c-0.8-0.5-1.7-1-2.7-1.3l-1-0.3l0,0l-8.2-2.7c-0.6-0.2-1-0.7-1.2-1.3
												c-0.3-1.7-0.3-5.9-0.3-6.6c0-0.1-0.1-0.1-0.1-0.1h-0.4h-8.2h-0.4c-0.1,0-0.2,0.1-0.1,0.1c0,0.7,0.1,4.8-0.3,6.6
												c-0.1,0.6-0.5,1.2-1.2,1.3l-8.2,2.7l0,0l-1.1,0.3c-0.9,0.2-1.6,0.5-2.4,1c-3.8,2.4-3.9,6.5-4.1,7.3
												c0,0.1,0.1,0.2,0.1,0.2h21.6h21.8c0.1,0,0.2-0.1,0.1-0.2C-2.2,291.4-2.2,287.6-5.7,285.1z"/>
											<g id="XMLID_974_">
												<g>
													<path id="XMLID_17_" class="st23" d="M-5.7,285.1c-0.8-0.5-1.7-1-2.7-1.3l-1-0.3l0,0l-7.1-2.3
														c-2.2,0.9-4.6,1.3-7.2,1.3s-5-0.5-7.2-1.3l-7.1,2.3l0,0l-1.1,0.3c-0.9,0.2-1.6,0.5-2.4,1c-3.8,2.4-3.9,6.5-4.1,7.3
														c0,0.1,0.1,0.2,0.1,0.2h21.6H-2c0.1,0,0.2-0.1,0.1-0.2C-2.2,291.4-2.2,287.6-5.7,285.1z"/>
												</g>
											</g>
											<g id="XMLID_972_">
												<path id="XMLID_973_" class="st18" d="M-19,278c0-2-0.1-3.8-0.1-4.2c0-0.1-0.1-0.2-0.1-0.2h-9c-0.1,0-0.2,0.1-0.1,0.2
													c0,0.5-0.1,2.3-0.1,4.2c0.6,0.7,3.1,1.6,4.6,1.6C-22.3,279.7-19.8,278.5-19,278z"/>
											</g>
											<g id="XMLID_969_">
												<path id="XMLID_971_" class="st15" d="M-32.3,264.1c0.6,1.7,0.2,4.4-0.8,4.9c-1.1,0.5-2.4-1.3-3.1-3
													c-0.6-1.7-0.2-3.5,0.8-4C-34.3,261.4-32.9,262.4-32.3,264.1z"/>
												<path id="XMLID_970_" class="st15" d="M-15.4,264.1c-0.6,1.7-0.2,4.4,0.8,4.9c1.1,0.5,2.4-1.3,3.1-3
													c0.6-1.7,0.2-3.5-0.8-4C-13.3,261.4-14.7,262.4-15.4,264.1z"/>
											</g>
											<path id="XMLID_968_" class="st15" d="M-23.9,249c-10.7-0.4-10.8,9.9-10.7,13.2c0.1,2.4,0.7,6,1.3,7.8
												c0.3,1,0.9,2.7,1.6,3.4c2.1,2,4.7,3.8,6.3,4.4c0.3,0.1,0.9,0.2,1.6,0.2s1.3-0.1,1.6-0.2c1.6-0.6,4.2-2.4,6.3-4.4
												c0.8-0.7,1.3-2.4,1.6-3.4c0.5-1.8,1.1-5.3,1.3-7.8C-13.1,258.8-13.2,248.6-23.9,249z"/>
											<g id="XMLID_965_">
												<ellipse id="XMLID_967_" class="st7" cx="-29.4" cy="263.1" rx="1.3" ry="1.5"/>
												<ellipse id="XMLID_966_" class="st7" cx="-18.6" cy="263.1" rx="1.3" ry="1.5"/>
											</g>
											
												<linearGradient id="XMLID_7_" gradientUnits="userSpaceOnUse" x1="-172.4648" y1="467.8961" x2="-171.4115" y2="472.7409" gradientTransform="matrix(1.2898 0 0 1.2898 196.133 -356.6935)">
												<stop  offset="0.3668" style="stop-color:#FFF4D5"/>
												<stop  offset="1" style="stop-color:#F7D062"/>
											</linearGradient>
											<path id="XMLID_964_" class="st24" d="M-13.7,253.4c0-0.2-0.1-0.4-0.2-0.5c-1.6-2.7-5.3-4.6-9.9-4.5
												c-4.6-0.2-8.2,1.8-9.9,4.5c-0.1,0.2-0.2,0.3-0.2,0.5c-1.2,2.3-0.7,4.9-0.8,6.9c0.1,1.3,0.3,2.5,0.7,3.7
												c0.3-1.7,0.2-3.5,0.6-5.3c0.3-1.3,0.7-2.5,1.3-3.8c2.3,0.9,5.2,1.4,8.3,1.4c3.1,0,6-0.5,8.3-1.4c0.5,1.2,0.9,2.4,1.3,3.8
												c0.4,1.7,0.3,3.5,0.6,5.3c0.4-1.1,0.6-2.4,0.7-3.7C-13,258.4-12.5,255.7-13.7,253.4z"/>
											
												<linearGradient id="XMLID_8_" gradientUnits="userSpaceOnUse" x1="-170.4208" y1="465.1266" x2="-169.5782" y2="475.4483" gradientTransform="matrix(1.2898 0 0 1.2898 196.133 -356.6935)">
												<stop  offset="0.3668" style="stop-color:#FFF4D5"/>
												<stop  offset="1" style="stop-color:#F7D062"/>
											</linearGradient>
											<path id="XMLID_963_" class="st25" d="M-28.6,256c-2.5-0.9,0.4-5.1,0.9-5.5c2-1.9,5.3-2.4,5.9-5.6c2.7,1,4.8,3.4,5.5,6.1
												c0.3,1.2-0.8,4.1-1.8,4.8C-18.1,255.8-24,257.8-28.6,256z"/>
										</g>
										<g id="XMLID_957_">
											<g>
												<path id="XMLID_16_" class="st1" d="M-26.6,271c0.5,1,1.5,1.8,2.7,1.8s2.3-0.7,2.7-1.8H-26.6z"/>
											</g>
										</g>
									</g>
								</g>
							</g>
						</g>
					</g>
				</g>
				<g id="pessoa_3">
					<circle id="XMLID_739_" class="st0" cx="118.6" cy="337.8" r="24"/>
					<g id="XMLID_623_">
						<circle id="XMLID_738_" class="st1" cx="118.6" cy="337.8" r="21.9"/>
						<g id="XMLID_624_">
							<g>
								<g>
									<defs>
										<circle id="SVGID_7_" cx="118.6" cy="337.8" r="21.9"/>
									</defs>
									<clipPath id="SVGID_8_">
										<use xlink:href="#SVGID_7_"  style="overflow:visible;"/>
									</clipPath>
									<g id="XMLID_628_" class="st26">
										<g id="XMLID_682_">
											<g id="XMLID_683_">
												<g id="XMLID_716_">
													<path id="XMLID_737_" class="st27" d="M133.7,354.8c-0.7-0.5-1.5-0.9-2.3-1.1l-0.9-0.2l0,0l-6.9-2.3
														c-0.5-0.2-0.9-0.6-0.9-1.1c-0.3-1.4-0.2-4.9-0.2-5.6c0-0.1-0.1-0.1-0.1-0.1h-0.3h-6.9h-0.3c-0.1,0-0.1,0-0.1,0.1
														c0,0.6,0,4-0.2,5.6c-0.1,0.5-0.4,0.9-0.9,1.1l-6.9,2.3l0,0l-0.9,0.2c-0.7,0.2-1.4,0.5-2,0.9c-3.1,2-3.3,5.5-3.4,6.1
														c0,0.1,0,0.1,0.1,0.1h18.2H137c0.1,0,0.1-0.1,0.1-0.1C136.7,360.1,136.7,356.9,133.7,354.8z"/>
													<g id="XMLID_735_">
														<path id="XMLID_736_" class="st28" d="M133.7,354.8c-0.7-0.5-1.5-0.9-2.3-1.1l-0.9-0.2l0,0l-6-2
															c-1.9,0.7-3.9,1.1-6,1.1s-4.2-0.4-6-1.1l-6,2l0,0l-0.9,0.2c-0.7,0.2-1.4,0.5-2,0.9c-3.1,2-3.3,5.5-3.4,6.1
															c0,0.1,0,0.1,0.1,0.1h18.2h18.2c0.1,0,0.1-0.1,0.1-0.1C136.7,360.1,136.7,356.9,133.7,354.8z"/>
													</g>
													<g id="XMLID_733_">
														<path id="XMLID_734_" class="st29" d="M122.5,348.8c0-1.6-0.1-3.1-0.1-3.5c0-0.1-0.1-0.1-0.1-0.1h-7.5
															c-0.1,0-0.1,0.1-0.1,0.1c0,0.4-0.1,2-0.1,3.5c0.5,0.5,2.5,1.3,3.8,1.3C119.8,350.2,121.9,349.3,122.5,348.8z"/>
													</g>
													<g id="XMLID_730_">
														<path id="XMLID_732_" class="st27" d="M111.4,337.1c0.5,1.4,0.2,3.7-0.7,4.1c-0.9,0.5-2-1.1-2.6-2.5
															c-0.6-1.4-0.2-2.9,0.7-3.4C109.7,334.9,110.9,335.7,111.4,337.1z"/>
														<path id="XMLID_731_" class="st27" d="M125.6,337.1c-0.5,1.4-0.2,3.7,0.7,4.1c0.9,0.5,2-1.1,2.6-2.5
															c0.5-1.4,0.2-2.9-0.7-3.4C127.3,334.9,126.2,335.7,125.6,337.1z"/>
													</g>
													<path id="XMLID_729_" class="st27" d="M118.5,324.5c-8.9-0.3-9.1,8.3-8.9,11.1c0.1,2,0.5,5.1,1,6.5
														c0.2,0.9,0.7,2.3,1.3,2.9c1.7,1.6,3.9,3.1,5.3,3.7c0.2,0.1,0.8,0.2,1.3,0.2s1.1,0,1.3-0.2c1.3-0.5,3.5-2,5.3-3.7
														c0.6-0.6,1.1-2,1.3-2.9c0.5-1.5,0.9-4.5,1-6.5C127.6,332.7,127.4,324.2,118.5,324.5z"/>
													<g id="XMLID_725_">
														<path id="XMLID_726_" class="st30" d="M120.2,346.6c-0.9-0.2-1.6-1.1-1.7-1.6c-0.2,0.5-0.9,1.5-1.7,1.6
															c-2.2,0.4-4.3-1.5-5.9-3.4c0.2,0.7,0.5,1.4,1,1.8c1.7,1.6,3.9,3.1,5.3,3.7c0.2,0.1,0.8,0.2,1.3,0.2s1.1,0,1.3-0.2
															c1.3-0.5,3.5-2,5.3-3.7c0.4-0.4,0.7-1.1,1-1.8C124.5,345.2,122.4,347,120.2,346.6z"/>
													</g>
													<g id="XMLID_722_">
														<ellipse id="XMLID_724_" class="st7" cx="113.8" cy="336.3" rx="1.1" ry="1.3"/>
														<ellipse id="XMLID_723_" class="st7" cx="122.9" cy="336.3" rx="1.1" ry="1.3"/>
													</g>
													<g id="XMLID_717_">
														<g>
															<path id="XMLID_15_" class="st1" d="M115.7,342.4c0.5,1.3,1.6,2.1,2.9,2.1s2.4-0.9,2.9-2.1H115.7z"/>
														</g>
													</g>
												</g>
												<g id="XMLID_694_">
													<g id="XMLID_711_">
														<g>
															<path id="XMLID_14_" class="st30" d="M110.6,332.9c0.4-1.6,1-3.3,1.9-4.8c-0.2-0.4-0.8-0.5-1.3-0.4
																c-1.3,2-1.6,4.7-1.7,6.5c0.1,1.1,0.2,2.1,0.5,3.1C110.3,335.9,110.2,334.4,110.6,332.9z"/>
														</g>
													</g>
													<g id="XMLID_695_">
														<g>
															<path id="XMLID_12_" class="st30" d="M126.6,332.9c-0.4-1.6-1-3.3-1.9-4.8c0.2-0.4,0.8-0.5,1.3-0.4
																c1.3,2,1.6,4.7,1.7,6.5c-0.1,1.1-0.2,2.1-0.5,3.1C126.8,335.9,126.9,334.4,126.6,332.9z"/>
														</g>
													</g>
												</g>
												
													<linearGradient id="XMLID_9_" gradientUnits="userSpaceOnUse" x1="-60.2351" y1="531.699" x2="-60.2351" y2="524.2045" gradientTransform="matrix(1.2898 0 0 1.2898 196.133 -356.6935)">
													<stop  offset="0" style="stop-color:#392012"/>
													<stop  offset="0.7085" style="stop-color:#905023"/>
													<stop  offset="1" style="stop-color:#A7742D"/>
												</linearGradient>
												<path id="XMLID_693_" class="st31" d="M127,328.2c0-0.2-0.1-0.3-0.2-0.5c-0.3-0.5-0.8-1.1-1.3-1.5
													c0-0.5-0.2-1.1-0.5-1.6c-1.3-2.2-3.1-4-5.4-5c0,1.3-0.9,2.3-2,2.8c-1,0.6-2.3,0.9-3.3,1.6c-0.2,0.2-0.7,0.5-1.1,0.9
													c-1.3,0.7-2.4,1.6-3,2.7c-0.1,0.2-0.2,0.3-0.2,0.5c-1,2-0.9,4.2-0.9,5.8c0.1,1.1,0.5,4.1,0.8,5c0.2-1.5,0.2-4.9,0.5-6.3
													c0.2-1.1,0.6-2.1,1-3.1c2.2-2.4,11.5-2.2,14,0c0.5,1,0.8,2,1,3.1c0.3,1.5,0.2,4.9,0.5,6.3c0.3-0.9,0.7-3.9,0.8-5
													C127.8,332.3,128,330.1,127,328.2z"/>
											</g>
										</g>
										<g id="XMLID_629_">
											<g id="XMLID_634_">
												<path id="XMLID_678_" class="st32" d="M117.5,334.7c-1.6-2-7.8-0.5-7.8-0.5c0.1,0.5,0.2,0.9,0.3,1.3
													c0.5,0.1,0.5,1.1,0.5,1.5c0.2,1.8,1.4,3.1,4,3.1c2.6-0.2,3.1-2,3.3-3.1C117.9,335.5,117.5,334.7,117.5,334.7z
													 M117.2,337c-0.2,1.6-1.1,2.6-2.7,2.7c-0.2,0-0.3,0-0.5,0c-2.6,0-3-2.3-3.1-3.7c0-0.8,0.5-1.5,1.3-1.6
													c0.5-0.1,1-0.1,1.6-0.1c1.9,0,2.7,0.5,3,0.8C117,335.4,117.3,336,117.2,337z"/>
												<path id="XMLID_649_" class="st32" d="M119.3,336.8c0.1,1.2,0.7,3.1,3.3,3.1c2.6,0.1,3.8-1.3,4-3.1
													c0.1-0.4,0.1-1.4,0.5-1.5c0.1-0.5,0.2-0.9,0.3-1.3c0,0-6.2-1.4-7.8,0.5C119.6,334.7,119.2,335.5,119.3,336.8z
													 M120.2,335.2c0.2-0.4,1-0.8,3-0.8c0.6,0,1.2,0,1.6,0.1c0.8,0.1,1.4,0.8,1.3,1.6c-0.1,1.4-0.5,3.7-3.1,3.7
													c-0.2,0-0.3,0-0.5,0c-1.6-0.1-2.6-1-2.7-2.7C119.8,336,120.1,335.4,120.2,335.2z"/>
											</g>
											<path id="XMLID_633_" class="st32" d="M119.7,336.3c0,0-0.4-0.3-1.2-0.3c-0.7,0-1.1,0.3-1.1,0.3
												c-0.1-0.3-0.2-0.6-0.3-0.9c0.9,0,2,0,2.9,0C119.9,335.6,119.7,335.9,119.7,336.3z"/>
										</g>
									</g>
								</g>
							</g>
						</g>
					</g>
				</g>
				<g id="pessoa_2">
					<animateTransform
						attributeName="transform"
						type="translate"
						values="0,0; 9,3; -5,7; -2,0; 0,10; 0,0"
						dur="3s"
						repeatCount="indefinite"
					/>
					<circle id="XMLID_791_" class="st0" cx="-2.8" cy="365.7" r="33.1"/>
					<g id="XMLID_708_">
						<circle id="XMLID_790_" class="st1" cx="-2.8" cy="365.7" r="30.3"/>
						<g id="XMLID_709_">
							<g>
								<g>
									<defs>
										<circle id="SVGID_9_" cx="-2.8" cy="365.7" r="30.3"/>
									</defs>
									<clipPath id="SVGID_10_">
										<use xlink:href="#SVGID_9_"  style="overflow:visible;"/>
									</clipPath>
									<g id="XMLID_548_" class="st33">
										<g id="XMLID_937_">
											<g id="XMLID_938_">
												<path id="XMLID_955_" class="st34" d="M17.5,388.5c-0.9-0.6-2-1.2-3.1-1.5l-1.2-0.3l0,0l-9.4-3.1
													c-0.8-0.2-1.2-0.8-1.3-1.5c-0.4-2-0.3-6.7-0.3-7.5c0-0.1-0.1-0.1-0.2-0.1H1.6h-9.3h-0.5c-0.1,0-0.2,0.1-0.2,0.1
													c0,0.9,0.1,5.5-0.3,7.5c-0.2,0.7-0.5,1.3-1.3,1.5l-9.4,3.1l0,0l-1.3,0.3c-0.9,0.2-1.9,0.6-2.7,1.2
													c-4.3,2.8-4.4,7.4-4.6,8.2c0,0.1,0.1,0.2,0.2,0.2H-3h24.7c0.1,0,0.2-0.1,0.2-0.2C21.6,395.7,21.5,391.4,17.5,388.5z"/>
												<g id="XMLID_953_">
													<path id="XMLID_954_" class="st35" d="M2.3,380.4c-0.1-2.2-0.2-4.2-0.2-4.8c0-0.1-0.1-0.2-0.2-0.2H-8.3
														c-0.1,0-0.2,0.1-0.2,0.2c0,0.5-0.1,2.7-0.2,4.9c0.7,0.8,3.4,1.9,5.3,1.9C-1.3,382.3,1.5,381,2.3,380.4z"/>
												</g>
												<g id="XMLID_950_">
													<path id="XMLID_952_" class="st34" d="M-12.7,364.5c0.7,2,0.3,4.9-0.9,5.6c-1.3,0.5-2.8-1.5-3.5-3.4
														c-0.7-2-0.3-4,0.9-4.5C-15,361.6-13.4,362.7-12.7,364.5z"/>
													<path id="XMLID_951_" class="st34" d="M6.5,364.5c-0.7,2-0.3,4.9,0.9,5.6c1.3,0.5,2.8-1.5,3.5-3.4c0.7-2,0.3-4-0.9-4.5
														C8.9,361.6,7.3,362.7,6.5,364.5z"/>
												</g>
												<path id="XMLID_949_" class="st34" d="M-3.2,347.4c-12.2-0.4-12.3,11.2-12.2,15.1c0.2,2.8,0.8,6.8,1.4,8.9
													c0.3,1.2,0.9,3.1,1.8,3.9c2.4,2.3,5.3,4.2,7.1,4.9c0.3,0.2,1,0.2,1.8,0.2c0.7,0,1.5-0.1,1.8-0.2
													c1.8-0.7,4.8-2.7,7.1-4.9c0.9-0.9,1.5-2.7,1.8-3.9c0.6-2,1.3-6.1,1.4-8.9C9.1,358.6,9,347-3.2,347.4z"/>
												<g id="XMLID_946_">
													<ellipse id="XMLID_948_" class="st7" cx="-9.4" cy="363.5" rx="1.5" ry="1.7"/>
													<ellipse id="XMLID_947_" class="st7" cx="2.9" cy="363.5" rx="1.5" ry="1.7"/>
												</g>
												<g id="XMLID_944_">
													<path id="XMLID_945_" class="st36" d="M13.2,386.7L13.2,386.7L5.1,384c-1.6,2-5.3,4.6-8.2,4.6c-2.9,0-6.4-2.4-8.2-4.6
														l-8.1,2.7l0,0l-0.5,0.2v9.8H-3h16.9v-9.8L13.2,386.7z"/>
												</g>
												<g id="XMLID_939_">
													<g>
														<path id="XMLID_13_" class="st1" d="M-7.1,371.8c0.7,1.5,2.1,2.5,3.9,2.5c1.7,0,3.2-1,3.9-2.5H-7.1z"/>
													</g>
												</g>
											</g>
										</g>
										
											<linearGradient id="XMLID_10_" gradientUnits="userSpaceOnUse" x1="-166.2035" y1="553.5276" x2="-143.6297" y2="553.5276" gradientTransform="matrix(1.2898 0 0 1.2898 196.133 -356.6935)">
											<stop  offset="0" style="stop-color:#6A2811"/>
											<stop  offset="1" style="stop-color:#905023"/>
										</linearGradient>
										<path id="XMLID_581_" class="st37" d="M10.4,355.8c-0.5-2-2.7-5.8-5-5.5c-0.5-1.4-1.4-2.7-2.6-3.5
											c-1.9-1.3-4.2-1.6-6.4-1.3c-3.5,0.5-7.9,1.8-10.2,4.7c-2.4,2.9-4.5,7.1-4.5,11c0.5-0.8,1.2-1.5,1.8-2.1
											c-0.2,3.5,0.7,7.1,2.5,10c-0.2-2.3,0.2-4.5,0.8-6.7c0,1.1,0.2,2.1,0.5,3.1c-0.1-0.3,2.3-3.2,2.8-4.1c0,0.2,0,0.3,0,0.5
											c0-0.4,3.8-2.6,4.3-3.1c1-0.9,2-1.9,3-3c-0.3,0.5-0.6,1.2-0.9,1.7c-0.2,0.5-1.2,4.2-1.5,4.3c2.7-1.2,5.1-3.1,6.7-5.5
											c0.4-0.5,0.6-1.2,0.8-1.7c0.2,0,0.3,0,0.4,0c0.1,0.2,0.1,0.2,0.2,0.4c0.4,0.9,1.1,1.8,1.7,2.7C7.1,361,8.2,365,7.9,369
											C10.7,365.2,11.5,360.2,10.4,355.8z"/>
									</g>
								</g>
							</g>
						</g>
					</g>
				</g>
				<g id="pesoa_1">
					<circle id="XMLID_843_" class="st0" cx="61.5" cy="477.7" r="23.6"/>
					<circle id="XMLID_842_" class="st1" cx="61.5" cy="477.7" r="21.6"/>
					<g id="XMLID_295_">
						<g>
							<g>
								<defs>
									<circle id="SVGID_11_" cx="61.5" cy="477.7" r="21.6"/>
								</defs>
								<clipPath id="SVGID_12_">
									<use xlink:href="#SVGID_11_"  style="overflow:visible;"/>
								</clipPath>
								<g id="XMLID_897_" class="st38">
									<g id="XMLID_898_">
										
											<linearGradient id="XMLID_11_" gradientUnits="userSpaceOnUse" x1="-104.5163" y1="658.7906" x2="-104.5163" y2="649.4634" gradientTransform="matrix(1.2898 0 0 1.2898 196.133 -356.6935)">
											<stop  offset="0" style="stop-color:#392012"/>
											<stop  offset="1" style="stop-color:#905023"/>
										</linearGradient>
										<path id="XMLID_936_" class="st39" d="M67.6,494.3c2.1,0.4,1.1,3,2.7,1.7c1.6-1.4,2.6-20.7,2.4-23.2
											c-0.2-2.6-0.7-5.1-2.2-7.3c-2-3.1-5.7-4.7-9.2-4.7c-3.5,0-7.2,1.5-9.2,4.7c-1.4,2.1-2,4.7-2.2,7.3
											c-0.2,2.6,1.8,21.8,3.4,23.2c1.6,1.4-0.3-1.3,1.8-1.7H67.6z"/>
										<g id="XMLID_933_">
											<path id="XMLID_935_" class="st40" d="M61.5,496.4c3,0,5.8-1.6,8.1-4.3l-4-1.2c-0.5-0.1-0.7-0.6-0.9-1.1
												c-0.3-1.4-0.2-5.2-0.2-5.8c0-0.1-0.1-0.1-0.1-0.1h-6c-0.1,0-0.1,0.1-0.1,0.1c0,0.6,0.1,4.3-0.2,5.8
												c-0.1,0.5-0.3,0.9-0.9,1.1l-4,1.2C55.7,494.8,58.5,496.4,61.5,496.4z"/>
											<path id="XMLID_934_" class="st40" d="M45.8,499.8L45.8,499.8c0,0.1,0,0.1,0.1,0.1C45.9,499.9,45.8,499.8,45.8,499.8z"/>
										</g>
										<g id="XMLID_931_">
											<path id="XMLID_932_" class="st41" d="M64.6,487.1c-0.1-1.3,0-2.5,0-2.8c0-0.1-0.1-0.1-0.1-0.1h-6
												c-0.1,0-0.1,0.1-0.1,0.1c0,0.3,0,1.5,0,2.8C60.4,487.8,62.6,487.8,64.6,487.1z"/>
										</g>
										<g id="XMLID_928_">
											<path id="XMLID_930_" class="st40" d="M54.3,476.2c0.5,1.3,0.2,3.3-0.7,3.7c-0.9,0.4-2.1-1-2.6-2.3s-0.2-2.6,0.7-3
												C52.6,474.2,53.8,475,54.3,476.2z"/>
											<path id="XMLID_929_" class="st40" d="M68.8,476.2c-0.5,1.3-0.2,3.3,0.7,3.7c0.9,0.4,2.1-1,2.6-2.3s0.2-2.6-0.7-3
												C70.5,474.2,69.3,475,68.8,476.2z"/>
										</g>
										<path id="XMLID_927_" class="st40" d="M61.5,466c-9.2-0.3-9.4,6.1-9.2,9c0.1,2.1,0.9,5.1,1.4,6.6c0.3,0.9,0.7,1.7,1.4,2.3
											c2.4,2.3,6.5,3.1,6.5,3.1s4-0.7,6.5-3.1c0.7-0.6,1.1-1.4,1.4-2.3c0.5-1.5,1.2-4.5,1.4-6.6C70.9,472,70.7,465.6,61.5,466z"
											/>
										<g id="XMLID_924_">
											<polygon id="XMLID_926_" class="st7" points="66.3,475.2 67.7,474.8 67.1,475.5 											"/>
											<polygon id="XMLID_925_" class="st7" points="56.4,475.2 55,474.8 55.5,475.5 											"/>
										</g>
										<g id="XMLID_921_">
											<ellipse id="XMLID_923_" class="st7" cx="56.7" cy="475.6" rx="1.2" ry="1.4"/>
											<ellipse id="XMLID_922_" class="st7" cx="65.9" cy="475.6" rx="1.2" ry="1.4"/>
										</g>
										<g id="XMLID_916_">
											<g>
												<path id="XMLID_19_" class="st42" d="M58.3,481.4c0.6,1.2,1.8,2.2,3.3,2.2c1.5,0,2.7-0.9,3.3-2.2H58.3z"/>
											</g>
										</g>
										<path id="XMLID_915_" class="st43" d="M56.6,478.4c0.6,1.2-0.6,2.4-1.8,1.8c-0.2-0.1-0.5-0.3-0.5-0.5
											c-0.6-1.2,0.6-2.4,1.8-1.8C56.3,477.9,56.4,478.2,56.6,478.4z"/>
										<path id="XMLID_914_" class="st43" d="M68.4,478.4c0.6,1.2-0.6,2.4-1.8,1.8c-0.2-0.1-0.5-0.3-0.5-0.5
											c-0.6-1.2,0.6-2.4,1.8-1.8C68,477.9,68.2,478.2,68.4,478.4z"/>
										<g id="XMLID_912_">
											<path id="XMLID_913_" class="st44" d="M61.6,463.7c-5.3,0-9.7,4.2-9.7,9.4c0,0.5,0.3,1.5,0.3,1.4
												c1.2-4.6,6.6-5.6,9.4-5.6c2.8,0,8.1,0.7,9.4,5.6c0,0.1,0.3-0.9,0.3-1.4C71.3,467.9,66.9,463.7,61.6,463.7z"/>
										</g>
										<path id="XMLID_911_" class="st45" d="M58.3,489.8C58.2,489.8,58.2,489.8,58.3,489.8c-0.1,0.5-0.3,1-0.9,1.1l-6.8,2.2
											c-0.6,0.2-1.2,0.5-1.8,0.9c-2.8,2-2.8,5.4-3,6c0,0.1,0.1,0.1,0.1,0.1h15.5h15.5c0.1,0,0.1-0.1,0.1-0.1
											c-0.1-0.6-0.1-3.7-2.7-5.8c-0.6-0.5-1.3-0.9-2-1.1l-6.8-2.2c-0.5-0.1-0.7-0.6-0.9-1.1l0,0c-1.1,0.1-2.2,0.1-3.3,0.1
											C60.4,489.8,59.3,489.8,58.3,489.8z"/>
										<line id="XMLID_910_" class="st46" x1="61.5" y1="489.2" x2="61.5" y2="499.8"/>
										<g id="XMLID_908_">
											<path id="XMLID_909_" class="st44" d="M61.5,489.2c-1.1,0-2.2-0.1-3.2-0.1c-0.1,0.3-0.1,0.5-0.1,0.7
												c1.1,0.1,2.2,0.1,3.3,0.1c1.1,0,2.2,0,3.3-0.1c-0.1-0.2-0.1-0.5-0.1-0.7C63.6,489.2,62.6,489.2,61.5,489.2z"/>
										</g>
										<g id="XMLID_899_">
											<g id="XMLID_903_">
												<g id="XMLID_905_">
													<path id="XMLID_907_" class="st47" d="M52.9,476.9c-1.1,4.8,0.4,10.2,3.9,13.7c0.9,0.9,1.9,1.8,2.8,2.7
														c0.8,1,2.1,2.3,1.9,3.6"/>
													<path id="XMLID_906_" class="st47" d="M70.2,476.9c1.1,4.8-0.4,10.2-3.9,13.7c-0.9,0.9-1.9,1.8-2.8,2.7
														c-0.8,1-2.1,2.3-1.9,3.6"/>
												</g>
												<line id="XMLID_904_" class="st47" x1="61.5" y1="496.4" x2="61.5" y2="499.9"/>
											</g>
											<g id="XMLID_900_">
												<path id="XMLID_902_" class="st1" d="M71.3,477.1c0,0.5-0.4,0.9-0.9,0.9s-0.7-0.4-0.7-0.9c0-0.5,0.2-0.9,0.7-0.9
													S71.3,476.6,71.3,477.1z"/>
												<path id="XMLID_901_" class="st1" d="M51.7,477.1c0,0.5,0.4,0.9,0.9,0.9s0.7-0.4,0.7-0.9c0-0.5-0.2-0.9-0.7-0.9
													C52.1,476.2,51.7,476.6,51.7,477.1z"/>
											</g>
										</g>
									</g>
								</g>
							</g>
						</g>
					</g>
				</g>
			</g>
		</g>
	</g>
</g>
</svg>
