<?xml version="1.0" encoding="utf-8"?>
<!-- Generator: Adobe Illustrator 18.1.1, SVG Export Plug-In . SVG Version: 6.00 Build 0)  -->
<svg version="1.1" id="Layer_1" xmlns="http://www.w3.org/2000/svg" xmlns:xlink="http://www.w3.org/1999/xlink" x="0px" y="0px"
	 viewBox="214.3 108 300 300" enable-background="new 214.3 108 300 300" xml:space="preserve">
<g>
	<g>
		<g>
			<g id="share">
				<g id="XMLID_87_">
					<path id="XMLID_113_" fill="#26B99A" d="M364.6,240.3L364.6,240.3c-0.2-0.1-0.3-0.2-0.3-0.3l-21.9-85.4c-0.1-0.2,0-0.3,0.1-0.5
						c0.1-0.1,0.2-0.2,0.4-0.1l69.6,40.9c0.1,0.1,0.2,0.2,0.2,0.3c0,0.2,0,0.3-0.2,0.4l-47.8,44.4
						C364.8,240.2,364.7,240.3,364.6,240.3z M343.4,155.3l21.4,83.8l47-43.7L343.4,155.3z"/>
					<path id="XMLID_112_" fill="#26B99A" d="M348.4,295.4c-0.1,0-0.2,0-0.2-0.1c-0.1-0.1-0.2-0.3-0.1-0.5l16.2-55.1
						c0-0.1,0.1-0.2,0.2-0.2l47.8-44.4c0.1-0.1,0.2-0.2,0.4-0.1c0.2,0.1,0.2,0.2,0.2,0.4l-4.1,66.5c0,0.2-0.1,0.3-0.2,0.4l-60,33.2
						C348.5,295.4,348.5,295.4,348.4,295.4z M365,240L349,294.1l59-32.6l4-65.2L365,240z"/>
					<path id="XMLID_111_" fill="#26B99A" d="M364.6,240.3C364.6,240.3,364.6,240.3,364.6,240.3l-121.5-10.6c-0.2,0-0.3-0.2-0.3-0.3
						c0-0.2,0-0.4,0.2-0.5l99.6-74.9c0.1-0.1,0.2-0.1,0.3-0.1c0.1,0.1,0.2,0.2,0.2,0.3l21.8,85.4c0,0.2,0,0.3-0.1,0.4
						C364.8,240.2,364.7,240.3,364.6,240.3z M244.3,228.9l119.8,10.4l-21.5-84.2L244.3,228.9z"/>
					<path id="XMLID_110_" fill="#26B99A" d="M258.4,345.8c-0.2,0-0.2-0.1-0.3-0.2c-0.1-0.2-0.1-0.4,0.1-0.5l106.3-105.6
						c0.2-0.2,0.3-0.2,0.5,0c0.2,0.1,0.2,0.3,0.2,0.5L348.8,295c0,0.1-0.1,0.2-0.2,0.2l-90.1,50.6
						C258.4,345.8,258.4,345.8,258.4,345.8z M363.9,241.1L260.8,343.6l87.4-49L363.9,241.1z"/>
					<path id="XMLID_109_" fill="#26B99A" d="M258.4,345.8c-0.1,0-0.1,0-0.2,0c-0.2-0.1-0.2-0.2-0.2-0.3l-15.1-116.2
						c0-0.2,0-0.2,0.1-0.4c0.1-0.1,0.2-0.2,0.3-0.2l121.4,10.6c0.2,0,0.2,0.2,0.3,0.3c0.1,0.2,0,0.3-0.1,0.5L258.6,345.8
						C258.5,345.8,258.4,345.8,258.4,345.8z M243.6,229.7l15,114.9l105-104.5L243.6,229.7z"/>
					<path id="XMLID_108_" fill="#26B99A" d="M366.6,384.6L366.6,384.6c-0.2,0-0.3-0.2-0.3-0.3L348.1,295c-0.1-0.2,0.1-0.4,0.2-0.5
						l60-33.2c0.2-0.1,0.3-0.1,0.4,0.1s0.2,0.3,0.1,0.5L367,384.4C366.9,384.6,366.8,384.6,366.6,384.6z M348.8,295.2l17.9,87.6
						l41-120.2L348.8,295.2z"/>
					<path id="XMLID_107_" fill="#26B99A" d="M366.6,384.6L366.6,384.6l-108.3-38.8c-0.2-0.1-0.2-0.2-0.2-0.4c0-0.2,0.1-0.3,0.2-0.4
						l90.1-50.5c0.1-0.1,0.2-0.1,0.3,0c0.1,0.1,0.2,0.2,0.2,0.3l18.2,89.3c0,0.2,0,0.3-0.1,0.4C366.8,384.6,366.7,384.6,366.6,384.6
						z M259.4,345.4l106.8,38.3l-18-88L259.4,345.4z"/>
					<path id="XMLID_106_" fill="#26B99A" d="M366.6,384.6c-0.1,0-0.2-0.1-0.2-0.1c-0.1-0.2-0.2-0.3-0.1-0.5l41.8-122.4
						c0.1-0.2,0.2-0.2,0.3-0.2c0.2,0,0.3,0.2,0.3,0.3l22.9,84.6c0.1,0.2,0,0.4-0.2,0.5l-64.7,37.9
						C366.7,384.6,366.7,384.6,366.6,384.6z M408.4,263.1l-41.1,120.3l63.5-37.2L408.4,263.1z"/>
					<path id="XMLID_105_" fill="#26B99A" d="M408.4,262.2c-0.1,0-0.2,0-0.2-0.1c-0.1-0.1-0.2-0.2-0.2-0.4l4.1-66.5
						c0-0.2,0.1-0.2,0.2-0.3c0.1-0.1,0.2-0.1,0.3-0.1l71.7,13.1c0.2,0,0.2,0.2,0.3,0.3s0,0.3-0.1,0.5l-39.6,40.8
						c-0.1,0.1-0.1,0.1-0.2,0.1L408.4,262.2L408.4,262.2z M412.8,195.8l-4,65.4l35.7-12.4l39-40.1L412.8,195.8z"/>
					<path id="XMLID_115_" fill="#26B99A" d="M431.3,346.8L431.3,346.8c-0.2-0.1-0.3-0.2-0.3-0.2l-14.7-52.7c0-0.2,0-0.2,0.1-0.4
						c0.1-0.1,0.2-0.2,0.3-0.2l78.6-2.4l0,0c0.2,0,0.3,0.1,0.3,0.3c0.1,0.2,0,0.4-0.2,0.5l-63.9,55.2
						C431.4,346.8,431.4,346.8,431.3,346.8z M417,294.1l14.4,51.6l62.6-54L417,294.1z"/>
					<path id="XMLID_116_" fill="#26B99A" d="M495.2,291.7c-0.1,0-0.2,0-0.2-0.1l-50.5-42c-0.1-0.1-0.2-0.2-0.2-0.3
						c0-0.2,0.1-0.2,0.2-0.3l39.6-40.8c0.1-0.1,0.2-0.2,0.4-0.1c0.2,0.1,0.2,0.2,0.2,0.3l11,82.9c0,0.2-0.1,0.3-0.2,0.4
						C495.2,291.6,495.2,291.7,495.2,291.7z M445.2,249.2l49.5,41.2L484,209.3L445.2,249.2z"/>
					<path id="XMLID_103_" fill="#26B99A" d="M366.7,238.1c0.8,1.3,0.5,3.2-0.6,4.2c-1.2,0.9-2.7,0.6-3.5-0.7
						c-0.8-1.3-0.5-3.2,0.6-4.2C364.3,236.4,365.9,236.7,366.7,238.1z"/>
					<path id="XMLID_102_" fill="#26B99A" d="M414.5,193.6c0.8,1.3,0.5,3.2-0.6,4.2c-1.2,0.9-2.7,0.6-3.5-0.7s-0.5-3.2,0.6-4.2
						C412.1,191.9,413.7,192.3,414.5,193.6z"/>
					<path id="XMLID_101_" fill="#26B99A" d="M410.5,260.1c0.8,1.3,0.5,3.2-0.6,4.2c-1.2,0.9-2.7,0.6-3.5-0.7s-0.5-3.2,0.6-4.2
						C408.1,258.4,409.6,258.7,410.5,260.1z"/>
					<path id="XMLID_100_" fill="#26B99A" d="M446.7,247.5c0.8,1.3,0.5,3.2-0.6,4.2c-1.2,0.9-2.7,0.6-3.5-0.7
						c-0.8-1.3-0.5-3.2,0.6-4.2C444.3,245.8,445.9,246.1,446.7,247.5z"/>
					<path id="XMLID_99_" fill="#26B99A" d="M486.3,206.7c0.8,1.3,0.5,3.2-0.6,4.2c-1.2,0.9-2.7,0.6-3.5-0.7
						c-0.8-1.3-0.5-3.2,0.6-4.2C483.9,205,485.4,205.3,486.3,206.7z"/>
					<path id="XMLID_98_" fill="#26B99A" d="M497.2,289.5c0.8,1.3,0.5,3.2-0.6,4.2s-2.7,0.6-3.5-0.7c-0.8-1.3-0.5-3.2,0.6-4.2
						C494.8,287.8,496.4,288.1,497.2,289.5z"/>
					<path id="XMLID_97_" fill="#26B99A" d="M433.3,344.7c0.8,1.3,0.5,3.2-0.6,4.2c-1.2,0.9-2.7,0.6-3.5-0.7
						c-0.8-1.3-0.5-3.2,0.6-4.2C431,342.9,432.5,343.3,433.3,344.7z"/>
					<path id="XMLID_96_" fill="#26B99A" d="M419,292.1c0.8,1.3,0.5,3.2-0.6,4.2c-1.2,0.9-2.7,0.6-3.5-0.7s-0.5-3.2,0.6-4.2
						C416.7,290.4,418.3,290.7,419,292.1z"/>
					<path id="XMLID_95_" fill="#26B99A" d="M368.7,382.5c0.8,1.3,0.5,3.2-0.6,4.2c-1.2,0.9-2.7,0.6-3.5-0.7s-0.5-3.2,0.6-4.2
						C366.3,380.8,367.9,381.1,368.7,382.5z"/>
					<path id="XMLID_94_" fill="#26B99A" d="M350.5,293.2c0.8,1.3,0.5,3.2-0.6,4.2c-1.2,0.9-2.7,0.6-3.5-0.7s-0.5-3.2,0.6-4.2
						C348.1,291.5,349.7,291.8,350.5,293.2z"/>
					<path id="XMLID_93_" fill="#26B99A" d="M260.5,343.7c0.8,1.3,0.5,3.2-0.6,4.2s-2.7,0.6-3.5-0.7c-0.8-1.3-0.5-3.2,0.6-4.2
						C258,342,259.6,342.4,260.5,343.7z"/>
					<path id="XMLID_90_" fill="#26B99A" d="M245.3,227.5c0.8,1.3,0.5,3.2-0.6,4.2c-1.2,0.9-2.7,0.6-3.5-0.7
						c-0.8-1.3-0.5-3.2,0.6-4.2C242.9,225.8,244.5,226.1,245.3,227.5z"/>
					<path id="XMLID_89_" fill="#26B99A" d="M344.9,152.7c0.8,1.3,0.5,3.2-0.6,4.2c-1.2,0.9-2.7,0.6-3.5-0.7
						c-0.8-1.3-0.5-3.2,0.6-4.2C342.5,151,344.1,151.4,344.9,152.7z"/>
				</g>
				<g id="XMLID_283_">
					<circle id="XMLID_333_" fill="#26B99A" enable-background="new    " cx="243.8" cy="228.5" r="26.7"/>
					<g id="XMLID_260_">
						<circle id="XMLID_332_" fill="#FFFFFF" cx="243.8" cy="228.5" r="24.4"/>
						<g id="XMLID_261_">
							<g>
								<defs>
									<circle id="SVGID_1_" cx="243.8" cy="228.5" r="24.4"/>
								</defs>
								<clipPath id="SVGID_2_">
									<use xlink:href="#SVGID_1_"  overflow="visible"/>
								</clipPath>
								<g id="XMLID_1012_" clip-path="url(#SVGID_2_)">
									<g id="XMLID_1013_">
										
											<linearGradient id="XMLID_2_" gradientUnits="userSpaceOnUse" x1="101.2111" y1="331.2741" x2="101.2111" y2="338.7765" gradientTransform="matrix(1.2898 0 0 -1.2898 106.295 665.4078)">
											<stop  offset="0.1457" style="stop-color:#433B41"/>
											<stop  offset="1" style="stop-color:#676073"/>
										</linearGradient>
										<path id="XMLID_1036_" fill="url(#XMLID_2_)" d="M236,213.4c-6.6,4.9-4.5,11.9-3.5,17.9c0.2,1.5,0.6,3,0.5,4.5
											c-0.1,1.5-0.6,3.1-1.8,4c1.6,0.2,3.4-0.3,4.5-1.4c-0.1,0.9-0.2,2-0.2,2.9c1-0.4,2-0.8,3-1.2c0.4,1.2,0.8,2.3,1.3,3.4
											c2.2-1.6,2.6-4.6,2.6-7.4c0-7.1-1.6-14.2-4.7-20.5"/>
										
											<linearGradient id="XMLID_3_" gradientUnits="userSpaceOnUse" x1="1196.2854" y1="331.2741" x2="1196.2854" y2="338.7765" gradientTransform="matrix(-1.2898 0 0 -1.2898 1793.4915 665.4078)">
											<stop  offset="0.1457" style="stop-color:#433B41"/>
											<stop  offset="1" style="stop-color:#676073"/>
										</linearGradient>
										<path id="XMLID_1035_" fill="url(#XMLID_3_)" d="M251.4,213.4c6.6,4.9,4.5,11.9,3.5,17.9c-0.2,1.5-0.6,3-0.5,4.5
											c0.1,1.5,0.6,3.1,1.8,4c-1.6,0.2-3.4-0.3-4.5-1.4c0.1,0.9,0.2,2,0.2,2.9c-1-0.4-2-0.8-3-1.2c-0.4,1.2-0.8,2.3-1.3,3.4
											c-2.2-1.6-2.6-4.6-2.6-7.4c0-7.1,1.6-14.2,4.7-20.5"/>
										<path id="XMLID_1034_" fill="#F7D9B5" d="M261.8,248.6c-0.8-0.5-1.7-1-2.7-1.3l-1-0.3l0,0l-8.2-2.7
											c-0.6-0.2-1-0.7-1.2-1.3c-0.3-1.7-0.3-5.9-0.3-6.6c0-0.1-0.1-0.1-0.1-0.1h-0.4h-8.2h-0.4c-0.1,0-0.2,0.1-0.1,0.1
											c0,0.7,0.1,4.8-0.3,6.6c-0.1,0.6-0.5,1.2-1.2,1.3l-8.3,2.7l0,0l-1.1,0.3c-0.9,0.2-1.6,0.5-2.4,1c-3.8,2.5-3.9,6.5-4.1,7.3
											c0,0.1,0.1,0.2,0.1,0.2h21.7h21.7c0.1,0,0.2-0.1,0.1-0.2C265.4,254.8,265.3,251,261.8,248.6z"/>
										<g id="XMLID_1016_">
											<g id="XMLID_1032_">
												<path id="XMLID_1033_" fill="#EFBC8B" d="M248.5,241.4c0-2-0.1-3.8-0.1-4.2c0-0.1-0.1-0.2-0.1-0.2h-9
													c-0.1,0-0.2,0.1-0.1,0.2c0,0.5-0.1,2.3-0.1,4.2c0.6,0.7,3.1,1.6,4.6,1.6S247.8,241.9,248.5,241.4z"/>
											</g>
											<g id="XMLID_1029_">
												<path id="XMLID_1031_" fill="#F7D9B5" d="M235.3,227.5c0.6,1.7,0.2,4.4-0.8,4.9c-1.1,0.5-2.4-1.3-3.1-3.1
													c-0.6-1.7-0.2-3.5,0.8-4C233.3,224.8,234.7,225.8,235.3,227.5z"/>
												<path id="XMLID_1030_" fill="#F7D9B5" d="M252.2,227.5c-0.6,1.7-0.2,4.4,0.8,4.9c1.1,0.5,2.4-1.3,3.1-3.1s0.2-3.5-0.8-4
													C254.3,224.8,252.9,225.8,252.2,227.5z"/>
											</g>
											<path id="XMLID_1028_" fill="#F7D9B5" d="M243.7,212.3c-10.7-0.3-10.9,9.9-10.7,13.2c0.1,2.4,0.7,6,1.3,7.8
												c0.3,1,0.9,2.7,1.6,3.4c2.1,2,4.7,3.8,6.3,4.4c0.3,0.1,0.9,0.2,1.6,0.2c0.6,0,1.3-0.1,1.6-0.2c1.6-0.6,4.2-2.4,6.3-4.4
												c0.8-0.7,1.3-2.4,1.6-3.4c0.5-1.8,1.1-5.3,1.3-7.8C254.5,222.2,254.4,212,243.7,212.3z"/>
											<g id="XMLID_1025_">
												<path id="XMLID_1027_" fill="#342214" d="M238.4,225c0.9,0,1.5,0.6,1.5,1.4c0,0.8-0.7,1.4-1.5,1.4s-1.5-1-1.5-1.8
													C236.9,225.3,237.5,225,238.4,225z"/>
												<path id="XMLID_1026_" fill="#342214" d="M249.1,225c0.9,0,1.5,0.2,1.5,1c0,0.8-0.7,1.8-1.5,1.8c-0.9,0-1.5-0.6-1.5-1.4
													C247.6,225.7,248.3,225,249.1,225z"/>
											</g>
											<g id="XMLID_1018_">
												<path id="XMLID_1024_" fill="#BFD8E3" d="M261.8,248.5c-0.8-0.5-1.7-1-2.7-1.3l-1-0.3l0,0l-7.4-2.4l-0.9-0.2
													c-0.2-0.1-0.4-0.2-0.5-0.2c-1.6,0.6-3.4,0.9-5.3,0.9c0.8,0,1.2,0,1.9,0.4c-2.7,0.3-6,0.9-7.8-1.2
													c-0.1,0.1-0.2,0.1-0.3,0.2l-0.9,0.2l-7.4,2.4l0,0l-1.1,0.3c-0.9,0.2-1.6,0.5-2.4,1c-3.8,2.5-3.9,6.5-4.1,7.3
													c0,0.1,0.1,0.2,0.1,0.2h21.7h21.7c0.1,0,0.2-0.1,0.1-0.2C265.4,254.8,265.3,251,261.8,248.5z"/>
												<path id="XMLID_1023_" fill="#C94431" d="M242,248.7l-1.7-3.7h6.8l-1.7,3.7C244.7,250.1,242.8,250.1,242,248.7z"/>
												<path id="XMLID_1022_" fill="#C94431" d="M245.3,250.1l1.7,5.6h-6.8l1.7-5.6C242.8,248.8,244.6,248.8,245.3,250.1z"/>
												<g id="XMLID_1019_">
													<path id="XMLID_1021_" fill="#EAEAEA" d="M238.8,242.5l-1.7,1.2l3.6,5.5l3.4-4.2C244.1,245,239,243.6,238.8,242.5z"/>
													<path id="XMLID_1020_" fill="#EAEAEA" d="M248.8,242.5l1.7,1.2l-3.6,5.5l-3.4-4.2C243.5,245,248.6,243.6,248.8,242.5z"
														/>
												</g>
											</g>
											
												<path id="XMLID_1017_" fill="none" stroke="#D5925E" stroke-width="0.9656" stroke-linecap="round" stroke-linejoin="round" stroke-miterlimit="10" d="
												M240.9,234.3c0.5,0.7,1.5,1.2,2.7,1.2c1.3,0,2.3-0.5,2.7-1.2"/>
										</g>
										
											<linearGradient id="XMLID_4_" gradientUnits="userSpaceOnUse" x1="113.1128" y1="352.3969" x2="113.1128" y2="345.0563" gradientTransform="matrix(1.2898 0 0 -1.2898 106.295 665.4078)">
											<stop  offset="0.1457" style="stop-color:#433B41"/>
											<stop  offset="1" style="stop-color:#676073"/>
										</linearGradient>
										<path id="XMLID_1015_" fill="url(#XMLID_4_)" d="M253.3,230.1c0.2-3.5-0.8-7.1-2.8-9.9c-0.5-0.8-1.1-1.5-1.5-2.4
											c-0.4-0.9-0.5-1.9,0-2.7c2.6-4.1,5.8,1,6.3,3.3C256.3,222.5,255.6,226.8,253.3,230.1z"/>
										
											<linearGradient id="XMLID_5_" gradientUnits="userSpaceOnUse" x1="104.9301" y1="352.3969" x2="104.9301" y2="345.0562" gradientTransform="matrix(1.2898 0 0 -1.2898 106.295 665.4078)">
											<stop  offset="0.1457" style="stop-color:#433B41"/>
											<stop  offset="1" style="stop-color:#676073"/>
										</linearGradient>
										<path id="XMLID_1014_" fill="url(#XMLID_5_)" d="M249.2,210.9c-1.7-1-3.8-1.2-5.9-0.9c-3.3,0.4-6.3,1.9-8.5,4.1
											c-2.1,2.3-3.3,5.3-3.2,8.2c0.3-0.3,0.7-0.5,1-0.9c-0.1,3.1,0.6,6.2,2.2,8.8c-0.2-3.5,0.5-7.1,2.2-9.9
											c0.4-0.7,1.2-1.3,1.5-2.1c0.2-0.1-1.3,2.1-1.3,5.1c0-0.3,3.4-2.3,3.8-2.7c1-0.9,1.9-1.8,2.7-2.7c-0.5,0.7-0.9,1.5-1.2,2.3
											c-0.2,0.5-1,3.7-1.3,3.8c2.4-1,10-4.9,10.3-8.3C251.8,213.8,250.8,212,249.2,210.9z"/>
									</g>
								</g>
							</g>
						</g>
					</g>
				</g>
				<g id="XMLID_284_">
					<circle id="XMLID_594_" fill="#26B99A" enable-background="new    " cx="264.2" cy="338.6" r="34.3"/>
					<g id="XMLID_285_">
						<circle id="XMLID_593_" fill="#FFFFFF" cx="264.2" cy="338.6" r="31.4"/>
					</g>
					<g id="XMLID_288_">
						<g>
							<defs>
								<circle id="SVGID_3_" cx="264.2" cy="338.6" r="31.4"/>
							</defs>
							<clipPath id="SVGID_4_">
								<use xlink:href="#SVGID_3_"  overflow="visible"/>
							</clipPath>
							<g id="XMLID_290_" clip-path="url(#SVGID_4_)">
								<g id="XMLID_613_">
									<g id="XMLID_893_">
										<path id="XMLID_896_" fill="#F8D4B4" d="M253.7,335.4c0.8,1.9,0.3,4.9-1,5.4s-3.1-1.5-3.9-3.4c-0.8-1.9-0.3-3.8,1-4.5
											C251.1,332.4,252.9,333.5,253.7,335.4z"/>
										<path id="XMLID_895_" fill="#F8D4B4" d="M275,335.4c-0.8,1.9-0.3,4.9,1,5.4c1.3,0.5,3.1-1.5,3.9-3.4
											c0.8-1.9,0.3-3.8-1-4.5C277.5,332.4,275.8,333.5,275,335.4z"/>
									</g>
									<path id="XMLID_892_" fill="#F8D4B4" d="M283.1,361.6c-0.9-0.7-1.9-1.2-3-1.6l-10-3.1l0,0c-0.7-0.2-1.1-0.9-1.3-1.6
										c-0.4-2.1-0.3-7.6-0.3-8.5c0-0.1-0.1-0.2-0.2-0.2h-8.8c-0.1,0-0.2,0.1-0.2,0.2c0,0.9,0.1,6.3-0.3,8.5
										c-0.2,0.7-0.5,1.4-1.3,1.6l0,0l-10,3.1c-0.9,0.3-1.8,0.7-2.6,1.3c-4.1,3-4.2,7.9-4.3,8.8c0,0.1,0.1,0.2,0.2,0.2h22.9H287
										c0.1,0,0.2-0.1,0.2-0.2C287,369.2,287,364.6,283.1,361.6z"/>
									<g id="XMLID_887_">
										<path id="XMLID_891_" fill="#F8D4B4" d="M257.3,365.1c3.8,1.1,6,3.1,7,4.4c1.1-1.4,3.1-3.3,7-4.5c4.8-1.4,6.2-4.3,6.6-5.8
											l-7.7-2.4c-0.7-0.2-1.1-0.9-1.3-1.6c-0.4-2.1-0.3-7.6-0.3-8.5c0-0.1-0.1-0.2-0.2-0.2h-8.8c-0.1,0-0.2,0.1-0.2,0.2
											c0,0.9,0.1,6.3-0.3,8.5c-0.2,0.7-0.5,1.4-1.3,1.6l-7.3,2.3C251.1,360.7,252.4,363.7,257.3,365.1z"/>
										<path id="XMLID_890_" fill="#598193" d="M283.1,361.6c-0.9-0.7-1.9-1.2-3-1.6l-0.9-0.2v10.3h-15h-15v-10.5L248,360
											c-0.9,0.3-1.8,0.7-2.6,1.3c-4.1,3-4.2,7.9-4.3,8.8c0,0.1,0.1,0.2,0.2,0.2h22.9H287c0.1,0,0.2-0.1,0.2-0.2
											C287,369.2,287,364.6,283.1,361.6z"/>
										<path id="XMLID_889_" fill="#F04B34" d="M250.7,359.2l-1.4,0.5l0,0L250.7,359.2L250.7,359.2z"/>
										<path id="XMLID_888_" fill="#598193" d="M264.3,370.1h15.1v-10.3l-1.4-0.5c-0.4,1.5-1.7,4.5-6.6,5.8c-3.8,1.1-6,3.1-7,4.5
											c-1.1-1.4-3.1-3.3-7-4.4c-4.9-1.4-6.3-4.5-6.6-6l-1.4,0.5v10.5L264.3,370.1L264.3,370.1z"/>
									</g>
									<g id="XMLID_885_">
										<path id="XMLID_886_" fill="#F2B78B" d="M268.7,351.4c-0.1-1.9,0-3.7,0-4.2c0-0.1-0.1-0.2-0.2-0.2h-8.9
											c-0.1,0-0.2,0.1-0.2,0.2c0,0.5,0,2.3,0,4.2C262.5,352.4,265.7,352.4,268.7,351.4z"/>
									</g>
									<path id="XMLID_884_" fill="#F8D4B4" d="M264.2,316.8c-13.6-0.5-13.7,12.3-13.6,16.6c0.2,3.1,1.3,7.5,2,9.8
										c0.4,1.3,1,2.4,2,3.4c3.5,3.4,9.5,4.5,9.5,4.5s6-1.2,9.5-4.5c0.9-0.9,1.6-2.1,2-3.4c0.6-2.2,1.9-6.7,2-9.8
										C277.8,329.3,281.5,316.1,264.2,316.8z"/>
									<g id="XMLID_877_">
										<path id="XMLID_881_" fill="#ED9E85" d="M257.4,338.6c0.8,1.7-0.9,3.4-2.7,2.7c-0.4-0.2-0.7-0.5-0.9-0.9
											c-0.8-1.7,0.9-3.4,2.7-2.7C256.9,337.8,257.3,338.2,257.4,338.6z"/>
										<path id="XMLID_878_" fill="#ED9E85" d="M274.7,338.6c0.8,1.7-0.9,3.4-2.7,2.7c-0.4-0.2-0.7-0.5-0.9-0.9
											c-0.8-1.7,0.9-3.4,2.7-2.7C274.3,337.8,274.6,338.2,274.7,338.6z"/>
									</g>
									<g id="XMLID_813_">
										<g id="XMLID_874_">
											<ellipse id="XMLID_876_" fill="#342214" cx="257.6" cy="334.4" rx="1.7" ry="2"/>
											<ellipse id="XMLID_875_" fill="#342214" cx="271.1" cy="334.4" rx="1.7" ry="2"/>
										</g>
										<g id="XMLID_816_">
											<polygon id="XMLID_871_" fill="#342214" points="271.5,334.1 273.6,333.5 272.9,334.6 											"/>
											<polygon id="XMLID_868_" fill="#342214" points="257.1,334.1 255,333.5 255.8,334.6 											"/>
										</g>
									</g>
									<g id="XMLID_614_">
										<g>
											<path id="XMLID_18_" fill="#FFFFFF" stroke="#F37F81" stroke-width="0.942" stroke-miterlimit="10" d="M260.9,343.4
												c0.6,1.3,1.9,2.2,3.4,2.2s2.8-0.9,3.4-2.2H260.9z"/>
										</g>
									</g>
								</g>
								
									<linearGradient id="XMLID_6_" gradientUnits="userSpaceOnUse" x1="125.4434" y1="258.6152" x2="117.3872" y2="269.4601" gradientTransform="matrix(1.2898 0 0 -1.2898 106.295 665.4078)">
									<stop  offset="0" style="stop-color:#F04B34"/>
									<stop  offset="1" style="stop-color:#99362A"/>
								</linearGradient>
								<path id="XMLID_612_" fill="url(#XMLID_6_)" d="M279.4,324.3c-0.1-2.2-0.9-4.4-2.4-6.3c-2-2.5-5.4-4.4-9.1-5.1
									c-3.4-0.6-6.7,0.7-8.4,3.1c-0.1-0.1-0.2-0.2-0.4-0.2c-2.2-0.7-4.6,0-6.4,1.9c-1.8,1.8-3.8,4.8-3.8,7.8c0,0.3,0,0.6,0,0.9
									c0.5,1.9,1,3.8,1.6,5.5c0.4,1.3,0.9,2.8,1.6,4.2c0.1-0.1,0.1-0.2,0.2-0.2v-0.1c-0.3-1.1-0.4-2.2-0.2-3.3
									c0-3.5,0.9-7.1,4.4-8.3c0.2-0.1,1.7-0.9,2.7-1.8c1.8,3.9,6.5,6.7,11.1,6.4c-0.8-0.9-1.3-2-1.7-3.2c1.1,1,2.6,1.8,3.8,2.7
									c1.6,1.1,3.1,2.7,3.1,4.6c0.8-1.6,1-3.4,0.8-5.1c0.1,0.2,0.1,0.5,0.2,0.6c0.4,2.8,0.2,5.7-0.5,8.5c1.3-2.1,2.6-4.2,3.3-6.6
									C279.6,328.3,279.8,326.2,279.4,324.3z"/>
							</g>
						</g>
					</g>
				</g>
				<g id="XMLID_517_">
					<circle id="XMLID_675_" fill="#26B99A" enable-background="new    " cx="360.6" cy="154.7" r="28.2"/>
					<g id="XMLID_518_">
						<circle id="XMLID_674_" fill="#FFFFFF" cx="360.6" cy="154.7" r="25.8"/>
						<g id="XMLID_520_">
							<g>
								<defs>
									<circle id="SVGID_5_" cx="360.6" cy="154.7" r="25.8"/>
								</defs>
								<clipPath id="SVGID_6_">
									<use xlink:href="#SVGID_5_"  overflow="visible"/>
								</clipPath>
								<g id="XMLID_956_" clip-path="url(#SVGID_6_)">
									<g id="XMLID_962_">
										<path id="XMLID_976_" fill="#F8D4B4" d="M378.7,174.1c-0.8-0.5-1.7-1-2.7-1.3l-1-0.3l0,0l-8.2-2.7c-0.6-0.2-1-0.7-1.2-1.3
											c-0.3-1.7-0.3-5.9-0.3-6.6c0-0.1-0.1-0.1-0.1-0.1h-0.4h-8.2h-0.4c-0.1,0-0.2,0.1-0.1,0.1c0,0.7,0.1,4.8-0.3,6.6
											c-0.1,0.6-0.5,1.2-1.2,1.3l-8.2,2.7l0,0l-1.1,0.3c-0.9,0.2-1.6,0.5-2.4,1c-3.8,2.4-3.9,6.5-4.1,7.3c0,0.1,0.1,0.2,0.1,0.2
											h21.6h21.8c0.1,0,0.2-0.1,0.1-0.2C382.2,180.4,382.2,176.6,378.7,174.1z"/>
										<g id="XMLID_974_">
											<g>
												<path id="XMLID_17_" fill="#ED7076" d="M378.7,174.1c-0.8-0.5-1.7-1-2.7-1.3l-1-0.3l0,0l-7.1-2.3
													c-2.2,0.9-4.6,1.3-7.2,1.3c-2.6,0-5-0.5-7.2-1.3l-7.1,2.3l0,0l-1.1,0.3c-0.9,0.2-1.6,0.5-2.4,1
													c-3.8,2.4-3.9,6.5-4.1,7.3c0,0.1,0.1,0.2,0.1,0.2h21.6h21.9c0.1,0,0.2-0.1,0.1-0.2C382.2,180.4,382.2,176.6,378.7,174.1
													z"/>
											</g>
										</g>
										<g id="XMLID_972_">
											<path id="XMLID_973_" fill="#F2B78B" d="M365.4,167c0-2-0.1-3.8-0.1-4.2c0-0.1-0.1-0.2-0.1-0.2h-9
												c-0.1,0-0.2,0.1-0.1,0.2c0,0.5-0.1,2.3-0.1,4.2c0.6,0.7,3.1,1.6,4.6,1.6C362.1,168.7,364.6,167.5,365.4,167z"/>
										</g>
										<g id="XMLID_969_">
											<path id="XMLID_971_" fill="#F8D4B4" d="M352.1,153.1c0.6,1.7,0.2,4.4-0.8,4.9c-1.1,0.5-2.4-1.3-3.1-3
												c-0.6-1.7-0.2-3.5,0.8-4C350.1,150.4,351.5,151.4,352.1,153.1z"/>
											<path id="XMLID_970_" fill="#F8D4B4" d="M369,153.1c-0.6,1.7-0.2,4.4,0.8,4.9c1.1,0.5,2.4-1.3,3.1-3
												c0.6-1.7,0.2-3.5-0.8-4C371.1,150.4,369.7,151.4,369,153.1z"/>
										</g>
										<path id="XMLID_968_" fill="#F8D4B4" d="M360.5,138c-10.7-0.4-10.8,9.9-10.7,13.2c0.1,2.4,0.7,6,1.3,7.8
											c0.3,1,0.9,2.7,1.6,3.4c2.1,2,4.7,3.8,6.3,4.4c0.3,0.1,0.9,0.2,1.6,0.2s1.3-0.1,1.6-0.2c1.6-0.6,4.2-2.4,6.3-4.4
											c0.8-0.7,1.3-2.4,1.6-3.4c0.5-1.8,1.1-5.3,1.3-7.8C371.3,147.8,371.2,137.6,360.5,138z"/>
										<g id="XMLID_965_">
											<ellipse id="XMLID_967_" fill="#342214" cx="355" cy="152.1" rx="1.3" ry="1.5"/>
											<ellipse id="XMLID_966_" fill="#342214" cx="365.8" cy="152.1" rx="1.3" ry="1.5"/>
										</g>
										
											<linearGradient id="XMLID_7_" gradientUnits="userSpaceOnUse" x1="195.2235" y1="410.6223" x2="196.2768" y2="405.7775" gradientTransform="matrix(1.2898 0 0 -1.2898 106.295 665.4078)">
											<stop  offset="0.3668" style="stop-color:#FFF4D5"/>
											<stop  offset="1" style="stop-color:#F7D062"/>
										</linearGradient>
										<path id="XMLID_964_" fill="url(#XMLID_7_)" d="M370.7,142.4c0-0.2-0.1-0.4-0.2-0.5c-1.6-2.7-5.3-4.6-9.9-4.5
											c-4.6-0.2-8.2,1.8-9.9,4.5c-0.1,0.2-0.2,0.3-0.2,0.5c-1.2,2.3-0.7,4.9-0.8,6.9c0.1,1.3,0.3,2.5,0.7,3.7
											c0.3-1.7,0.2-3.5,0.6-5.3c0.3-1.3,0.7-2.5,1.3-3.8c2.3,0.9,5.2,1.4,8.3,1.4c3.1,0,6-0.5,8.3-1.4c0.5,1.2,0.9,2.4,1.3,3.8
											c0.4,1.7,0.3,3.5,0.6,5.3c0.4-1.1,0.6-2.4,0.7-3.7C371.4,147.4,371.9,144.7,370.7,142.4z"/>
										
											<linearGradient id="XMLID_8_" gradientUnits="userSpaceOnUse" x1="197.1898" y1="413.3797" x2="198.0324" y2="403.058" gradientTransform="matrix(1.2898 0 0 -1.2898 106.295 665.4078)">
											<stop  offset="0.3668" style="stop-color:#FFF4D5"/>
											<stop  offset="1" style="stop-color:#F7D062"/>
										</linearGradient>
										<path id="XMLID_963_" fill="url(#XMLID_8_)" d="M355.8,145c-2.5-0.9,0.4-5.1,0.9-5.5c2-1.9,5.3-2.4,5.9-5.6
											c2.7,1,4.8,3.4,5.5,6.1c0.3,1.2-0.8,4.1-1.8,4.8C366.3,144.8,360.4,146.8,355.8,145z"/>
									</g>
									<g id="XMLID_957_">
										<g>
											<path id="XMLID_16_" fill="#FFFFFF" d="M357.8,160c0.5,1,1.5,1.8,2.7,1.8s2.3-0.7,2.7-1.8H357.8z"/>
										</g>
									</g>
								</g>
							</g>
						</g>
					</g>
				</g>
				<g id="XMLID_622_">
					<circle id="XMLID_739_" fill="#26B99A" enable-background="new    " cx="488.3" cy="207" r="24"/>
					<g id="XMLID_623_">
						<circle id="XMLID_738_" fill="#FFFFFF" cx="488.3" cy="207" r="21.9"/>
						<g id="XMLID_624_">
							<g>
								<defs>
									<circle id="SVGID_7_" cx="488.3" cy="207" r="21.9"/>
								</defs>
								<clipPath id="SVGID_8_">
									<use xlink:href="#SVGID_7_"  overflow="visible"/>
								</clipPath>
								<g id="XMLID_628_" clip-path="url(#SVGID_8_)">
									<g id="XMLID_682_">
										<g id="XMLID_683_">
											<g id="XMLID_716_">
												<path id="XMLID_737_" fill="#C68458" d="M503.4,224c-0.7-0.5-1.5-0.9-2.3-1.1l-0.9-0.2l0,0l-6.9-2.3
													c-0.5-0.2-0.9-0.6-0.9-1.1c-0.3-1.4-0.2-4.9-0.2-5.6c0-0.1-0.1-0.1-0.1-0.1h-0.3h-6.9h-0.3c-0.1,0-0.1,0-0.1,0.1
													c0,0.6,0,4-0.2,5.6c-0.1,0.5-0.4,0.9-0.9,1.1l-6.9,2.3l0,0l-0.9,0.2c-0.7,0.2-1.4,0.5-2,0.9c-3.1,2-3.3,5.5-3.4,6.1
													c0,0.1,0,0.1,0.1,0.1h18.2h18.2c0.1,0,0.1-0.1,0.1-0.1C506.4,229.3,506.4,226.1,503.4,224z"/>
												<g id="XMLID_735_">
													<path id="XMLID_736_" fill="#E0D94D" d="M503.4,224c-0.7-0.5-1.5-0.9-2.3-1.1l-0.9-0.2l0,0l-6-2
														c-1.9,0.7-3.9,1.1-6,1.1c-2.1,0-4.2-0.4-6-1.1l-6,2l0,0l-0.9,0.2c-0.7,0.2-1.4,0.5-2,0.9c-3.1,2-3.3,5.5-3.4,6.1
														c0,0.1,0,0.1,0.1,0.1h18.2h18.2c0.1,0,0.1-0.1,0.1-0.1C506.4,229.3,506.4,226.1,503.4,224z"/>
												</g>
												<g id="XMLID_733_">
													<path id="XMLID_734_" fill="#A56B42" d="M492.2,218c0-1.6-0.1-3.1-0.1-3.5c0-0.1-0.1-0.1-0.1-0.1h-7.5
														c-0.1,0-0.1,0.1-0.1,0.1c0,0.4-0.1,2-0.1,3.5c0.5,0.5,2.5,1.3,3.8,1.3C489.5,219.4,491.6,218.5,492.2,218z"/>
												</g>
												<g id="XMLID_730_">
													<path id="XMLID_732_" fill="#C68458" d="M481.1,206.3c0.5,1.4,0.2,3.7-0.7,4.1c-0.9,0.5-2-1.1-2.6-2.5
														s-0.2-2.9,0.7-3.4C479.4,204.1,480.6,204.9,481.1,206.3z"/>
													<path id="XMLID_731_" fill="#C68458" d="M495.3,206.3c-0.5,1.4-0.2,3.7,0.7,4.1c0.9,0.5,2-1.1,2.6-2.5
														c0.5-1.4,0.2-2.9-0.7-3.4C497,204.1,495.9,204.9,495.3,206.3z"/>
												</g>
												<path id="XMLID_729_" fill="#C68458" d="M488.2,193.7c-8.9-0.3-9.1,8.3-8.9,11.1c0.1,2,0.5,5.1,1,6.5
													c0.2,0.9,0.7,2.3,1.3,2.9c1.7,1.6,3.9,3.1,5.3,3.7c0.2,0.1,0.8,0.2,1.3,0.2c0.5,0,1.1,0,1.3-0.2c1.3-0.5,3.5-2,5.3-3.7
													c0.6-0.6,1.1-2,1.3-2.9c0.5-1.5,0.9-4.5,1-6.5C497.3,201.9,497.1,193.4,488.2,193.7z"/>
												<g id="XMLID_725_">
													<path id="XMLID_726_" fill="#392012" d="M489.9,215.8c-0.9-0.2-1.6-1.1-1.7-1.6c-0.2,0.5-0.9,1.5-1.7,1.6
														c-2.2,0.4-4.3-1.5-5.9-3.4c0.2,0.7,0.5,1.4,1,1.8c1.7,1.6,3.9,3.1,5.3,3.7c0.2,0.1,0.8,0.2,1.3,0.2
														c0.5,0,1.1,0,1.3-0.2c1.3-0.5,3.5-2,5.3-3.7c0.4-0.4,0.7-1.1,1-1.8C494.2,214.4,492.1,216.2,489.9,215.8z"/>
												</g>
												<g id="XMLID_722_">
													<ellipse id="XMLID_724_" fill="#342214" cx="483.5" cy="205.5" rx="1.1" ry="1.3"/>
													<ellipse id="XMLID_723_" fill="#342214" cx="492.6" cy="205.5" rx="1.1" ry="1.3"/>
												</g>
												<g id="XMLID_717_">
													<g>
														<path id="XMLID_15_" fill="#FFFFFF" d="M485.4,211.6c0.5,1.3,1.6,2.1,2.9,2.1c1.3,0,2.4-0.9,2.9-2.1H485.4z"/>
													</g>
												</g>
											</g>
											<g id="XMLID_694_">
												<g id="XMLID_711_">
													<g>
														<path id="XMLID_14_" fill="#392012" d="M480.3,202.1c0.4-1.6,1-3.3,1.9-4.8c-0.2-0.4-0.8-0.5-1.3-0.4
															c-1.3,2-1.6,4.7-1.7,6.5c0.1,1.1,0.2,2.1,0.5,3.1C480,205.1,479.9,203.6,480.3,202.1z"/>
													</g>
												</g>
												<g id="XMLID_695_">
													<g>
														<path id="XMLID_12_" fill="#392012" d="M496.3,202.1c-0.4-1.6-1-3.3-1.9-4.8c0.2-0.4,0.8-0.5,1.3-0.4
															c1.3,2,1.6,4.7,1.7,6.5c-0.1,1.1-0.2,2.1-0.5,3.1C496.5,205.1,496.6,203.6,496.3,202.1z"/>
													</g>
												</g>
											</g>
											
												<linearGradient id="XMLID_9_" gradientUnits="userSpaceOnUse" x1="296.1096" y1="362.1614" x2="296.1096" y2="369.6559" gradientTransform="matrix(1.2898 0 0 -1.2898 106.295 665.4078)">
												<stop  offset="0" style="stop-color:#392012"/>
												<stop  offset="0.7085" style="stop-color:#905023"/>
												<stop  offset="1" style="stop-color:#A7742D"/>
											</linearGradient>
											<path id="XMLID_693_" fill="url(#XMLID_9_)" d="M496.7,197.4c0-0.2-0.1-0.3-0.2-0.5c-0.3-0.5-0.8-1.1-1.3-1.5
												c0-0.5-0.2-1.1-0.5-1.6c-1.3-2.2-3.1-4-5.4-5c0,1.3-0.9,2.3-2,2.8c-1,0.6-2.3,0.9-3.3,1.6c-0.2,0.2-0.7,0.5-1.1,0.9
												c-1.3,0.7-2.4,1.6-3,2.7c-0.1,0.2-0.2,0.3-0.2,0.5c-1,2-0.9,4.2-0.9,5.8c0.1,1.1,0.5,4.1,0.8,5c0.2-1.5,0.2-4.9,0.5-6.3
												c0.2-1.1,0.6-2.1,1-3.1c2.2-2.4,11.5-2.2,14,0c0.5,1,0.8,2,1,3.1c0.3,1.5,0.2,4.9,0.5,6.3c0.3-0.9,0.7-3.9,0.8-5
												C497.5,201.5,497.7,199.3,496.7,197.4z"/>
										</g>
									</g>
									<g id="XMLID_629_">
										<g id="XMLID_634_">
											<path id="XMLID_678_" fill="#8ECDC7" d="M487.2,203.9c-1.6-2-7.8-0.5-7.8-0.5c0.1,0.5,0.2,0.9,0.3,1.3
												c0.5,0.1,0.5,1.1,0.5,1.5c0.2,1.8,1.4,3.1,4,3.1c2.6-0.2,3.1-2,3.3-3.1C487.6,204.7,487.2,203.9,487.2,203.9z
												 M486.9,206.2c-0.2,1.6-1.1,2.6-2.7,2.7c-0.2,0-0.3,0-0.5,0c-2.6,0-3-2.3-3.1-3.7c0-0.8,0.5-1.5,1.3-1.6
												c0.5-0.1,1-0.1,1.6-0.1c1.9,0,2.7,0.5,3,0.8C486.7,204.6,487,205.2,486.9,206.2z"/>
											<path id="XMLID_649_" fill="#8ECDC7" d="M489,206c0.1,1.2,0.7,3.1,3.3,3.1c2.6,0.1,3.8-1.3,4-3.1
												c0.1-0.4,0.1-1.4,0.5-1.5c0.1-0.5,0.2-0.9,0.3-1.3c0,0-6.2-1.4-7.8,0.5C489.3,203.9,488.9,204.7,489,206z M489.9,204.4
												c0.2-0.4,1-0.8,3-0.8c0.6,0,1.2,0,1.6,0.1c0.8,0.1,1.4,0.8,1.3,1.6c-0.1,1.4-0.5,3.7-3.1,3.7c-0.2,0-0.3,0-0.5,0
												c-1.6-0.1-2.6-1-2.7-2.7C489.5,205.2,489.8,204.6,489.9,204.4z"/>
										</g>
										<path id="XMLID_633_" fill="#8ECDC7" d="M489.4,205.5c0,0-0.4-0.3-1.2-0.3c-0.7,0-1.1,0.3-1.1,0.3
											c-0.1-0.3-0.2-0.6-0.3-0.9c0.9,0,2,0,2.9,0C489.6,204.8,489.4,205.1,489.4,205.5z"/>
									</g>
								</g>
							</g>
						</g>
					</g>
				</g>
				<g id="XMLID_707_">
					<circle id="XMLID_791_" fill="#26B99A" enable-background="new    " cx="366.9" cy="234.9" r="33.1"/>
					<g id="XMLID_708_">
						<circle id="XMLID_790_" fill="#FFFFFF" cx="366.9" cy="234.9" r="30.3"/>
						<g id="XMLID_709_">
							<g>
								<defs>
									<circle id="SVGID_9_" cx="366.9" cy="234.9" r="30.3"/>
								</defs>
								<clipPath id="SVGID_10_">
									<use xlink:href="#SVGID_9_"  overflow="visible"/>
								</clipPath>
								<g id="XMLID_548_" clip-path="url(#SVGID_10_)">
									<g id="XMLID_937_">
										<g id="XMLID_938_">
											<path id="XMLID_955_" fill="#D8AA8B" d="M387.2,257.7c-0.9-0.6-2-1.2-3.1-1.5l-1.2-0.3l0,0l-9.4-3.1
												c-0.8-0.2-1.2-0.8-1.3-1.5c-0.4-2-0.3-6.7-0.3-7.5c0-0.1-0.1-0.1-0.2-0.1h-0.4H362h-0.5c-0.1,0-0.2,0.1-0.2,0.1
												c0,0.9,0.1,5.5-0.3,7.5c-0.2,0.7-0.5,1.3-1.3,1.5l-9.4,3.1l0,0l-1.3,0.3c-0.9,0.2-1.9,0.6-2.7,1.2
												c-4.3,2.8-4.4,7.4-4.6,8.2c0,0.1,0.1,0.2,0.2,0.2h24.8h24.7c0.1,0,0.2-0.1,0.2-0.2C391.3,264.9,391.2,260.6,387.2,257.7z
												"/>
											<g id="XMLID_953_">
												<path id="XMLID_954_" fill="#C0977A" d="M372,249.6c-0.1-2.2-0.2-4.2-0.2-4.8c0-0.1-0.1-0.2-0.2-0.2h-10.2
													c-0.1,0-0.2,0.1-0.2,0.2c0,0.5-0.1,2.7-0.2,4.9c0.7,0.8,3.4,1.9,5.3,1.9C368.4,251.5,371.2,250.2,372,249.6z"/>
											</g>
											<g id="XMLID_950_">
												<path id="XMLID_952_" fill="#D8AA8B" d="M357,233.7c0.7,2,0.3,4.9-0.9,5.6c-1.3,0.5-2.8-1.5-3.5-3.4
													c-0.7-2-0.3-4,0.9-4.5C354.7,230.8,356.3,231.9,357,233.7z"/>
												<path id="XMLID_951_" fill="#D8AA8B" d="M376.2,233.7c-0.7,2-0.3,4.9,0.9,5.6c1.3,0.5,2.8-1.5,3.5-3.4
													c0.7-2,0.3-4-0.9-4.5C378.6,230.8,377,231.9,376.2,233.7z"/>
											</g>
											<path id="XMLID_949_" fill="#D8AA8B" d="M366.5,216.6c-12.2-0.4-12.3,11.2-12.2,15.1c0.2,2.8,0.8,6.8,1.4,8.9
												c0.3,1.2,0.9,3.1,1.8,3.9c2.4,2.3,5.3,4.2,7.1,4.9c0.3,0.2,1,0.2,1.8,0.2c0.7,0,1.5-0.1,1.8-0.2c1.8-0.7,4.8-2.7,7.1-4.9
												c0.9-0.9,1.5-2.7,1.8-3.9c0.6-2,1.3-6.1,1.4-8.9C378.8,227.8,378.7,216.2,366.5,216.6z"/>
											<g id="XMLID_946_">
												<ellipse id="XMLID_948_" fill="#342214" cx="360.3" cy="232.7" rx="1.5" ry="1.7"/>
												<ellipse id="XMLID_947_" fill="#342214" cx="372.6" cy="232.7" rx="1.5" ry="1.7"/>
											</g>
											<g id="XMLID_944_">
												<path id="XMLID_945_" fill="#42438F" d="M382.9,255.9L382.9,255.9l-8.1-2.7c-1.6,2-5.3,4.6-8.2,4.6
													c-2.9,0-6.4-2.4-8.2-4.6l-8.1,2.7l0,0l-0.5,0.2v9.8h16.9h16.9v-9.8L382.9,255.9z"/>
											</g>
											<g id="XMLID_939_">
												<g>
													<path id="XMLID_13_" fill="#FFFFFF" d="M362.6,241c0.7,1.5,2.1,2.5,3.9,2.5c1.7,0,3.2-1,3.9-2.5H362.6z"/>
												</g>
											</g>
										</g>
									</g>
									
										<linearGradient id="XMLID_10_" gradientUnits="userSpaceOnUse" x1="190.0827" y1="340.3743" x2="212.6565" y2="340.3743" gradientTransform="matrix(1.2898 0 0 -1.2898 106.295 665.4078)">
										<stop  offset="0" style="stop-color:#6A2811"/>
										<stop  offset="1" style="stop-color:#905023"/>
									</linearGradient>
									<path id="XMLID_581_" fill="url(#XMLID_10_)" d="M380.1,225c-0.5-2-2.7-5.8-5-5.5c-0.5-1.4-1.4-2.7-2.6-3.5
										c-1.9-1.3-4.2-1.6-6.4-1.3c-3.5,0.5-7.9,1.8-10.2,4.7c-2.4,2.9-4.5,7.1-4.5,11c0.5-0.8,1.2-1.5,1.8-2.1
										c-0.2,3.5,0.7,7.1,2.5,10c-0.2-2.3,0.2-4.5,0.8-6.7c0,1.1,0.2,2.1,0.5,3.1c-0.1-0.3,2.3-3.2,2.8-4.1c0,0.2,0,0.3,0,0.5
										c0-0.4,3.8-2.6,4.3-3.1c1-0.9,2-1.9,3-3c-0.3,0.5-0.6,1.2-0.9,1.7c-0.2,0.5-1.2,4.2-1.5,4.3c2.7-1.2,5.1-3.1,6.7-5.5
										c0.4-0.5,0.6-1.2,0.8-1.7c0.2,0,0.3,0,0.4,0c0.1,0.2,0.1,0.2,0.2,0.4c0.4,0.9,1.1,1.8,1.7,2.7c2.3,3.3,3.4,7.3,3.1,11.3
										C380.4,234.4,381.2,229.4,380.1,225z"/>
								</g>
							</g>
						</g>
					</g>
				</g>
				<g id="XMLID_759_">
					<circle id="XMLID_843_" fill="#26B99A" enable-background="new    " cx="439.6" cy="353.2" r="41.5"/>
					<circle id="XMLID_842_" fill="#FFFFFF" cx="439.6" cy="353.2" r="38"/>
					<g id="XMLID_295_">
						<g>
							<defs>
								<circle id="SVGID_11_" cx="439.6" cy="353.2" r="38"/>
							</defs>
							<clipPath id="SVGID_12_">
								<use xlink:href="#SVGID_11_"  overflow="visible"/>
							</clipPath>
							<g id="XMLID_897_" clip-path="url(#SVGID_12_)">
								<g id="XMLID_898_">
									
										<linearGradient id="XMLID_11_" gradientUnits="userSpaceOnUse" x1="258.1728" y1="221.135" x2="258.1728" y2="237.5716" gradientTransform="matrix(1.2898 0 0 -1.2898 106.295 665.4078)">
										<stop  offset="0" style="stop-color:#392012"/>
										<stop  offset="1" style="stop-color:#905023"/>
									</linearGradient>
									<path id="XMLID_936_" fill="url(#XMLID_11_)" d="M450.2,382.5c3.7,0.7,1.9,5.3,4.8,3c2.9-2.4,4.5-36.5,4.2-40.9
										c-0.3-4.5-1.3-9-3.8-12.8c-3.5-5.5-10-8.2-16.2-8.2s-12.7,2.7-16.2,8.2c-2.4,3.7-3.5,8.2-3.8,12.8
										c-0.3,4.5,3.1,38.5,6,40.9s-0.6-2.3,3.1-3H450.2z"/>
									<g id="XMLID_933_">
										<path id="XMLID_935_" fill="#E5B295" d="M439.6,386.1c5.3,0,10.2-2.8,14.3-7.6l-7-2.2c-0.9-0.2-1.3-1-1.5-2
											c-0.5-2.5-0.4-9.1-0.4-10.2c0-0.1-0.1-0.2-0.2-0.2h-10.6c-0.1,0-0.2,0.1-0.2,0.2c0,1.1,0.1,7.5-0.4,10.2
											c-0.2,0.9-0.6,1.6-1.5,2l-7,2.2C429.3,383.4,434.3,386.1,439.6,386.1z"/>
										<path id="XMLID_934_" fill="#E5B295" d="M411.9,392.2L411.9,392.2c0,0.1,0,0.2,0.1,0.2C412,392.3,411.9,392.2,411.9,392.2
											z"/>
									</g>
									<g id="XMLID_931_">
										<path id="XMLID_932_" fill="#D39E7A" d="M445,369.8c-0.1-2.3,0-4.4,0-4.9c0-0.1-0.1-0.2-0.2-0.2h-10.6
											c-0.1,0-0.2,0.1-0.2,0.2c0,0.5,0,2.7,0,4.9C437.6,371,441.5,371,445,369.8z"/>
									</g>
									<g id="XMLID_928_">
										<path id="XMLID_930_" fill="#E5B295" d="M426.8,350.6c0.9,2.3,0.4,5.8-1.2,6.5c-1.6,0.7-3.7-1.7-4.6-4
											c-0.9-2.3-0.4-4.6,1.2-5.3C423.8,347.1,425.9,348.4,426.8,350.6z"/>
										<path id="XMLID_929_" fill="#E5B295" d="M452.3,350.6c-0.9,2.3-0.4,5.8,1.2,6.5c1.6,0.7,3.7-1.7,4.6-4
											c0.9-2.3,0.4-4.6-1.2-5.3C455.3,347.1,453.2,348.4,452.3,350.6z"/>
									</g>
									<path id="XMLID_927_" fill="#E5B295" d="M439.6,332.5c-16.2-0.6-16.5,10.7-16.2,15.8c0.2,3.7,1.6,9,2.4,11.7
										c0.5,1.6,1.3,3,2.4,4.1c4.2,4,11.4,5.4,11.4,5.4s7.1-1.3,11.4-5.4c1.2-1.1,2-2.5,2.4-4.1c0.8-2.7,2.2-8,2.4-11.7
										C456,343.2,455.7,331.9,439.6,332.5z"/>
									<g id="XMLID_924_">
										<polygon id="XMLID_926_" fill="#342214" points="447.9,348.8 450.4,348.1 449.4,349.4 										"/>
										<polygon id="XMLID_925_" fill="#342214" points="430.6,348.8 428.1,348.1 429,349.4 										"/>
									</g>
									<g id="XMLID_921_">
										<ellipse id="XMLID_923_" fill="#342214" cx="431.1" cy="349.5" rx="2.1" ry="2.5"/>
										<ellipse id="XMLID_922_" fill="#342214" cx="447.3" cy="349.5" rx="2.1" ry="2.5"/>
									</g>
									<g id="XMLID_916_">
										<g>
											<path id="XMLID_19_" fill="#FFFFFF" stroke="#D67029" stroke-width="1.5731" stroke-miterlimit="10" d="M433.8,359.7
												c1,2.2,3.2,3.8,5.8,3.8s4.8-1.6,5.8-3.8H433.8z"/>
										</g>
									</g>
									<path id="XMLID_915_" fill="#E39F84" d="M430.8,354.4c1,2.1-1.1,4.2-3.2,3.2c-0.4-0.2-0.8-0.5-0.9-0.9
										c-1-2.1,1.1-4.2,3.2-3.2C430.3,353.6,430.6,354,430.8,354.4z"/>
									<path id="XMLID_914_" fill="#E39F84" d="M451.6,354.4c1,2.1-1.1,4.2-3.2,3.2c-0.4-0.2-0.8-0.5-0.9-0.9
										c-1-2.1,1.1-4.2,3.2-3.2C451,353.6,451.3,354,451.6,354.4z"/>
									<g id="XMLID_912_">
										<path id="XMLID_913_" fill="#FEF490" d="M439.7,328.5c-9.4,0-17.1,7.4-17.1,16.5c0,0.9,0.5,2.7,0.6,2.5
											c2.1-8.1,11.6-9.9,16.5-9.9s14.3,1.3,16.5,9.9c0,0.2,0.6-1.6,0.6-2.5C456.7,335.9,449.1,328.5,439.7,328.5z"/>
									</g>
									<path id="XMLID_911_" fill="#C0C1E1" d="M433.8,374.5C433.7,374.5,433.7,374.5,433.8,374.5c-0.2,0.9-0.6,1.7-1.5,2l-12,3.8
										c-1.1,0.3-2.2,0.9-3.1,1.5c-4.9,3.6-5,9.5-5.2,10.5c0,0.1,0.1,0.2,0.2,0.2h27.4H467c0.1,0,0.2-0.1,0.2-0.2
										c-0.2-1.1-0.2-6.6-4.8-10.2c-1-0.9-2.3-1.5-3.5-1.9l-12-3.8c-0.9-0.2-1.3-1-1.5-2l0,0c-1.9,0.1-3.8,0.1-5.8,0.1
										C437.5,374.5,435.7,374.5,433.8,374.5z"/>
									
										<line id="XMLID_910_" fill="none" stroke="#FEF490" stroke-width="1.6323" stroke-miterlimit="10" x1="439.6" y1="373.4" x2="439.6" y2="392.2"/>
									<g id="XMLID_908_">
										<path id="XMLID_909_" fill="#FEF490" d="M439.6,373.4c-1.9,0-3.8-0.1-5.6-0.2c-0.1,0.5-0.1,0.9-0.2,1.3
											c1.9,0.1,3.8,0.1,5.8,0.1c2,0,3.9,0,5.8-0.1c-0.1-0.3-0.1-0.8-0.2-1.3C443.3,373.4,441.5,373.4,439.6,373.4z"/>
									</g>
									<g id="XMLID_899_">
										<g id="XMLID_903_">
											<g id="XMLID_905_">
												<path id="XMLID_907_" fill="none" stroke="#FFFFFF" stroke-width="0.8161" stroke-miterlimit="10" d="M424.4,351.8
													c-2,8.5,0.7,18,6.8,24.2c1.6,1.6,3.4,3.1,4.9,4.8c1.4,1.8,3.7,4.1,3.4,6.3"/>
												<path id="XMLID_906_" fill="none" stroke="#FFFFFF" stroke-width="0.8161" stroke-miterlimit="10" d="M454.8,351.8
													c2,8.5-0.7,18-6.8,24.2c-1.6,1.6-3.4,3.1-4.9,4.8c-1.4,1.8-3.7,4.1-3.4,6.3"/>
											</g>
											
												<line id="XMLID_904_" fill="none" stroke="#FFFFFF" stroke-width="0.8161" stroke-miterlimit="10" x1="439.6" y1="386.2" x2="439.6" y2="392.4"/>
										</g>
										<g id="XMLID_900_">
											<path id="XMLID_902_" fill="#FFFFFF" d="M456.8,352.1c0,0.9-0.7,1.6-1.6,1.6s-1.2-0.7-1.2-1.6s0.3-1.6,1.2-1.6
												S456.8,351.3,456.8,352.1z"/>
											<path id="XMLID_901_" fill="#FFFFFF" d="M422.3,352.1c0,0.9,0.7,1.6,1.6,1.6s1.2-0.7,1.2-1.6s-0.3-1.6-1.2-1.6
												S422.3,351.3,422.3,352.1z"/>
										</g>
									</g>
								</g>
							</g>
						</g>
					</g>
				</g>
			</g>
		</g>
	</g>
</g>
</svg>
