<?xml version="1.0" encoding="utf-8"?>
<!-- Generator: Adobe Illustrator 18.1.1, SVG Export Plug-In . SVG Version: 6.00 Build 0)  -->
<svg version="1.1" id="Layer_1" xmlns="http://www.w3.org/2000/svg" xmlns:xlink="http://www.w3.org/1999/xlink" x="0px" y="0px"
	 viewBox="156 246 300 300" enable-background="new 156 246 300 300" xml:space="preserve">
<path fill="#52677A" d="M445.5,304c-9.4-18.2-31.9-25.4-50.1-15.9c-18.2,9.4-25.4,31.9-15.9,50.1c9.4,18.2,31.9,25.4,50.1,15.9
	C447.8,344.7,454.9,322.3,445.5,304z"/>
<g>
	<g>
		<path fill="#B7CDD8" d="M439.3,324c-0.1-0.1-0.2-0.3-0.3-0.4c0-0.1-0.1,0-0.2,0.1c-0.1,0.1-0.1,0.5-0.1,0.6c0,0.1,0,0.1,0,0.2
			c0,0.1,0,0.2,0,0.5c0,0,0,0.2,0,0.3c0,0.1,0.1,0.1,0.2,0.3c0.1,0.1,0.1,0.3,0.1,0.4c0.1,0.1,0.2,0,0.4,0c0.2-0.1,0-0.2,0.1-0.4
			c0-0.2,0.1-0.4,0-0.5c-0.1-0.1,0-0.1,0-0.2c0-0.1,0-0.2,0-0.4c-0.1-0.2-0.1-0.3-0.1-0.4C439.5,324,439.4,324,439.3,324z"/>
		<path fill="#B7CDD8" d="M447.2,325.1c-0.1-0.2-0.1,0.2-0.2,0.3c-0.1,0.1-0.1-0.1-0.1-0.2c-0.1-0.1-0.2-0.4-0.3-0.4
			c-0.1-0.1-0.1-0.2-0.2-0.4c-0.1-0.2-0.2-0.2-0.2-0.3c0-0.2,0-0.3-0.2-0.4c-0.2-0.1-0.2,0.1-0.3,0.2c-0.1,0.1-0.2,0.1-0.3,0.1
			c-0.1,0-0.1-0.2-0.2-0.3c-0.1-0.1-0.1,0.1-0.1,0.2c0,0.1,0.1,0.2,0.1,0.4c0,0.1,0,0.3,0,0.4c0.1,0.1,0.1,0.2,0.3,0.2
			c0,0,0.1,0,0.1,0.1c0,0.1,0.1,0.2,0.1,0.4c0,0.2,0,0.4,0.1,0.5c0.1,0.1,0.2,0.2,0.3,0.3c0.1,0.2,0.1,0.2,0.1,0.4
			c0,0.2,0.1,0.1,0.2,0.1c0.1,0,0.2,0,0.3,0c0.1,0.1,0,0.4,0,0.5c0,0.1,0.1,0.6,0.1,0.7c0,0.1,0.2,0.4,0.4,0.6
			c0.2,0.2,0,0.2,0.1,0.5c0.1,0.3,0.2,0,0.3-0.1c0.1-0.1,0.1-0.3,0.2-0.5c0-0.1,0-0.4,0-0.5c0.1-0.2,0.1-0.2,0.2-0.4
			c0.1-0.2,0-0.5-0.1-0.8c-0.1-0.3-0.1-0.1-0.2-0.2c-0.1-0.1-0.1-0.5-0.1-0.7c0-0.1-0.1-0.3-0.2-0.4
			C447.3,325.6,447.2,325.3,447.2,325.1z"/>
		<path fill="#B7CDD8" d="M445.6,326c0,0,0-0.3,0-0.5c-0.1-0.2-0.1,0.1-0.2,0.2C445.3,325.8,445.5,326,445.6,326
			C445.5,326.1,445.6,326.1,445.6,326z"/>
		<path fill="#B7CDD8" d="M446.1,326.7c0.1,0,0.1-0.2,0-0.3c-0.1-0.2-0.1-0.2-0.3-0.1c-0.1,0,0,0.2,0.1,0.4
			C445.9,326.6,445.9,326.7,446.1,326.7z"/>
		<path fill="#B7CDD8" d="M446.5,327.2c0-0.2-0.1-0.1-0.2-0.1c-0.1,0,0,0.1,0,0.4c0,0,0,0.1,0.1,0.1
			C446.5,327.5,446.5,327.4,446.5,327.2z"/>
		<path fill="#B7CDD8" d="M412.4,286.8c0.1-0.1-0.2-0.1-0.3,0c-0.1,0-0.2,0.2-0.1,0.3C412,287,412.2,286.9,412.4,286.8z"/>
		<path fill="#B7CDD8" d="M411.5,286.9c0.1-0.1-0.1-0.1-0.3-0.1c-0.2,0-0.1,0.1,0.1,0.2C411.2,287,411.4,286.9,411.5,286.9z"/>
		<path fill="#B7CDD8" d="M412.4,286.6c0.1-0.1-0.4,0-0.4,0.1l0.1,0.1C412,286.7,412.3,286.6,412.4,286.6z"/>
		<path fill="#B7CDD8" d="M417.1,286.3c0.2-0.1-0.2-0.1-0.3-0.1c-0.1,0-0.2-0.1-0.3-0.2c0-0.1-0.1-0.1-0.2,0.1
			c-0.1,0.1,0.1,0.2,0.2,0.3C416.5,286.4,416.9,286.4,417.1,286.3z"/>
		<path fill="#B7CDD8" d="M417,286.4c-0.1,0-0.2,0.1-0.1,0.2c0,0,0.3,0,0.4,0.1c0.1,0.1,0.1-0.1,0.3-0.2c0.2-0.1,0.3,0,0.4-0.1
			c0.1-0.1-0.4-0.1-0.7,0C416.9,286.6,417,286.5,417,286.4z"/>
		<path fill="#B7CDD8" d="M418.7,286.3c0,0,0.1,0.1,0.2,0.1c0.1,0,0.2,0,0.3,0c0.2,0,0.1-0.2,0.1-0.2s0.1-0.2,0.1-0.3
			c0.1-0.1-0.1-0.1-0.2-0.1c-0.1,0.1-0.1,0.2-0.2,0.3c-0.1,0.1-0.2,0-0.2,0s-0.3-0.1-0.5,0C418.3,286.3,418.5,286.3,418.7,286.3z"/>
		<path fill="#B7CDD8" d="M400,306.7c-0.1,0-0.4,0-0.7,0c-0.3,0-0.4-0.1-0.6-0.1c-0.2,0-0.3,0.4-0.1,0.6c0.2,0.2,0.4,0.2,0.6,0.3
			c0.2,0.1,0.1,0.2,0.3,0.3c0,0,0.1,0.1,0.3,0c0.1-0.1,0.2-0.3,0.3-0.5C400.1,307.1,400.1,306.8,400,306.7z"/>
		<path fill="#B7CDD8" d="M396.8,306.2c0,0.1,0.1-0.1,0.2-0.2c0.2-0.1-0.1,0.2,0,0.4c0,0,0.1,0,0.2,0c0.1,0,0.1-0.1,0.1-0.3
			c0-0.2,0.1-0.2,0.2-0.3c0.1,0,0.1-0.2,0.1-0.4c0-0.2,0.1-0.5,0.1-0.6c0-0.1-0.3,0.2-0.4,0.3c-0.1,0.1-0.4,0.4-0.5,0.6
			C396.7,306,396.7,306.1,396.8,306.2z"/>
		<path fill="#B7CDD8" d="M397.8,304.6c0,0,0-0.1,0.1-0.2c0-0.1,0.2-0.3,0.2-0.5c0-0.2-0.2,0-0.2,0.1c-0.1,0.1-0.2,0.1-0.2,0.2
			C397.5,304.3,397.7,304.4,397.8,304.6C397.7,304.6,397.8,304.6,397.8,304.6z"/>
		<path fill="#B7CDD8" d="M404.2,309.5c0.2,0.1,0.1-0.1,0.2-0.1c0,0,0.2,0,0.5,0c0.3,0,0.5,0.2,0.7,0.1c0.2-0.1,0.2-0.2,0.2-0.4
			c-0.1-0.2-0.3-0.1-0.5-0.1c-0.1,0-0.1-0.1-0.3-0.1c-0.1,0-0.3,0-0.4,0c-0.1,0-0.3-0.1-0.4,0c-0.1,0,0.1,0.2-0.1,0.3
			C404,309.4,404,309.4,404.2,309.5z"/>
		<path fill="#B7CDD8" d="M405.4,306.7c0.1,0.1,0.1-0.1,0.3,0c0,0,0.1,0,0.1,0c0.1,0,0.1-0.2,0.1-0.3c0-0.1-0.2-0.1-0.3-0.2
			c-0.2,0-0.1,0.2-0.1,0.3C405.5,306.7,405.4,306.7,405.4,306.7z"/>
		<path fill="#B7CDD8" d="M405.4,307.4c0,0,0.1,0,0.1,0c0.1,0,0.2-0.1,0.1-0.2c0-0.2-0.1-0.2-0.3-0.1
			C405.2,307.2,405.3,307.3,405.4,307.4z"/>
		<path fill="#B7CDD8" d="M404,308.4c0-0.1,0.1-0.2-0.1-0.2c-0.2,0-0.1,0.2-0.1,0.3C403.8,308.6,404,308.5,404,308.4z"/>
		<path fill="#B7CDD8" d="M404.9,308.2c0.2-0.1,0.1-0.1,0-0.2c-0.1-0.1-0.3,0-0.2,0.2C404.7,308.2,404.7,308.3,404.9,308.2z"/>
		<path fill="#B7CDD8" d="M405.8,308.4c0,0,0.2,0,0.1-0.2c0-0.1,0-0.1-0.2-0.1C405.5,308.2,405.6,308.4,405.8,308.4z"/>
		<path fill="#B7CDD8" d="M406.3,308.1c0-0.1-0.1-0.1-0.2-0.1c-0.1,0-0.1,0.1,0,0.2C406.2,308.2,406.3,308.3,406.3,308.1z"/>
		<path fill="#B7CDD8" d="M406.1,308.6c0,0,0.1,0,0.2-0.1c0.1-0.1,0-0.1-0.1-0.2C406.1,308.3,406,308.4,406.1,308.6z"/>
		<path fill="#B7CDD8" d="M406.9,308.8c0.1-0.2-0.1-0.2-0.2-0.3c-0.1,0-0.2,0.2-0.2,0.3c0,0,0,0.1,0.1,0.2
			C406.6,309.1,406.8,308.9,406.9,308.8z"/>
		<path fill="#B7CDD8" d="M406.3,308.8c-0.1-0.1-0.2,0.1-0.2,0.2c0,0,0.1,0.1,0.3,0C406.5,308.9,406.4,308.8,406.3,308.8z"/>
		<path fill="#B7CDD8" d="M409.1,309.2c-0.2,0,0,0.2,0,0.3c0,0.1,0,0.3,0.2,0.4c0,0,0.2,0,0.3-0.1c0.1-0.1,0.3-0.3,0.4-0.4
			c0.1-0.1,0.4-0.1,0.4-0.2c0-0.2,0.3-0.3,0.4-0.3c0.1,0-0.1-0.1-0.3-0.2c-0.2-0.1-0.3,0.1-0.4,0.2c-0.1,0.1-0.3,0.1-0.3,0
			c-0.1-0.1-0.3,0.1-0.2,0.2C409.5,309.2,409.3,309.2,409.1,309.2z"/>
		<path fill="#B7CDD8" d="M417.6,341.9c0,0,0.1,0,0.2,0c0.1,0,0.1-0.2,0-0.4c-0.1-0.1-0.4,0.1-0.5,0.2
			C417.2,341.8,417.6,341.8,417.6,341.9z"/>
		<path fill="#B7CDD8" d="M419.2,342.1c0.2,0.1,0.2-0.1,0.3-0.3c0.1-0.2,0-0.2-0.3-0.2c-0.2,0-0.2,0.1-0.1,0.3
			C419.1,342,419.1,342,419.2,342.1z"/>
		<path fill="#B7CDD8" d="M420.4,340.9c0.1,0,0.1-0.2-0.1-0.3c-0.1-0.1-0.2,0.1-0.1,0.3C420.2,341,420.3,341,420.4,340.9z"/>
		<path fill="#B7CDD8" d="M421.6,342.4c0-0.3-0.2-0.3-0.4-0.4c-0.2-0.1,0-0.6-0.1-0.7c-0.1-0.1-0.2,0.2-0.4,0.5
			c-0.2,0.3,0,0.4-0.2,0.6c-0.1,0.2-0.3,0.1-0.4,0.4c0,0.2,0.1,0.2-0.3,0.3c-0.4,0.1-0.3,0.1-0.4,0.3c-0.1,0.1-0.1-0.1-0.2-0.1
			c-0.1-0.1-0.1,0.1-0.3,0.4c-0.2,0.2-0.4,0.2-0.6,0.3c-0.2,0.1-0.3,0.2-0.4,0.2c-0.2,0-0.3,0.4-0.3,0.8c0,0-0.1,0.4-0.1,0.6
			c0.1,0.2,0.2,0.5,0.1,0.6c-0.1,0.2-0.3,0.5-0.3,0.8c-0.1,0.2-0.2,1-0.2,1.3c0.1,0.3,0.2,0.5,0.4,0.7c0.2,0.2,0.4,0.2,0.7,0.3
			c0.3,0,0.2-0.1,0.4-0.2c0.2-0.1,0.1-0.1,0.4-0.2c0.2-0.1,0.3-0.2,0.5-0.3c0.2-0.1,0.2-0.3,0.3-0.5c0.1-0.2,0.2-0.5,0.2-0.6
			c0.1-0.1,0.2-0.3,0.3-0.5c0.1-0.2,0.2-0.1,0.2-0.3c0-0.1,0-0.3,0.1-0.4c0.1-0.1,0.1-0.2,0.1-0.3c0-0.1,0.1-0.3,0.2-0.6
			c0.1-0.3,0-0.4,0-0.6c0-0.2,0.1-0.1,0.2,0c0.1,0.1,0.2-0.1,0.3-0.3c0.1-0.2-0.2-0.2-0.3-0.2c-0.1,0-0.1,0,0-0.1
			c0.1-0.1,0.3-0.3,0.4-0.5c0.1-0.2,0.1,0.2,0.2,0.2c0.1,0,0.1-0.2,0-0.4C421.6,343.1,421.6,342.6,421.6,342.4z"/>
		<path fill="#B7CDD8" d="M393.4,330.8c0.1,0-0.1-0.2-0.1-0.3c-0.1,0-0.1-0.2-0.2-0.3c-0.1-0.1-0.2,0.2-0.2,0.4c0,0.2,0,0.2,0.1,0.4
			c0,0,0,0.1,0.1,0c0.1-0.1,0-0.1,0.1-0.2C393.3,330.8,393.3,330.8,393.4,330.8z"/>
		<path fill="#B7CDD8" d="M391.7,332c-0.1,0.1,0,0.4,0.1,0.5c0,0,0.2,0.1,0.2,0c0.1-0.1,0-0.2-0.1-0.4
			C391.9,331.9,391.8,331.9,391.7,332z"/>
		<path fill="#B7CDD8" d="M398,294.7c0.1-0.1,0.2-0.2,0.1-0.2c0,0-0.1-0.1-0.2-0.1c0-0.1-0.2-0.1-0.3-0.1c-0.2,0.1-0.4,0.4-0.4,0.4
			c-0.1,0.1-0.1,0-0.2,0c0-0.1-0.1,0-0.2,0c0,0-0.2,0.1-0.2,0.2c-0.1,0-0.2,0.1-0.3,0.2c-0.1,0.1,0.1,0,0.3-0.1
			c0.1-0.1,0.2-0.1,0.3,0c0.1,0,0,0.1,0,0.2c0,0.1-0.2,0.3-0.3,0.5c0,0.1-0.3,0.4-0.2,0.5c0,0,0.2,0.1,0.3,0.2c0,0,0,0.1-0.1,0.2
			c-0.1,0.1-0.3,0.2-0.4,0.4c-0.1,0.2-0.4,0.3-0.5,0.4c-0.1,0.1-0.4,0.6-0.5,0.8c-0.2,0.3-0.1,0.2-0.3,0.3c-0.2,0.1-0.4,0-0.5,0.1
			c-0.1,0.1,0.2,0.2,0.4,0.2c0.2,0,0.2-0.1,0.4-0.2c0.2-0.1,0.2,0,0.3,0.1c0.2,0.1,0.6,0.2,0.8,0.2c0.2,0,0.2,0,0.5,0
			c0,0,0.2-0.1,0.2-0.2c0-0.1-0.1-0.1,0-0.3c0.1-0.1,0.2-0.1,0.5-0.2c0.2-0.1,0.2-0.2,0.2-0.3c0-0.1,0.2-0.1,0.3-0.2
			c0.2-0.1,0.1-0.2,0-0.3c-0.1-0.1-0.2-0.1-0.3-0.2c-0.1-0.1-0.1-0.2-0.2-0.3c0-0.1,0.1-0.2,0.1-0.3c0-0.1-0.2,0.1-0.2,0
			c0-0.1,0.2-0.4,0.2-0.5c0-0.1-0.1-0.1-0.1-0.2c-0.1-0.1,0.2-0.3,0.3-0.4c0.1-0.1,0.2-0.5,0.2-0.5c0-0.1-0.1-0.1-0.2-0.1
			C397.8,294.9,397.9,294.8,398,294.7z"/>
		<path fill="#B7CDD8" d="M394.1,297.6c0.2,0,0.2,0.1,0.3,0c0.1,0,0.2,0,0.3,0c0,0,0.1,0,0.1,0c0,0,0.1-0.2,0.2-0.3
			c0.1-0.1,0.4-0.4,0.4-0.6c0.1-0.1,0.2-0.2,0.3-0.3c0.2-0.1,0.2-0.1,0.3-0.2c0.1-0.1,0-0.2,0-0.3c-0.1-0.1-0.2,0-0.2,0
			c-0.1,0,0-0.1,0-0.2c0-0.1-0.1,0-0.3,0c-0.2,0.1-0.2,0.2-0.3,0.4c-0.1,0.2-0.2,0.1-0.2,0c-0.1-0.1-0.1-0.1-0.3,0
			c-0.2,0.1,0,0.2-0.1,0.3c-0.1,0.2-0.2,0.3-0.3,0.5c-0.2,0.3-0.2-0.1-0.3-0.1c-0.1,0-0.3,0.3-0.3,0.4c0,0.1,0,0.2,0.1,0.3
			C393.9,297.8,393.9,297.6,394.1,297.6z"/>
		<path fill="#B7CDD8" d="M393.4,297.3c-0.1,0.1,0,0.2,0,0.2c0,0,0.2-0.2,0.2-0.3C393.7,297,393.6,297.2,393.4,297.3z"/>
		<path fill="#B7CDD8" d="M396.4,294.9c0,0,0.1-0.1,0.1-0.2c0-0.1-0.1,0-0.2,0.1C396.2,294.8,396.3,294.9,396.4,294.9z"/>
		<path fill="#B7CDD8" d="M396.7,294.7c0.1-0.1,0-0.1,0-0.1s-0.2,0-0.2,0.1C396.6,294.7,396.6,294.8,396.7,294.7z"/>
		<path fill="#B7CDD8" d="M396.8,294.6c0,0,0.1,0,0.2-0.1c0.1,0,0.2-0.2,0.3-0.4c0-0.2-0.1-0.1-0.2,0c-0.1,0-0.2,0.1-0.2,0.2
			C396.9,294.4,396.9,294.5,396.8,294.6C396.8,294.6,396.8,294.6,396.8,294.6z"/>
		<path fill="#B7CDD8" d="M398.5,294.1c-0.1,0-0.2,0.1-0.2,0.2C398.3,294.3,398.5,294.2,398.5,294.1
			C398.7,294.1,398.6,294.1,398.5,294.1z"/>
		<path fill="#B7CDD8" d="M399.4,293.4c0,0.1,0,0.2-0.1,0.3c-0.1,0.2-0.2,0.2-0.1,0.2c0,0,0.1-0.1,0.2-0.1c0.1-0.1,0.2-0.2,0.3-0.3
			c0.1-0.1,0-0.1,0-0.3C399.8,293.2,399.4,293.4,399.4,293.4z"/>
		<path fill="#B7CDD8" d="M416,289.6c0.1,0.1,0.3,0.1,0.5,0.1c0,0,0.1,0,0.3-0.1c0.1,0,0,0-0.2-0.1c-0.2,0-0.3-0.1-0.4-0.2
			C416,289.4,415.9,289.5,416,289.6z"/>
		<path fill="#B7CDD8" d="M415.4,289.2c-0.1,0-0.2-0.1-0.3-0.2c-0.1-0.1-0.2-0.3-0.2-0.4c0-0.1-0.2,0-0.4,0c-0.2,0-0.3,0.1-0.4,0.2
			c-0.1,0.1,0.1,0.2,0,0.2c-0.1,0,0,0.1,0.1,0.2c0.1,0.1,0.2,0,0.2,0.1c0.1,0.1,0,0.2,0.1,0.2c0.1,0,0.2,0,0.3-0.1
			c0.1-0.1,0-0.1,0.1-0.1c0.1,0,0,0.2,0.2,0.2c0,0,0.3,0,0.5-0.1c0.2,0,0.1,0,0.1-0.1C415.8,289.3,415.6,289.2,415.4,289.2z"/>
		<path fill="#B7CDD8" d="M414.2,288.2c0.1,0.1,0,0.2-0.1,0.3c-0.1,0.1,0.3,0,0.4,0c0,0,0.3,0,0.4,0c0.1,0,0-0.1,0.1-0.2
			c0-0.1,0.2-0.1,0.4-0.1c0.2,0-0.1-0.1-0.1-0.2c-0.1-0.1,0.2-0.2,0.3-0.2c0.1-0.1,0-0.2-0.1-0.2c-0.1-0.1,0.1-0.1,0.3-0.1
			c0.2,0,0.2,0,0.2-0.1c0-0.1,0.1,0.1,0.3,0.1c0.2,0-0.1-0.1-0.1-0.2c-0.1,0-0.3,0-0.4,0c-0.1,0-0.2,0-0.3-0.1
			c-0.1-0.1-0.1,0-0.2,0.1c-0.1,0.1-0.1,0.2-0.2,0.2c0,0-0.3,0-0.4,0.1c-0.1,0.1,0.1,0.2,0,0.3c-0.1,0.1-0.1,0.1-0.3,0.1
			c-0.2,0-0.2,0-0.3,0.1C414,288.1,414.2,288.1,414.2,288.2z"/>
		<path fill="#B7CDD8" d="M399,290.4c0.1-0.2-0.4-0.1-0.5-0.1c-0.1,0-0.2,0.2-0.5,0.2c-0.2,0-0.1-0.1-0.3-0.1
			c-0.2,0-0.5,0.2-0.7,0.4c-0.2,0.2-0.6,0.5-0.5,0.6c0.1,0,0.3,0.1,0.5,0.2c0.2,0,0.2,0,0.4,0c0.2,0,0.2-0.1,0.4-0.2
			c0.1,0,0.2,0.1,0.5-0.1c0,0,0.3-0.2,0.5-0.3C398.9,290.8,399,290.5,399,290.4z"/>
		<path fill="#B7CDD8" d="M393.1,290.8c0.1-0.1,0.9-0.5,1.1-0.6c0.2-0.1,0.6-0.2,0.7-0.3c0.1-0.1,0.2-0.3,0.4-0.3
			c0.2-0.1,0.5,0,0.7-0.1c0.2-0.1,0.6-0.2,0.6-0.2s0.1,0.1,0.2,0c0.2-0.1,0.5-0.2,0.7-0.3c0.1-0.1,0.7-0.2,0.8-0.2
			c0.1,0,0.4-0.1,0.4,0c0,0.1,0.2,0.1,0.3,0.1c0.1,0,0.5-0.2,0.5-0.2l0.1,0.1c0.2-0.1,0.4-0.2,0.3-0.3c-0.1-0.1-0.1-0.1,0.1-0.2
			c0.1-0.1,0.5-0.2,0.4-0.1c-0.1,0.1,0,0.2,0.3,0c0.3-0.2,1.1-0.7,1.1-0.7c0,0,0,0.2,0.2,0.1c0.1-0.1,0.5-0.3,0.6-0.3
			c0.1-0.1,0.4-0.1,0.4-0.2c0-0.1,0.3-0.3,0.4-0.2c0.1,0,0.7-0.3,0.8-0.3c0.1,0,0.4-0.2,0.5-0.3c0.1-0.1,0.4-0.2,0.6-0.3
			c0.3-0.1,0.4-0.1,0.7-0.2c0.3-0.1,0.9-0.4,1-0.4c0.1,0,0.7,0,0.6-0.2c-0.1-0.1-0.5-0.2-0.7-0.3c-0.3-0.1-0.6,0-1-0.1
			c-0.4,0-0.1,0-0.6-0.1c-0.5-0.1-0.8,0-1,0.1c-0.2,0-0.8,0.2-1.1,0.3c-0.2,0.1-0.6,0.2-0.7,0.4c0,0.2-0.1,0.1-0.5,0.3
			c-0.4,0.1-1.5,0.6-1.7,0.7c-0.2,0.1-0.6,0.2-0.8,0.3c-0.2,0.1-1.2,0.4-1.6,0.6c-0.4,0.2-1,0.4-1.3,0.6c-0.4,0.2-0.7,0.3-1.2,0.6
			c-0.5,0.3-1.2,0.7-1.5,0.9c-0.3,0.2-0.7,0.8-0.8,1C392.9,290.7,392.9,290.9,393.1,290.8z"/>
		<path fill="#B7CDD8" d="M407.9,287.3c0.1-0.1,0,0.1,0.1,0.1c0.1,0,0.1,0.1-0.1,0.3c-0.1,0.2,0.1,0.2,0.4,0c0,0,0.1-0.2,0-0.3
			c0-0.1,0.3-0.1,0.4-0.2c0.2-0.1,0.4-0.1,0.6-0.2c0.1-0.1-0.9-0.1-1-0.1c-0.1,0,0,0.2,0,0.3c-0.1,0.1-0.1-0.1-0.2-0.1
			c-0.1,0-0.2,0.1-0.2-0.1c0-0.2-0.1-0.1-0.2-0.1c-0.1,0,0.1,0.2-0.1,0.4C407.5,287.5,407.8,287.4,407.9,287.3z"/>
		<path fill="#B7CDD8" d="M409.1,287.4c-0.2,0-0.3,0.1-0.4,0.2c0,0,0.2,0,0.3,0c0.1,0,0.2,0.1,0.4-0.1
			C409.7,287.3,409.3,287.4,409.1,287.4z"/>
		<path fill="#B7CDD8" d="M393.8,305.4c-0.1,0-0.3,0.2-0.2,0.2c0,0.1,0,0.1,0,0.3c0,0,0.1,0,0.1,0c0.1,0,0.2-0.2,0.1-0.3
			C393.8,305.5,393.9,305.4,393.8,305.4z"/>
		<path fill="#B7CDD8" d="M394.2,305.9c0,0,0.1,0.1,0.2,0c0.1,0,0.1-0.2,0-0.3C394.3,305.6,394.2,305.8,394.2,305.9z"/>
		<path fill="#B7CDD8" d="M394.6,305.2c0-0.1-0.2,0-0.4,0.2c-0.1,0.2-0.1,0.2,0,0.2c0,0,0.1,0,0.3,0
			C394.7,305.5,394.6,305.3,394.6,305.2z"/>
		<path fill="#B7CDD8" d="M395,305.4c0.1-0.1,0.2-0.1,0.2-0.2c0.1-0.1,0-0.2-0.1-0.2c-0.1-0.1-0.3,0.2-0.3,0.3
			C394.9,305.3,394.9,305.5,395,305.4z"/>
		<path fill="#B7CDD8" d="M397.4,304.9c-0.1,0-0.2,0.2-0.2,0.3c0,0,0.1,0,0.2-0.1C397.5,305,397.4,304.9,397.4,304.9z"/>
		<path fill="#B7CDD8" d="M399.8,308.4c-0.1,0-0.2,0.2-0.2,0.3c0,0,0.1,0.1,0.2-0.1C400,308.5,399.9,308.4,399.8,308.4z"/>
		<path fill="#B7CDD8" d="M422.8,325.1c-0.1,0-0.1,0.1,0,0.2c0,0,0.1-0.1,0.2-0.1C423,325.1,422.9,325.1,422.8,325.1z"/>
		<path fill="#B7CDD8" d="M423.9,324.6c-0.1,0-0.5,0.2-0.3,0.4c0,0,0,0.1,0.1,0.2c0.1,0.1,0.2,0,0.3,0c0.2-0.1,0.1-0.1,0.1-0.2
			C424.1,324.9,424,324.7,423.9,324.6z"/>
		<path fill="#B7CDD8" d="M447.7,324.7c0-0.1-0.2-0.7-0.2-0.9c-0.1-0.2,0-0.7,0-0.9c0-0.2-0.1-0.3-0.2-0.4c-0.1-0.2-0.2-0.2-0.3-0.5
			c-0.1-0.2-0.2,0-0.3-0.1c-0.1-0.1-0.2-0.5-0.2-0.6c0-0.2-0.2-0.4-0.3-0.7c-0.1-0.2-0.1,0-0.2,0.1c-0.1,0.1-0.1-0.2-0.1-0.5
			c0-0.2,0.1-0.5,0.1-0.7c0-0.2,0-0.3-0.1-0.5c-0.1-0.1,0-0.4-0.1-0.6c0-0.2-0.2-0.5-0.1-0.6c0.1-0.1,0.1,0.2,0.2,0.3
			c0.1,0.1,0.2-0.1,0.2-0.1c0,0.1,0.2,0.9,0.5,1c0.3,0.1,0.3,0,0.4,0.2c0.1,0.2,0,0.9,0.1,1c0.1,0.2,0.1-0.1,0.2-0.6
			c0.1-0.4,0.1-0.6,0-0.9c-0.1-0.3,0.1-0.4,0.2-0.7c0.1-0.3,0-1.1-0.1-1.6c-0.1-0.5-0.5-1.3-0.9-2c-0.4-0.7-0.5-0.8-0.6-1.1
			c-0.2-0.3-0.2-0.6-0.3-0.9c-0.1-0.3,0-0.8,0-1.1c0-0.2,0.2-0.3,0.3,0c0.1,0.2,0.2,0.8,0.2,1.1c0,0.4,0.2,0.6,0.4,0.6
			c0.2,0,0-0.4,0-0.7c0-0.3-0.4-1-0.5-1.3c-0.1-0.2,0.1-0.2,0.1-0.5c0-0.3,0-0.5-0.1-0.8c-0.1-0.2,0.1-0.1,0.1-0.3
			c0-0.2-0.1-1.2-0.1-1.4c0-0.3-0.5-1.4-0.7-1.8c-0.3-0.5-0.9-2-1-2.4c-0.1-0.4-0.4-1-0.5-1.1c-0.1-0.1-0.8-0.7-1-0.9
			c-0.2-0.2-0.6-0.9-0.7-1.5c-0.2-0.6-0.2-0.3-0.6-0.4c-0.4-0.1-0.1,0.2-0.3-0.1c-0.2-0.2,0-0.6,0.2-0.7c0.2-0.1,0.2-0.1,0.2-0.5
			c0-0.1,0.1-0.2,0.1-0.3c-5.1-6.5-12.1-11-19.8-13.1c-0.2,0-0.9-0.1-1.3-0.1c-0.5-0.1-0.1,0.2,0.2,0.4c0.3,0.2,1.6,0.2,2,0.4
			c0.4,0.2,0.2,0.3-0.1,0.3c-0.3,0-0.6,0-0.7,0.3c-0.1,0.2-0.1,0.4-0.3,0.5c-0.2,0.1-1-0.6-1.2-0.7c-0.2-0.1-0.6,0.2-1,0.2
			c-0.4,0,0.3,0.3,0,0.4c-0.2,0.1-0.1-0.1-0.2-0.2c-0.2,0-0.3,0-0.5,0c-0.2,0-0.2,0.1-0.2,0.3c-0.1,0.1,0.1,0.1,0.3,0.1
			c0.2,0.1,0,0.2-0.2,0.4c-0.2,0.1,0.1,0.2,0.3,0.3c0.2,0.1,0.5,0,0.6,0c0.1,0.1-0.2,0.1-0.4,0.2c-0.2,0.1,0.2,0.1,0.3,0.3
			c0.1,0.1,0.3,0.1,0.5,0.1c0.3,0.1,0.7,0.3,0.7,0.5c0,0.1-0.7-0.3-0.9-0.4c-0.2-0.1-0.4,0-0.5,0c-0.1,0-0.1-0.2-0.4-0.2
			c-0.3,0,0,0.1,0.1,0.3c0.1,0.1,0.4,0.2,0.5,0.4c0,0.2-0.3,0-0.4-0.1c-0.1-0.1-0.3-0.3-0.4-0.4c-0.1-0.1-0.2-0.1-0.2,0
			c0,0.1,0.3,0.3,0.3,0.4c0.1,0.1,0.3,0.2,0.4,0.4c0.2,0.2,0.5,0.3,0.7,0.4c0.2,0.1,0.4,0,0.7,0c0.3,0,0.4,0.2,0.6,0.3
			c0.2,0.1,0.3,0.1,0.3,0.3c0,0.2-0.6-0.2-0.7-0.3c-0.1-0.1-0.4-0.1-0.6-0.1c-0.2,0,0.3,0.4,0.3,0.7c0,0.3-0.3,0.1-0.3-0.2
			c0-0.3-0.4-0.5-0.6-0.7c-0.2-0.1-0.3-0.2-0.4-0.3c-0.1-0.2-0.3-0.3-0.6-0.4c-0.3-0.1-0.3-0.3-0.4-0.4c-0.1,0-0.2,0-0.2-0.1
			c-0.1-0.1-0.3-0.2-0.5-0.1c-0.2,0.1,0.2,0.1,0.2,0.3c0,0.2,0,0.3,0,0.4c0,0.1,0,0.1,0.1,0.3c0.1,0.1,0.3,0.1,0.5,0.3
			c0.2,0.1,0.5,0.1,0.5,0.3c0,0.1,0,0.1-0.4,0.1c-0.3-0.1-0.3,0-0.6-0.1c-0.3,0-0.7,0-1,0c-0.3,0-0.2,0.1-0.1,0.2
			c0.1,0.1,0.2,0.2,0.1,0.3c0,0.2-0.3-0.1-0.4-0.1c-0.1,0-0.4,0.1-0.6,0.1c-0.2,0-0.2-0.1-0.3-0.1c-0.1-0.1-0.3,0.1-0.5,0.2
			c-0.1,0.1-0.3,0.1-0.5,0.2c-0.2,0.1-0.1-0.2-0.1-0.3c0-0.1-0.1,0.1-0.3,0c-0.2,0-0.2-0.1-0.3,0c0,0.1,0.2,0.1,0.2,0.2
			c0,0.1,0.1,0.1,0.2,0.4c0.1,0.2-0.1,0.2-0.3,0.2c-0.2,0-0.1-0.1-0.1-0.3c0-0.3-0.2-0.3-0.4-0.3c-0.2,0-0.2,0-0.3,0
			c-0.1,0-0.3-0.1-0.3,0c0,0.1,0.2,0.1,0.3,0.2c0.1,0.1,0,0.2,0.1,0.3c0.1,0.1,0.2,0.2,0.2,0.4c0,0.1-0.3,0.1-0.4,0
			c-0.1-0.1-0.2,0-0.3,0c-0.1,0-0.2,0-0.4,0c-0.2,0,0,0.1-0.2,0.3c-0.2,0.1-0.2,0.1-0.4,0.2c-0.2,0-0.1-0.1-0.4,0
			c-0.3,0.1-0.2,0.1-0.1,0.3c0.1,0.2,0.2,0.3,0.3,0.4c0,0.1-0.4,0-0.6-0.2c-0.1-0.2,0-0.4,0-0.7c0-0.3-0.2-0.3-0.3-0.5
			c-0.1-0.1,0.3,0,0.4,0.2c0.2,0.1,0.3,0.1,0.6,0.1c0.3,0.1,0.4-0.1,0.5-0.2c0.1-0.1-0.1-0.3-0.3-0.4c-0.2-0.1-0.1-0.1-0.2-0.2
			c-0.1-0.2-0.2-0.2-0.4-0.3c-0.2,0-0.4-0.1-0.7-0.1c-0.2,0-0.2,0.1-0.3,0c-0.1-0.1,0-0.2-0.1-0.2c-0.1,0-0.3,0-0.4,0.1
			c-0.1,0.1-0.2,0-0.2,0c0.1-0.1,0.3-0.1,0.2-0.3c0-0.1-0.2-0.1-0.4-0.1c-0.2,0-0.1,0-0.3-0.1c-0.1,0-0.1,0.1-0.3,0.2
			c-0.1,0.1-0.3,0-0.3,0c-0.1,0-0.1-0.2-0.3-0.1c-0.2,0-0.4,0-0.5,0.1c-0.1,0.1,0.2,0.1,0.1,0.2c-0.1,0.1-0.2,0-0.2,0
			c-0.1,0-0.3,0-0.4,0.1c-0.1,0.1-0.5,0.1-0.6,0.1c-0.1,0.1-0.4,0-0.4,0.1c-0.1,0,0.2,0.2,0.1,0.2c-0.1,0.1-0.2,0.2-0.4,0.2
			c-0.1,0,0-0.3,0.1-0.3c0-0.1-0.1,0-0.2,0.1c-0.1,0.1-0.3,0.2-0.4,0.2c-0.1,0.1,0.1,0.3-0.1,0.4c-0.1,0.1-0.1-0.2-0.3-0.1
			c-0.2,0.1-0.2,0.3-0.3,0.3c-0.1,0-0.2,0-0.4,0.1c-0.2,0.1,0.2,0.1,0.2,0.2c0,0.1-0.1,0.1-0.3,0.1c-0.1,0.1-0.2,0.1-0.3,0.2
			c-0.1,0.1-0.1,0.1-0.3,0.2c-0.2,0.1-0.1,0.2-0.2,0.4c-0.1,0.2-0.2,0.1-0.3,0.2c-0.1,0.1-0.3,0.1-0.4,0.2c-0.1,0-0.2-0.1-0.4,0
			c-0.2,0.1-0.4,0.1-0.7,0.3c-0.2,0.2-0.1,0.3,0.1,0.3c0.1,0,0.1,0.1,0.1,0.2c-0.1,0.1-0.3-0.1-0.4-0.1c-0.1,0-0.2,0.1-0.2,0.2
			c-0.1,0.1,0.1,0.3,0,0.4c0,0.2-0.1,0.1-0.2,0c-0.1,0-0.3,0.2-0.5,0.3c-0.2,0.1,0,0.1,0.1,0.4c0,0.3-0.3,0.3-0.3,0.4
			c0.1,0.1,0.4,0.1,0.6,0.1c0.1,0,0.2-0.1,0.4-0.2c0.2-0.1,0.2-0.1,0.3-0.2c0-0.1,0.1-0.3,0.2-0.3c0.1-0.1,0.3-0.1,0.4-0.2
			c0.1-0.1,0.2-0.2,0.2,0c0,0.2-0.1,0.4-0.2,0.7c-0.1,0.3,0,0.3,0,0.5c0,0.3-0.1,0.6-0.1,0.8c0,0.2,0.3,0,0.5-0.1
			c0.2-0.1,0.5-0.3,0.7-0.5c0.2-0.1,0.3-0.1,0.3-0.3c0-0.2,0.1-0.2,0.3-0.3c0.1-0.1,0.1-0.1,0.1-0.3c0.1-0.2,0.3-0.4,0.4-0.4
			c0.1,0,0.4-0.2,0.5-0.3c0.1-0.1,0-0.2-0.1-0.3c-0.1-0.1,0-0.2,0-0.4c0-0.1,0.2-0.6,0.2-0.6c0,0,0.4-0.2,0.5-0.3
			c0.1-0.1,0.4-0.1,0.5-0.1c0.1-0.1,0-0.1,0.3-0.2c0.3-0.1,0.2-0.1,0.2-0.2c0-0.1,0.1-0.2,0.2-0.2c0.1-0.1,0.2-0.1,0.2-0.2
			c0.1-0.1,0.1,0,0.2,0c0.1,0,0.4,0.1,0.5,0.2c0,0.1-0.2,0.1-0.3,0.2c0,0.1-0.1,0-0.3,0.1c-0.2,0-0.2,0.1-0.3,0.2
			c-0.1,0.1-0.4,0.3-0.6,0.4c-0.2,0.2-0.2,0.2-0.1,0.2c0,0.1,0,0.2,0,0.4c0,0.2-0.2,0.3-0.3,0.4c-0.1,0.1,0,0.3,0.1,0.5
			c0.1,0.1,0.3,0.1,0.5,0c0.2-0.1,0.5-0.2,0.8-0.3c0.3-0.1,0.9,0,1,0.1c0.1,0,0.1,0.1,0,0.2c0,0.1-0.6,0.2-0.7,0.2
			c-0.2,0-0.6-0.1-0.8-0.1c-0.1,0.1-0.3,0-0.5,0.1c-0.2,0.1-0.2,0.2-0.3,0.3c0,0.1,0.1,0.2,0.1,0.2c0,0,0.2,0,0.3,0
			c0.1,0,0.1,0,0,0.1c0,0.1-0.1,0.3-0.3,0.4c-0.2,0.2-0.2,0-0.3-0.1c-0.1,0-0.2-0.1-0.2-0.2c-0.1-0.1-0.1,0-0.2,0.1
			c-0.1,0.1-0.3,0.2-0.3,0.3c-0.1,0.1,0,0.2-0.2,0.3c-0.2,0.1-0.1,0.2-0.1,0.4c-0.1,0.1-0.3,0.2-0.4,0.3c-0.1,0.1-0.1,0.2-0.2,0.3
			c0,0.1-0.3,0.1-0.4,0.1c-0.1,0,0.1-0.1,0.1-0.2c0.1-0.1-0.1-0.1-0.3,0c-0.1,0-0.4,0.1-0.6,0.1c-0.1,0-0.6,0.1-0.7,0.1
			c-0.1,0-0.2,0.1-0.3,0.2c-0.1,0.1,0-0.2,0-0.2c0-0.1-0.2-0.1-0.3-0.1c-0.1,0-0.3,0-0.4,0c-0.1,0-0.2,0.1-0.4,0.1
			c-0.1,0-0.3-0.1-0.3-0.2c-0.1-0.1-0.1-0.4-0.1-0.4c0-0.1-0.1,0.1-0.2,0.1c-0.1,0.1-0.3,0.2-0.4,0.3c-0.1,0.1,0.2,0.4,0.1,0.5
			c0,0.1-0.1,0.1-0.3,0.1c-0.2,0-0.3-0.1-0.5-0.1c-0.1-0.1-0.3,0.2-0.4,0.2c-0.1,0.1-0.4,0.2-0.5,0.2c-0.1,0-0.2,0-0.3,0
			c-0.1,0-0.1,0.1-0.1,0.3c-0.1,0.2-0.1,0.3-0.2,0.3c-0.1,0.1-0.1,0.1-0.2,0.1c-0.1-0.1-0.5,0.1-0.7,0.2c-0.2,0.1-0.5,0.3-0.6,0.4
			c-0.1,0.1-0.1,0.1-0.2,0.3c-0.1,0.2-0.2,0.1-0.5,0.1c-0.3,0-0.6-0.2-0.7-0.2c-0.1,0-0.2,0.3-0.2,0.4c-0.1,0.1-0.1,0-0.2,0
			c-0.1,0-0.1,0.1-0.2,0c-0.1-0.1-0.1-0.1-0.2-0.1c-0.1,0-0.3,0.1-0.3,0.2c0,0.1-0.2,0.2-0.3,0.3c-0.1,0.1-0.1,0.1,0.1,0.2
			c0.2,0.1,0.1,0.1,0.2,0.2c0.1,0.1,0.1,0,0.2,0c0.1,0,0.1,0,0.1,0.2c0.1,0.1,0.1,0,0.1,0.1c0,0.1-0.1,0.2-0.1,0.3
			c0,0.2,0,0.3,0,0.4c0,0.2-0.1,0.1-0.1,0.3c0.1,0.1,0.1,0.2,0,0.2c-0.1,0.1-0.1,0-0.1-0.1c0-0.1-0.1-0.1-0.1-0.1
			c-0.1,0.1-0.2,0.1-0.2,0.2c-0.1,0.1,0,0.2,0,0.2c0,0.1-0.2,0.1-0.3,0.2c-0.1,0.1-0.1,0.4-0.6,0.3c-0.5-0.1-0.3-0.2-0.4-0.2
			c-0.2,0-0.3-0.1-0.4-0.2c-0.1-0.2-0.1-0.2-0.3-0.2c-0.1,0-0.4-0.1-0.6-0.1c-0.2,0.1-0.2,0.1-0.3,0c-0.1-0.1-0.2,0-0.3,0.2
			c-0.1,0.2-0.2,0.5-0.2,0.7c0,0.3-0.4,0.9-0.7,1.4c-0.3,0.5-0.6,0.8-0.6,1.1c0,0.3-0.1,0.4-0.2,0.6c-0.1,0.2,0.1,0.1,0.3,0.2
			c0.2,0,0.3,0,0.4,0.1c0,0.1,0,0.6,0.1,0.7c0.1,0.2,0.2-0.1,0.3-0.2c0.1-0.1,0.2-0.1,0.4-0.1c0.2,0,0.3,0.2,0.6,0.2
			c0.3,0,0.6,0,0.8-0.1c0.2,0,0.3-0.3,0.4-0.4c0.1-0.1,0.6-0.4,0.7-0.4c0.1-0.1,0.2-0.6,0.3-0.9c0.1-0.2,0.3-0.3,0.5-0.4
			c0.2-0.1,0.6-0.2,0.7-0.2c0.2,0,0.6-0.4,0.6-0.6c0-0.2,0.1-0.3,0.4-0.4c0.3-0.1,0.4,0,0.7,0c0.3,0,0.4,0.1,0.5,0
			c0.1-0.1,0.3-0.1,0.5-0.1c0.2,0,0.5-0.2,0.6-0.2c0.1,0,0.2,0.1,0.3,0.1c0.1,0,0-0.2,0.1-0.3c0.1-0.1,0.1,0.1,0.2,0.3
			c0.1,0.2,0.2,0.3,0.3,0.5c0.1,0.2,0.3,0.3,0.4,0.6c0.1,0.3,0,0.3,0.2,0.4c0.2,0,0.3,0.1,0.5,0.4c0.2,0.3,0.5,0.7,0.6,0.9
			c0,0.3-0.3,0.8-0.4,0.9c-0.1,0.1,0.1,0.2,0.3,0.1c0.2-0.1,0.3-0.1,0.5-0.3c0.1-0.2,0.1-0.4,0.1-0.4c0.1-0.1,0.3-0.2,0.3-0.3
			c0-0.2-0.2-0.1-0.2-0.2c-0.1-0.1,0.2-0.4,0.3-0.4c0.1,0,0.3,0.2,0.4,0.4c0.1,0.1,0.4-0.1,0.3-0.2c0-0.1-0.2-0.4-0.4-0.5
			c-0.2-0.1-0.4-0.1-0.4-0.3c-0.1-0.2-0.2-0.4-0.3-0.5c-0.1-0.1-0.6-0.2-0.7-0.4c-0.1-0.1,0-0.7,0-0.8c0-0.1-0.2-0.1-0.4-0.2
			c-0.2-0.1-0.1-0.2,0-0.3c0.1,0,0.1-0.3,0.1-0.4c-0.1-0.1,0.1-0.1,0.3,0c0.2,0.1,0.1,0.1,0,0.3c0,0.1,0.1,0.3,0.2,0.3
			c0.1,0,0.2-0.2,0.2-0.3c0-0.1,0.1,0,0.2,0.2c0.2,0.2,0.1,0.2,0.2,0.4c0.1,0.2-0.1,0.3-0.2,0.4c-0.1,0.2,0.1,0.1,0.3,0.1
			c0.2,0.1,0,0.1,0.3,0.2c0.3,0.1,0.4,0.2,0.5,0.2c0.1,0,0.4,0.2,0.6,0.3c0.2,0.2,0.1,0.3,0,0.5c-0.1,0.2,0,0.5,0,0.8
			c0,0.4,0.1,0.1,0.3,0.4c0.2,0.3,0.2,0.3,0.2,0.5c0.1,0.2,0.1,0.2,0.2,0.2c0.1,0,0.4,0,0.4,0.1c0,0.1-0.3,0-0.5,0.1
			c-0.2,0.1-0.2,0.1-0.2,0.3c0,0.2,0.1,0.1,0.2,0.4c0.1,0.3,0,0.3,0.1,0.3c0.1,0,0.1-0.1,0.2,0.1c0.1,0.2,0.1,0.1,0.2,0
			c0.2-0.1,0.2,0,0.3-0.1c0-0.1,0-0.2,0.2-0.1c0.1,0.1,0.2-0.1,0.2-0.3c0-0.2,0-0.2-0.1-0.2c-0.1,0-0.2,0.3-0.4,0.2
			c-0.2-0.1,0.3-0.2,0.4-0.3c0.1-0.1,0.1-0.1,0.2-0.1c0.1,0,0.3,0,0.2-0.3c-0.1-0.2-0.3-0.3-0.7-0.7c-0.4-0.4,0.1-0.5,0.5-0.7
			c0.4-0.2,1.1-0.2,1.2-0.2c0.1,0,0.1,0.2-0.1,0.3c-0.1,0.1-0.2,0.3-0.1,0.4c0,0.1,0.2,0.1,0.3,0.1c0.1,0,0.2,0,0.3,0.3
			c0.1,0.3-0.2,0.4-0.3,0.4c-0.1,0-0.1,0.3-0.2,0.5c0,0.1,0.4,0,0.6,0c0.1,0,0.1,0.2,0.2,0.4c0.1,0.2,0.1,0.2,0.2,0.4
			c0.1,0.2-0.2,0.1,0.1,0.2c0.3,0.1,0.3,0,0.6,0c0.2,0,0.8,0.2,1,0.1c0.2-0.1,0.3-0.3,0.5-0.3c0.2,0,0.4,0.3,0.6,0.4
			c0.2,0.1,0.6-0.1,0.7-0.2c0.1-0.1,0.2-0.1,0.5-0.1c0.3,0,0.4,0,0.4-0.1c0-0.1,0.2-0.2,0.2,0c0,0.2-0.1,0.2-0.2,0.3
			c-0.1,0.1,0,0.3,0,0.5c0.1,0.2,0,0.5,0,0.7c0,0.2-0.1,0.2-0.1,0.4c0,0.2-0.1,0.1-0.2,0.3c-0.1,0.2-0.1,0.4-0.1,0.6
			c0.1,0.2-0.2,0.5-0.4,0.7c-0.2,0.2-0.3,0.5-0.5,0.4c-0.1,0-0.6-0.1-0.7-0.2c-0.1-0.1-0.4-0.4-0.6-0.4c-0.2,0-1.1,0.3-1.5,0.4
			c-0.4,0.1-0.9-0.1-1.2-0.3c-0.2-0.1-0.5-0.1-0.8,0c-0.2,0-0.3-0.2-0.6-0.4c-0.3-0.2-0.5,0-0.8-0.1c-0.3,0-0.2-0.3-0.3-0.5
			c-0.1-0.1-0.8-0.2-1.1-0.1c-0.3,0-0.3,0-0.3,0.2c0,0.2-0.1,0.7-0.2,0.9c-0.1,0.2-0.6,0.3-0.7,0.3c-0.1,0-0.5-0.2-0.7-0.2
			c-0.1,0-0.4,0-0.4-0.1c-0.1-0.1-0.2-0.1-0.4-0.2c-0.2-0.1-0.3-0.4-0.3-0.6c0-0.3-0.3-0.4-0.7-0.6c-0.4-0.2-0.8,0-0.9,0.1
			c-0.1,0.1-0.5-0.1-0.8-0.5c-0.3-0.4,0.2-0.5,0.2-0.7c0-0.1,0.2-0.3,0.4-0.5c0.2-0.2,0-0.3-0.2-0.5c-0.1-0.2,0.1-0.4,0.3-0.6
			c0.2-0.2-0.2-0.2-0.3-0.2c-0.1,0,0.1-0.2,0-0.3c-0.1-0.1-0.3,0-0.3,0.1c0,0.1-0.3,0.2-0.5,0.3c-0.2,0.1-0.3,0.2-0.5,0.1
			c-0.1-0.1-0.1-0.2-0.4-0.3c-0.3-0.1-0.6,0.1-0.7,0.2c-0.2,0.1-0.2,0-0.3-0.1c-0.1-0.1-0.2-0.2-0.6-0.2c-0.4,0-0.9,0-1.2,0.1
			c-0.4,0.1-1.1,0.3-1.4,0.5c-0.3,0.1-0.7,0-1.1-0.1c-0.4-0.1-0.5-0.3-0.6-0.5c-0.1-0.2-0.1-0.1-0.2,0.1c-0.2,0.2-0.2,0.2-0.3,0.4
			c-0.2,0.2-0.3,0.3-0.5,0.4c-0.2,0.1-0.3,0.2-0.4,0.3c-0.1,0.1-0.4,0.2-0.6,0.3c-0.2,0.1-0.1,0.4-0.3,0.6c-0.2,0.2-0.3,0.4-0.4,0.7
			c-0.1,0.3-0.1,0.3,0,0.5c0.1,0.2-0.1,0.2-0.1,0.2c-0.1,0-0.2,0-0.3,0.3c-0.2,0.2-0.3,0.2-0.5,0.2c-0.2,0-0.1,0.1-0.3,0.3
			c-0.2,0.1-0.4,0.1-0.6,0.2c0,0-0.4,0.3-0.7,0.6c-0.2,0.3-0.7,0.8-0.8,1.1c-0.2,0.3-0.4,0.7-0.5,0.8c-0.1,0.1-0.3,0.5-0.5,0.8
			c-0.2,0.3-0.3,0.3-0.4,0.5c0,0.2,0.2,0.7,0.2,0.8c0,0.1-0.1,0.5-0.2,0.7c0,0.2-0.1,0.4-0.2,0.6c-0.1,0.2-0.2,0.4-0.2,0.6
			c0,0.2-0.1,0.4-0.2,0.5c-0.1,0.1-0.1,0.5-0.2,0.6c-0.1,0.2-0.3,0-0.4,0.2c-0.1,0.2,0,0.4,0,0.6c0,0.2-0.1,0.6-0.1,0.7
			c0,0.1,0.1,0.4,0.1,0.8c0,0.3,0.2,0.5,0.3,0.6c0.1,0.1,0.1,0.4,0.1,0.6c0,0.2,0.1,0.4,0.1,0.6c0,0.2,0.3,0.2,0.4,0.5
			c0.1,0.2,0,0.6,0,0.8c0,0.2,0.1,0.6,0.1,0.9c0,0.3,0.4,0.5,0.7,0.8c0.3,0.4,0.5,0.7,0.9,1.3c0.3,0.6,0.6,0.5,0.9,0.6
			c0.3,0.1,0.3-0.2,0.6-0.3c0.2-0.1,0.1,0.1,0.4,0.2c0.2,0.1,0.4,0.1,0.6,0.1c0.1,0,0.2-0.1,0.3-0.1c0.2,0,0.2,0.2,0.3,0.4
			c0.1,0.2,0.3,0.1,0.7,0.2c0.4,0.1,0.5,0,0.8-0.1c0.2-0.1,0.9-0.4,1-0.4c0.1,0,0.3-0.1,0.5-0.1c0.2,0,0.2,0.1,0.2,0.3
			c0.1,0.2,0.2,0,0.4,0c0.2,0,0.2,0,0.4,0.2c0.2,0.2,0.3,0.6,0.4,0.9c0.1,0.3,0.2,0.4,0.4,0.5c0.2,0.1,0.5-0.1,0.8-0.1
			c0.3,0,0.5-0.1,0.7,0.1c0.2,0.1,0.2,0.7,0.3,0.8c0,0.1,0.4,0,0.4,0.2c0.1,0.2-0.1,0.5-0.2,0.6c-0.1,0.2,0,0.5,0,0.7
			c0,0.2,0,0.5,0,0.7c0,0.2,0,0.3-0.3,0.4c-0.2,0.1-0.2,0.2-0.1,0.3c0.1,0.2,0.3,0.3,0.3,0.5c0.1,0.2-0.1,0.2-0.1,0.3
			c0.1,0.1,0.1,0.1,0.3,0.1c0.2,0,0.3,0.2,0.2,0.4c-0.1,0.2,0.2,0.3,0.3,0.5c0.1,0.2,0.3,0.2,0.6,0.3c0.3,0.1,0.5,0.3,0.6,0.6
			c0.1,0.3,0,0.3,0.1,0.5c0.1,0.2,0,0.4,0,0.5c0,0.1,0.2,0.2,0.3,0.4c0.1,0.2,0.1,0.2,0.1,0.4c0,0.2,0.1,0.1,0.2,0.2
			c0.1,0.1,0.2,0.4,0.1,0.5c-0.1,0.1-0.1,0.4,0,0.5c0.1,0.1,0.2,0.1,0.3,0.3c0.1,0.2,0.3,1,0.4,1.1c0.1,0.1,0,0.4-0.1,0.5
			c-0.1,0.1-0.4,0.3-0.5,0.6c-0.1,0.3,0,0.4,0.1,0.6c0.1,0.2-0.1,0.2-0.2,0.4c-0.1,0.3-0.1,0.3-0.1,0.5c0,0.3,0,0.3,0.1,0.8
			c0.2,0.5,0.4,0.4,0.6,0.6c0.2,0.2,0.1,0.3,0.2,0.5c0.1,0.1,0.5,0.5,0.9,1c0.4,0.5,0.3,0.5,0.3,0.6c0,0.1,0,0.2,0.2,0.5
			c0.2,0.3,0.5,0.6,0.5,1c-0.1,0.4,0.1,0.3,0.3,0.6c0.1,0.3,0.7,0.7,1,1c0.3,0.3,0.5,0.4,0.9,1c0.4,0.5,0.7,0.7,0.8,0.8
			c0.1,0.1,0.1,0.2-0.1,0.2c-0.1,0-0.2,0.1-0.1,0.2c0.1,0.1,0.2,0.2,0.3,0.5c0.1,0.2,0.2,0.1,0.5,0.2c0.2,0.1,0.4,0.2,0.6,0.2
			c0.2,0,0.7-0.1,1-0.1c0.3,0,0.5,0.2,0.9,0.2c0.4,0,0.3,0,0.8,0c0.5,0.1,1.6-0.2,1.8-0.4c0.2-0.2,0.6-0.5,1-0.7
			c0.4-0.2,1-0.5,1.1-0.6c0.2-0.1,0.1-0.2,0.1-0.5c0-0.2,0.2-0.3,0.3-0.6c0.1-0.2,0.2-0.3,0.1-0.6c-0.1-0.3,0.2-0.2,0.4-0.4
			c0.2-0.2,1-0.3,1.2-0.4c0.2-0.1,0.2-0.1,0.1-0.3c-0.1-0.2,0.1-0.6,0.1-0.9c0-0.3,0-0.3-0.1-0.3c-0.1,0-0.2,0-0.3-0.3
			c-0.1-0.3-0.2-0.5-0.2-0.6c0-0.2,0.7-0.3,1-0.4c0.2-0.1,0.2-0.2,0.5-0.4c0.2-0.2,0.4-0.4,0.5-0.4c0.1-0.1,0.3-0.1,0.6-0.3
			c0.3-0.2,0.4-0.3,0.5-0.3c0.1-0.1,0.1,0.1,0.3,0c0.2-0.1,0.5-0.3,0.8-0.5c0.3-0.2,0.2-0.5,0-0.7c-0.2-0.2-0.2-0.3-0.2-0.6
			c0-0.3,0-0.3-0.1-0.3c-0.1,0-0.1-0.1,0-0.3c0.1-0.2,0-0.3,0-0.5c-0.1-0.1-0.1-0.3-0.1-0.5c0-0.2-0.2-0.4-0.3-0.5
			c-0.1-0.1-0.2-0.3-0.3-0.5c0-0.2-0.3-0.1-0.4-0.3c-0.1-0.2,0-0.7,0.1-0.9c0.1-0.2-0.1-0.4-0.2-0.5c-0.2-0.1-0.1-0.5,0.1-0.8
			c0.2-0.3,0.4-0.4,0.6-0.6c0.2-0.1,0.5-0.6,0.7-0.7c0.2-0.1,0.3-0.3,0.3-0.6c0-0.3,0.2-0.2,0.4-0.3c0.2-0.1,0.2-0.2,0.2-0.4
			c0-0.2,0.1-0.2,0.3-0.3c0.2-0.1,0.5-0.4,0.7-0.7c0.1-0.2,0.5-0.4,0.9-0.7c0.4-0.2,0.5-0.5,0.5-0.6c0-0.1,0.2-0.4,0.5-0.4
			c0.4-0.1,0.8-0.4,0.9-0.6c0.2-0.3,0.4-0.7,0.6-1.1c0.2-0.4,0.6-0.8,0.5-1.2c-0.1-0.4,0.2-0.6,0.4-0.9c0.3-0.2,0.1-0.4,0.2-0.7
			c0.1-0.3,0.3-0.2,0.4-0.4c0.1-0.2,0-0.5,0-0.6c0-0.1,0.4-0.3,0.5-0.4c0.1-0.1,0-0.3-0.2-0.3c-0.1-0.1-0.1-0.3-0.2-0.5
			c-0.1-0.2-0.3-0.2-0.5-0.1c-0.2,0.1-0.4,0.2-0.5,0.3c-0.2,0.1-0.3,0.1-0.4,0.2c-0.1,0.1-0.5,0.1-1.2,0.2c-0.6,0.1-1.6,0.1-2,0.2
			c-0.5,0.1-0.6-0.1-0.8-0.3c-0.2-0.2-0.1-0.5-0.1-0.8c0-0.3-0.1-0.4-0.4-0.4c-0.2,0-0.3-0.2-0.5-0.6c-0.2-0.4-0.4-0.5-0.7-0.6
			c-0.3-0.1-0.8-0.1-1-0.2c-0.2-0.1-0.1-0.2-0.2-0.4c-0.1-0.2-0.2-0.7-0.3-1.1c-0.1-0.3-0.4-0.6-0.7-0.7c-0.3-0.1-0.3-0.5-0.3-0.9
			c0-0.4,0.1-0.7,0-0.8c0-0.1-0.1-0.3,0-0.4c0.1-0.1-0.1-0.2-0.3-0.3c-0.1,0-0.1-0.4-0.1-0.6c-0.1-0.2-0.3-0.3-0.5-0.4
			c-0.2-0.1-0.4-0.1-0.5-0.3c-0.1-0.1,0.2-0.3,0.3-0.3c0.1,0-0.3-0.2-0.4-0.4c-0.1-0.2-0.2-0.2-0.3-0.3c-0.1-0.1-0.1-0.2-0.1-0.3
			c0-0.2,0-0.2-0.1-0.4c-0.1-0.2,0-0.3-0.1-0.5c-0.1-0.2-0.2-0.3-0.2-0.4c-0.1-0.1-0.1-0.3-0.2-0.5c-0.1-0.3-0.2-0.3-0.3-0.4
			c-0.1-0.1-0.3-0.5-0.4-0.7c-0.1-0.2-0.1-0.3,0.1-0.1c0.1,0.1,0.2,0.1,0.4,0.2c0.3,0.1,0.1,0.2,0.2,0.5c0.1,0.3,0.3,0.2,0.4,0.1
			c0.1-0.1,0-0.6,0.1-0.8c0.1-0.2,0.3-0.2,0.2,0c0,0.2-0.2,0.3-0.1,0.6c0.1,0.3,0.4,0.4,0.7,0.8c0.3,0.3,0.7,0.6,0.9,1.1
			c0.2,0.5,0,0.7,0.1,0.9c0.1,0.2,0.4,0.1,0.7,0.2c0.3,0.1,0.2,0.2,0.2,0.4c0.1,0.2,0.2,0.2,0.3,0.4c0.1,0.2-0.2,0.8-0.1,1.1
			c0.1,0.4,0.4,0.6,0.8,0.9c0.3,0.2,0.8,0.9,0.9,1.1c0.1,0.2,0.3,0.5,0.5,0.8c0.1,0.4,0.6,0.8,0.7,1.1c0.1,0.2-0.2,0.1-0.3,0.1
			c-0.1,0-0.2,0.4-0.1,0.6c0.1,0.2,0.3,0.4,0.5,0.6c0.2,0.3,0,0.6,0.2,0.8c0.2,0.2,0.4,0.1,0.7,0c0.3-0.2,0.5-0.4,0.7-0.5
			c0.2-0.1,0.5,0,0.8-0.1c0.3-0.1,0.6-0.3,0.9-0.4c0.3,0,0.4-0.2,0.6-0.4c0.2-0.2,0.5-0.3,0.9-0.5c0.3-0.2,0.8-0.2,0.9-0.3
			c0.2-0.1,0.3-0.2,0.4-0.5c0.1-0.3,0.2-0.2,0.4-0.3c0.2-0.1,0.2-0.1,0.3-0.1c0.1,0,0.2-0.1,0.4-0.3c0.2-0.2,0.6-0.1,0.8-0.3
			c0.2-0.1,0.1-0.3,0.5-0.4c0.4-0.1,0.3-0.1,0.2-0.4c0-0.2,0-0.3,0.1-0.5c0.2-0.2,0.4,0.1,0.6,0.1c0.2,0,0.1-0.1,0.1-0.4
			c0-0.3-0.2-0.6-0.3-0.8c-0.1-0.2-0.1-0.3,0.1-0.4c0.2-0.1,0.2,0.1,0.4,0.1c0.2,0,0.1-0.4,0-0.6c-0.1-0.3,0.2-0.4,0.3-0.6
			c0.1-0.3,0-0.3-0.2-0.5c-0.2-0.3-0.4-0.6-0.5-0.6c-0.1,0-1.2-0.2-1.2-0.3c-0.1-0.1-0.2-0.6-0.2-1.1c-0.1-0.5-0.4-0.3-0.6-0.2
			c-0.2,0.1-0.2,0.7-0.6,1.1c-0.3,0.4-0.6,0.1-0.9,0.2c-0.2,0.1-0.7,0.2-0.9,0c-0.2-0.2,0.1-0.3,0.1-0.6c0-0.3-0.2-0.4-0.4-0.2
			c-0.2,0.1-0.3,0.4-0.4,0.4c-0.1,0-0.1-0.4,0.1-0.5c0.2-0.1,0.1-0.2,0-0.4c-0.1-0.2-0.2,0-0.4-0.1c-0.2-0.1,0.1-0.1,0-0.3
			c-0.1-0.2-0.2-0.2-0.4-0.2c-0.2,0-0.1-0.1-0.3-0.4c-0.1-0.3-0.1-0.2-0.4-0.4c-0.3-0.2-0.3-0.3-0.4-0.6c-0.1-0.2-0.1-0.3,0-0.2
			c0.1,0,0.3-0.1,0.3-0.2c0-0.1,0.1-0.4,0.3-0.3c0.2,0.1,0,0.3,0.1,0.4c0.1,0.1,0.4-0.1,0.6-0.1c0.2,0.1,0.2,0.4,0.3,0.7
			c0.2,0.3,0.2,0.7,0.4,0.8c0.1,0.2,0.3,0.1,0.6,0.2c0.3,0.1,0.4,0.4,0.6,0.4c0.3,0.1,0.7,0,1,0c0.3,0,0.4-0.4,0.7-0.4
			c0.2,0,0.5,0.2,0.6,0.5c0.1,0.3,0.5,0.3,0.8,0.4c0.3,0.1,0.3,0,0.7,0.1c0.3,0.1,0.9,0.2,1.2,0.1c0.4,0,0.3-0.2,0.5-0.3
			c0.2-0.1,0.5-0.1,0.8-0.1c0.3,0,0.4,0,0.7-0.1c0.3-0.1,0.7-0.3,0.9-0.2c0.2,0,0.3,0.3,0.3,0.4c0.1,0.1,0.2,0.1,0.2,0.1
			c0,0.1,0.3,0.4,0.5,0.5c0.2,0.1,0.3,0.1,0.5,0.2c0.2,0.1,0.1,0.1,0.3,0.2c0.2,0.1,0.5-0.2,0.6-0.1c0.1,0-0.1,0.2-0.2,0.4
			c-0.2,0.2-0.1,0.3,0,0.4c0.1,0.1,0.3,0.1,0.5,0.2c0.1,0.1,0.1,0.2,0.3,0.3c0.2,0.1,0.2-0.2,0.3-0.3c0.1-0.2,0.2-0.1,0.3-0.3
			c0.1-0.2-0.1-0.4-0.2-0.5c-0.1-0.1,0.1-0.1,0.2-0.1c0.1,0,0.1,0.3,0.1,0.5c0.1,0.1-0.1,0.3-0.1,0.4c0,0.1,0.1,0.3,0.2,0.5
			c0.1,0.2,0.2,0.8,0.3,1.3c0.1,0.5,0.3,0.7,0.4,0.9c0.1,0.2,0.1,0.4,0.2,0.6c0.1,0.2,0.3,0.3,0.4,0.6c0.1,0.3,0.4,0.5,0.5,0.8
			c0.1,0.3,0.2,0.5,0.3,0.8c0.1,0.2,0.4,0.7,0.6,1c0.2,0.3,0.5,0.7,0.5,0.9c0,0.2,0.3,0.4,0.4,0.7c0.1,0.3,0.3,0.1,0.5,0
			c0.1-0.1,0-0.3,0.2-0.5c0.1-0.3,0.1-0.1,0.2-0.2c0.1-0.1,0.2-0.3,0.2-0.4c-0.1-0.2-0.1-0.4,0.1-0.5c0.1-0.2,0.2-0.1,0.2-0.3
			c0-0.2-0.1-0.4-0.2-0.6c-0.1-0.2,0.2-0.6,0.2-0.8c0-0.1,0-0.4,0-0.6c0-0.2,0-0.3-0.1-0.5c-0.1-0.1-0.1-0.2-0.1-0.4
			c0-0.3-0.1-0.5-0.1-0.6c0-0.1,0.2-0.3,0.4-0.6c0.1-0.3,0.1-0.5,0.1-0.7c0-0.1,0.2-0.2,0.3-0.2c0.1-0.1,0.1-0.2,0.1-0.4
			c0-0.2,0.2-0.5,0.3-0.6c0-0.2,0.1-0.3,0.1-0.5c0.1-0.2,0.2-0.3,0.1-0.4c-0.1-0.1-0.1-0.2,0-0.2c0.1,0,0.2,0.1,0.2-0.1
			c0-0.2,0.1-0.2,0.1-0.4c0-0.2,0-0.4,0-0.7c0-0.3,0.2-0.3,0.3-0.3c0.1,0,0-0.1,0.2-0.3c0.1-0.2,0.2-0.1,0.2-0.2
			c0-0.1,0.3-0.3,0.5-0.4c0.1-0.1,0.1,0.1,0.2,0.3c0.1,0.2,0.1-0.1,0.3,0c0.2,0,0.3,0.5,0.4,0.6c0.1,0.1,0.1-0.1,0.2-0.1
			c0.1,0.1,0.1,0.3,0.2,0.4c0.1,0.1,0.2,0.2,0.3,0.4c0.1,0.2,0.1,0.1,0.2,0.1c0.1,0,0.2,0.3,0.3,0.5c0.1,0.2,0.1,1,0.2,1.3
			c0.1,0.3,0.2,0.4,0.4,0.3c0.2-0.1,0.1-0.4,0.1-0.6c0-0.2,0.2-0.3,0.1-0.4c0-0.1,0.1-0.3,0.2-0.2c0.1,0.2,0.3,1,0.4,1.1
			c0.1,0.2,0.4,0.4,0.4,0.8c0,0.3,0.1,0.7,0.3,0.8c0.2,0.2,0.2,0.4,0.3,0.9c0.1,0.5,0,0.8-0.1,0.8c-0.1,0.1-0.2,0.3-0.1,0.5
			c0.1,0.2,0.4,0.5,0.5,0.8c0.1,0.3,0.3,0.3,0.4,0.6c0.2,0.3,0.1,0.8,0.2,1.1c0.1,0.2,0.4,1.1,0.7,1.4
			C447.8,325.4,447.7,324.8,447.7,324.7z M407.2,305.7c-0.2,0.1-0.5,0.1-0.8,0.1c-0.2,0-0.4,0-0.4,0c-0.1,0,0-0.1,0.3-0.2
			c0.2,0,0.3,0,0.5-0.2c0.2-0.2,0.3-0.1,0.4-0.1c0.1-0.1,0.2-0.1,0.1,0c0,0.1-0.1,0.1,0,0.2C407.5,305.6,407.5,305.6,407.2,305.7z
			 M414.1,305c-0.1,0.2-0.4,0.4-0.6,0.3c-0.2,0-0.2-0.1-0.4,0c-0.2,0.1-0.4,0.2-0.7,0.1c-0.3-0.1-0.5-0.2-0.8-0.3
			c-0.3-0.1-0.9-0.2-1.1-0.2c-0.2,0-0.7-0.1-0.9,0c-0.2,0-0.3,0-0.4,0.2c-0.1,0.2-0.4,0.2-0.7,0.2c-0.3,0-0.6,0.1-0.8,0.1
			c-0.1,0-0.2,0-0.2-0.1c0-0.2,0-0.2-0.1-0.2c-0.1,0-0.1-0.1-0.1-0.1c0-0.2,0.2-0.4,0.1-0.6c0-0.1,0.3-0.6,0.3-0.7
			c0.1-0.2,0.4-0.6,0.5-0.7c0.1-0.1,0.3-0.2,0.4-0.3c0.2-0.1,0.2-0.2,0.3-0.3c0.1-0.2,0.3-0.3,0.4-0.3c0.1-0.1,0.5,0.1,0.5,0.2
			c0.1,0.1,0.1,0.2,0,0.3c-0.1,0.1-0.3,0.2-0.1,0.3c0.1,0.1,0.3,0,0.4,0c0.1,0,0.1,0.2,0.1,0.3c0,0.1,0,0.3,0.2,0.2
			c0.2-0.1,0.3-0.2,0.5-0.2c0.2,0,0.6,0.1,0.6-0.1c0-0.1,0-0.3-0.1-0.3c-0.1,0-0.4,0.1-0.4,0c-0.1-0.1-0.2-0.1-0.3-0.1
			c-0.2,0-0.2-0.3,0-0.4c0.1-0.1,0.4,0.1,0.6,0c0.2-0.1,0.3-0.2,0.4-0.2c0.1,0,0.3,0,0.4-0.2c0.2-0.1,0.4-0.2,0.5-0.1
			c0.1,0.1,0.2,0.2,0.1,0.2c-0.1,0-0.3,0.1-0.4,0.2c-0.1,0.1-0.2,0.1-0.1,0.2c0.1,0.1,0.1,0.2,0.1,0.2c-0.1,0,0,0.2,0,0.2
			s-0.1,0.1-0.2,0c-0.1,0-0.2-0.1-0.2,0c-0.1,0.1-0.2,0.2,0,0.3c0.2,0,0.6,0.1,0.8,0.3c0.2,0.2,0.3,0.4,0.5,0.6
			c0.1,0.2,0.5,0.1,0.8,0.4C414,304.4,414.1,304.8,414.1,305z M421.4,307.9c0,0.1-0.2,0.2-0.3,0.1c-0.1-0.1-0.3-0.3-0.4-0.2
			c-0.1,0.1-0.4,0.2-0.5,0.3c-0.1,0.2-0.2,0.2-0.4,0.1c-0.2-0.1-0.5-0.4-0.8-0.5c-0.3-0.1-0.4,0.1-0.5-0.1c-0.2-0.2-0.2-0.5-0.2-0.7
			c-0.1-0.2,0-0.4,0.1-0.4c0.1,0,0.2,0.1,0.3,0.1c0.1-0.1,0-0.2,0.1-0.3c0.1-0.1,0.2-0.1,0.2-0.2c0-0.1-0.2-0.2-0.2-0.3
			c0.1-0.1,0.2,0,0.2-0.2c-0.1-0.1-0.1-0.3-0.3-0.3c-0.2,0-0.1,0-0.3-0.1c-0.2-0.1-0.1-0.2-0.2-0.2c-0.2,0-0.2,0.1-0.3,0
			c-0.1-0.1,0-0.2-0.2-0.4c-0.2-0.1-0.3-0.1-0.3-0.3c0-0.2-0.1-0.4,0-0.5c0.1-0.1,0.1-0.2-0.1-0.2c-0.1,0-0.2,0.1-0.2,0.1
			c0,0-0.1,0-0.1,0c-0.1-0.1,0-0.2,0-0.3c0-0.1-0.2-0.1-0.3-0.3c-0.1-0.2,0-0.5,0.1-0.6c0.1-0.1,0.5-0.4,0.6-0.6
			c0.1-0.2,0.3-0.3,0.5-0.4c0.2-0.1,0.5-0.3,0.6-0.3c0.1,0,0.4,0.1,0.5,0.1c0.1,0,0.3,0.1,0.4,0.3c0,0.2-0.2,0.3-0.1,0.5
			c0.1,0.2,0.2,0.2,0.2,0.2c0.1,0.1,0.1,0.2,0,0.2c-0.1,0-0.1,0-0.2-0.1c-0.1-0.1-0.2-0.2-0.2-0.1c0,0,0,0.2-0.1,0.2
			c-0.1,0-0.4,0-0.3,0c0.1,0.1,0.2,0.1,0.2,0.2c0,0.1-0.1,0.2-0.2,0.2c-0.1,0-0.3,0.2,0,0.4c0.3,0.2,0.4,0.2,0.6,0.5
			c0.2,0.3,0.1,0.4,0.3,0.3c0.2,0,0.5-0.1,0.4,0c-0.1,0.1-0.3,0.1-0.3,0.2c0,0.1-0.1,0.3,0.1,0.6c0.1,0.3,0.3,0.2,0.3,0.2
			c0.1,0,0.1-0.1,0.1-0.2c-0.1-0.1-0.2-0.4-0.1-0.4c0.2,0,0.1,0.2,0.2,0.3c0.1,0.1,0.3,0.3,0.3,0.4c0,0.1,0,0.2-0.2,0.1
			c-0.2,0-0.4-0.1-0.4,0.1c0,0.2,0,0.3,0.1,0.4c0.1,0.1,0.4,0.1,0.3,0.2c-0.1,0.1-0.3,0-0.2,0.2c0.1,0.2,0.2,0.1,0.4,0.3
			c0.2,0.2,0.1,0.3,0.2,0.6c0.1,0.3,0.2,0.5,0.2,0.5C421.2,307.6,421.4,307.8,421.4,307.9z"/>
		<path fill="#B7CDD8" d="M407.4,305.5c-0.1-0.1-0.1-0.1,0-0.2c0-0.1,0,0-0.1,0c-0.1,0.1-0.2,0-0.4,0.1c-0.2,0.2-0.2,0.2-0.5,0.2
			c-0.2,0-0.4,0.2-0.3,0.2c0,0,0.1,0,0.4,0c0.2,0,0.5-0.1,0.8-0.1C407.5,305.6,407.5,305.6,407.4,305.5z"/>
	</g>
</g>
<path fill="#CFD1D1" d="M211.6,425.2L183.8,415c-1.5-0.6-2.3-2.3-1.8-3.8l8.4-22.8c0.9-2.5,3.7-3.8,6.2-2.8l24.3,8.9
	c2.5,0.9,3.8,3.7,2.8,6.2l-8.4,22.8C214.8,425,213.1,425.8,211.6,425.2z"/>
<path fill="#F06024" d="M222.5,404l-33.3-12.3l0.4-1c1.4-3.7,5.6-5.7,9.3-4.3l19.7,7.2c3.7,1.4,5.7,5.6,4.3,9.3L222.5,404z"/>
<path fill="#CE521F" d="M196.7,388.2L196.7,388.2c-0.4-0.1-0.6-0.6-0.4-0.9l0.6-1.6l1.4,0.5l-0.6,1.6
	C197.5,388.2,197.1,388.4,196.7,388.2z"/>
<path fill="#CE521F" d="M204.7,391.2L204.7,391.2c-0.4-0.1-0.6-0.6-0.4-0.9l0.6-1.6l1.4,0.5l-0.6,1.6
	C205.5,391.1,205.1,391.3,204.7,391.2z"/>
<path fill="#CE521F" d="M212.2,394L212.2,394c-0.4-0.1-0.6-0.6-0.4-0.9l0.6-1.6l1.4,0.5l-0.6,1.6C213,393.9,212.6,394.1,212.2,394z"
	/>
<path fill="#CE521F" d="M219.8,396.7L219.8,396.7c-0.4-0.1-0.6-0.6-0.4-0.9c0,0,0.5-1.5,0.6-1.6c0-0.1,1.3,0.5,1.3,0.5l-0.6,1.6
	C220.6,396.7,220.1,396.9,219.8,396.7z"/>
<path fill="#2C3B52" d="M204.5,390.9L204.5,390.9c-0.4-0.1-0.6-0.6-0.4-0.9l0.6-1.7c0.1-0.4,0.6-0.6,0.9-0.4l0,0
	c0.4,0.1,0.6,0.6,0.4,0.9l-0.6,1.7C205.3,390.8,204.9,391,204.5,390.9z"/>
<path fill="#EBEBEB" d="M212.1,393.6L212.1,393.6c-0.4-0.1-0.6-0.6-0.4-0.9l0.6-1.7c0.1-0.4,0.6-0.6,0.9-0.4l0,0
	c0.4,0.1,0.6,0.6,0.4,0.9l-0.6,1.7C212.9,393.6,212.4,393.8,212.1,393.6z"/>
<path fill="#EBEBEB" d="M219.6,396.4L219.6,396.4c-0.4-0.1-0.6-0.6-0.4-0.9l0.6-1.7c0.1-0.4,0.6-0.6,0.9-0.4l0,0
	c0.4,0.1,0.6,0.6,0.4,0.9l-0.6,1.7C220.4,396.4,220,396.5,219.6,396.4z"/>
<path fill="#BABABA" d="M214.6,416.9l-10.9,5.4c0,0,0.8-1.3,1.2-2.3c0.2-0.6,0.3-1.1,0.6-2c0.8-2.4,2.3-2.5,3.1-2.6
	c1.2-0.2,2.6,0.8,3.6,1.1C212.6,416.6,214.2,417.2,214.6,416.9z"/>
<path fill="#E7E6E6" d="M217.4,417.3l-13.7,4.9c0,0,1.1-1.5,1.6-2.5c0.3-0.7,0.5-1.3,0.9-2.3c1.1-2.7,3.1-2.6,4-2.7
	c1.4,0,3.1,1.3,4.3,1.8C215,416.8,216.9,417.6,217.4,417.3z"/>
<rect x="190.4" y="398.1" transform="matrix(0.9384 0.3456 -0.3456 0.9384 149.9923 -41.9947)" fill="#8E96A3" width="4.7" height="3.1"/>
<rect x="188.5" y="403.3" transform="matrix(0.9384 0.3456 -0.3456 0.9384 151.6463 -41.0272)" fill="#8E96A3" width="4.7" height="3.1"/>
<rect x="195.6" y="405.9" transform="matrix(0.9384 0.3456 -0.3456 0.9384 152.9806 -43.3083)" fill="#8E96A3" width="4.7" height="3.1"/>
<rect x="202.7" y="408.5" transform="matrix(0.9384 0.3456 -0.3456 0.9384 154.314 -45.5893)" fill="#8E96A3" width="4.7" height="3.1"/>
<rect x="209.6" y="411" transform="matrix(0.9384 0.3456 -0.3456 0.9384 155.6234 -47.8264)" fill="#8E96A3" width="4.7" height="3.1"/>
<rect x="186.6" y="408.4" transform="matrix(0.9384 0.3456 -0.3456 0.9384 153.3004 -40.0597)" fill="#8E96A3" width="4.7" height="3.1"/>
<rect x="193.7" y="411" transform="matrix(0.9384 0.3456 -0.3456 0.9384 154.6338 -42.3407)" fill="#F06024" width="4.7" height="3.1"/>
<rect x="200.8" y="413.6" transform="matrix(0.9384 0.3456 -0.3456 0.9384 155.9681 -44.6217)" fill="#F06024" width="4.7" height="3.1"/>
<rect x="197.5" y="400.7" transform="matrix(0.9384 0.3456 -0.3456 0.9384 151.3257 -44.2757)" fill="#8E96A3" width="4.7" height="3.1"/>
<rect x="204.5" y="403.3" transform="matrix(0.9384 0.3456 -0.3456 0.9384 152.66 -46.5568)" fill="#8E96A3" width="4.7" height="3.1"/>
<rect x="211.6" y="405.9" transform="matrix(0.9384 0.3456 -0.3456 0.9384 153.9943 -48.8378)" fill="#8E96A3" width="4.7" height="3.1"/>
<path fill="#2C3B52" d="M196.5,387.9L196.5,387.9c-0.4-0.1-0.6-0.6-0.4-0.9l0.6-1.7c0.1-0.4,0.6-0.6,0.9-0.4l0,0
	c0.4,0.1,0.6,0.6,0.4,0.9l-0.6,1.7C197.3,387.9,196.9,388.1,196.5,387.9z"/>
<path fill="#52677A" d="M347,324l-3.8-1.6c0.5-2.6,0.4-4.8,0.1-7l0-0.1l3.8-1.5c0.8-0.3,1.3-1.3,0.9-2.2l-2.6-6.6
	c-0.3-0.8-1.3-1.3-2.1-0.9l-4.1,1.4c-1.4-1.9-2.2-3.2-5.1-5.1l0,0l1.9-3.6c0.4-0.8,0-1.7-0.8-2.1l-6.5-2.8c-0.8-0.4-1.4,0.1-1.7,1
	l-1.6,3.8c-2.6-0.5-4.8-0.5-7.1-0.1l-0.1-0.1l-1.6-3.8c-0.3-0.8-1.3-1.3-2.2-0.9l-6.6,2.6c-0.8,0.3-1.3,1.3-0.9,2.1l1.4,4.1
	c-1.9,1.4-3.2,2.1-5.1,5.1l0,0l-3.7-1.8c-0.8-0.4-1.5-0.2-1.8,0.7l-2.8,6.5c-0.4,0.8-0.1,1.6,0.7,2l3.8,1.6c-0.5,2.6-0.4,4.7-0.1,7
	l0,0l-3.8,1.5c-0.8,0.3-1.3,1.3-0.9,2.1l2.6,6.6c0.3,0.8,1.3,1.3,2.1,0.9l4-1.4c1.4,1.9,2.8,3.5,5,5l0,0l-1.6,3.8
	c-0.4,0.8-0.3,1.7,0.5,2.1l6.6,2.8c0.8,0.4,1.9-0.1,2.3-0.9l1.4-3.9c2.6,0.5,4.6,0.4,6.7-0.1l0,0l1.7,3.9c0.3,0.8,1.4,1.3,2.3,1
	l6.7-2.6c0.8-0.3,1.3-1.3,0.9-2.1l-1.4-4c1.9-1.4,3.2-2.1,5-5l0,0l3.7,1.8c0.8,0.4,2,0.2,2.3-0.6l2.8-6.5
	C348.5,325.1,347.8,324.3,347,324z M313.8,325.4c-0.1-0.1-0.1-0.2-0.2-0.2c-0.2-0.3-0.4-0.5-0.6-0.8c-0.1-0.1-0.2-0.3-0.3-0.4
	c-0.1-0.1-0.2-0.3-0.3-0.4c0-0.1-0.1-0.1-0.1-0.2c-0.2-0.4-0.4-0.9-0.6-1.3c-0.2-0.4-0.3-0.9-0.4-1.4c0-0.2-0.1-0.4-0.1-0.6
	c-0.1-0.6-0.1-1.1-0.1-1.7c0-1.3,0.3-2.7,0.8-4c1.2-2.8,3.5-4.7,6.1-5.7c0.2-0.1,0.5-0.2,0.7-0.2c0.1,0,0.2,0,0.2-0.1
	c0.2,0,0.3-0.1,0.5-0.1c0.5-0.1,1-0.2,1.5-0.2c0.2,0,0.3,0,0.5,0c1.3,0,2.7,0.3,4,0.8c1.5,0.7,2.8,1.7,3.9,2.9
	c0.1,0.1,0.2,0.3,0.3,0.4c0.1,0.2,0.3,0.4,0.4,0.6c0.1,0.1,0.2,0.3,0.3,0.4c0,0.1,0.1,0.1,0.1,0.2c0.1,0.1,0.2,0.3,0.2,0.4
	c0.1,0.2,0.2,0.4,0.3,0.7c0.1,0.2,0.1,0.3,0.2,0.5c0.1,0.4,0.2,0.8,0.3,1.2c0,0.2,0.1,0.3,0.1,0.5c0,0.2,0.1,0.3,0.1,0.5
	c0,0.2,0,0.5,0.1,0.7c0.1,1.5-0.2,3-0.8,4.5c-0.3,0.8-0.8,1.6-1.3,2.2c-0.1,0.1-0.2,0.3-0.3,0.4c-0.2,0.2-0.3,0.4-0.5,0.6
	c-0.1,0.1-0.2,0.2-0.4,0.3c-0.1,0.1-0.2,0.1-0.2,0.2c-0.2,0.1-0.3,0.3-0.5,0.4c-0.1,0.1-0.3,0.2-0.4,0.3c-0.1,0.1-0.2,0.1-0.3,0.2
	c-0.1,0.1-0.2,0.1-0.3,0.2c-0.1,0-0.1,0.1-0.2,0.1c-0.1,0.1-0.3,0.2-0.4,0.2c-0.1,0-0.1,0.1-0.2,0.1c-0.1,0.1-0.3,0.1-0.5,0.2
	c-0.1,0-0.2,0.1-0.2,0.1c-0.3,0.1-0.6,0.2-0.9,0.3c-0.1,0-0.2,0-0.2,0.1c-0.2,0-0.3,0.1-0.5,0.1c-0.2,0-0.3,0.1-0.5,0.1
	c-0.1,0-0.2,0-0.2,0c-0.2,0-0.3,0-0.5,0c-1.6,0.1-3.2-0.1-4.7-0.8c-1.2-0.5-2.3-1.3-3.2-2.2C314,325.6,313.9,325.5,313.8,325.4z"/>
<path fill="#3D4D5C" d="M428,511.1H187.7c-2.7,0-5.5-1.3-5.8-5.3v-3.6l26.3-48.6c1.4-2.8,4.3-4.6,7.5-4.6h183.9
	c3.4,0,11,6.8,12.5,9.8l21.7,44.2v1.6C433.9,509.2,430.9,511.1,428,511.1z"/>
<path fill="#B7CDD8" d="M428,506H187.7c-2.7,0-7.1-2.3-5.4-5.2l25.9-52.3c1.4-2.8,4.3-4.6,7.5-4.6h183.9c3.4,0,6.6,1.9,8.1,5
	l25.7,51.4C435.2,503.5,430.9,506,428,506z"/>
<rect x="208.2" y="314.4" fill="#3D4D5C" width="196.8" height="124.3"/>
<rect x="215.7" y="321.2" fill="#FFFFFF" width="181.6" height="107.7"/>
<path fill="#52677A" d="M342.7,503.7h-70.8c-0.8,0-1.4-0.7-1.3-1.5l3-18.7c0.2-1,1-1.7,2-1.7h63.9c0.9,0,1.7,0.7,1.8,1.6l2.7,18.8
	C344.1,503,343.5,503.7,342.7,503.7z"/>
<path fill="#52677A" d="M226.4,455h-7.7c-1.1,0-1.8-0.3-1.7-0.7l0.5-1.2c0.2-0.4,1.1-0.7,2.2-0.7h7.6c1.1,0,1.8,0.3,1.7,0.7
	l-0.4,1.2C228.4,454.7,227.5,455,226.4,455z"/>
<path fill="#52677A" d="M239.4,455h-7.7c-1.1,0-1.8-0.3-1.7-0.7l0.4-1.2c0.1-0.4,1.1-0.7,2.2-0.7h7.6c1.1,0,1.8,0.3,1.7,0.7
	l-0.3,1.2C241.4,454.7,240.4,455,239.4,455z"/>
<path fill="#52677A" d="M252.3,455h-7.7c-1.1,0-1.8-0.3-1.7-0.7l0.3-1.2c0.1-0.4,1.1-0.7,2.1-0.7h7.6c1.1,0,1.8,0.3,1.8,0.7
	l-0.3,1.2C254.3,454.7,253.4,455,252.3,455z"/>
<path fill="#52677A" d="M265.3,455h-7.7c-1.1,0-1.9-0.3-1.8-0.7l0.3-1.2c0.1-0.4,1-0.7,2.1-0.7h7.6c1.1,0,1.9,0.3,1.8,0.7l-0.2,1.2
	C267.3,454.7,266.3,455,265.3,455z"/>
<path fill="#52677A" d="M278.2,455h-7.7c-1.1,0-1.9-0.3-1.8-0.7l0.2-1.2c0.1-0.4,1-0.7,2-0.7h7.6c1.1,0,1.9,0.3,1.8,0.7l-0.1,1.2
	C280.2,454.7,279.3,455,278.2,455z"/>
<path fill="#52677A" d="M291.2,455h-7.7c-1.1,0-1.9-0.3-1.9-0.7l0.1-1.2c0-0.4,0.9-0.7,2-0.7h7.6c1.1,0,1.9,0.3,1.9,0.7l-0.1,1.2
	C293.1,454.7,292.2,455,291.2,455z"/>
<path fill="#52677A" d="M304.1,455h-7.7c-1.1,0-1.9-0.3-1.9-0.7l0.1-1.2c0-0.4,0.9-0.7,2-0.7h7.6c1.1,0,1.9,0.3,1.9,0.7l0,1.2
	C306.1,454.7,305.2,455,304.1,455z"/>
<path fill="#52677A" d="M317.1,455h-7.7c-1.1,0-1.9-0.3-1.9-0.7l0-1.2c0-0.4,0.9-0.7,1.9-0.7h7.6c1.1,0,1.9,0.3,2,0.7l0.1,1.2
	C319,454.7,318.2,455,317.1,455z"/>
<path fill="#52677A" d="M330,455h-7.7c-1.1,0-2-0.3-2-0.7l-0.1-1.2c0-0.4,0.8-0.7,1.9-0.7h7.6c1.1,0,2,0.3,2,0.7l0.1,1.2
	C331.9,454.7,331.1,455,330,455z"/>
<path fill="#52677A" d="M343,455h-7.7c-1.1,0-2-0.3-2-0.7l-0.1-1.2c0-0.4,0.8-0.7,1.8-0.7h7.6c1.1,0,2,0.3,2,0.7l0.2,1.2
	C344.9,454.7,344.1,455,343,455z"/>
<path fill="#52677A" d="M356,455h-7.7c-1.1,0-2-0.3-2.1-0.7l-0.2-1.2c-0.1-0.4,0.7-0.7,1.8-0.7h7.6c1.1,0,2,0.3,2.1,0.7l0.3,1.2
	C357.8,454.7,357,455,356,455z"/>
<path fill="#52677A" d="M368.9,455h-7.7c-1.1,0-2-0.3-2.1-0.7l-0.3-1.2c-0.1-0.4,0.7-0.7,1.8-0.7h7.6c1.1,0,2,0.3,2.1,0.7l0.3,1.2
	C370.8,454.7,370,455,368.9,455z"/>
<path fill="#52677A" d="M381.9,455h-7.7c-1.1,0-2-0.3-2.2-0.7l-0.3-1.2c-0.1-0.4,0.7-0.7,1.7-0.7h7.6c1.1,0,2,0.3,2.2,0.7l0.4,1.2
	C383.7,454.7,382.9,455,381.9,455z"/>
<path fill="#52677A" d="M394.8,455h-7.7c-1.1,0-2.1-0.3-2.2-0.7l-0.4-1.2c-0.1-0.4,0.6-0.7,1.7-0.7h7.6c1.1,0,2,0.3,2.2,0.7l0.5,1.2
	C396.6,454.7,395.9,455,394.8,455z"/>
<path fill="#52677A" d="M225.7,459.3h-9.8c-0.2,0-0.4-0.1-0.4-0.2l1.5-3.6c0-0.1,0.3-0.2,0.5-0.2h9.6c0.2,0,0.4,0.1,0.4,0.2
	l-1.3,3.6C226.2,459.3,225.9,459.3,225.7,459.3z"/>
<path fill="#52677A" d="M243.8,464h-10c-0.2,0-0.4-0.1-0.4-0.2l1.2-3.7c0-0.1,0.3-0.2,0.5-0.2h9.8c0.2,0,0.4,0.1,0.4,0.2l-1,3.7
	C244.3,464,244,464,243.8,464z"/>
<path fill="#52677A" d="M245.4,469h-10.2c-0.3,0-0.4-0.1-0.4-0.2l1.2-3.9c0-0.1,0.3-0.2,0.5-0.2h10c0.2,0,0.4,0.1,0.4,0.2l-1,3.9
	C245.9,468.9,245.7,469,245.4,469z"/>
<path fill="#52677A" d="M251.2,474.1h-10.4c-0.3,0-0.4-0.1-0.4-0.2l1.1-4.1c0-0.1,0.3-0.2,0.5-0.2h10.3c0.3,0,0.4,0.1,0.4,0.2
	l-0.9,4.1C251.7,474,251.4,474.1,251.2,474.1z"/>
<path fill="#52677A" d="M218.2,480h-10.6c-0.3,0-0.5-0.1-0.4-0.2l2-4.8c0-0.1,0.3-0.2,0.6-0.2h10.4c0.3,0,0.5,0.1,0.4,0.2l-1.7,4.8
	C218.8,479.9,218.5,480,218.2,480z"/>
<path fill="#52677A" d="M232.4,480h-10.6c-0.3,0-0.5-0.1-0.4-0.2l1.7-4.8c0-0.1,0.3-0.2,0.6-0.2H234c0.3,0,0.5,0.1,0.4,0.2l-1.4,4.8
	C233,479.9,232.7,480,232.4,480z"/>
<path fill="#52677A" d="M246.2,480h-10.6c-0.3,0-0.5-0.1-0.5-0.2l1.4-4.8c0-0.1,0.3-0.2,0.6-0.2h10.4c0.3,0,0.5,0.1,0.5,0.2
	l-1.2,4.8C246.8,479.9,246.5,480,246.2,480z"/>
<path fill="#52677A" d="M263.6,480h-14c-0.3,0-0.6-0.1-0.5-0.2l1.1-4.8c0-0.1,0.3-0.2,0.6-0.2h13.7c0.3,0,0.6,0.1,0.5,0.2l-0.8,4.8
	C264.2,479.9,263.9,480,263.6,480z"/>
<path fill="#52677A" d="M350,480h-14c-0.3,0-0.6-0.1-0.6-0.2l-0.6-4.8c0-0.1,0.2-0.2,0.5-0.2h13.7c0.3,0,0.6,0.1,0.6,0.2l0.9,4.8
	C350.6,479.9,350.4,480,350,480z"/>
<path fill="#52677A" d="M364.3,480h-10.5c-0.3,0-0.5-0.1-0.5-0.2l-0.9-4.8c0-0.1,0.2-0.2,0.5-0.2H363c0.3,0,0.5,0.1,0.5,0.2l1.1,4.8
	C364.7,479.9,364.5,480,364.3,480z"/>
<path fill="#52677A" d="M332.5,480h-64.8c-0.7,0-1.2-0.2-1.1-0.5l0.7-4.3c0-0.3,0.6-0.5,1.3-0.5h63.4c0.7,0,1.2,0.2,1.3,0.5l0.5,4.3
	C333.7,479.8,333.2,480,332.5,480z"/>
<path fill="#52677A" d="M264.7,474.1h-10.4c-0.3,0-0.5-0.1-0.4-0.2l0.9-4.1c0-0.1,0.2-0.2,0.5-0.2h10.3c0.3,0,0.4,0.1,0.4,0.2
	l-0.7,4.1C265.2,474,265,474.1,264.7,474.1z"/>
<path fill="#52677A" d="M278.3,474.1h-10.4c-0.3,0-0.5-0.1-0.4-0.2l0.7-4.1c0-0.1,0.2-0.2,0.5-0.2h10.3c0.3,0,0.5,0.1,0.4,0.2
	l-0.5,4.1C278.8,474,278.6,474.1,278.3,474.1z"/>
<path fill="#52677A" d="M291.9,474.1h-10.4c-0.3,0-0.5-0.1-0.5-0.2l0.4-4.1c0-0.1,0.2-0.2,0.5-0.2h10.3c0.3,0,0.5,0.1,0.5,0.2
	l-0.2,4.1C292.4,474,292.1,474.1,291.9,474.1z"/>
<path fill="#52677A" d="M305.4,474.1H295c-0.3,0-0.5-0.1-0.5-0.2l0.2-4.1c0-0.1,0.2-0.2,0.5-0.2h10.3c0.3,0,0.5,0.1,0.5,0.2l0,4.1
	C305.9,474,305.7,474.1,305.4,474.1z"/>
<path fill="#52677A" d="M319,474.1h-10.4c-0.3,0-0.5-0.1-0.5-0.2l0-4.1c0-0.1,0.2-0.2,0.5-0.2h10.3c0.3,0,0.5,0.1,0.5,0.2l0.2,4.1
	C319.5,474,319.3,474.1,319,474.1z"/>
<path fill="#52677A" d="M332.6,474.1h-10.4c-0.3,0-0.5-0.1-0.5-0.2l-0.3-4.1c0-0.1,0.2-0.2,0.5-0.2h10.3c0.3,0,0.5,0.1,0.5,0.2
	l0.5,4.1C333,474,332.8,474.1,332.6,474.1z"/>
<path fill="#52677A" d="M346.1,474.1h-10.4c-0.3,0-0.5-0.1-0.5-0.2l-0.5-4.1c0-0.1,0.2-0.2,0.4-0.2h10.3c0.3,0,0.5,0.1,0.5,0.2
	l0.7,4.1C346.6,474,346.4,474.1,346.1,474.1z"/>
<path fill="#52677A" d="M359.7,474.1h-10.4c-0.3,0-0.5-0.1-0.5-0.2l-0.7-4.1c0-0.1,0.2-0.2,0.4-0.2h10.3c0.3,0,0.5,0.1,0.5,0.2
	l0.9,4.1C360.2,474,360,474.1,359.7,474.1z"/>
<path fill="#52677A" d="M376.8,480.1h-8.1c-1,0-2-0.3-2.1-0.8l-0.3-1.2c-0.1-0.4,0.6-0.7,1.7-0.7h8.1c1,0,2,0.3,2.1,0.7l0.4,1.2
	C378.6,479.8,377.9,480.1,376.8,480.1z"/>
<path fill="#52677A" d="M390.8,480.1h-8.1c-1,0-2-0.3-2.1-0.8l-0.4-1.2c-0.1-0.4,0.6-0.7,1.6-0.7h8.1c1,0,2,0.3,2.1,0.7l0.4,1.2
	C392.5,479.8,391.8,480.1,390.8,480.1z"/>
<path fill="#52677A" d="M389.7,477.1h-8c-1,0-2-0.3-2.1-0.7l-0.4-1.2c-0.1-0.4,0.6-0.7,1.6-0.7h8c1,0,1.9,0.3,2.1,0.7l0.4,1.2
	C391.5,476.7,390.8,477.1,389.7,477.1z"/>
<path fill="#52677A" d="M404.7,480.1h-8.1c-1,0-2-0.3-2.1-0.8l-0.4-1.2c-0.1-0.4,0.6-0.7,1.6-0.7h8.1c1,0,2,0.3,2.2,0.7l0.5,1.2
	C406.5,479.8,405.8,480.1,404.7,480.1z"/>
<path fill="#52677A" d="M258.8,469h-10.2c-0.3,0-0.4-0.1-0.4-0.2l1-3.9c0-0.1,0.2-0.2,0.5-0.2h10c0.2,0,0.4,0.1,0.4,0.2l-0.8,3.9
	C259.3,468.9,259.1,469,258.8,469z"/>
<path fill="#52677A" d="M272.2,469H262c-0.3,0-0.4-0.1-0.4-0.2l0.7-3.9c0-0.1,0.2-0.2,0.5-0.2h10c0.2,0,0.4,0.1,0.4,0.2l-0.6,3.9
	C272.7,468.9,272.5,469,272.2,469z"/>
<path fill="#52677A" d="M285.6,469h-10.2c-0.3,0-0.5-0.1-0.4-0.2l0.5-3.9c0-0.1,0.2-0.2,0.5-0.2h10c0.2,0,0.4,0.1,0.4,0.2l-0.3,3.9
	C286.1,468.9,285.9,469,285.6,469z"/>
<path fill="#52677A" d="M298.9,469h-10.2c-0.3,0-0.5-0.1-0.4-0.2l0.3-3.9c0-0.1,0.2-0.2,0.5-0.2h10c0.3,0,0.5,0.1,0.4,0.2l-0.1,3.9
	C299.4,468.9,299.2,469,298.9,469z"/>
<path fill="#52677A" d="M312.3,469h-10.2c-0.3,0-0.5-0.1-0.5-0.2l0.1-3.9c0-0.1,0.2-0.2,0.5-0.2h10c0.3,0,0.5,0.1,0.5,0.2l0.1,3.9
	C312.8,468.9,312.6,469,312.3,469z"/>
<path fill="#52677A" d="M325.2,469h-10.2c-0.3,0-0.5-0.1-0.5-0.2l-0.1-3.9c0-0.1,0.2-0.2,0.4-0.2h10c0.2,0,0.5,0.1,0.5,0.2l0.3,3.9
	C325.6,468.9,325.4,469,325.2,469z"/>
<path fill="#52677A" d="M338.4,469h-10.2c-0.3,0-0.5-0.1-0.5-0.2l-0.4-3.9c0-0.1,0.2-0.2,0.4-0.2h10c0.2,0,0.5,0.1,0.5,0.2l0.5,3.9
	C338.9,468.9,338.7,469,338.4,469z"/>
<path fill="#52677A" d="M351.7,469h-10.2c-0.3,0-0.5-0.1-0.5-0.2l-0.6-3.9c0-0.1,0.2-0.2,0.4-0.2h10c0.3,0,0.5,0.1,0.5,0.2l0.8,3.9
	C352.2,468.9,352,469,351.7,469z"/>
<path fill="#52677A" d="M364.9,469h-10.2c-0.3,0-0.5-0.1-0.5-0.2l-0.8-3.9c0-0.1,0.2-0.2,0.4-0.2h10c0.2,0,0.5,0.1,0.5,0.2l1,3.9
	C365.3,468.9,365.2,469,364.9,469z"/>
<path fill="#52677A" d="M378.1,469h-10.2c-0.3,0-0.5-0.1-0.5-0.2l-1-3.9c0-0.1,0.2-0.2,0.4-0.2h10c0.2,0,0.5,0.1,0.5,0.2l1.2,3.9
	C378.5,468.9,378.4,469,378.1,469z"/>
<path fill="#52677A" d="M373.1,474.1h-10.4c-0.3,0-0.5-0.1-0.5-0.2l-0.9-4.1c0-0.1,0.2-0.2,0.4-0.2h10.3c0.3,0,0.5,0.1,0.5,0.2
	l1.1,4.1C373.6,474,373.4,474.1,373.1,474.1z"/>
<path fill="#52677A" d="M401.5,469h-19.7c-0.3,0-0.7-0.1-0.7-0.2l-1.2-3.8c0-0.1,0.2-0.2,0.5-0.2h19.4c0.3,0,0.7,0.1,0.7,0.2
	l1.5,3.8C402.1,468.8,401.8,469,401.5,469z"/>
<path fill="#52677A" d="M403.5,474.1h-27.1c-0.4,0-0.8-0.1-0.8-0.3l-1.1-3.9c0-0.2,0.2-0.3,0.6-0.3h26.6c0.4,0,0.8,0.1,0.8,0.3
	l1.6,3.9C404.2,473.9,403.9,474.1,403.5,474.1z"/>
<path fill="#52677A" d="M232.1,469h-20c-0.4,0-0.6-0.1-0.5-0.2l1.5-3.8c0.1-0.1,0.4-0.2,0.7-0.2h19.6c0.3,0,0.6,0.1,0.5,0.2
	l-1.2,3.8C232.8,468.8,232.5,469,232.1,469z"/>
<path fill="#52677A" d="M237.4,474.1H210c-0.4,0-0.7-0.1-0.6-0.3l1.6-3.9c0.1-0.2,0.4-0.3,0.9-0.3h26.9c0.4,0,0.7,0.1,0.7,0.3
	l-1.1,3.9C238.2,473.9,237.9,474.1,237.4,474.1z"/>
<path fill="#52677A" d="M256.8,464h-10c-0.2,0-0.4-0.1-0.4-0.2l1-3.7c0-0.1,0.2-0.2,0.5-0.2h9.8c0.2,0,0.4,0.1,0.4,0.2l-0.8,3.7
	C257.3,464,257.1,464,256.8,464z"/>
<path fill="#52677A" d="M269.8,464h-10c-0.2,0-0.4-0.1-0.4-0.2l0.8-3.7c0-0.1,0.2-0.2,0.5-0.2h9.8c0.2,0,0.4,0.1,0.4,0.2l-0.6,3.7
	C270.3,464,270.1,464,269.8,464z"/>
<path fill="#52677A" d="M282.9,464h-10c-0.2,0-0.4-0.1-0.4-0.2l0.6-3.7c0-0.1,0.2-0.2,0.5-0.2h9.8c0.2,0,0.4,0.1,0.4,0.2l-0.4,3.7
	C283.3,464,283.1,464,282.9,464z"/>
<path fill="#52677A" d="M295.9,464h-10c-0.2,0-0.4-0.1-0.4-0.2l0.3-3.7c0-0.1,0.2-0.2,0.5-0.2h9.8c0.2,0,0.4,0.1,0.4,0.2l-0.2,3.7
	C296.4,464,296.2,464,295.9,464z"/>
<path fill="#52677A" d="M308.9,464h-10c-0.2,0-0.4-0.1-0.4-0.2l0.1-3.7c0-0.1,0.2-0.2,0.4-0.2h9.8c0.2,0,0.4,0.1,0.4,0.2l0,3.7
	C309.3,464,309.1,464,308.9,464z"/>
<path fill="#52677A" d="M321.6,464h-10c-0.2,0-0.5-0.1-0.5-0.2l-0.1-3.7c0-0.1,0.2-0.2,0.4-0.2h9.8c0.2,0,0.4,0.1,0.5,0.2l0.3,3.7
	C322,464,321.8,464,321.6,464z"/>
<path fill="#52677A" d="M334.7,464h-10c-0.2,0-0.5-0.1-0.5-0.2l-0.3-3.7c0-0.1,0.2-0.2,0.4-0.2h9.8c0.2,0,0.5,0.1,0.5,0.2l0.5,3.7
	C335.2,464,335,464,334.7,464z"/>
<path fill="#52677A" d="M347.7,464h-10c-0.2,0-0.5-0.1-0.5-0.2l-0.5-3.7c0-0.1,0.2-0.2,0.4-0.2h9.8c0.2,0,0.5,0.1,0.5,0.2l0.7,3.7
	C348.2,464,348,464,347.7,464z"/>
<path fill="#52677A" d="M360.5,464h-10c-0.2,0-0.5-0.1-0.5-0.2l-0.7-3.7c0-0.1,0.2-0.2,0.4-0.2h9.8c0.2,0,0.5,0.1,0.5,0.2l0.9,3.7
	C360.9,464,360.8,464,360.5,464z"/>
<path fill="#52677A" d="M373.8,464h-10c-0.2,0-0.5-0.1-0.5-0.2l-0.9-3.7c0-0.1,0.2-0.2,0.4-0.2h9.8c0.2,0,0.5,0.1,0.5,0.2l1.1,3.7
	C374.2,464,374.1,464,373.8,464z"/>
<path fill="#52677A" d="M386.6,464h-10c-0.2,0-0.5-0.1-0.5-0.2l-1.1-3.7c0-0.1,0.1-0.2,0.4-0.2h9.8c0.2,0,0.5,0.1,0.5,0.2l1.3,3.7
	C387,464,386.8,464,386.6,464z"/>
<path fill="#52677A" d="M399.7,464h-10c-0.2,0-0.5-0.1-0.5-0.2l-1.3-3.7c0-0.1,0.1-0.2,0.4-0.2h9.8c0.2,0,0.5,0.1,0.5,0.2l1.5,3.7
	C400.1,464,399.9,464,399.7,464z"/>
<path fill="#52677A" d="M238.7,459.3h-9.8c-0.2,0-0.4-0.1-0.4-0.2l1.2-3.6c0-0.1,0.2-0.2,0.5-0.2h9.6c0.2,0,0.4,0.1,0.4,0.2
	l-1.1,3.6C239.1,459.3,238.9,459.3,238.7,459.3z"/>
<path fill="#52677A" d="M251.2,459.3h-9.8c-0.2,0-0.4-0.1-0.4-0.2l1-3.6c0-0.1,0.2-0.2,0.5-0.2h9.6c0.2,0,0.4,0.1,0.4,0.2l-0.9,3.6
	C251.7,459.3,251.5,459.3,251.2,459.3z"/>
<path fill="#52677A" d="M264.1,459.3h-9.8c-0.2,0-0.4-0.1-0.4-0.2l0.8-3.6c0-0.1,0.2-0.2,0.5-0.2h9.6c0.2,0,0.4,0.1,0.4,0.2
	l-0.7,3.6C264.6,459.3,264.4,459.3,264.1,459.3z"/>
<path fill="#52677A" d="M276.7,459.3h-9.8c-0.2,0-0.4-0.1-0.4-0.2l0.6-3.6c0-0.1,0.2-0.2,0.5-0.2h9.6c0.2,0,0.4,0.1,0.4,0.2
	l-0.5,3.6C277.1,459.3,276.9,459.3,276.7,459.3z"/>
<path fill="#52677A" d="M289.6,459.3h-9.8c-0.2,0-0.4-0.1-0.4-0.2l0.4-3.6c0-0.1,0.2-0.2,0.5-0.2h9.6c0.2,0,0.4,0.1,0.4,0.2
	l-0.3,3.6C290.1,459.3,289.9,459.3,289.6,459.3z"/>
<path fill="#52677A" d="M302.1,459.3h-9.8c-0.2,0-0.4-0.1-0.4-0.2l0.2-3.6c0-0.1,0.2-0.2,0.4-0.2h9.6c0.2,0,0.4,0.1,0.4,0.2
	l-0.1,3.6C302.5,459.3,302.3,459.3,302.1,459.3z"/>
<path fill="#52677A" d="M315,459.3h-9.8c-0.2,0-0.4-0.1-0.4-0.2l0-3.6c0-0.1,0.2-0.2,0.4-0.2h9.6c0.2,0,0.4,0.1,0.4,0.2l0.1,3.6
	C315.5,459.3,315.3,459.3,315,459.3z"/>
<path fill="#52677A" d="M327.6,459.3h-9.8c-0.2,0-0.4-0.1-0.5-0.2l-0.2-3.6c0-0.1,0.2-0.2,0.4-0.2h9.6c0.2,0,0.4,0.1,0.4,0.2
	l0.3,3.6C328.1,459.3,327.9,459.3,327.6,459.3z"/>
<path fill="#52677A" d="M340.5,459.3h-9.8c-0.2,0-0.4-0.1-0.5-0.2l-0.4-3.6c0-0.1,0.2-0.2,0.4-0.2h9.6c0.2,0,0.4,0.1,0.5,0.2
	l0.6,3.6C341,459.3,340.8,459.3,340.5,459.3z"/>
<path fill="#52677A" d="M353.4,459.3h-9.8c-0.2,0-0.5-0.1-0.5-0.2l-0.6-3.6c0-0.1,0.2-0.2,0.4-0.2h9.6c0.2,0,0.4,0.1,0.5,0.2
	l0.8,3.6C353.8,459.3,353.7,459.3,353.4,459.3z"/>
<path fill="#52677A" d="M366.2,459.3h-9.8c-0.2,0-0.5-0.1-0.5-0.2l-0.8-3.6c0-0.1,0.2-0.2,0.4-0.2h9.6c0.2,0,0.5,0.1,0.5,0.2l1,3.6
	C366.6,459.3,366.4,459.3,366.2,459.3z"/>
<path fill="#52677A" d="M378.4,459.3h-9.8c-0.2,0-0.5-0.1-0.5-0.2l-1-3.6c0-0.1,0.2-0.2,0.4-0.2h9.6c0.2,0,0.5,0.1,0.5,0.2l1.2,3.6
	C378.9,459.3,378.7,459.3,378.4,459.3z"/>
<path fill="#52677A" d="M396.8,459.3h-14.7c-0.7,0-1.3-0.2-1.4-0.5l-1-3c-0.1-0.2,0.4-0.4,1.1-0.4h14.4c0.7,0,1.3,0.2,1.4,0.4l1.2,3
	C398,459.1,397.5,459.3,396.8,459.3z"/>
<path fill="#52677A" d="M229.8,464h-15c-0.7,0-1.2-0.2-1.1-0.5l1.3-3.1c0.1-0.3,0.7-0.5,1.4-0.5h14.7c0.7,0,1.2,0.2,1.1,0.5l-1,3.1
	C231.1,463.8,230.5,464,229.8,464z"/>
<rect x="221.5" y="438.7" fill="#52677A" width="29.2" height="5.1"/>
<rect x="362.1" y="438.7" fill="#52677A" width="29.2" height="5.2"/>
<path fill="#CAD74B" d="M244.1,341.7l-52.9,19.4L186,371l-2-7.2l-3.7,1.4c-1.6,0.6-3.4-0.2-4-1.8L162.2,325c-0.6-1.6,0.2-3.4,1.8-4
	l63.9-23.5c1.6-0.6,3.4,0.2,4,1.8l14.1,38.3C246.6,339.3,245.7,341.1,244.1,341.7z"/>
<path fill="#F06024" d="M225.6,363.2l42.9-15.8l8.4,3.2l-2.5-5.4l3-1.1c1.3-0.5,2-1.9,1.5-3.2l-11.2-30.6c-0.5-1.3-1.9-1.9-3.2-1.5
	l-51.8,19c-1.3,0.5-2,1.9-1.5,3.2l11.2,30.6C222.8,363,224.3,363.6,225.6,363.2z"/>
<g>
	<g>
		<g>
			<path fill="#CE521F" d="M222.3,361.6c0.5,1.3,1.9,1.9,3.2,1.5l42.9-15.8l8.4,3.2l-2.5-5.4l3-1.1c1.3-0.5,2-1.9,1.5-3.2l-5.5-14.9
				l-56.6,20.8L222.3,361.6z"/>
		</g>
	</g>
</g>
<path fill="#FFFFFF" d="M237,338c2,2,0.5,5.2-2.3,4.9c-0.5,0-1.1-0.3-1.5-0.7c-2-2-0.5-5.2,2.3-4.9C236,337.4,236.6,337.6,237,338z"
	/>
<path fill="#FFFFFF" d="M247.1,334.3c2,2,0.5,5.2-2.3,4.9c-0.5,0-1.1-0.3-1.5-0.7c-2-2-0.5-5.2,2.3-4.9
	C246.2,333.7,246.7,333.9,247.1,334.3z"/>
<path fill="#FFFFFF" d="M256.7,330.8c2,2,0.5,5.2-2.3,4.9c-0.5,0-1.1-0.3-1.5-0.7c-2-2-0.5-5.2,2.3-4.9
	C255.7,330.2,256.3,330.4,256.7,330.8z"/>
<polygon fill="#CE521F" points="386.1,388.8 408.4,368.4 430.8,388.5 430.7,416.2 386.8,416.3 "/>
<rect x="390.1" y="378.4" transform="matrix(1 -2.286309e-003 2.286309e-003 1 -0.9053 0.9353)" fill="#FFFFFF" width="37.1" height="36.1"/>
<polygon fill="#52677A" points="386.2,420.4 430.9,420.3 415.1,405.4 402,405.5 "/>
<polygon fill="#52677A" points="386.2,420.4 386.2,389.6 402.1,405.5 "/>
<polygon fill="#52677A" points="430.9,420.3 430.8,389.5 415.1,405.4 "/>
</svg>
