<svg version="1.1" id="Layer_1" xmlns="http://www.w3.org/2000/svg" xmlns:xlink="http://www.w3.org/1999/xlink" x="0px" y="0px"
	 viewBox="-155 247 300 300" style="enable-background:new -155 247 300 300;" xml:space="preserve">
<style type="text/css">
	.st0{fill:#52677A;}
	.st1{fill:#B7CDD8;}
	.st2{fill:#CFD1D1;}
	.st3{fill:#F06024;}
	.st4{fill:#CE521F;}
	.st5{fill:#2C3B52;}
	.st6{fill:#EBEBEB;}
	.st7{fill:#BABABA;}
	.st8{fill:#E7E6E6;}
	.st9{fill:#8E96A3;}
	.st10{fill:#3D4D5C;}
	.st11{fill:#FFFFFF;}
	.st12{fill:#CAD74B;}
</style>
<g id="terra">
	<animateTransform id="earthAnimation"
		attributeName="transform"
		type="translate"
		values="0,0; 5,10; 3,3; 7,-6; -10,0"
		dur="9s"
		fill="freeze"
		begin="2s;earthAnimation.end+6s"
	/>
	<path class="st0" d="M134.7,303.5c-9.4-18.2-31.9-25.4-50.1-15.9c-18.2,9.4-25.4,31.9-15.9,50.1c9.4,18.2,31.9,25.4,50.1,15.9
		C137,344.2,144.1,321.8,134.7,303.5z"/>
	<g>
		<g>
			<path class="st1" d="M128.5,323.5c-0.1-0.1-0.2-0.3-0.3-0.4c0-0.1-0.1,0-0.2,0.1c-0.1,0.1-0.1,0.5-0.1,0.6c0,0.1,0,0.1,0,0.2
				c0,0.1,0,0.2,0,0.5c0,0,0,0.2,0,0.3s0.1,0.1,0.2,0.3c0.1,0.1,0.1,0.3,0.1,0.4c0.1,0.1,0.2,0,0.4,0c0.2-0.1,0-0.2,0.1-0.4
				c0-0.2,0.1-0.4,0-0.5c-0.1-0.1,0-0.1,0-0.2c0-0.1,0-0.2,0-0.4c-0.1-0.2-0.1-0.3-0.1-0.4C128.7,323.5,128.6,323.5,128.5,323.5z"/>
			<path class="st1" d="M136.4,324.6c-0.1-0.2-0.1,0.2-0.2,0.3s-0.1-0.1-0.1-0.2c-0.1-0.1-0.2-0.4-0.3-0.4c-0.1-0.1-0.1-0.2-0.2-0.4
				c-0.1-0.2-0.2-0.2-0.2-0.3c0-0.2,0-0.3-0.2-0.4c-0.2-0.1-0.2,0.1-0.3,0.2c-0.1,0.1-0.2,0.1-0.3,0.1c-0.1,0-0.1-0.2-0.2-0.3
				c-0.1-0.1-0.1,0.1-0.1,0.2c0,0.1,0.1,0.2,0.1,0.4c0,0.1,0,0.3,0,0.4c0.1,0.1,0.1,0.2,0.3,0.2c0,0,0.1,0,0.1,0.1
				c0,0.1,0.1,0.2,0.1,0.4s0,0.4,0.1,0.5c0.1,0.1,0.2,0.2,0.3,0.3c0.1,0.2,0.1,0.2,0.1,0.4c0,0.2,0.1,0.1,0.2,0.1s0.2,0,0.3,0
				c0.1,0.1,0,0.4,0,0.5c0,0.1,0.1,0.6,0.1,0.7c0,0.1,0.2,0.4,0.4,0.6c0.2,0.2,0,0.2,0.1,0.5s0.2,0,0.3-0.1c0.1-0.1,0.1-0.3,0.2-0.5
				c0-0.1,0-0.4,0-0.5c0.1-0.2,0.1-0.2,0.2-0.4s0-0.5-0.1-0.8s-0.1-0.1-0.2-0.2c-0.1-0.1-0.1-0.5-0.1-0.7c0-0.1-0.1-0.3-0.2-0.4
				C136.5,325.1,136.4,324.8,136.4,324.6z"/>
			<path class="st1" d="M134.8,325.5c0,0,0-0.3,0-0.5c-0.1-0.2-0.1,0.1-0.2,0.2S134.7,325.5,134.8,325.5
				C134.7,325.6,134.8,325.6,134.8,325.5z"/>
			<path class="st1" d="M135.3,326.2c0.1,0,0.1-0.2,0-0.3c-0.1-0.2-0.1-0.2-0.3-0.1c-0.1,0,0,0.2,0.1,0.4
				C135.1,326.1,135.1,326.2,135.3,326.2z"/>
			<path class="st1" d="M135.7,326.7c0-0.2-0.1-0.1-0.2-0.1s0,0.1,0,0.4c0,0,0,0.1,0.1,0.1C135.7,327,135.7,326.9,135.7,326.7z"/>
			<path class="st1" d="M101.6,286.3c0.1-0.1-0.2-0.1-0.3,0c-0.1,0-0.2,0.2-0.1,0.3C101.2,286.5,101.4,286.4,101.6,286.3z"/>
			<path class="st1" d="M100.7,286.4c0.1-0.1-0.1-0.1-0.3-0.1c-0.2,0-0.1,0.1,0.1,0.2C100.4,286.5,100.6,286.4,100.7,286.4z"/>
			<path class="st1" d="M101.6,286.1c0.1-0.1-0.4,0-0.4,0.1l0.1,0.1C101.2,286.2,101.5,286.1,101.6,286.1z"/>
			<path class="st1" d="M106.3,285.8c0.2-0.1-0.2-0.1-0.3-0.1c-0.1,0-0.2-0.1-0.3-0.2c0-0.1-0.1-0.1-0.2,0.1
				c-0.1,0.1,0.1,0.2,0.2,0.3C105.7,285.9,106.1,285.9,106.3,285.8z"/>
			<path class="st1" d="M106.2,285.9c-0.1,0-0.2,0.1-0.1,0.2c0,0,0.3,0,0.4,0.1c0.1,0.1,0.1-0.1,0.3-0.2c0.2-0.1,0.3,0,0.4-0.1
				c0.1-0.1-0.4-0.1-0.7,0C106.1,286.1,106.2,286,106.2,285.9z"/>
			<path class="st1" d="M107.9,285.8c0,0,0.1,0.1,0.2,0.1s0.2,0,0.3,0c0.2,0,0.1-0.2,0.1-0.2s0.1-0.2,0.1-0.3
				c0.1-0.1-0.1-0.1-0.2-0.1c-0.1,0.1-0.1,0.2-0.2,0.3c-0.1,0.1-0.2,0-0.2,0s-0.3-0.1-0.5,0C107.5,285.8,107.7,285.8,107.9,285.8z"
				/>
			<path class="st1" d="M89.2,306.2c-0.1,0-0.4,0-0.7,0c-0.3,0-0.4-0.1-0.6-0.1s-0.3,0.4-0.1,0.6c0.2,0.2,0.4,0.2,0.6,0.3
				c0.2,0.1,0.1,0.2,0.3,0.3c0,0,0.1,0.1,0.3,0c0.1-0.1,0.2-0.3,0.3-0.5C89.3,306.6,89.3,306.3,89.2,306.2z"/>
			<path class="st1" d="M86,305.7c0,0.1,0.1-0.1,0.2-0.2c0.2-0.1-0.1,0.2,0,0.4c0,0,0.1,0,0.2,0s0.1-0.1,0.1-0.3
				c0-0.2,0.1-0.2,0.2-0.3c0.1,0,0.1-0.2,0.1-0.4s0.1-0.5,0.1-0.6c0-0.1-0.3,0.2-0.4,0.3s-0.4,0.4-0.5,0.6
				C85.9,305.5,85.9,305.6,86,305.7z"/>
			<path class="st1" d="M87,304.1c0,0,0-0.1,0.1-0.2c0-0.1,0.2-0.3,0.2-0.5s-0.2,0-0.2,0.1c-0.1,0.1-0.2,0.1-0.2,0.2
				C86.7,303.8,86.9,303.9,87,304.1C86.9,304.1,87,304.1,87,304.1z"/>
			<path class="st1" d="M93.4,309c0.2,0.1,0.1-0.1,0.2-0.1c0,0,0.2,0,0.5,0s0.5,0.2,0.7,0.1c0.2-0.1,0.2-0.2,0.2-0.4
				c-0.1-0.2-0.3-0.1-0.5-0.1c-0.1,0-0.1-0.1-0.3-0.1c-0.1,0-0.3,0-0.4,0s-0.3-0.1-0.4,0c-0.1,0,0.1,0.2-0.1,0.3
				C93.2,308.9,93.2,308.9,93.4,309z"/>
			<path class="st1" d="M94.6,306.2c0.1,0.1,0.1-0.1,0.3,0H95c0.1,0,0.1-0.2,0.1-0.3s-0.2-0.1-0.3-0.2c-0.2,0-0.1,0.2-0.1,0.3
				C94.7,306.2,94.6,306.2,94.6,306.2z"/>
			<path class="st1" d="M94.6,306.9h0.1c0.1,0,0.2-0.1,0.1-0.2c0-0.2-0.1-0.2-0.3-0.1C94.4,306.7,94.5,306.8,94.6,306.9z"/>
			<path class="st1" d="M93.2,307.9c0-0.1,0.1-0.2-0.1-0.2S93,307.9,93,308C93,308.1,93.2,308,93.2,307.9z"/>
			<path class="st1" d="M94.1,307.7c0.2-0.1,0.1-0.1,0-0.2c-0.1-0.1-0.3,0-0.2,0.2C93.9,307.7,93.9,307.8,94.1,307.7z"/>
			<path class="st1" d="M95,307.9c0,0,0.2,0,0.1-0.2c0-0.1,0-0.1-0.2-0.1C94.7,307.7,94.8,307.9,95,307.9z"/>
			<path class="st1" d="M95.5,307.6c0-0.1-0.1-0.1-0.2-0.1s-0.1,0.1,0,0.2C95.4,307.7,95.5,307.8,95.5,307.6z"/>
			<path class="st1" d="M95.3,308.1c0,0,0.1,0,0.2-0.1c0.1-0.1,0-0.1-0.1-0.2C95.3,307.8,95.2,307.9,95.3,308.1z"/>
			<path class="st1" d="M96.1,308.3c0.1-0.2-0.1-0.2-0.2-0.3c-0.1,0-0.2,0.2-0.2,0.3c0,0,0,0.1,0.1,0.2
				C95.8,308.6,96,308.4,96.1,308.3z"/>
			<path class="st1" d="M95.5,308.3c-0.1-0.1-0.2,0.1-0.2,0.2c0,0,0.1,0.1,0.3,0C95.7,308.4,95.6,308.3,95.5,308.3z"/>
			<path class="st1" d="M98.3,308.7c-0.2,0,0,0.2,0,0.3c0,0.1,0,0.3,0.2,0.4c0,0,0.2,0,0.3-0.1c0.1-0.1,0.3-0.3,0.4-0.4
				c0.1-0.1,0.4-0.1,0.4-0.2c0-0.2,0.3-0.3,0.4-0.3s-0.1-0.1-0.3-0.2c-0.2-0.1-0.3,0.1-0.4,0.2c-0.1,0.1-0.3,0.1-0.3,0
				c-0.1-0.1-0.3,0.1-0.2,0.2C98.7,308.7,98.5,308.7,98.3,308.7z"/>
			<path class="st1" d="M106.8,341.4c0,0,0.1,0,0.2,0s0.1-0.2,0-0.4c-0.1-0.1-0.4,0.1-0.5,0.2S106.8,341.3,106.8,341.4z"/>
			<path class="st1" d="M108.4,341.6c0.2,0.1,0.2-0.1,0.3-0.3c0.1-0.2,0-0.2-0.3-0.2c-0.2,0-0.2,0.1-0.1,0.3
				C108.3,341.5,108.3,341.5,108.4,341.6z"/>
			<path class="st1" d="M109.6,340.4c0.1,0,0.1-0.2-0.1-0.3c-0.1-0.1-0.2,0.1-0.1,0.3C109.4,340.5,109.5,340.5,109.6,340.4z"/>
			<path class="st1" d="M110.8,341.9c0-0.3-0.2-0.3-0.4-0.4c-0.2-0.1,0-0.6-0.1-0.7c-0.1-0.1-0.2,0.2-0.4,0.5
				c-0.2,0.3,0,0.4-0.2,0.6c-0.1,0.2-0.3,0.1-0.4,0.4c0,0.2,0.1,0.2-0.3,0.3c-0.4,0.1-0.3,0.1-0.4,0.3c-0.1,0.1-0.1-0.1-0.2-0.1
				c-0.1-0.1-0.1,0.1-0.3,0.4c-0.2,0.2-0.4,0.2-0.6,0.3c-0.2,0.1-0.3,0.2-0.4,0.2c-0.2,0-0.3,0.4-0.3,0.8c0,0-0.1,0.4-0.1,0.6
				c0.1,0.2,0.2,0.5,0.1,0.6c-0.1,0.2-0.3,0.5-0.3,0.8c-0.1,0.2-0.2,1-0.2,1.3c0.1,0.3,0.2,0.5,0.4,0.7c0.2,0.2,0.4,0.2,0.7,0.3
				c0.3,0,0.2-0.1,0.4-0.2c0.2-0.1,0.1-0.1,0.4-0.2c0.2-0.1,0.3-0.2,0.5-0.3s0.2-0.3,0.3-0.5c0.1-0.2,0.2-0.5,0.2-0.6
				c0.1-0.1,0.2-0.3,0.3-0.5c0.1-0.2,0.2-0.1,0.2-0.3c0-0.1,0-0.3,0.1-0.4c0.1-0.1,0.1-0.2,0.1-0.3s0.1-0.3,0.2-0.6s0-0.4,0-0.6
				s0.1-0.1,0.2,0c0.1,0.1,0.2-0.1,0.3-0.3c0.1-0.2-0.2-0.2-0.3-0.2c-0.1,0-0.1,0,0-0.1c0.1-0.1,0.3-0.3,0.4-0.5s0.1,0.2,0.2,0.2
				s0.1-0.2,0-0.4C110.8,342.6,110.8,342.1,110.8,341.9z"/>
			<path class="st1" d="M82.6,330.3c0.1,0-0.1-0.2-0.1-0.3c-0.1,0-0.1-0.2-0.2-0.3s-0.2,0.2-0.2,0.4s0,0.2,0.1,0.4c0,0,0,0.1,0.1,0
				c0.1-0.1,0-0.1,0.1-0.2C82.5,330.3,82.5,330.3,82.6,330.3z"/>
			<path class="st1" d="M80.9,331.5c-0.1,0.1,0,0.4,0.1,0.5c0,0,0.2,0.1,0.2,0c0.1-0.1,0-0.2-0.1-0.4
				C81.1,331.4,81,331.4,80.9,331.5z"/>
			<path class="st1" d="M87.2,294.2c0.1-0.1,0.2-0.2,0.1-0.2c0,0-0.1-0.1-0.2-0.1c0-0.1-0.2-0.1-0.3-0.1c-0.2,0.1-0.4,0.4-0.4,0.4
				c-0.1,0.1-0.1,0-0.2,0c0-0.1-0.1,0-0.2,0c0,0-0.2,0.1-0.2,0.2c-0.1,0-0.2,0.1-0.3,0.2c-0.1,0.1,0.1,0,0.3-0.1
				c0.1-0.1,0.2-0.1,0.3,0c0.1,0,0,0.1,0,0.2c0,0.1-0.2,0.3-0.3,0.5c0,0.1-0.3,0.4-0.2,0.5c0,0,0.2,0.1,0.3,0.2c0,0,0,0.1-0.1,0.2
				c-0.1,0.1-0.3,0.2-0.4,0.4s-0.4,0.3-0.5,0.4c-0.1,0.1-0.4,0.6-0.5,0.8c-0.2,0.3-0.1,0.2-0.3,0.3c-0.2,0.1-0.4,0-0.5,0.1
				c-0.1,0.1,0.2,0.2,0.4,0.2c0.2,0,0.2-0.1,0.4-0.2c0.2-0.1,0.2,0,0.3,0.1c0.2,0.1,0.6,0.2,0.8,0.2c0.2,0,0.2,0,0.5,0
				c0,0,0.2-0.1,0.2-0.2c0-0.1-0.1-0.1,0-0.3c0.1-0.1,0.2-0.1,0.5-0.2c0.2-0.1,0.2-0.2,0.2-0.3s0.2-0.1,0.3-0.2
				c0.2-0.1,0.1-0.2,0-0.3s-0.2-0.1-0.3-0.2c-0.1-0.1-0.1-0.2-0.2-0.3c0-0.1,0.1-0.2,0.1-0.3s-0.2,0.1-0.2,0c0-0.1,0.2-0.4,0.2-0.5
				c0-0.1-0.1-0.1-0.1-0.2c-0.1-0.1,0.2-0.3,0.3-0.4c0.1-0.1,0.2-0.5,0.2-0.5c0-0.1-0.1-0.1-0.2-0.1C87,294.4,87.1,294.3,87.2,294.2
				z"/>
			<path class="st1" d="M83.3,297.1c0.2,0,0.2,0.1,0.3,0c0.1,0,0.2,0,0.3,0H84c0,0,0.1-0.2,0.2-0.3c0.1-0.1,0.4-0.4,0.4-0.6
				c0.1-0.1,0.2-0.2,0.3-0.3c0.2-0.1,0.2-0.1,0.3-0.2c0.1-0.1,0-0.2,0-0.3c-0.1-0.1-0.2,0-0.2,0c-0.1,0,0-0.1,0-0.2
				c0-0.1-0.1,0-0.3,0c-0.2,0.1-0.2,0.2-0.3,0.4c-0.1,0.2-0.2,0.1-0.2,0c-0.1-0.1-0.1-0.1-0.3,0c-0.2,0.1,0,0.2-0.1,0.3
				c-0.1,0.2-0.2,0.3-0.3,0.5c-0.2,0.3-0.2-0.1-0.3-0.1c-0.1,0-0.3,0.3-0.3,0.4c0,0.1,0,0.2,0.1,0.3
				C83.1,297.3,83.1,297.1,83.3,297.1z"/>
			<path class="st1" d="M82.6,296.8c-0.1,0.1,0,0.2,0,0.2s0.2-0.2,0.2-0.3C82.9,296.5,82.8,296.7,82.6,296.8z"/>
			<path class="st1" d="M85.6,294.4c0,0,0.1-0.1,0.1-0.2c0-0.1-0.1,0-0.2,0.1C85.4,294.3,85.5,294.4,85.6,294.4z"/>
			<path class="st1" d="M85.9,294.2C86,294.1,85.9,294.1,85.9,294.2c0-0.1-0.2-0.1-0.2,0C85.8,294.2,85.8,294.3,85.9,294.2z"/>
			<path class="st1" d="M86,294.1c0,0,0.1,0,0.2-0.1c0.1,0,0.2-0.2,0.3-0.4c0-0.2-0.1-0.1-0.2,0c-0.1,0-0.2,0.1-0.2,0.2
				C86.1,293.9,86.1,294,86,294.1L86,294.1z"/>
			<path class="st1" d="M87.7,293.6c-0.1,0-0.2,0.1-0.2,0.2C87.5,293.8,87.7,293.7,87.7,293.6C87.9,293.6,87.8,293.6,87.7,293.6z"/>
			<path class="st1" d="M88.6,292.9c0,0.1,0,0.2-0.1,0.3c-0.1,0.2-0.2,0.2-0.1,0.2c0,0,0.1-0.1,0.2-0.1c0.1-0.1,0.2-0.2,0.3-0.3
				c0.1-0.1,0-0.1,0-0.3C89,292.7,88.6,292.9,88.6,292.9z"/>
			<path class="st1" d="M105.2,289.1c0.1,0.1,0.3,0.1,0.5,0.1c0,0,0.1,0,0.3-0.1c0.1,0,0,0-0.2-0.1c-0.2,0-0.3-0.1-0.4-0.2
				C105.2,288.9,105.1,289,105.2,289.1z"/>
			<path class="st1" d="M104.6,288.7c-0.1,0-0.2-0.1-0.3-0.2c-0.1-0.1-0.2-0.3-0.2-0.4c0-0.1-0.2,0-0.4,0c-0.2,0-0.3,0.1-0.4,0.2
				c-0.1,0.1,0.1,0.2,0,0.2s0,0.1,0.1,0.2c0.1,0.1,0.2,0,0.2,0.1c0.1,0.1,0,0.2,0.1,0.2s0.2,0,0.3-0.1c0.1-0.1,0-0.1,0.1-0.1
				s0,0.2,0.2,0.2c0,0,0.3,0,0.5-0.1c0.2,0,0.1,0,0.1-0.1C105,288.8,104.8,288.7,104.6,288.7z"/>
			<path class="st1" d="M103.4,287.7c0.1,0.1,0,0.2-0.1,0.3c-0.1,0.1,0.3,0,0.4,0c0,0,0.3,0,0.4,0s0-0.1,0.1-0.2
				c0-0.1,0.2-0.1,0.4-0.1c0.2,0-0.1-0.1-0.1-0.2c-0.1-0.1,0.2-0.2,0.3-0.2c0.1-0.1,0-0.2-0.1-0.2c-0.1-0.1,0.1-0.1,0.3-0.1
				c0.2,0,0.2,0,0.2-0.1c0-0.1,0.1,0.1,0.3,0.1c0.2,0-0.1-0.1-0.1-0.2c-0.1,0-0.3,0-0.4,0s-0.2,0-0.3-0.1c-0.1-0.1-0.1,0-0.2,0.1
				c-0.1,0.1-0.1,0.2-0.2,0.2c0,0-0.3,0-0.4,0.1c-0.1,0.1,0.1,0.2,0,0.3s-0.1,0.1-0.3,0.1c-0.2,0-0.2,0-0.3,0.1
				C103.2,287.6,103.4,287.6,103.4,287.7z"/>
			<path class="st1" d="M88.2,289.9c0.1-0.2-0.4-0.1-0.5-0.1s-0.2,0.2-0.5,0.2c-0.2,0-0.1-0.1-0.3-0.1c-0.2,0-0.5,0.2-0.7,0.4
				c-0.2,0.2-0.6,0.5-0.5,0.6c0.1,0,0.3,0.1,0.5,0.2c0.2,0,0.2,0,0.4,0c0.2,0,0.2-0.1,0.4-0.2c0.1,0,0.2,0.1,0.5-0.1
				c0,0,0.3-0.2,0.5-0.3C88.1,290.3,88.2,290,88.2,289.9z"/>
			<path class="st1" d="M82.3,290.3c0.1-0.1,0.9-0.5,1.1-0.6c0.2-0.1,0.6-0.2,0.7-0.3c0.1-0.1,0.2-0.3,0.4-0.3
				c0.2-0.1,0.5,0,0.7-0.1c0.2-0.1,0.6-0.2,0.6-0.2s0.1,0.1,0.2,0c0.2-0.1,0.5-0.2,0.7-0.3c0.1-0.1,0.7-0.2,0.8-0.2
				c0.1,0,0.4-0.1,0.4,0c0,0.1,0.2,0.1,0.3,0.1c0.1,0,0.5-0.2,0.5-0.2l0.1,0.1c0.2-0.1,0.4-0.2,0.3-0.3s-0.1-0.1,0.1-0.2
				c0.1-0.1,0.5-0.2,0.4-0.1c-0.1,0.1,0,0.2,0.3,0S91,287,91,287s0,0.2,0.2,0.1c0.1-0.1,0.5-0.3,0.6-0.3c0.1-0.1,0.4-0.1,0.4-0.2
				c0-0.1,0.3-0.3,0.4-0.2c0.1,0,0.7-0.3,0.8-0.3c0.1,0,0.4-0.2,0.5-0.3s0.4-0.2,0.6-0.3c0.3-0.1,0.4-0.1,0.7-0.2
				c0.3-0.1,0.9-0.4,1-0.4s0.7,0,0.6-0.2c-0.1-0.1-0.5-0.2-0.7-0.3c-0.3-0.1-0.6,0-1-0.1c-0.4,0-0.1,0-0.6-0.1c-0.5-0.1-0.8,0-1,0.1
				c-0.2,0-0.8,0.2-1.1,0.3c-0.2,0.1-0.6,0.2-0.7,0.4c0,0.2-0.1,0.1-0.5,0.3c-0.4,0.1-1.5,0.6-1.7,0.7c-0.2,0.1-0.6,0.2-0.8,0.3
				c-0.2,0.1-1.2,0.4-1.6,0.6s-1,0.4-1.3,0.6c-0.4,0.2-0.7,0.3-1.2,0.6s-1.2,0.7-1.5,0.9s-0.7,0.8-0.8,1
				C82.1,290.2,82.1,290.4,82.3,290.3z"/>
			<path class="st1" d="M97.1,286.8c0.1-0.1,0,0.1,0.1,0.1s0.1,0.1-0.1,0.3c-0.1,0.2,0.1,0.2,0.4,0c0,0,0.1-0.2,0-0.3
				c0-0.1,0.3-0.1,0.4-0.2c0.2-0.1,0.4-0.1,0.6-0.2c0.1-0.1-0.9-0.1-1-0.1s0,0.2,0,0.3c-0.1,0.1-0.1-0.1-0.2-0.1s-0.2,0.1-0.2-0.1
				s-0.1-0.1-0.2-0.1s0.1,0.2-0.1,0.4C96.7,287,97,286.9,97.1,286.8z"/>
			<path class="st1" d="M98.3,286.9c-0.2,0-0.3,0.1-0.4,0.2c0,0,0.2,0,0.3,0c0.1,0,0.2,0.1,0.4-0.1
				C98.9,286.8,98.5,286.9,98.3,286.9z"/>
			<path class="st1" d="M83,304.9c-0.1,0-0.3,0.2-0.2,0.2c0,0.1,0,0.1,0,0.3h0.1c0.1,0,0.2-0.2,0.1-0.3C83,305,83.1,304.9,83,304.9z
				"/>
			<path class="st1" d="M83.4,305.4c0,0,0.1,0.1,0.2,0c0.1,0,0.1-0.2,0-0.3C83.5,305.1,83.4,305.3,83.4,305.4z"/>
			<path class="st1" d="M83.8,304.7c0-0.1-0.2,0-0.4,0.2c-0.1,0.2-0.1,0.2,0,0.2c0,0,0.1,0,0.3,0C83.9,305,83.8,304.8,83.8,304.7z"
				/>
			<path class="st1" d="M84.2,304.9c0.1-0.1,0.2-0.1,0.2-0.2c0.1-0.1,0-0.2-0.1-0.2c-0.1-0.1-0.3,0.2-0.3,0.3
				C84.1,304.8,84.1,305,84.2,304.9z"/>
			<path class="st1" d="M86.6,304.4c-0.1,0-0.2,0.2-0.2,0.3c0,0,0.1,0,0.2-0.1C86.7,304.5,86.6,304.4,86.6,304.4z"/>
			<path class="st1" d="M89,307.9c-0.1,0-0.2,0.2-0.2,0.3c0,0,0.1,0.1,0.2-0.1C89.2,308,89.1,307.9,89,307.9z"/>
			<path class="st1" d="M112,324.6c-0.1,0-0.1,0.1,0,0.2c0,0,0.1-0.1,0.2-0.1C112.2,324.6,112.1,324.6,112,324.6z"/>
			<path class="st1" d="M113.1,324.1c-0.1,0-0.5,0.2-0.3,0.4c0,0,0,0.1,0.1,0.2c0.1,0.1,0.2,0,0.3,0c0.2-0.1,0.1-0.1,0.1-0.2
				C113.3,324.4,113.2,324.2,113.1,324.1z"/>
			<path class="st1" d="M136.9,324.2c0-0.1-0.2-0.7-0.2-0.9c-0.1-0.2,0-0.7,0-0.9s-0.1-0.3-0.2-0.4c-0.1-0.2-0.2-0.2-0.3-0.5
				c-0.1-0.2-0.2,0-0.3-0.1c-0.1-0.1-0.2-0.5-0.2-0.6c0-0.2-0.2-0.4-0.3-0.7c-0.1-0.2-0.1,0-0.2,0.1c-0.1,0.1-0.1-0.2-0.1-0.5
				c0-0.2,0.1-0.5,0.1-0.7s0-0.3-0.1-0.5c-0.1-0.1,0-0.4-0.1-0.6c0-0.2-0.2-0.5-0.1-0.6c0.1-0.1,0.1,0.2,0.2,0.3
				c0.1,0.1,0.2-0.1,0.2-0.1c0,0.1,0.2,0.9,0.5,1c0.3,0.1,0.3,0,0.4,0.2s0,0.9,0.1,1c0.1,0.2,0.1-0.1,0.2-0.6c0.1-0.4,0.1-0.6,0-0.9
				s0.1-0.4,0.2-0.7s0-1.1-0.1-1.6s-0.5-1.3-0.9-2s-0.5-0.8-0.6-1.1c-0.2-0.3-0.2-0.6-0.3-0.9c-0.1-0.3,0-0.8,0-1.1
				c0-0.2,0.2-0.3,0.3,0c0.1,0.2,0.2,0.8,0.2,1.1c0,0.4,0.2,0.6,0.4,0.6c0.2,0,0-0.4,0-0.7s-0.4-1-0.5-1.3c-0.1-0.2,0.1-0.2,0.1-0.5
				s0-0.5-0.1-0.8c-0.1-0.2,0.1-0.1,0.1-0.3c0-0.2-0.1-1.2-0.1-1.4c0-0.3-0.5-1.4-0.7-1.8c-0.3-0.5-0.9-2-1-2.4
				c-0.1-0.4-0.4-1-0.5-1.1c-0.1-0.1-0.8-0.7-1-0.9c-0.2-0.2-0.6-0.9-0.7-1.5c-0.2-0.6-0.2-0.3-0.6-0.4c-0.4-0.1-0.1,0.2-0.3-0.1
				c-0.2-0.2,0-0.6,0.2-0.7c0.2-0.1,0.2-0.1,0.2-0.5c0-0.1,0.1-0.2,0.1-0.3c-5.1-6.5-12.1-11-19.8-13.1c-0.2,0-0.9-0.1-1.3-0.1
				c-0.5-0.1-0.1,0.2,0.2,0.4c0.3,0.2,1.6,0.2,2,0.4s0.2,0.3-0.1,0.3c-0.3,0-0.6,0-0.7,0.3c-0.1,0.2-0.1,0.4-0.3,0.5
				c-0.2,0.1-1-0.6-1.2-0.7c-0.2-0.1-0.6,0.2-1,0.2s0.3,0.3,0,0.4c-0.2,0.1-0.1-0.1-0.2-0.2c-0.2,0-0.3,0-0.5,0s-0.2,0.1-0.2,0.3
				c-0.1,0.1,0.1,0.1,0.3,0.1c0.2,0.1,0,0.2-0.2,0.4c-0.2,0.1,0.1,0.2,0.3,0.3c0.2,0.1,0.5,0,0.6,0c0.1,0.1-0.2,0.1-0.4,0.2
				c-0.2,0.1,0.2,0.1,0.3,0.3c0.1,0.1,0.3,0.1,0.5,0.1c0.3,0.1,0.7,0.3,0.7,0.5c0,0.1-0.7-0.3-0.9-0.4c-0.2-0.1-0.4,0-0.5,0
				s-0.1-0.2-0.4-0.2s0,0.1,0.1,0.3c0.1,0.1,0.4,0.2,0.5,0.4c0,0.2-0.3,0-0.4-0.1c-0.1-0.1-0.3-0.3-0.4-0.4c-0.1-0.1-0.2-0.1-0.2,0
				c0,0.1,0.3,0.3,0.3,0.4c0.1,0.1,0.3,0.2,0.4,0.4c0.2,0.2,0.5,0.3,0.7,0.4c0.2,0.1,0.4,0,0.7,0c0.3,0,0.4,0.2,0.6,0.3
				c0.2,0.1,0.3,0.1,0.3,0.3c0,0.2-0.6-0.2-0.7-0.3s-0.4-0.1-0.6-0.1s0.3,0.4,0.3,0.7c0,0.3-0.3,0.1-0.3-0.2s-0.4-0.5-0.6-0.7
				c-0.2-0.1-0.3-0.2-0.4-0.3c-0.1-0.2-0.3-0.3-0.6-0.4c-0.3-0.1-0.3-0.3-0.4-0.4c-0.1,0-0.2,0-0.2-0.1c-0.1-0.1-0.3-0.2-0.5-0.1
				c-0.2,0.1,0.2,0.1,0.2,0.3s0,0.3,0,0.4c0,0.1,0,0.1,0.1,0.3c0.1,0.1,0.3,0.1,0.5,0.3c0.2,0.1,0.5,0.1,0.5,0.3
				c0,0.1,0,0.1-0.4,0.1c-0.3-0.1-0.3,0-0.6-0.1c-0.3,0-0.7,0-1,0s-0.2,0.1-0.1,0.2c0.1,0.1,0.2,0.2,0.1,0.3c0,0.2-0.3-0.1-0.4-0.1
				s-0.4,0.1-0.6,0.1s-0.2-0.1-0.3-0.1c-0.1-0.1-0.3,0.1-0.5,0.2c-0.1,0.1-0.3,0.1-0.5,0.2c-0.2,0.1-0.1-0.2-0.1-0.3
				c0-0.1-0.1,0.1-0.3,0c-0.2,0-0.2-0.1-0.3,0c0,0.1,0.2,0.1,0.2,0.2c0,0.1,0.1,0.1,0.2,0.4c0.1,0.2-0.1,0.2-0.3,0.2
				c-0.2,0-0.1-0.1-0.1-0.3c0-0.3-0.2-0.3-0.4-0.3c-0.2,0-0.2,0-0.3,0c-0.1,0-0.3-0.1-0.3,0c0,0.1,0.2,0.1,0.3,0.2
				c0.1,0.1,0,0.2,0.1,0.3c0.1,0.1,0.2,0.2,0.2,0.4c0,0.1-0.3,0.1-0.4,0c-0.1-0.1-0.2,0-0.3,0c-0.1,0-0.2,0-0.4,0
				c-0.2,0,0,0.1-0.2,0.3c-0.2,0.1-0.2,0.1-0.4,0.2c-0.2,0-0.1-0.1-0.4,0c-0.3,0.1-0.2,0.1-0.1,0.3s0.2,0.3,0.3,0.4
				c0,0.1-0.4,0-0.6-0.2c-0.1-0.2,0-0.4,0-0.7c0-0.3-0.2-0.3-0.3-0.5c-0.1-0.1,0.3,0,0.4,0.2c0.2,0.1,0.3,0.1,0.6,0.1
				c0.3,0.1,0.4-0.1,0.5-0.2c0.1-0.1-0.1-0.3-0.3-0.4c-0.2-0.1-0.1-0.1-0.2-0.2c-0.1-0.2-0.2-0.2-0.4-0.3c-0.2,0-0.4-0.1-0.7-0.1
				c-0.2,0-0.2,0.1-0.3,0c-0.1-0.1,0-0.2-0.1-0.2s-0.3,0-0.4,0.1c-0.1,0.1-0.2,0-0.2,0c0.1-0.1,0.3-0.1,0.2-0.3
				c0-0.1-0.2-0.1-0.4-0.1c-0.2,0-0.1,0-0.3-0.1c-0.1,0-0.1,0.1-0.3,0.2c-0.1,0.1-0.3,0-0.3,0c-0.1,0-0.1-0.2-0.3-0.1
				c-0.2,0-0.4,0-0.5,0.1c-0.1,0.1,0.2,0.1,0.1,0.2c-0.1,0.1-0.2,0-0.2,0c-0.1,0-0.3,0-0.4,0.1c-0.1,0.1-0.5,0.1-0.6,0.1
				c-0.1,0.1-0.4,0-0.4,0.1c-0.1,0,0.2,0.2,0.1,0.2c-0.1,0.1-0.2,0.2-0.4,0.2c-0.1,0,0-0.3,0.1-0.3c0-0.1-0.1,0-0.2,0.1
				c-0.1,0.1-0.3,0.2-0.4,0.2c-0.1,0.1,0.1,0.3-0.1,0.4c-0.1,0.1-0.1-0.2-0.3-0.1c-0.2,0.1-0.2,0.3-0.3,0.3c-0.1,0-0.2,0-0.4,0.1
				c-0.2,0.1,0.2,0.1,0.2,0.2c0,0.1-0.1,0.1-0.3,0.1c-0.1,0.1-0.2,0.1-0.3,0.2c-0.1,0.1-0.1,0.1-0.3,0.2c-0.2,0.1-0.1,0.2-0.2,0.4
				s-0.2,0.1-0.3,0.2c-0.1,0.1-0.3,0.1-0.4,0.2c-0.1,0-0.2-0.1-0.4,0c-0.2,0.1-0.4,0.1-0.7,0.3c-0.2,0.2-0.1,0.3,0.1,0.3
				c0.1,0,0.1,0.1,0.1,0.2c-0.1,0.1-0.3-0.1-0.4-0.1s-0.2,0.1-0.2,0.2c-0.1,0.1,0.1,0.3,0,0.4c0,0.2-0.1,0.1-0.2,0
				c-0.1,0-0.3,0.2-0.5,0.3s0,0.1,0.1,0.4c0,0.3-0.3,0.3-0.3,0.4c0.1,0.1,0.4,0.1,0.6,0.1c0.1,0,0.2-0.1,0.4-0.2
				c0.2-0.1,0.2-0.1,0.3-0.2c0-0.1,0.1-0.3,0.2-0.3c0.1-0.1,0.3-0.1,0.4-0.2c0.1-0.1,0.2-0.2,0.2,0s-0.1,0.4-0.2,0.7s0,0.3,0,0.5
				c0,0.3-0.1,0.6-0.1,0.8c0,0.2,0.3,0,0.5-0.1c0.2-0.1,0.5-0.3,0.7-0.5c0.2-0.1,0.3-0.1,0.3-0.3c0-0.2,0.1-0.2,0.3-0.3
				c0.1-0.1,0.1-0.1,0.1-0.3c0.1-0.2,0.3-0.4,0.4-0.4s0.4-0.2,0.5-0.3s0-0.2-0.1-0.3s0-0.2,0-0.4c0-0.1,0.2-0.6,0.2-0.6
				s0.4-0.2,0.5-0.3s0.4-0.1,0.5-0.1c0.1-0.1,0-0.1,0.3-0.2c0.3-0.1,0.2-0.1,0.2-0.2c0-0.1,0.1-0.2,0.2-0.2c0.1-0.1,0.2-0.1,0.2-0.2
				c0.1-0.1,0.1,0,0.2,0s0.4,0.1,0.5,0.2c0,0.1-0.2,0.1-0.3,0.2c0,0.1-0.1,0-0.3,0.1c-0.2,0-0.2,0.1-0.3,0.2
				c-0.1,0.1-0.4,0.3-0.6,0.4c-0.2,0.2-0.2,0.2-0.1,0.2c0,0.1,0,0.2,0,0.4c0,0.2-0.2,0.3-0.3,0.4c-0.1,0.1,0,0.3,0.1,0.5
				c0.1,0.1,0.3,0.1,0.5,0c0.2-0.1,0.5-0.2,0.8-0.3c0.3-0.1,0.9,0,1,0.1c0.1,0,0.1,0.1,0,0.2c0,0.1-0.6,0.2-0.7,0.2
				c-0.2,0-0.6-0.1-0.8-0.1c-0.1,0.1-0.3,0-0.5,0.1c-0.2,0.1-0.2,0.2-0.3,0.3c0,0.1,0.1,0.2,0.1,0.2s0.2,0,0.3,0c0.1,0,0.1,0,0,0.1
				c0,0.1-0.1,0.3-0.3,0.4c-0.2,0.2-0.2,0-0.3-0.1c-0.1,0-0.2-0.1-0.2-0.2c-0.1-0.1-0.1,0-0.2,0.1c-0.1,0.1-0.3,0.2-0.3,0.3
				c-0.1,0.1,0,0.2-0.2,0.3c-0.2,0.1-0.1,0.2-0.1,0.4c-0.1,0.1-0.3,0.2-0.4,0.3s-0.1,0.2-0.2,0.3c0,0.1-0.3,0.1-0.4,0.1
				s0.1-0.1,0.1-0.2c0.1-0.1-0.1-0.1-0.3,0c-0.1,0-0.4,0.1-0.6,0.1c-0.1,0-0.6,0.1-0.7,0.1s-0.2,0.1-0.3,0.2c-0.1,0.1,0-0.2,0-0.2
				c0-0.1-0.2-0.1-0.3-0.1c-0.1,0-0.3,0-0.4,0s-0.2,0.1-0.4,0.1c-0.1,0-0.3-0.1-0.3-0.2c-0.1-0.1-0.1-0.4-0.1-0.4
				c0-0.1-0.1,0.1-0.2,0.1c-0.1,0.1-0.3,0.2-0.4,0.3c-0.1,0.1,0.2,0.4,0.1,0.5c0,0.1-0.1,0.1-0.3,0.1c-0.2,0-0.3-0.1-0.5-0.1
				c-0.1-0.1-0.3,0.2-0.4,0.2c-0.1,0.1-0.4,0.2-0.5,0.2s-0.2,0-0.3,0c-0.1,0-0.1,0.1-0.1,0.3c-0.1,0.2-0.1,0.3-0.2,0.3
				c-0.1,0.1-0.1,0.1-0.2,0.1c-0.1-0.1-0.5,0.1-0.7,0.2c-0.2,0.1-0.5,0.3-0.6,0.4c-0.1,0.1-0.1,0.1-0.2,0.3
				c-0.1,0.2-0.2,0.1-0.5,0.1s-0.6-0.2-0.7-0.2s-0.2,0.3-0.2,0.4c-0.1,0.1-0.1,0-0.2,0s-0.1,0.1-0.2,0c-0.1-0.1-0.1-0.1-0.2-0.1
				s-0.3,0.1-0.3,0.2c0,0.1-0.2,0.2-0.3,0.3c-0.1,0.1-0.1,0.1,0.1,0.2c0.2,0.1,0.1,0.1,0.2,0.2c0.1,0.1,0.1,0,0.2,0s0.1,0,0.1,0.2
				c0.1,0.1,0.1,0,0.1,0.1c0,0.1-0.1,0.2-0.1,0.3c0,0.2,0,0.3,0,0.4c0,0.2-0.1,0.1-0.1,0.3c0.1,0.1,0.1,0.2,0,0.2
				c-0.1,0.1-0.1,0-0.1-0.1c0-0.1-0.1-0.1-0.1-0.1c-0.1,0.1-0.2,0.1-0.2,0.2c-0.1,0.1,0,0.2,0,0.2c0,0.1-0.2,0.1-0.3,0.2
				c-0.1,0.1-0.1,0.4-0.6,0.3c-0.5-0.1-0.3-0.2-0.4-0.2c-0.2,0-0.3-0.1-0.4-0.2c-0.1-0.2-0.1-0.2-0.3-0.2c-0.1,0-0.4-0.1-0.6-0.1
				c-0.2,0.1-0.2,0.1-0.3,0c-0.1-0.1-0.2,0-0.3,0.2c-0.1,0.2-0.2,0.5-0.2,0.7c0,0.3-0.4,0.9-0.7,1.4c-0.3,0.5-0.6,0.8-0.6,1.1
				s-0.1,0.4-0.2,0.6s0.1,0.1,0.3,0.2c0.2,0,0.3,0,0.4,0.1c0,0.1,0,0.6,0.1,0.7c0.1,0.2,0.2-0.1,0.3-0.2c0.1-0.1,0.2-0.1,0.4-0.1
				c0.2,0,0.3,0.2,0.6,0.2c0.3,0,0.6,0,0.8-0.1c0.2,0,0.3-0.3,0.4-0.4c0.1-0.1,0.6-0.4,0.7-0.4c0.1-0.1,0.2-0.6,0.3-0.9
				c0.1-0.2,0.3-0.3,0.5-0.4c0.2-0.1,0.6-0.2,0.7-0.2c0.2,0,0.6-0.4,0.6-0.6s0.1-0.3,0.4-0.4c0.3-0.1,0.4,0,0.7,0
				c0.3,0,0.4,0.1,0.5,0c0.1-0.1,0.3-0.1,0.5-0.1s0.5-0.2,0.6-0.2s0.2,0.1,0.3,0.1c0.1,0,0-0.2,0.1-0.3s0.1,0.1,0.2,0.3
				c0.1,0.2,0.2,0.3,0.3,0.5c0.1,0.2,0.3,0.3,0.4,0.6c0.1,0.3,0,0.3,0.2,0.4c0.2,0,0.3,0.1,0.5,0.4s0.5,0.7,0.6,0.9
				c0,0.3-0.3,0.8-0.4,0.9c-0.1,0.1,0.1,0.2,0.3,0.1c0.2-0.1,0.3-0.1,0.5-0.3c0.1-0.2,0.1-0.4,0.1-0.4c0.1-0.1,0.3-0.2,0.3-0.3
				c0-0.2-0.2-0.1-0.2-0.2c-0.1-0.1,0.2-0.4,0.3-0.4c0.1,0,0.3,0.2,0.4,0.4c0.1,0.1,0.4-0.1,0.3-0.2c0-0.1-0.2-0.4-0.4-0.5
				c-0.2-0.1-0.4-0.1-0.4-0.3c-0.1-0.2-0.2-0.4-0.3-0.5c-0.1-0.1-0.6-0.2-0.7-0.4c-0.1-0.1,0-0.7,0-0.8s-0.2-0.1-0.4-0.2
				c-0.2-0.1-0.1-0.2,0-0.3c0.1,0,0.1-0.3,0.1-0.4c-0.1-0.1,0.1-0.1,0.3,0c0.2,0.1,0.1,0.1,0,0.3c0,0.1,0.1,0.3,0.2,0.3
				s0.2-0.2,0.2-0.3c0-0.1,0.1,0,0.2,0.2c0.2,0.2,0.1,0.2,0.2,0.4c0.1,0.2-0.1,0.3-0.2,0.4c-0.1,0.2,0.1,0.1,0.3,0.1
				c0.2,0.1,0,0.1,0.3,0.2c0.3,0.1,0.4,0.2,0.5,0.2s0.4,0.2,0.6,0.3c0.2,0.2,0.1,0.3,0,0.5s0,0.5,0,0.8c0,0.4,0.1,0.1,0.3,0.4
				c0.2,0.3,0.2,0.3,0.2,0.5c0.1,0.2,0.1,0.2,0.2,0.2s0.4,0,0.4,0.1c0,0.1-0.3,0-0.5,0.1c-0.2,0.1-0.2,0.1-0.2,0.3s0.1,0.1,0.2,0.4
				s0,0.3,0.1,0.3s0.1-0.1,0.2,0.1s0.1,0.1,0.2,0c0.2-0.1,0.2,0,0.3-0.1c0-0.1,0-0.2,0.2-0.1c0.1,0.1,0.2-0.1,0.2-0.3
				c0-0.2,0-0.2-0.1-0.2s-0.2,0.3-0.4,0.2c-0.2-0.1,0.3-0.2,0.4-0.3c0.1-0.1,0.1-0.1,0.2-0.1s0.3,0,0.2-0.3
				c-0.1-0.2-0.3-0.3-0.7-0.7c-0.4-0.4,0.1-0.5,0.5-0.7s1.1-0.2,1.2-0.2s0.1,0.2-0.1,0.3c-0.1,0.1-0.2,0.3-0.1,0.4
				c0,0.1,0.2,0.1,0.3,0.1c0.1,0,0.2,0,0.3,0.3c0.1,0.3-0.2,0.4-0.3,0.4c-0.1,0-0.1,0.3-0.2,0.5c0,0.1,0.4,0,0.6,0
				c0.1,0,0.1,0.2,0.2,0.4c0.1,0.2,0.1,0.2,0.2,0.4s-0.2,0.1,0.1,0.2c0.3,0.1,0.3,0,0.6,0c0.2,0,0.8,0.2,1,0.1
				c0.2-0.1,0.3-0.3,0.5-0.3s0.4,0.3,0.6,0.4c0.2,0.1,0.6-0.1,0.7-0.2c0.1-0.1,0.2-0.1,0.5-0.1s0.4,0,0.4-0.1c0-0.1,0.2-0.2,0.2,0
				s-0.1,0.2-0.2,0.3s0,0.3,0,0.5c0.1,0.2,0,0.5,0,0.7s-0.1,0.2-0.1,0.4c0,0.2-0.1,0.1-0.2,0.3c-0.1,0.2-0.1,0.4-0.1,0.6
				c0.1,0.2-0.2,0.5-0.4,0.7c-0.2,0.2-0.3,0.5-0.5,0.4c-0.1,0-0.6-0.1-0.7-0.2c-0.1-0.1-0.4-0.4-0.6-0.4s-1.1,0.3-1.5,0.4
				c-0.4,0.1-0.9-0.1-1.2-0.3c-0.2-0.1-0.5-0.1-0.8,0c-0.2,0-0.3-0.2-0.6-0.4c-0.3-0.2-0.5,0-0.8-0.1c-0.3,0-0.2-0.3-0.3-0.5
				c-0.1-0.1-0.8-0.2-1.1-0.1c-0.3,0-0.3,0-0.3,0.2s-0.1,0.7-0.2,0.9c-0.1,0.2-0.6,0.3-0.7,0.3s-0.5-0.2-0.7-0.2
				c-0.1,0-0.4,0-0.4-0.1c-0.1-0.1-0.2-0.1-0.4-0.2c-0.2-0.1-0.3-0.4-0.3-0.6c0-0.3-0.3-0.4-0.7-0.6c-0.4-0.2-0.8,0-0.9,0.1
				c-0.1,0.1-0.5-0.1-0.8-0.5c-0.3-0.4,0.2-0.5,0.2-0.7c0-0.1,0.2-0.3,0.4-0.5c0.2-0.2,0-0.3-0.2-0.5c-0.1-0.2,0.1-0.4,0.3-0.6
				c0.2-0.2-0.2-0.2-0.3-0.2c-0.1,0,0.1-0.2,0-0.3c-0.1-0.1-0.3,0-0.3,0.1c0,0.1-0.3,0.2-0.5,0.3c-0.2,0.1-0.3,0.2-0.5,0.1
				c-0.1-0.1-0.1-0.2-0.4-0.3c-0.3-0.1-0.6,0.1-0.7,0.2c-0.2,0.1-0.2,0-0.3-0.1c-0.1-0.1-0.2-0.2-0.6-0.2s-0.9,0-1.2,0.1
				c-0.4,0.1-1.1,0.3-1.4,0.5c-0.3,0.1-0.7,0-1.1-0.1c-0.4-0.1-0.5-0.3-0.6-0.5s-0.1-0.1-0.2,0.1c-0.2,0.2-0.2,0.2-0.3,0.4
				c-0.2,0.2-0.3,0.3-0.5,0.4c-0.2,0.1-0.3,0.2-0.4,0.3s-0.4,0.2-0.6,0.3s-0.1,0.4-0.3,0.6c-0.2,0.2-0.3,0.4-0.4,0.7s-0.1,0.3,0,0.5
				s-0.1,0.2-0.1,0.2c-0.1,0-0.2,0-0.3,0.3c-0.2,0.2-0.3,0.2-0.5,0.2s-0.1,0.1-0.3,0.3c-0.2,0.1-0.4,0.1-0.6,0.2
				c0,0-0.4,0.3-0.7,0.6c-0.2,0.3-0.7,0.8-0.8,1.1c-0.2,0.3-0.4,0.7-0.5,0.8c-0.1,0.1-0.3,0.5-0.5,0.8s-0.3,0.3-0.4,0.5
				c0,0.2,0.2,0.7,0.2,0.8c0,0.1-0.1,0.5-0.2,0.7c0,0.2-0.1,0.4-0.2,0.6s-0.2,0.4-0.2,0.6s-0.1,0.4-0.2,0.5
				c-0.1,0.1-0.1,0.5-0.2,0.6c-0.1,0.2-0.3,0-0.4,0.2s0,0.4,0,0.6s-0.1,0.6-0.1,0.7c0,0.1,0.1,0.4,0.1,0.8c0,0.3,0.2,0.5,0.3,0.6
				c0.1,0.1,0.1,0.4,0.1,0.6s0.1,0.4,0.1,0.6s0.3,0.2,0.4,0.5c0.1,0.2,0,0.6,0,0.8s0.1,0.6,0.1,0.9s0.4,0.5,0.7,0.8
				c0.3,0.4,0.5,0.7,0.9,1.3c0.3,0.6,0.6,0.5,0.9,0.6c0.3,0.1,0.3-0.2,0.6-0.3c0.2-0.1,0.1,0.1,0.4,0.2c0.2,0.1,0.4,0.1,0.6,0.1
				c0.1,0,0.2-0.1,0.3-0.1c0.2,0,0.2,0.2,0.3,0.4c0.1,0.2,0.3,0.1,0.7,0.2c0.4,0.1,0.5,0,0.8-0.1c0.2-0.1,0.9-0.4,1-0.4
				s0.3-0.1,0.5-0.1s0.2,0.1,0.2,0.3c0.1,0.2,0.2,0,0.4,0c0.2,0,0.2,0,0.4,0.2c0.2,0.2,0.3,0.6,0.4,0.9s0.2,0.4,0.4,0.5
				c0.2,0.1,0.5-0.1,0.8-0.1s0.5-0.1,0.7,0.1c0.2,0.1,0.2,0.7,0.3,0.8c0,0.1,0.4,0,0.4,0.2c0.1,0.2-0.1,0.5-0.2,0.6
				c-0.1,0.2,0,0.5,0,0.7s0,0.5,0,0.7s0,0.3-0.3,0.4c-0.2,0.1-0.2,0.2-0.1,0.3c0.1,0.2,0.3,0.3,0.3,0.5c0.1,0.2-0.1,0.2-0.1,0.3
				c0.1,0.1,0.1,0.1,0.3,0.1c0.2,0,0.3,0.2,0.2,0.4c-0.1,0.2,0.2,0.3,0.3,0.5c0.1,0.2,0.3,0.2,0.6,0.3c0.3,0.1,0.5,0.3,0.6,0.6
				c0.1,0.3,0,0.3,0.1,0.5s0,0.4,0,0.5c0,0.1,0.2,0.2,0.3,0.4c0.1,0.2,0.1,0.2,0.1,0.4s0.1,0.1,0.2,0.2c0.1,0.1,0.2,0.4,0.1,0.5
				c-0.1,0.1-0.1,0.4,0,0.5c0.1,0.1,0.2,0.1,0.3,0.3c0.1,0.2,0.3,1,0.4,1.1c0.1,0.1,0,0.4-0.1,0.5c-0.1,0.1-0.4,0.3-0.5,0.6
				c-0.1,0.3,0,0.4,0.1,0.6s-0.1,0.2-0.2,0.4c-0.1,0.3-0.1,0.3-0.1,0.5c0,0.3,0,0.3,0.1,0.8c0.2,0.5,0.4,0.4,0.6,0.6
				s0.1,0.3,0.2,0.5c0.1,0.1,0.5,0.5,0.9,1s0.3,0.5,0.3,0.6c0,0.1,0,0.2,0.2,0.5s0.5,0.6,0.5,1c-0.1,0.4,0.1,0.3,0.3,0.6
				c0.1,0.3,0.7,0.7,1,1s0.5,0.4,0.9,1c0.4,0.5,0.7,0.7,0.8,0.8c0.1,0.1,0.1,0.2-0.1,0.2c-0.1,0-0.2,0.1-0.1,0.2
				c0.1,0.1,0.2,0.2,0.3,0.5c0.1,0.2,0.2,0.1,0.5,0.2c0.2,0.1,0.4,0.2,0.6,0.2s0.7-0.1,1-0.1s0.5,0.2,0.9,0.2s0.3,0,0.8,0
				c0.5,0.1,1.6-0.2,1.8-0.4c0.2-0.2,0.6-0.5,1-0.7s1-0.5,1.1-0.6c0.2-0.1,0.1-0.2,0.1-0.5c0-0.2,0.2-0.3,0.3-0.6
				c0.1-0.2,0.2-0.3,0.1-0.6s0.2-0.2,0.4-0.4c0.2-0.2,1-0.3,1.2-0.4c0.2-0.1,0.2-0.1,0.1-0.3c-0.1-0.2,0.1-0.6,0.1-0.9
				s0-0.3-0.1-0.3s-0.2,0-0.3-0.3c-0.1-0.3-0.2-0.5-0.2-0.6c0-0.2,0.7-0.3,1-0.4c0.2-0.1,0.2-0.2,0.5-0.4c0.2-0.2,0.4-0.4,0.5-0.4
				c0.1-0.1,0.3-0.1,0.6-0.3c0.3-0.2,0.4-0.3,0.5-0.3c0.1-0.1,0.1,0.1,0.3,0c0.2-0.1,0.5-0.3,0.8-0.5s0.2-0.5,0-0.7
				s-0.2-0.3-0.2-0.6s0-0.3-0.1-0.3s-0.1-0.1,0-0.3c0.1-0.2,0-0.3,0-0.5c-0.1-0.1-0.1-0.3-0.1-0.5s-0.2-0.4-0.3-0.5
				c-0.1-0.1-0.2-0.3-0.3-0.5c0-0.2-0.3-0.1-0.4-0.3c-0.1-0.2,0-0.7,0.1-0.9s-0.1-0.4-0.2-0.5c-0.2-0.1-0.1-0.5,0.1-0.8
				s0.4-0.4,0.6-0.6c0.2-0.1,0.5-0.6,0.7-0.7c0.2-0.1,0.3-0.3,0.3-0.6c0-0.3,0.2-0.2,0.4-0.3c0.2-0.1,0.2-0.2,0.2-0.4
				c0-0.2,0.1-0.2,0.3-0.3c0.2-0.1,0.5-0.4,0.7-0.7c0.1-0.2,0.5-0.4,0.9-0.7c0.4-0.2,0.5-0.5,0.5-0.6c0-0.1,0.2-0.4,0.5-0.4
				c0.4-0.1,0.8-0.4,0.9-0.6c0.2-0.3,0.4-0.7,0.6-1.1c0.2-0.4,0.6-0.8,0.5-1.2s0.2-0.6,0.4-0.9c0.3-0.2,0.1-0.4,0.2-0.7
				c0.1-0.3,0.3-0.2,0.4-0.4c0.1-0.2,0-0.5,0-0.6c0-0.1,0.4-0.3,0.5-0.4c0.1-0.1,0-0.3-0.2-0.3c-0.1-0.1-0.1-0.3-0.2-0.5
				s-0.3-0.2-0.5-0.1c-0.2,0.1-0.4,0.2-0.5,0.3c-0.2,0.1-0.3,0.1-0.4,0.2c-0.1,0.1-0.5,0.1-1.2,0.2c-0.6,0.1-1.6,0.1-2,0.2
				c-0.5,0.1-0.6-0.1-0.8-0.3c-0.2-0.2-0.1-0.5-0.1-0.8s-0.1-0.4-0.4-0.4c-0.2,0-0.3-0.2-0.5-0.6c-0.2-0.4-0.4-0.5-0.7-0.6
				c-0.3-0.1-0.8-0.1-1-0.2c-0.2-0.1-0.1-0.2-0.2-0.4s-0.2-0.7-0.3-1.1c-0.1-0.3-0.4-0.6-0.7-0.7c-0.3-0.1-0.3-0.5-0.3-0.9
				c0-0.4,0.1-0.7,0-0.8c0-0.1-0.1-0.3,0-0.4c0.1-0.1-0.1-0.2-0.3-0.3c-0.1,0-0.1-0.4-0.1-0.6c-0.1-0.2-0.3-0.3-0.5-0.4
				c-0.2-0.1-0.4-0.1-0.5-0.3c-0.1-0.1,0.2-0.3,0.3-0.3c0.1,0-0.3-0.2-0.4-0.4s-0.2-0.2-0.3-0.3c-0.1-0.1-0.1-0.2-0.1-0.3
				c0-0.2,0-0.2-0.1-0.4c-0.1-0.2,0-0.3-0.1-0.5s-0.2-0.3-0.2-0.4c-0.1-0.1-0.1-0.3-0.2-0.5c-0.1-0.3-0.2-0.3-0.3-0.4
				c-0.1-0.1-0.3-0.5-0.4-0.7s-0.1-0.3,0.1-0.1c0.1,0.1,0.2,0.1,0.4,0.2c0.3,0.1,0.1,0.2,0.2,0.5s0.3,0.2,0.4,0.1
				c0.1-0.1,0-0.6,0.1-0.8c0.1-0.2,0.3-0.2,0.2,0c0,0.2-0.2,0.3-0.1,0.6s0.4,0.4,0.7,0.8c0.3,0.3,0.7,0.6,0.9,1.1
				c0.2,0.5,0,0.7,0.1,0.9c0.1,0.2,0.4,0.1,0.7,0.2c0.3,0.1,0.2,0.2,0.2,0.4c0.1,0.2,0.2,0.2,0.3,0.4c0.1,0.2-0.2,0.8-0.1,1.1
				c0.1,0.4,0.4,0.6,0.8,0.9c0.3,0.2,0.8,0.9,0.9,1.1s0.3,0.5,0.5,0.8c0.1,0.4,0.6,0.8,0.7,1.1c0.1,0.2-0.2,0.1-0.3,0.1
				c-0.1,0-0.2,0.4-0.1,0.6s0.3,0.4,0.5,0.6c0.2,0.3,0,0.6,0.2,0.8s0.4,0.1,0.7,0c0.3-0.2,0.5-0.4,0.7-0.5c0.2-0.1,0.5,0,0.8-0.1
				c0.3-0.1,0.6-0.3,0.9-0.4c0.3,0,0.4-0.2,0.6-0.4s0.5-0.3,0.9-0.5c0.3-0.2,0.8-0.2,0.9-0.3c0.2-0.1,0.3-0.2,0.4-0.5
				s0.2-0.2,0.4-0.3c0.2-0.1,0.2-0.1,0.3-0.1c0.1,0,0.2-0.1,0.4-0.3c0.2-0.2,0.6-0.1,0.8-0.3c0.2-0.1,0.1-0.3,0.5-0.4
				c0.4-0.1,0.3-0.1,0.2-0.4c0-0.2,0-0.3,0.1-0.5c0.2-0.2,0.4,0.1,0.6,0.1s0.1-0.1,0.1-0.4s-0.2-0.6-0.3-0.8
				c-0.1-0.2-0.1-0.3,0.1-0.4c0.2-0.1,0.2,0.1,0.4,0.1c0.2,0,0.1-0.4,0-0.6c-0.1-0.3,0.2-0.4,0.3-0.6c0.1-0.3,0-0.3-0.2-0.5
				c-0.2-0.3-0.4-0.6-0.5-0.6s-1.2-0.2-1.2-0.3c-0.1-0.1-0.2-0.6-0.2-1.1c-0.1-0.5-0.4-0.3-0.6-0.2s-0.2,0.7-0.6,1.1
				c-0.3,0.4-0.6,0.1-0.9,0.2c-0.2,0.1-0.7,0.2-0.9,0c-0.2-0.2,0.1-0.3,0.1-0.6s-0.2-0.4-0.4-0.2c-0.2,0.1-0.3,0.4-0.4,0.4
				s-0.1-0.4,0.1-0.5c0.2-0.1,0.1-0.2,0-0.4c-0.1-0.2-0.2,0-0.4-0.1c-0.2-0.1,0.1-0.1,0-0.3s-0.2-0.2-0.4-0.2
				c-0.2,0-0.1-0.1-0.3-0.4c-0.1-0.3-0.1-0.2-0.4-0.4s-0.3-0.3-0.4-0.6c-0.1-0.2-0.1-0.3,0-0.2c0.1,0,0.3-0.1,0.3-0.2
				c0-0.1,0.1-0.4,0.3-0.3c0.2,0.1,0,0.3,0.1,0.4c0.1,0.1,0.4-0.1,0.6-0.1c0.2,0.1,0.2,0.4,0.3,0.7c0.2,0.3,0.2,0.7,0.4,0.8
				c0.1,0.2,0.3,0.1,0.6,0.2c0.3,0.1,0.4,0.4,0.6,0.4c0.3,0.1,0.7,0,1,0s0.4-0.4,0.7-0.4c0.2,0,0.5,0.2,0.6,0.5s0.5,0.3,0.8,0.4
				c0.3,0.1,0.3,0,0.7,0.1c0.3,0.1,0.9,0.2,1.2,0.1c0.4,0,0.3-0.2,0.5-0.3s0.5-0.1,0.8-0.1s0.4,0,0.7-0.1c0.3-0.1,0.7-0.3,0.9-0.2
				c0.2,0,0.3,0.3,0.3,0.4c0.1,0.1,0.2,0.1,0.2,0.1c0,0.1,0.3,0.4,0.5,0.5c0.2,0.1,0.3,0.1,0.5,0.2c0.2,0.1,0.1,0.1,0.3,0.2
				c0.2,0.1,0.5-0.2,0.6-0.1c0.1,0-0.1,0.2-0.2,0.4c-0.2,0.2-0.1,0.3,0,0.4c0.1,0.1,0.3,0.1,0.5,0.2c0.1,0.1,0.1,0.2,0.3,0.3
				c0.2,0.1,0.2-0.2,0.3-0.3c0.1-0.2,0.2-0.1,0.3-0.3c0.1-0.2-0.1-0.4-0.2-0.5c-0.1-0.1,0.1-0.1,0.2-0.1s0.1,0.3,0.1,0.5
				c0.1,0.1-0.1,0.3-0.1,0.4c0,0.1,0.1,0.3,0.2,0.5s0.2,0.8,0.3,1.3c0.1,0.5,0.3,0.7,0.4,0.9c0.1,0.2,0.1,0.4,0.2,0.6
				s0.3,0.3,0.4,0.6s0.4,0.5,0.5,0.8s0.2,0.5,0.3,0.8c0.1,0.2,0.4,0.7,0.6,1s0.5,0.7,0.5,0.9s0.3,0.4,0.4,0.7c0.1,0.3,0.3,0.1,0.5,0
				c0.1-0.1,0-0.3,0.2-0.5c0.1-0.3,0.1-0.1,0.2-0.2c0.1-0.1,0.2-0.3,0.2-0.4c-0.1-0.2-0.1-0.4,0.1-0.5c0.1-0.2,0.2-0.1,0.2-0.3
				s-0.1-0.4-0.2-0.6s0.2-0.6,0.2-0.8c0-0.1,0-0.4,0-0.6s0-0.3-0.1-0.5c-0.1-0.1-0.1-0.2-0.1-0.4c0-0.3-0.1-0.5-0.1-0.6
				c0-0.1,0.2-0.3,0.4-0.6c0.1-0.3,0.1-0.5,0.1-0.7c0-0.1,0.2-0.2,0.3-0.2c0.1-0.1,0.1-0.2,0.1-0.4s0.2-0.5,0.3-0.6
				c0-0.2,0.1-0.3,0.1-0.5c0.1-0.2,0.2-0.3,0.1-0.4c-0.1-0.1-0.1-0.2,0-0.2s0.2,0.1,0.2-0.1s0.1-0.2,0.1-0.4s0-0.4,0-0.7
				c0-0.3,0.2-0.3,0.3-0.3c0.1,0,0-0.1,0.2-0.3c0.1-0.2,0.2-0.1,0.2-0.2c0-0.1,0.3-0.3,0.5-0.4c0.1-0.1,0.1,0.1,0.2,0.3
				s0.1-0.1,0.3,0c0.2,0,0.3,0.5,0.4,0.6c0.1,0.1,0.1-0.1,0.2-0.1c0.1,0.1,0.1,0.3,0.2,0.4c0.1,0.1,0.2,0.2,0.3,0.4
				c0.1,0.2,0.1,0.1,0.2,0.1s0.2,0.3,0.3,0.5c0.1,0.2,0.1,1,0.2,1.3s0.2,0.4,0.4,0.3c0.2-0.1,0.1-0.4,0.1-0.6s0.2-0.3,0.1-0.4
				c0-0.1,0.1-0.3,0.2-0.2c0.1,0.2,0.3,1,0.4,1.1c0.1,0.2,0.4,0.4,0.4,0.8c0,0.3,0.1,0.7,0.3,0.8c0.2,0.2,0.2,0.4,0.3,0.9
				c0.1,0.5,0,0.8-0.1,0.8c-0.1,0.1-0.2,0.3-0.1,0.5s0.4,0.5,0.5,0.8s0.3,0.3,0.4,0.6c0.2,0.3,0.1,0.8,0.2,1.1
				c0.1,0.2,0.4,1.1,0.7,1.4C137,324.9,136.9,324.3,136.9,324.2z M96.4,305.2c-0.2,0.1-0.5,0.1-0.8,0.1c-0.2,0-0.4,0-0.4,0
				c-0.1,0,0-0.1,0.3-0.2c0.2,0,0.3,0,0.5-0.2s0.3-0.1,0.4-0.1c0.1-0.1,0.2-0.1,0.1,0c0,0.1-0.1,0.1,0,0.2
				C96.7,305.1,96.7,305.1,96.4,305.2z M103.3,304.5c-0.1,0.2-0.4,0.4-0.6,0.3c-0.2,0-0.2-0.1-0.4,0c-0.2,0.1-0.4,0.2-0.7,0.1
				c-0.3-0.1-0.5-0.2-0.8-0.3c-0.3-0.1-0.9-0.2-1.1-0.2s-0.7-0.1-0.9,0c-0.2,0-0.3,0-0.4,0.2s-0.4,0.2-0.7,0.2
				c-0.3,0-0.6,0.1-0.8,0.1c-0.1,0-0.2,0-0.2-0.1c0-0.2,0-0.2-0.1-0.2s-0.1-0.1-0.1-0.1c0-0.2,0.2-0.4,0.1-0.6
				c0-0.1,0.3-0.6,0.3-0.7c0.1-0.2,0.4-0.6,0.5-0.7c0.1-0.1,0.3-0.2,0.4-0.3c0.2-0.1,0.2-0.2,0.3-0.3c0.1-0.2,0.3-0.3,0.4-0.3
				c0.1-0.1,0.5,0.1,0.5,0.2c0.1,0.1,0.1,0.2,0,0.3s-0.3,0.2-0.1,0.3c0.1,0.1,0.3,0,0.4,0s0.1,0.2,0.1,0.3s0,0.3,0.2,0.2
				c0.2-0.1,0.3-0.2,0.5-0.2s0.6,0.1,0.6-0.1c0-0.1,0-0.3-0.1-0.3s-0.4,0.1-0.4,0c-0.1-0.1-0.2-0.1-0.3-0.1c-0.2,0-0.2-0.3,0-0.4
				c0.1-0.1,0.4,0.1,0.6,0c0.2-0.1,0.3-0.2,0.4-0.2s0.3,0,0.4-0.2c0.2-0.1,0.4-0.2,0.5-0.1c0.1,0.1,0.2,0.2,0.1,0.2
				s-0.3,0.1-0.4,0.2c-0.1,0.1-0.2,0.1-0.1,0.2c0.1,0.1,0.1,0.2,0.1,0.2c-0.1,0,0,0.2,0,0.2s-0.1,0.1-0.2,0c-0.1,0-0.2-0.1-0.2,0
				c-0.1,0.1-0.2,0.2,0,0.3c0.2,0,0.6,0.1,0.8,0.3c0.2,0.2,0.3,0.4,0.5,0.6c0.1,0.2,0.5,0.1,0.8,0.4
				C103.2,303.9,103.3,304.3,103.3,304.5z M110.6,307.4c0,0.1-0.2,0.2-0.3,0.1c-0.1-0.1-0.3-0.3-0.4-0.2c-0.1,0.1-0.4,0.2-0.5,0.3
				c-0.1,0.2-0.2,0.2-0.4,0.1c-0.2-0.1-0.5-0.4-0.8-0.5c-0.3-0.1-0.4,0.1-0.5-0.1c-0.2-0.2-0.2-0.5-0.2-0.7c-0.1-0.2,0-0.4,0.1-0.4
				s0.2,0.1,0.3,0.1c0.1-0.1,0-0.2,0.1-0.3s0.2-0.1,0.2-0.2c0-0.1-0.2-0.2-0.2-0.3c0.1-0.1,0.2,0,0.2-0.2c-0.1-0.1-0.1-0.3-0.3-0.3
				c-0.2,0-0.1,0-0.3-0.1c-0.2-0.1-0.1-0.2-0.2-0.2c-0.2,0-0.2,0.1-0.3,0c-0.1-0.1,0-0.2-0.2-0.4c-0.2-0.1-0.3-0.1-0.3-0.3
				s-0.1-0.4,0-0.5c0.1-0.1,0.1-0.2-0.1-0.2c-0.1,0-0.2,0.1-0.2,0.1h-0.1c-0.1-0.1,0-0.2,0-0.3c0-0.1-0.2-0.1-0.3-0.3
				c-0.1-0.2,0-0.5,0.1-0.6c0.1-0.1,0.5-0.4,0.6-0.6s0.3-0.3,0.5-0.4c0.2-0.1,0.5-0.3,0.6-0.3s0.4,0.1,0.5,0.1s0.3,0.1,0.4,0.3
				c0,0.2-0.2,0.3-0.1,0.5s0.2,0.2,0.2,0.2c0.1,0.1,0.1,0.2,0,0.2s-0.1,0-0.2-0.1c-0.1-0.1-0.2-0.2-0.2-0.1c0,0,0,0.2-0.1,0.2
				s-0.4,0-0.3,0c0.1,0.1,0.2,0.1,0.2,0.2c0,0.1-0.1,0.2-0.2,0.2s-0.3,0.2,0,0.4c0.3,0.2,0.4,0.2,0.6,0.5s0.1,0.4,0.3,0.3
				c0.2,0,0.5-0.1,0.4,0c-0.1,0.1-0.3,0.1-0.3,0.2c0,0.1-0.1,0.3,0.1,0.6c0.1,0.3,0.3,0.2,0.3,0.2c0.1,0,0.1-0.1,0.1-0.2
				c-0.1-0.1-0.2-0.4-0.1-0.4c0.2,0,0.1,0.2,0.2,0.3c0.1,0.1,0.3,0.3,0.3,0.4c0,0.1,0,0.2-0.2,0.1c-0.2,0-0.4-0.1-0.4,0.1
				s0,0.3,0.1,0.4c0.1,0.1,0.4,0.1,0.3,0.2c-0.1,0.1-0.3,0-0.2,0.2c0.1,0.2,0.2,0.1,0.4,0.3c0.2,0.2,0.1,0.3,0.2,0.6
				c0.1,0.3,0.2,0.5,0.2,0.5C110.4,307.1,110.6,307.3,110.6,307.4z"/>
			<path class="st1" d="M96.6,305c-0.1-0.1-0.1-0.1,0-0.2c0-0.1,0,0-0.1,0c-0.1,0.1-0.2,0-0.4,0.1c-0.2,0.2-0.2,0.2-0.5,0.2
				c-0.2,0-0.4,0.2-0.3,0.2c0,0,0.1,0,0.4,0c0.2,0,0.5-0.1,0.8-0.1C96.7,305.1,96.7,305.1,96.6,305z"/>
		</g>
	</g>
</g>
<g id="calendario">
	<animateTransform id="calendarAnimation"
		attributeName="transform"
		type="translate"
		values="0,0; 0,10; 10,3; 7,-5; 3,2; 0,0"
		dur="9s"
		fill="freeze"
		begin="2s;calendarAnimation.end+6s"
	/>
	<path class="st2" d="M-99.2,424.7l-27.8-10.2c-1.5-0.6-2.3-2.3-1.8-3.8l8.4-22.8c0.9-2.5,3.7-3.8,6.2-2.8l24.3,8.9
		c2.5,0.9,3.8,3.7,2.8,6.2l-8.4,22.8C-96,424.5-97.7,425.3-99.2,424.7z"/>
	<path class="st3" d="M-88.3,403.5l-33.3-12.3l0.4-1c1.4-3.7,5.6-5.7,9.3-4.3l19.7,7.2c3.7,1.4,5.7,5.6,4.3,9.3L-88.3,403.5z"/>
	<path class="st4" d="M-114.1,387.7L-114.1,387.7c-0.4-0.1-0.6-0.6-0.4-0.9l0.6-1.6l1.4,0.5l-0.6,1.6
		C-113.3,387.7-113.7,387.9-114.1,387.7z"/>
	<path class="st4" d="M-106.1,390.7L-106.1,390.7c-0.4-0.1-0.6-0.6-0.4-0.9l0.6-1.6l1.4,0.5l-0.6,1.6
		C-105.3,390.6-105.7,390.8-106.1,390.7z"/>
	<path class="st4" d="M-98.6,393.5L-98.6,393.5c-0.4-0.1-0.6-0.6-0.4-0.9l0.6-1.6l1.4,0.5l-0.6,1.6
		C-97.8,393.4-98.2,393.6-98.6,393.5z"/>
	<path class="st4" d="M-91,396.2L-91,396.2c-0.4-0.1-0.6-0.6-0.4-0.9c0,0,0.5-1.5,0.6-1.6c0-0.1,1.3,0.5,1.3,0.5l-0.6,1.6
		C-90.2,396.2-90.7,396.4-91,396.2z"/>
	<path class="st5" d="M-106.3,390.4L-106.3,390.4c-0.4-0.1-0.6-0.6-0.4-0.9l0.6-1.7c0.1-0.4,0.6-0.6,0.9-0.4l0,0
		c0.4,0.1,0.6,0.6,0.4,0.9l-0.6,1.7C-105.5,390.3-105.9,390.5-106.3,390.4z"/>
	<path class="st6" d="M-98.7,393.1L-98.7,393.1c-0.4-0.1-0.6-0.6-0.4-0.9l0.6-1.7c0.1-0.4,0.6-0.6,0.9-0.4l0,0
		c0.4,0.1,0.6,0.6,0.4,0.9l-0.6,1.7C-97.9,393.1-98.4,393.3-98.7,393.1z"/>
	<path class="st6" d="M-91.2,395.9L-91.2,395.9c-0.4-0.1-0.6-0.6-0.4-0.9l0.6-1.7c0.1-0.4,0.6-0.6,0.9-0.4l0,0
		c0.4,0.1,0.6,0.6,0.4,0.9l-0.6,1.7C-90.4,395.9-90.8,396-91.2,395.9z"/>
	<path class="st7" d="M-96.2,416.4l-10.9,5.4c0,0,0.8-1.3,1.2-2.3c0.2-0.6,0.3-1.1,0.6-2c0.8-2.4,2.3-2.5,3.1-2.6
		c1.2-0.2,2.6,0.8,3.6,1.1C-98.2,416.1-96.6,416.7-96.2,416.4z"/>
	<path class="st8" d="M-93.4,416.8l-13.7,4.9c0,0,1.1-1.5,1.6-2.5c0.3-0.7,0.5-1.3,0.9-2.3c1.1-2.7,3.1-2.6,4-2.7
		c1.4,0,3.1,1.3,4.3,1.8C-95.8,416.3-93.9,417.1-93.4,416.8z"/>
	
		<rect x="-120.4" y="397.6" transform="matrix(-0.9384 -0.3456 0.3456 -0.9384 -366.82 732.8972)" class="st9" width="4.7" height="3.1"/>
	
		<rect x="-122.4" y="402.8" transform="matrix(-0.9384 -0.3456 0.3456 -0.9384 -372.3473 742.2927)" class="st9" width="4.7" height="3.1"/>
	
		<rect x="-115.3" y="405.4" transform="matrix(-0.9384 -0.3456 0.3456 -0.9384 -359.4908 749.8099)" class="st9" width="4.7" height="3.1"/>
	
		<rect x="-108.2" y="408" transform="matrix(-0.9384 -0.3456 0.3456 -0.9384 -346.636 757.327)" class="st9" width="4.7" height="3.1"/>
	
		<rect x="-101.2" y="410.5" transform="matrix(-0.9384 -0.3456 0.3456 -0.9384 -334.0835 764.5521)" class="st9" width="4.7" height="3.1"/>
	
		<rect x="-124.2" y="407.9" transform="matrix(-0.9384 -0.3456 0.3456 -0.9384 -377.775 751.5184)" class="st9" width="4.7" height="3.1"/>
	
		<rect x="-117.1" y="410.5" transform="matrix(-0.9384 -0.3456 0.3456 -0.9384 -364.9202 759.0355)" class="st3" width="4.7" height="3.1"/>
	
		<rect x="-110" y="413.1" transform="matrix(-0.9384 -0.3456 0.3456 -0.9384 -352.0638 766.5529)" class="st3" width="4.7" height="3.1"/>
	
		<rect x="-113.3" y="400.2" transform="matrix(-0.9384 -0.3456 0.3456 -0.9384 -353.9653 740.4142)" class="st9" width="4.7" height="3.1"/>
	
		<rect x="-106.3" y="402.8" transform="matrix(-0.9384 -0.3456 0.3456 -0.9384 -341.2787 747.832)" class="st9" width="4.7" height="3.1"/>
	
		<rect x="-99.2" y="405.4" transform="matrix(-0.9384 -0.3456 0.3456 -0.9384 -328.4222 755.3494)" class="st9" width="4.7" height="3.1"/>
	<path class="st5" d="M-114.3,387.4L-114.3,387.4c-0.4-0.1-0.6-0.6-0.4-0.9l0.6-1.7c0.1-0.4,0.6-0.6,0.9-0.4l0,0
		c0.4,0.1,0.6,0.6,0.4,0.9l-0.6,1.7C-113.5,387.4-113.9,387.6-114.3,387.4z"/>
</g>
<g id="monitor">
	<path class="st10" d="M117.2,510.6h-240.3c-2.7,0-5.5-1.3-5.8-5.3v-3.6l26.3-48.6c1.4-2.8,4.3-4.6,7.5-4.6H88.8
		c3.4,0,11,6.8,12.5,9.8l21.7,44.2v1.6C123.1,508.7,120.1,510.6,117.2,510.6z"/>
	<path class="st1" d="M117.2,505.5h-240.3c-2.7,0-7.1-2.3-5.4-5.2l25.9-52.3c1.4-2.8,4.3-4.6,7.5-4.6H88.8c3.4,0,6.6,1.9,8.1,5
		l25.7,51.4C124.4,503,120.1,505.5,117.2,505.5z"/>
	<rect x="-102.6" y="313.9" class="st10" width="196.8" height="124.3"/>
	<rect x="-95.1" y="320.7" class="st11" width="181.6" height="107.7"/>
	<path class="st0" d="M31.9,503.2h-70.8c-0.8,0-1.4-0.7-1.3-1.5l3-18.7c0.2-1,1-1.7,2-1.7h63.9c0.9,0,1.7,0.7,1.8,1.6l2.7,18.8
		C33.3,502.5,32.7,503.2,31.9,503.2z"/>
	<path class="st0" d="M-84.4,454.5h-7.7c-1.1,0-1.8-0.3-1.7-0.7l0.5-1.2c0.2-0.4,1.1-0.7,2.2-0.7h7.6c1.1,0,1.8,0.3,1.7,0.7
		l-0.4,1.2C-82.4,454.2-83.3,454.5-84.4,454.5z"/>
	<path class="st0" d="M-71.4,454.5h-7.7c-1.1,0-1.8-0.3-1.7-0.7l0.4-1.2c0.1-0.4,1.1-0.7,2.2-0.7h7.6c1.1,0,1.8,0.3,1.7,0.7
		l-0.3,1.2C-69.4,454.2-70.4,454.5-71.4,454.5z"/>
	<path class="st0" d="M-58.5,454.5h-7.7c-1.1,0-1.8-0.3-1.7-0.7l0.3-1.2c0.1-0.4,1.1-0.7,2.1-0.7h7.6c1.1,0,1.8,0.3,1.8,0.7
		l-0.3,1.2C-56.5,454.2-57.4,454.5-58.5,454.5z"/>
	<path class="st0" d="M-45.5,454.5h-7.7c-1.1,0-1.9-0.3-1.8-0.7l0.3-1.2c0.1-0.4,1-0.7,2.1-0.7h7.6c1.1,0,1.9,0.3,1.8,0.7l-0.2,1.2
		C-43.5,454.2-44.5,454.5-45.5,454.5z"/>
	<path class="st0" d="M-32.6,454.5h-7.7c-1.1,0-1.9-0.3-1.8-0.7l0.2-1.2c0.1-0.4,1-0.7,2-0.7h7.6c1.1,0,1.9,0.3,1.8,0.7l-0.1,1.2
		C-30.6,454.2-31.5,454.5-32.6,454.5z"/>
	<path class="st0" d="M-19.6,454.5h-7.7c-1.1,0-1.9-0.3-1.9-0.7l0.1-1.2c0-0.4,0.9-0.7,2-0.7h7.6c1.1,0,1.9,0.3,1.9,0.7l-0.1,1.2
		C-17.7,454.2-18.6,454.5-19.6,454.5z"/>
	<path class="st0" d="M-6.7,454.5h-7.7c-1.1,0-1.9-0.3-1.9-0.7l0.1-1.2c0-0.4,0.9-0.7,2-0.7h7.6c1.1,0,1.9,0.3,1.9,0.7v1.2
		C-4.7,454.2-5.6,454.5-6.7,454.5z"/>
	<path class="st0" d="M6.3,454.5h-7.7c-1.1,0-1.9-0.3-1.9-0.7v-1.2c0-0.4,0.9-0.7,1.9-0.7h7.6c1.1,0,1.9,0.3,2,0.7l0.1,1.2
		C8.2,454.2,7.4,454.5,6.3,454.5z"/>
	<path class="st0" d="M19.2,454.5h-7.7c-1.1,0-2-0.3-2-0.7l-0.1-1.2c0-0.4,0.8-0.7,1.9-0.7h7.6c1.1,0,2,0.3,2,0.7l0.1,1.2
		C21.1,454.2,20.3,454.5,19.2,454.5z"/>
	<path class="st0" d="M32.2,454.5h-7.7c-1.1,0-2-0.3-2-0.7l-0.1-1.2c0-0.4,0.8-0.7,1.8-0.7h7.6c1.1,0,2,0.3,2,0.7l0.2,1.2
		C34.1,454.2,33.3,454.5,32.2,454.5z"/>
	<path class="st0" d="M45.2,454.5h-7.7c-1.1,0-2-0.3-2.1-0.7l-0.2-1.2c-0.1-0.4,0.7-0.7,1.8-0.7h7.6c1.1,0,2,0.3,2.1,0.7l0.3,1.2
		C47,454.2,46.2,454.5,45.2,454.5z"/>
	<path class="st0" d="M58.1,454.5h-7.7c-1.1,0-2-0.3-2.1-0.7l-0.3-1.2c-0.1-0.4,0.7-0.7,1.8-0.7h7.6c1.1,0,2,0.3,2.1,0.7l0.3,1.2
		C60,454.2,59.2,454.5,58.1,454.5z"/>
	<path class="st0" d="M71.1,454.5h-7.7c-1.1,0-2-0.3-2.2-0.7l-0.3-1.2c-0.1-0.4,0.7-0.7,1.7-0.7h7.6c1.1,0,2,0.3,2.2,0.7l0.4,1.2
		C72.9,454.2,72.1,454.5,71.1,454.5z"/>
	<path class="st0" d="M84,454.5h-7.7c-1.1,0-2.1-0.3-2.2-0.7l-0.4-1.2c-0.1-0.4,0.6-0.7,1.7-0.7H83c1.1,0,2,0.3,2.2,0.7l0.5,1.2
		C85.8,454.2,85.1,454.5,84,454.5z"/>
	<path class="st0" d="M-85.1,458.8h-9.8c-0.2,0-0.4-0.1-0.4-0.2l1.5-3.6c0-0.1,0.3-0.2,0.5-0.2h9.6c0.2,0,0.4,0.1,0.4,0.2l-1.3,3.6
		C-84.6,458.8-84.9,458.8-85.1,458.8z"/>
	<path class="st0" d="M-67,463.5h-10c-0.2,0-0.4-0.1-0.4-0.2l1.2-3.7c0-0.1,0.3-0.2,0.5-0.2h9.8c0.2,0,0.4,0.1,0.4,0.2l-1,3.7
		C-66.5,463.5-66.8,463.5-67,463.5z"/>
	<path class="st0" d="M-65.4,468.5h-10.2c-0.3,0-0.4-0.1-0.4-0.2l1.2-3.9c0-0.1,0.3-0.2,0.5-0.2h10c0.2,0,0.4,0.1,0.4,0.2l-1,3.9
		C-64.9,468.4-65.1,468.5-65.4,468.5z"/>
	<path class="st0" d="M-59.6,473.6H-70c-0.3,0-0.4-0.1-0.4-0.2l1.1-4.1c0-0.1,0.3-0.2,0.5-0.2h10.3c0.3,0,0.4,0.1,0.4,0.2l-0.9,4.1
		C-59.1,473.5-59.4,473.6-59.6,473.6z"/>
	<path class="st0" d="M-92.6,479.5h-10.6c-0.3,0-0.5-0.1-0.4-0.2l2-4.8c0-0.1,0.3-0.2,0.6-0.2h10.4c0.3,0,0.5,0.1,0.4,0.2l-1.7,4.8
		C-92,479.4-92.3,479.5-92.6,479.5z"/>
	<path class="st0" d="M-78.4,479.5H-89c-0.3,0-0.5-0.1-0.4-0.2l1.7-4.8c0-0.1,0.3-0.2,0.6-0.2h10.3c0.3,0,0.5,0.1,0.4,0.2l-1.4,4.8
		C-77.8,479.4-78.1,479.5-78.4,479.5z"/>
	<path class="st0" d="M-64.6,479.5h-10.6c-0.3,0-0.5-0.1-0.5-0.2l1.4-4.8c0-0.1,0.3-0.2,0.6-0.2h10.4c0.3,0,0.5,0.1,0.5,0.2
		l-1.2,4.8C-64,479.4-64.3,479.5-64.6,479.5z"/>
	<path class="st0" d="M-47.2,479.5h-14c-0.3,0-0.6-0.1-0.5-0.2l1.1-4.8c0-0.1,0.3-0.2,0.6-0.2h13.7c0.3,0,0.6,0.1,0.5,0.2l-0.8,4.8
		C-46.6,479.4-46.9,479.5-47.2,479.5z"/>
	<path class="st0" d="M39.2,479.5h-14c-0.3,0-0.6-0.1-0.6-0.2l-0.6-4.8c0-0.1,0.2-0.2,0.5-0.2h13.7c0.3,0,0.6,0.1,0.6,0.2l0.9,4.8
		C39.8,479.4,39.6,479.5,39.2,479.5z"/>
	<path class="st0" d="M53.5,479.5H43c-0.3,0-0.5-0.1-0.5-0.2l-0.9-4.8c0-0.1,0.2-0.2,0.5-0.2h10.1c0.3,0,0.5,0.1,0.5,0.2l1.1,4.8
		C53.9,479.4,53.7,479.5,53.5,479.5z"/>
	<path class="st0" d="M21.7,479.5h-64.8c-0.7,0-1.2-0.2-1.1-0.5l0.7-4.3c0-0.3,0.6-0.5,1.3-0.5h63.4c0.7,0,1.2,0.2,1.3,0.5L23,479
		C22.9,479.3,22.4,479.5,21.7,479.5z"/>
	<path class="st0" d="M-46.1,473.6h-10.4c-0.3,0-0.5-0.1-0.4-0.2l0.9-4.1c0-0.1,0.2-0.2,0.5-0.2h10.3c0.3,0,0.4,0.1,0.4,0.2
		l-0.7,4.1C-45.6,473.5-45.8,473.6-46.1,473.6z"/>
	<path class="st0" d="M-32.5,473.6h-10.4c-0.3,0-0.5-0.1-0.4-0.2l0.7-4.1c0-0.1,0.2-0.2,0.5-0.2h10.3c0.3,0,0.5,0.1,0.4,0.2
		l-0.5,4.1C-32,473.5-32.2,473.6-32.5,473.6z"/>
	<path class="st0" d="M-18.9,473.6h-10.4c-0.3,0-0.5-0.1-0.5-0.2l0.4-4.1c0-0.1,0.2-0.2,0.5-0.2h10.3c0.3,0,0.5,0.1,0.5,0.2
		l-0.2,4.1C-18.4,473.5-18.7,473.6-18.9,473.6z"/>
	<path class="st0" d="M-5.4,473.6h-10.4c-0.3,0-0.5-0.1-0.5-0.2l0.2-4.1c0-0.1,0.2-0.2,0.5-0.2h10.3c0.3,0,0.5,0.1,0.5,0.2v4.1
		C-4.9,473.5-5.1,473.6-5.4,473.6z"/>
	<path class="st0" d="M8.2,473.6H-2.2c-0.3,0-0.5-0.1-0.5-0.2v-4.1c0-0.1,0.2-0.2,0.5-0.2H8.1c0.3,0,0.5,0.1,0.5,0.2l0.2,4.1
		C8.7,473.5,8.5,473.6,8.2,473.6z"/>
	<path class="st0" d="M21.8,473.6H11.4c-0.3,0-0.5-0.1-0.5-0.2l-0.3-4.1c0-0.1,0.2-0.2,0.5-0.2h10.3c0.3,0,0.5,0.1,0.5,0.2l0.5,4.1
		C22.2,473.5,22,473.6,21.8,473.6z"/>
	<path class="st0" d="M35.3,473.6H24.9c-0.3,0-0.5-0.1-0.5-0.2l-0.5-4.1c0-0.1,0.2-0.2,0.4-0.2h10.3c0.3,0,0.5,0.1,0.5,0.2l0.7,4.1
		C35.8,473.5,35.6,473.6,35.3,473.6z"/>
	<path class="st0" d="M48.9,473.6H38.5c-0.3,0-0.5-0.1-0.5-0.2l-0.7-4.1c0-0.1,0.2-0.2,0.4-0.2H48c0.3,0,0.5,0.1,0.5,0.2l0.9,4.1
		C49.4,473.5,49.2,473.6,48.9,473.6z"/>
	<path class="st0" d="M66,479.6h-8.1c-1,0-2-0.3-2.1-0.8l-0.3-1.2c-0.1-0.4,0.6-0.7,1.7-0.7h8.1c1,0,2,0.3,2.1,0.7l0.4,1.2
		C67.8,479.3,67.1,479.6,66,479.6z"/>
	<path class="st0" d="M80,479.6h-8.1c-1,0-2-0.3-2.1-0.8l-0.4-1.2c-0.1-0.4,0.6-0.7,1.6-0.7h8.1c1,0,2,0.3,2.1,0.7l0.4,1.2
		C81.7,479.3,81,479.6,80,479.6z"/>
	<path class="st0" d="M78.9,476.6h-8c-1,0-2-0.3-2.1-0.7l-0.4-1.2c-0.1-0.4,0.6-0.7,1.6-0.7h8c1,0,1.9,0.3,2.1,0.7l0.4,1.2
		C80.7,476.2,80,476.6,78.9,476.6z"/>
	<path class="st0" d="M93.9,479.6h-8.1c-1,0-2-0.3-2.1-0.8l-0.4-1.2c-0.1-0.4,0.6-0.7,1.6-0.7H93c1,0,2,0.3,2.2,0.7l0.5,1.2
		C95.7,479.3,95,479.6,93.9,479.6z"/>
	<path class="st0" d="M-52,468.5h-10.2c-0.3,0-0.4-0.1-0.4-0.2l1-3.9c0-0.1,0.2-0.2,0.5-0.2h10c0.2,0,0.4,0.1,0.4,0.2l-0.8,3.9
		C-51.5,468.4-51.7,468.5-52,468.5z"/>
	<path class="st0" d="M-38.6,468.5h-10.2c-0.3,0-0.4-0.1-0.4-0.2l0.7-3.9c0-0.1,0.2-0.2,0.5-0.2h10c0.2,0,0.4,0.1,0.4,0.2l-0.6,3.9
		C-38.1,468.4-38.3,468.5-38.6,468.5z"/>
	<path class="st0" d="M-25.2,468.5h-10.2c-0.3,0-0.5-0.1-0.4-0.2l0.5-3.9c0-0.1,0.2-0.2,0.5-0.2h10c0.2,0,0.4,0.1,0.4,0.2l-0.3,3.9
		C-24.7,468.4-24.9,468.5-25.2,468.5z"/>
	<path class="st0" d="M-11.9,468.5h-10.2c-0.3,0-0.5-0.1-0.4-0.2l0.3-3.9c0-0.1,0.2-0.2,0.5-0.2h10c0.3,0,0.5,0.1,0.4,0.2l-0.1,3.9
		C-11.4,468.4-11.6,468.5-11.9,468.5z"/>
	<path class="st0" d="M1.5,468.5H-8.7c-0.3,0-0.5-0.1-0.5-0.2l0.1-3.9c0-0.1,0.2-0.2,0.5-0.2h10c0.3,0,0.5,0.1,0.5,0.2l0.1,3.9
		C2,468.4,1.8,468.5,1.5,468.5z"/>
	<path class="st0" d="M14.4,468.5H4.2c-0.3,0-0.5-0.1-0.5-0.2l-0.1-3.9c0-0.1,0.2-0.2,0.4-0.2h10c0.2,0,0.5,0.1,0.5,0.2l0.3,3.9
		C14.8,468.4,14.6,468.5,14.4,468.5z"/>
	<path class="st0" d="M27.6,468.5H17.4c-0.3,0-0.5-0.1-0.5-0.2l-0.4-3.9c0-0.1,0.2-0.2,0.4-0.2h10c0.2,0,0.5,0.1,0.5,0.2l0.5,3.9
		C28.1,468.4,27.9,468.5,27.6,468.5z"/>
	<path class="st0" d="M40.9,468.5H30.7c-0.3,0-0.5-0.1-0.5-0.2l-0.6-3.9c0-0.1,0.2-0.2,0.4-0.2h10c0.3,0,0.5,0.1,0.5,0.2l0.8,3.9
		C41.4,468.4,41.2,468.5,40.9,468.5z"/>
	<path class="st0" d="M54.1,468.5H43.9c-0.3,0-0.5-0.1-0.5-0.2l-0.8-3.9c0-0.1,0.2-0.2,0.4-0.2h10c0.2,0,0.5,0.1,0.5,0.2l1,3.9
		C54.5,468.4,54.4,468.5,54.1,468.5z"/>
	<path class="st0" d="M67.3,468.5H57.1c-0.3,0-0.5-0.1-0.5-0.2l-1-3.9c0-0.1,0.2-0.2,0.4-0.2h10c0.2,0,0.5,0.1,0.5,0.2l1.2,3.9
		C67.7,468.4,67.6,468.5,67.3,468.5z"/>
	<path class="st0" d="M62.3,473.6H51.9c-0.3,0-0.5-0.1-0.5-0.2l-0.9-4.1c0-0.1,0.2-0.2,0.4-0.2h10.3c0.3,0,0.5,0.1,0.5,0.2l1.1,4.1
		C62.8,473.5,62.6,473.6,62.3,473.6z"/>
	<path class="st0" d="M90.7,468.5H71c-0.3,0-0.7-0.1-0.7-0.2l-1.2-3.8c0-0.1,0.2-0.2,0.5-0.2H89c0.3,0,0.7,0.1,0.7,0.2l1.5,3.8
		C91.3,468.3,91,468.5,90.7,468.5z"/>
	<path class="st0" d="M92.7,473.6H65.6c-0.4,0-0.8-0.1-0.8-0.3l-1.1-3.9c0-0.2,0.2-0.3,0.6-0.3h26.6c0.4,0,0.8,0.1,0.8,0.3l1.6,3.9
		C93.4,473.4,93.1,473.6,92.7,473.6z"/>
	<path class="st0" d="M-78.7,468.5h-20c-0.4,0-0.6-0.1-0.5-0.2l1.5-3.8c0.1-0.1,0.4-0.2,0.7-0.2h19.6c0.3,0,0.6,0.1,0.5,0.2
		l-1.2,3.8C-78,468.3-78.3,468.5-78.7,468.5z"/>
	<path class="st0" d="M-73.4,473.6h-27.4c-0.4,0-0.7-0.1-0.6-0.3l1.6-3.9c0.1-0.2,0.4-0.3,0.9-0.3H-72c0.4,0,0.7,0.1,0.7,0.3
		l-1.1,3.9C-72.6,473.4-72.9,473.6-73.4,473.6z"/>
	<path class="st0" d="M-54,463.5h-10c-0.2,0-0.4-0.1-0.4-0.2l1-3.7c0-0.1,0.2-0.2,0.5-0.2h9.8c0.2,0,0.4,0.1,0.4,0.2l-0.8,3.7
		C-53.5,463.5-53.7,463.5-54,463.5z"/>
	<path class="st0" d="M-41,463.5h-10c-0.2,0-0.4-0.1-0.4-0.2l0.8-3.7c0-0.1,0.2-0.2,0.5-0.2h9.8c0.2,0,0.4,0.1,0.4,0.2l-0.6,3.7
		C-40.5,463.5-40.7,463.5-41,463.5z"/>
	<path class="st0" d="M-27.9,463.5h-10c-0.2,0-0.4-0.1-0.4-0.2l0.6-3.7c0-0.1,0.2-0.2,0.5-0.2h9.8c0.2,0,0.4,0.1,0.4,0.2l-0.4,3.7
		C-27.5,463.5-27.7,463.5-27.9,463.5z"/>
	<path class="st0" d="M-14.9,463.5h-10c-0.2,0-0.4-0.1-0.4-0.2l0.3-3.7c0-0.1,0.2-0.2,0.5-0.2h9.8c0.2,0,0.4,0.1,0.4,0.2l-0.2,3.7
		C-14.4,463.5-14.6,463.5-14.9,463.5z"/>
	<path class="st0" d="M-1.9,463.5h-10c-0.2,0-0.4-0.1-0.4-0.2l0.1-3.7c0-0.1,0.2-0.2,0.4-0.2H-2c0.2,0,0.4,0.1,0.4,0.2v3.7
		C-1.5,463.5-1.7,463.5-1.9,463.5z"/>
	<path class="st0" d="M10.8,463.5h-10c-0.2,0-0.5-0.1-0.5-0.2l-0.1-3.7c0-0.1,0.2-0.2,0.4-0.2h9.8c0.2,0,0.4,0.1,0.5,0.2l0.3,3.7
		C11.2,463.5,11,463.5,10.8,463.5z"/>
	<path class="st0" d="M23.9,463.5h-10c-0.2,0-0.5-0.1-0.5-0.2l-0.3-3.7c0-0.1,0.2-0.2,0.4-0.2h9.8c0.2,0,0.5,0.1,0.5,0.2l0.5,3.7
		C24.4,463.5,24.2,463.5,23.9,463.5z"/>
	<path class="st0" d="M36.9,463.5h-10c-0.2,0-0.5-0.1-0.5-0.2l-0.5-3.7c0-0.1,0.2-0.2,0.4-0.2h9.8c0.2,0,0.5,0.1,0.5,0.2l0.7,3.7
		C37.4,463.5,37.2,463.5,36.9,463.5z"/>
	<path class="st0" d="M49.7,463.5h-10c-0.2,0-0.5-0.1-0.5-0.2l-0.7-3.7c0-0.1,0.2-0.2,0.4-0.2h9.8c0.2,0,0.5,0.1,0.5,0.2l0.9,3.7
		C50.1,463.5,50,463.5,49.7,463.5z"/>
	<path class="st0" d="M63,463.5H53c-0.2,0-0.5-0.1-0.5-0.2l-0.9-3.7c0-0.1,0.2-0.2,0.4-0.2h9.8c0.2,0,0.5,0.1,0.5,0.2l1.1,3.7
		C63.4,463.5,63.3,463.5,63,463.5z"/>
	<path class="st0" d="M75.8,463.5h-10c-0.2,0-0.5-0.1-0.5-0.2l-1.1-3.7c0-0.1,0.1-0.2,0.4-0.2h9.8c0.2,0,0.5,0.1,0.5,0.2l1.3,3.7
		C76.2,463.5,76,463.5,75.8,463.5z"/>
	<path class="st0" d="M88.9,463.5h-10c-0.2,0-0.5-0.1-0.5-0.2l-1.3-3.7c0-0.1,0.1-0.2,0.4-0.2h9.8c0.2,0,0.5,0.1,0.5,0.2l1.5,3.7
		C89.3,463.5,89.1,463.5,88.9,463.5z"/>
	<path class="st0" d="M-72.1,458.8h-9.8c-0.2,0-0.4-0.1-0.4-0.2l1.2-3.6c0-0.1,0.2-0.2,0.5-0.2h9.6c0.2,0,0.4,0.1,0.4,0.2l-1.1,3.6
		C-71.7,458.8-71.9,458.8-72.1,458.8z"/>
	<path class="st0" d="M-59.6,458.8h-9.8c-0.2,0-0.4-0.1-0.4-0.2l1-3.6c0-0.1,0.2-0.2,0.5-0.2h9.6c0.2,0,0.4,0.1,0.4,0.2l-0.9,3.6
		C-59.1,458.8-59.3,458.8-59.6,458.8z"/>
	<path class="st0" d="M-46.7,458.8h-9.8c-0.2,0-0.4-0.1-0.4-0.2l0.8-3.6c0-0.1,0.2-0.2,0.5-0.2h9.6c0.2,0,0.4,0.1,0.4,0.2l-0.7,3.6
		C-46.2,458.8-46.4,458.8-46.7,458.8z"/>
	<path class="st0" d="M-34.1,458.8h-9.8c-0.2,0-0.4-0.1-0.4-0.2l0.6-3.6c0-0.1,0.2-0.2,0.5-0.2h9.6c0.2,0,0.4,0.1,0.4,0.2l-0.5,3.6
		C-33.7,458.8-33.9,458.8-34.1,458.8z"/>
	<path class="st0" d="M-21.2,458.8H-31c-0.2,0-0.4-0.1-0.4-0.2l0.4-3.6c0-0.1,0.2-0.2,0.5-0.2h9.6c0.2,0,0.4,0.1,0.4,0.2l-0.3,3.6
		C-20.7,458.8-20.9,458.8-21.2,458.8z"/>
	<path class="st0" d="M-8.7,458.8h-9.8c-0.2,0-0.4-0.1-0.4-0.2l0.2-3.6c0-0.1,0.2-0.2,0.4-0.2h9.6c0.2,0,0.4,0.1,0.4,0.2l-0.1,3.6
		C-8.3,458.8-8.5,458.8-8.7,458.8z"/>
	<path class="st0" d="M4.2,458.8h-9.8c-0.2,0-0.4-0.1-0.4-0.2V455c0-0.1,0.2-0.2,0.4-0.2H4c0.2,0,0.4,0.1,0.4,0.2l0.1,3.6
		C4.7,458.8,4.5,458.8,4.2,458.8z"/>
	<path class="st0" d="M16.8,458.8H7c-0.2,0-0.4-0.1-0.5-0.2L6.3,455c0-0.1,0.2-0.2,0.4-0.2h9.6c0.2,0,0.4,0.1,0.4,0.2l0.3,3.6
		C17.3,458.8,17.1,458.8,16.8,458.8z"/>
	<path class="st0" d="M29.7,458.8h-9.8c-0.2,0-0.4-0.1-0.5-0.2L19,455c0-0.1,0.2-0.2,0.4-0.2H29c0.2,0,0.4,0.1,0.5,0.2l0.6,3.6
		C30.2,458.8,30,458.8,29.7,458.8z"/>
	<path class="st0" d="M42.6,458.8h-9.8c-0.2,0-0.5-0.1-0.5-0.2l-0.6-3.6c0-0.1,0.2-0.2,0.4-0.2h9.6c0.2,0,0.4,0.1,0.5,0.2l0.8,3.6
		C43,458.8,42.9,458.8,42.6,458.8z"/>
	<path class="st0" d="M55.4,458.8h-9.8c-0.2,0-0.5-0.1-0.5-0.2l-0.8-3.6c0-0.1,0.2-0.2,0.4-0.2h9.6c0.2,0,0.5,0.1,0.5,0.2l1,3.6
		C55.8,458.8,55.6,458.8,55.4,458.8z"/>
	<path class="st0" d="M67.6,458.8h-9.8c-0.2,0-0.5-0.1-0.5-0.2l-1-3.6c0-0.1,0.2-0.2,0.4-0.2h9.6c0.2,0,0.5,0.1,0.5,0.2l1.2,3.6
		C68.1,458.8,67.9,458.8,67.6,458.8z"/>
	<path class="st0" d="M86,458.8H71.3c-0.7,0-1.3-0.2-1.4-0.5l-1-3c-0.1-0.2,0.4-0.4,1.1-0.4h14.4c0.7,0,1.3,0.2,1.4,0.4l1.2,3
		C87.2,458.6,86.7,458.8,86,458.8z"/>
	<path class="st0" d="M-81,463.5h-15c-0.7,0-1.2-0.2-1.1-0.5l1.3-3.1c0.1-0.3,0.7-0.5,1.4-0.5h14.7c0.7,0,1.2,0.2,1.1,0.5l-1,3.1
		C-79.7,463.3-80.3,463.5-81,463.5z"/>
	<rect x="-89.3" y="438.2" class="st0" width="29.2" height="5.1"/>
	<rect x="51.3" y="438.2" class="st0" width="29.2" height="5.2"/>
</g>
<g id="texto">
	<animateTransform id="textoAnimation"
		attributeName="transform"
		type="translate"
		values="0,0; 5,3; 4,3; 10,-5; -3,2; 0,0"
		dur="7s"
		fill="freeze"
		begin="2s;textoAnimation.end+8s" 
	/>
	<path id="bal" class="st12" d="M-66.7,341.2l-52.9,19.4l-5.2,9.9l-2-7.2l-3.7,1.4c-1.6,0.6-3.4-0.2-4-1.8l-14.1-38.4
		c-0.6-1.6,0.2-3.4,1.8-4l63.9-23.5c1.6-0.6,3.4,0.2,4,1.8l14.1,38.3C-64.2,338.8-65.1,340.6-66.7,341.2z"/>
	<g>
		<path class="st3" d="M-85.2,362.7l42.9-15.8l8.4,3.2l-2.5-5.4l3-1.1c1.3-0.5,2-1.9,1.5-3.2l-11.2-30.6c-0.5-1.3-1.9-1.9-3.2-1.5
			l-51.8,19c-1.3,0.5-2,1.9-1.5,3.2l11.2,30.6C-88,362.5-86.5,363.1-85.2,362.7z"/>
		<g>
			<g>
				<g>
					<path class="st4" d="M-88.5,361.1c0.5,1.3,1.9,1.9,3.2,1.5l42.9-15.8l8.4,3.2l-2.5-5.4l3-1.1c1.3-0.5,2-1.9,1.5-3.2l-5.5-14.9
						l-56.6,20.8L-88.5,361.1z"/>
				</g>
			</g>
		</g>
		<path class="st11" d="M-73.8,337.5c2,2,0.5,5.2-2.3,4.9c-0.5,0-1.1-0.3-1.5-0.7c-2-2-0.5-5.2,2.3-4.9
			C-74.8,336.9-74.2,337.1-73.8,337.5z"/>
		<path class="st11" d="M-63.7,333.8c2,2,0.5,5.2-2.3,4.9c-0.5,0-1.1-0.3-1.5-0.7c-2-2-0.5-5.2,2.3-4.9
			C-64.6,333.2-64.1,333.4-63.7,333.8z"/>
		<path class="st11" d="M-54.1,330.3c2,2,0.5,5.2-2.3,4.9c-0.5,0-1.1-0.3-1.5-0.7c-2-2-0.5-5.2,2.3-4.9
			C-55.1,329.7-54.5,329.9-54.1,330.3z"/>
	</g>
</g>
<g id="mail">
	<animateTransform id="mailAnimation"
		attributeName="transform"
		type="translate"
		values="0,0; 15,3; 0,-15; 7,-5; -3,2; 0,0"
		dur="8s"
		fill="freeze"
		begin="2s;mailAnimation.end+7s"
	/>
	<polygon class="st4" points="75.3,388.3 97.6,367.9 120,388 119.9,415.7 76,415.8 	"/>
	
		<rect x="79.3" y="377.9" transform="matrix(-1 2.286303e-003 -2.286303e-003 -1 196.5556 791.6722)" class="st11" width="37.1" height="36.1"/>
	<polygon class="st0" points="75.4,419.9 120.1,419.8 104.3,404.9 91.2,405 	"/>
	<polygon class="st0" points="75.4,419.9 75.4,389.1 91.3,405 	"/>
	<polygon class="st0" points="120.1,419.8 120,389 104.3,404.9 	"/>
</g>
</svg>
