<?xml version="1.0" encoding="utf-8"?>
<!-- Generator: Adobe Illustrator 19.0.0, SVG Export Plug-In . SVG Version: 6.00 Build 0)  -->
<svg version="1.1" id="Layer_1" xmlns="http://www.w3.org/2000/svg" xmlns:xlink="http://www.w3.org/1999/xlink" x="0px" y="0px"
	 viewBox="-270 148.3 300 300" style="enable-background:new -270 148.3 300 300;" xml:space="preserve">
<g id="aviao" cx="-163.2" cy="349.3">
	<animateTransform id="AirplaneAnimation"
		attributeName="transform"
		type="translate"
		values="0,0; -60,0; -60,-50; -50,-100; 0,-100; 100,-50; 100,0"
		dur="4s"
		fill="freeze"
		begin="2s;AirplaneAnimation.end+6s"
	/>
	<g>
	<animateTransform id="AirplaneAnimation2"
		attributeName="transform"
		attributeType="XML"
		type="rotate"
		from="0 -163 349"
		to="160 -163 349"
		dur="4s"
		fill="freeze"
		begin="2s;AirplaneAnimation2.end+6s"
	/>
		<g>
			
				<ellipse transform="matrix(-0.7408 -0.6718 0.6718 -0.7408 -518.734 498.3784)" style="fill:#404851;" cx="-163.2" cy="349.3" rx="1.9" ry="0.7"/>
			
				<ellipse transform="matrix(-0.7407 -0.6719 0.6719 -0.7407 -539.3987 501.153)" style="fill:#404851;" cx="-173" cy="354.7" rx="1.9" ry="0.7"/>
		</g>
		<g>
			
				<ellipse transform="matrix(0.7406 0.672 -0.672 0.7406 209.9694 235.3886)" style="fill:#404851;" cx="-199.9" cy="389.6" rx="1.9" ry="0.7"/>
			
				<ellipse transform="matrix(0.7404 0.6721 -0.6721 0.7404 204.2946 229.8921)" style="fill:#404851;" cx="-195.5" cy="379.4" rx="1.9" ry="0.7"/>
		</g>
		<g>
			<path style="fill:#BCBBBB;" d="M-151.6,346.9l3.6,3.3l-12.4,12.7l-0.5,0.5l-7,7.2l-2.3,2.3c6.6,6.7,12.8,13.5,16.4,18.3l9.5-2.8
				l3.9,3.6l-10.1,5.6l-4.6,10.6l-3.9-3.6l1.8-9.7c-5.1-3.1-12.5-8.6-19.8-14.6l-12.6,15.2l-0.8,0.9l-1.4,1.6l-0.7,0.8l-4.8,5.8
				l-3.6-3.3l2.5-6l0.7-1.8l-2.2-2c-0.7-0.6-0.7-1.6-0.1-2.2c0.6-0.7,1.6-0.7,2.2-0.1l1.4,1.2l0.9-2.2l2.1-4.9l-2.1-1.9
				c-0.7-0.6-0.7-1.6-0.1-2.2c0.6-0.7,1.6-0.7,2.3-0.2l1.2,1.1l3.8-9.2c-1.7-1.5-3.2-2.9-4.7-4.2c-14.9-13.5-11.5-18.3-11.5-18.3
				s4.4-3.9,19.3,9.7c1.5,1.3,3.1,2.8,4.6,4.3l3-1.6l0.3-0.2l5.6-3l-1.2-1.1c-0.7-0.6-0.7-1.6-0.2-2.3c0.6-0.7,1.6-0.7,2.2-0.1
				l2.1,1.9l2-1l5-2.7l-1.4-1.2c-0.7-0.6-0.7-1.6-0.1-2.2c0.6-0.7,1.6-0.7,2.2-0.1l2.2,2L-151.6,346.9z"/>
		</g>
		<path style="fill:#282F39;" d="M-200.8,355.3c0.1,0.7,0.4,1.2,1.1,1.7c0,0-0.1-1,0.4-2.2c0.3-0.7,0.8-1.2,1.4-1.5
			c1.1-0.6,2.2-0.6,2.2-0.6c-0.5-0.6-1.2-0.9-1.8-0.9C-199.5,351.5-201.1,353.3-200.8,355.3z"/>
		
			<ellipse transform="matrix(-0.741 -0.6715 0.6715 -0.741 -534.7924 579.8984)" style="fill:#E0E1E2;" cx="-155.6" cy="393.1" rx="5.4" ry="0.7"/>
		<g>
			
				<rect x="-178.7" y="354.1" transform="matrix(-0.6719 0.7407 -0.7407 -0.6719 -27.2984 720.6898)" style="fill:#C5CED7;" width="10.7" height="0.5"/>
			
				<rect x="-168.8" y="348.7" transform="matrix(-0.6719 0.7406 -0.7406 -0.6719 -14.7965 704.4427)" style="fill:#C5CED7;" width="10.7" height="0.5"/>
		</g>
		<g>
			
				<rect x="-201.1" y="378.9" transform="matrix(0.6719 -0.7407 0.7407 0.6719 -345.0637 -20.5787)" style="fill:#C5CED7;" width="10.7" height="0.5"/>
			
				<rect x="-205.5" y="389.2" transform="matrix(0.6719 -0.7407 0.7407 0.6719 -354.1634 -20.4607)" style="fill:#C5CED7;" width="10.7" height="0.5"/>
		</g>
		<path style="fill:#E0E1E2;" d="M-177.8,360.8l9.8,9.7l-2.3,2.3c-1.9-2-10.5-10.4-10.5-10.4L-177.8,360.8z"/>
		<polygon style="fill:#E0E1E2;" points="-195.6,388.3 -189.7,395.5 -190.5,396.4 -196.5,390.6 		"/>
		<polygon style="fill:#E0E1E2;" points="-166.9,355.1 -160.4,362.9 -160.9,363.3 -168.9,356.1 		"/>
		<g>
			<g>
				<path style="fill:#FFFFFF;" d="M-168.8,385.1c-0.2,0.1-0.4,0.2-0.6,0.1c-0.5-0.4-1.1-0.8-1.7-1.3c-0.2-0.1-0.2-0.4-0.1-0.7
					c0.1-0.2,0.4-0.2,0.7-0.1c0.7,0.5,1.2,0.9,1.7,1.3C-168.7,384.7-168.6,384.9-168.8,385.1L-168.8,385.1z M-172.3,382.5
					c-0.2,0.1-0.4,0.2-0.6,0.1c-0.5-0.5-1.1-0.9-1.7-1.3c-0.1-0.2-0.2-0.4-0.1-0.6c0.1-0.2,0.4-0.2,0.6-0.1c0.5,0.5,1.2,0.9,1.7,1.3
					C-172.1,382.1-172,382.3-172.3,382.5L-172.3,382.5z M-175.6,379.9c-0.2,0.1-0.4,0.2-0.6,0.1c-0.5-0.5-1.1-0.9-1.6-1.4
					c-0.1-0.2-0.2-0.4-0.1-0.6c0.1-0.2,0.4-0.2,0.6-0.1c0.5,0.5,1.1,0.9,1.6,1.4C-175.4,379.3-175.5,379.6-175.6,379.9L-175.6,379.9
					z M-179,377.2c-0.2,0.1-0.4,0.2-0.6,0.1c-0.5-0.5-1.1-0.9-1.6-1.4c-0.1-0.2-0.2-0.4-0.1-0.6c0.2-0.1,0.4-0.2,0.6-0.1
					c0.5,0.5,1.1,0.9,1.6,1.4C-178.8,376.7-178.7,376.9-179,377.2L-179,377.2z M-182.2,374.4c-0.2,0.1-0.4,0.2-0.6,0.1
					c-0.5-0.5-1.1-0.9-1.6-1.4c-0.1-0.2-0.2-0.4-0.1-0.6c0.2-0.1,0.4-0.2,0.6-0.1c0.5,0.5,1.1,0.9,1.6,1.4
					C-182.1,374-182.1,374.3-182.2,374.4L-182.2,374.4z M-185.6,371.7c-0.2,0.1-0.4,0.2-0.6,0.1c-0.5-0.5-1.1-0.9-1.6-1.4
					c-0.1-0.2-0.2-0.4-0.1-0.6c0.2-0.1,0.4-0.2,0.6-0.1c0.5,0.5,1.1,0.9,1.6,1.4C-185.4,371.3-185.4,371.6-185.6,371.7L-185.6,371.7
					z M-188.8,369c-0.2,0.1-0.4,0.2-0.6,0.1l-1.6-1.4c-0.1-0.2-0.2-0.4-0.1-0.6c0.2-0.1,0.4-0.2,0.6-0.1l1.6,1.4
					C-188.7,368.5-188.7,368.7-188.8,369L-188.8,369z M-192.2,366.2c-0.2,0.1-0.4,0.2-0.6,0.1c-1.1-0.8-1.6-1.4-1.6-1.4
					c-0.1-0.2-0.2-0.4-0.1-0.6c0.2-0.1,0.4-0.2,0.6-0.1c0,0,0.6,0.6,1.6,1.4C-192,365.7-192,366-192.2,366.2
					C-192.1,366.2-192.1,366.2-192.2,366.2z"/>
			</g>
			<g>
				<path style="fill:#FFFFFF;" d="M-164.6,380.6c-0.2,0.1-0.5,0.1-0.6,0c-0.4-0.5-0.9-1-1.5-1.5c-0.1-0.2-0.1-0.5,0-0.6
					c0.2-0.1,0.5-0.1,0.6,0c0.6,0.6,1,1.1,1.5,1.6C-164.4,380.1-164.5,380.4-164.6,380.6C-164.6,380.5-164.6,380.6-164.6,380.6z
					 M-167.6,377.5c-0.2,0.1-0.5,0.1-0.6,0c-0.4-0.5-1-1-1.5-1.5c-0.1-0.2-0.1-0.5,0-0.6c0.2-0.1,0.5-0.1,0.6,0c0.6,0.6,1,1,1.5,1.5
					C-167.4,376.9-167.4,377.2-167.6,377.5C-167.6,377.4-167.6,377.5-167.6,377.5z M-170.5,374.3c-0.2,0.1-0.5,0.1-0.6,0
					c-0.4-0.5-1-1-1.5-1.5c-0.1-0.2-0.1-0.5,0-0.6c0.2-0.1,0.5-0.1,0.6,0c0.5,0.6,1,1,1.5,1.5C-170.4,373.9-170.4,374.2-170.5,374.3
					L-170.5,374.3z M-173.6,371.3c-0.2,0.1-0.5,0.1-0.6,0c-0.4-0.5-1-1-1.5-1.5c-0.1-0.2-0.1-0.5,0-0.6c0.2-0.1,0.5-0.1,0.6,0
					c0.4,0.5,1,1,1.5,1.5C-173.4,370.8-173.3,371-173.6,371.3L-173.6,371.3z M-176.6,368.2c-0.2,0.1-0.5,0.1-0.6,0
					c-0.5-0.5-1-1-1.6-1.5c-0.1-0.2-0.1-0.5,0-0.6c0.2-0.1,0.5-0.1,0.6,0c0.4,0.5,1,1,1.6,1.5C-176.5,367.7-176.4,368-176.6,368.2
					L-176.6,368.2z M-179.7,365.2c-0.2,0.1-0.5,0.1-0.6,0c-0.6-0.6-1-1-1.6-1.5c-0.1-0.2-0.1-0.5,0-0.6c0.2-0.1,0.5-0.1,0.6,0
					c0.4,0.5,1,0.9,1.6,1.5C-179.5,364.7-179.4,365-179.7,365.2L-179.7,365.2z M-182.7,362.2c-0.2,0.1-0.5,0.1-0.6,0l-1.6-1.5
					c-0.1-0.2-0.2-0.4,0-0.6c0.2-0.1,0.5-0.1,0.6,0l1.6,1.5C-182.5,361.7-182.5,362-182.7,362.2L-182.7,362.2z M-185.7,359.1
					c-0.2,0.1-0.5,0.1-0.6,0c-1-0.9-1.6-1.5-1.6-1.5c-0.1-0.2-0.1-0.5,0-0.6c0.2-0.1,0.5-0.1,0.6,0c0,0,0.6,0.6,1.6,1.5
					C-185.6,358.7-185.6,359-185.7,359.1L-185.7,359.1z"/>
			</g>
		</g>
	</g>
</g>
<g id="MalaRodinha_1_">
	<g id="Puxador_da_mala">
		<animateTransform id="malaAnimation"
			attributeName="transform"
			type="translate"
			values="0,0; 0,-40; 0,0"
			dur="2s"
			fill="freeze"
			begin="2s;malaAnimation.end+6s"
		/>
		<g>
			<path style="fill:#282F39;" d="M-20.7,271c0-7.8-6.3-14-14-14h-33.1c-7.8,0-14,6.3-14,14v6.9h8.2v-4.5c0-4.4,3.6-8.1,8.1-8.1
				h28.7c4.4,0,8.1,3.6,8.1,8.1v4.5h8.2L-20.7,271L-20.7,271z"/>
			<g>
				<g>
					<rect x="-27.3" y="278" style="fill:#D3D3D3;" width="5" height="45.8"/>
				</g>
				<g>
					<rect x="-80.2" y="278" style="fill:#D3D3D3;" width="5" height="45.8"/>
				</g>
			</g>
		</g>
		<g>
			<rect x="-27.3" y="278" style="fill:#BCB7B3;" width="5" height="5.9"/>
			<rect x="-80.2" y="278" style="fill:#BCB7B3;" width="5" height="5.9"/>
		</g>
	</g>
	<g>
		<path style="fill:#D8761D;" d="M-9.2,432.3h-84.4c-7.4,0-13.4-6-13.4-13.4V296.3c0-7.4,6-13.4,13.4-13.4h84.4
			c7.4,0,13.4,6,13.4,13.4v122.6C4.2,426.3-1.8,432.3-9.2,432.3z"/>
		<path style="fill:#E88636;" d="M-84.6,335.7c25.3-19.6,57.7-28.9,88.8-25.6v-16.5c0-5.9-4.8-10.7-10.7-10.7h-89.7
			c-5.9,0-10.7,4.8-10.7,10.7v71.7C-102.7,353.4-94.7,343.4-84.6,335.7z"/>
		<g>
			<rect x="-95.4" y="432.3" style="fill:#282F39;" width="16.7" height="3.6"/>
			<rect x="-24.2" y="432.3" style="fill:#282F39;" width="16.7" height="3.6"/>
		</g>
		<g>
			<g>
				<path style="fill:#8E3D00;" d="M-7.5,432.3h-87.8V352c0-6.5,5.2-11.7,11.7-11.7h64.4c6.5,0,11.7,5.2,11.7,11.7L-7.5,432.3
					L-7.5,432.3z"/>
				<path style="fill:#AF550B;" d="M-9.3,432.3h-84.3v-79.4c0-6,4.8-10.8,10.8-10.8h62.7c6,0,10.8,4.8,10.8,10.8L-9.3,432.3
					L-9.3,432.3z"/>
			</g>
			<g>
				<path style="fill:#D3D3D3;" d="M-18.2,356.4h-66.5c-0.4,0-0.7-0.3-0.7-0.7l0,0c0-0.4,0.3-0.7,0.7-0.7h66.5
					c0.4,0,0.7,0.3,0.7,0.7l0,0C-17.5,356.1-17.8,356.4-18.2,356.4z"/>
				<g>
					<path style="fill:#E5E5E5;" d="M-82.1,355.7h-1.6l-0.2,2.8c-0.1,0.6,0.4,1.1,1,1.1s1.1-0.5,1-1.1L-82.1,355.7z M-82.4,357.1
						h-1.1v-1h1.1V357.1z"/>
					<path style="fill:#BCB7B3;" d="M-82.9,356.7L-82.9,356.7c-0.1,0-0.2-0.1-0.2-0.2v-0.9c0-0.1,0.1-0.2,0.2-0.2l0,0
						c0.1,0,0.2,0.1,0.2,0.2v0.9C-82.7,356.6-82.8,356.7-82.9,356.7z"/>
				</g>
			</g>
		</g>
		<g>
			<g>
				<path style="fill:#8E3D00;" d="M-12.8,320.2H-90c-2.9,0-5.2-2.4-5.2-5.2v-11.8c0-2.9,2.4-5.2,5.2-5.2h77.3
					c2.9,0,5.2,2.4,5.2,5.2V315C-7.5,317.9-9.9,320.2-12.8,320.2z"/>
				<path style="fill:#AF550B;" d="M-12.6,318.6h-77.8c-1.8,0-3.3-1.5-3.3-3.3v-12.4c0-1.8,1.5-3.3,3.3-3.3h77.8
					c1.8,0,3.3,1.5,3.3,3.3v12.4C-9.3,317.1-10.8,318.6-12.6,318.6z"/>
			</g>
			<g>
				<path style="fill:#D3D3D3;" d="M-18.2,308.1h-66.5c-0.4,0-0.7-0.3-0.7-0.7l0,0c0-0.4,0.3-0.7,0.7-0.7h66.5
					c0.4,0,0.7,0.3,0.7,0.7l0,0C-17.5,307.8-17.8,308.1-18.2,308.1z"/>
				<g>
					<path style="fill:#E5E5E5;" d="M-82.1,307.4h-1.6l-0.2,2.8c-0.1,0.6,0.4,1.1,1,1.1s1.1-0.5,1-1.1L-82.1,307.4z M-82.4,308.8
						h-1.1v-1h1.1V308.8z"/>
					<path style="fill:#BCB7B3;" d="M-82.9,308.4L-82.9,308.4c-0.1,0-0.2-0.1-0.2-0.2v-0.9c0-0.1,0.1-0.2,0.2-0.2l0,0
						c0.1,0,0.2,0.1,0.2,0.2v0.9C-82.7,308.3-82.8,308.4-82.9,308.4z"/>
				</g>
			</g>
		</g>
		<g>
			<g>
				<rect x="-110.9" y="403.6" style="fill:#282F39;" width="3.8" height="7.9"/>
				<rect x="-110.9" y="303.7" style="fill:#282F39;" width="3.8" height="7.9"/>
			</g>
			<g>
				<g>
					<g>
						<g>
							<path style="fill:#282F39;" d="M4.2,344.6v4.6l0,0c1,0,1.9,1.8,1.9,3.8v9c0,2.2-0.8,3.8-1.9,3.8l0,0v4.6l0,0
								c2.3,0,4-3.8,4-8.5v-8.9C8.2,348.4,6.5,344.6,4.2,344.6L4.2,344.6z"/>
						</g>
					</g>
				</g>
			</g>
		</g>
	</g>
</g>
<g id="Objetos">
	<g id="MalaMão">
		<g id="MalaRodinha">
			<g>
				<g>
					<path style="fill:#D82C28;" d="M-174.4,273.8l-16,14.2l-21.1-1.7l-16.1,14.1l19.1,59.7l16.9-11.6l20.3-0.9l16.9-11.6l20.3-0.9
						l-19.1-59.7L-174.4,273.8z"/>
					<g>
						<polygon style="fill:#FFFFFF;" points="-211.8,289.3 -193.6,346 -207.5,355.7 -225,300.9 						"/>
						<polygon style="fill:#C0C9C8;" points="-189.5,290.9 -172.2,345.2 -193.6,346 -211.8,289.3 						"/>
						<polygon style="fill:#FFFFFF;" points="-172.6,276 -154.3,332.8 -172.2,345.2 -189.5,290.9 						"/>
						<polygon style="fill:#C0C9C8;" points="-155.1,277.3 -137.6,332.1 -154.3,332.8 -172.6,276 						"/>
					</g>
					<g>
						<g>
							<polygon style="fill:#59A6EC;" points="-219.2,311.2 -215.3,304.4 -209.2,305 -205.8,303 -206.5,301 -209,299 -207.7,295.2 
								-195.6,293.4 -192.7,296.7 -193.9,298.3 -197.8,296.8 -201.7,299.6 -203.3,301.9 -202.5,303.2 -198.5,305.3 -197.9,301.7 
								-194.1,301.3 -193.2,302.5 -193.7,305.3 -190.8,306 -188.7,309.2 -190.8,311.5 -193.8,312.1 -196.2,318.7 -200.6,320.6 
								-200.7,323.8 -198.1,325.2 -196.6,323 -186.1,323.1 -182.9,327.2 -186.6,332.2 -184.8,338.1 -182.1,340.1 -183.3,341.6 
								-192,339.3 -194.5,331.8 -198.7,331.4 -199.8,328 -203.4,324.9 -204.8,318.9 -209.9,317.2 -210.9,309.7 -213.4,308.1 
								-217.1,311.8 							"/>
							<polygon style="fill:#59A6EC;" points="-184,313.8 -186.2,317.3 -183.2,323.7 -179,325.1 -173,321.9 -168.3,329.7 
								-164.2,333.2 -162,332.4 -162.9,319.8 -167.6,314.2 -166.2,311.6 -169.3,309.6 -166,303.2 -160.4,304.6 -158.1,305.8 
								-157,309.1 -153.6,310.1 -153.5,308.2 -156.2,307.3 -156.1,300.3 -161.1,296.3 -157.8,291.4 -161,287.5 -160.1,283.9 
								-162.8,280.9 -173.5,282.7 -178.3,289.2 -186.3,293.3 -188.3,300.8 -184.3,305 -180.7,307.3 -177.8,304.6 -176.9,307.5 
								-177.4,311.5 -180.9,310.5 							"/>
							<path style="fill:#59A6EC;" d="M-155.5,318.8l-3.4,2.4l-0.8,3.8l2.6,1.9l2.7-2.3l2.6,0.5l1.5-1.6l2.4,2.1l1.2-1.3l-3.4-3.2
								c0,0,2.1-2.7,2-2.9c-0.2-0.2-3-2.6-3-2.6l-2.5,0.9l0.3,2.7L-155.5,318.8z"/>
						</g>
						<g style="opacity:0.5;">
							<polygon style="fill:#59A6EC;" points="-200.6,320.6 -200.7,323.8 -198.1,325.2 -196.6,323 -186.1,323.1 -182.9,327.2 
								-186.6,332.2 -184.8,338.1 -182.1,340.1 -183.3,341.6 -192,339.3 -194.5,331.8 -198.3,331.5 -207.2,303.8 -205.8,303 
								-206.5,301 -208.5,299.4 -208.8,298.4 -207.7,295.2 -195.6,293.4 -192.8,296.7 -193.9,298.3 -197.8,296.8 -201.7,299.6 
								-203.3,301.9 -202.5,303.2 -198.5,305.3 -197.9,301.7 -194.1,301.3 -193.2,302.5 -193.7,305.3 -190.8,306 -188.7,309.2 
								-190.8,311.5 -193.8,312.1 -196.2,318.7 							"/>
							<g>
								<polygon style="fill:#59A6EC;" points="-157.8,291.4 -161.1,296.3 -156.1,300.3 -156.2,307.4 -153.5,308.2 -153.6,310.1 
									-157,309.1 -158.1,305.8 -160.4,304.6 -163.7,303.8 -170.6,282.2 -162.8,280.9 -160.1,283.9 -161,287.5 								"/>
								<path style="fill:#59A6EC;" d="M-150.5,321.3l3.4,3.2l-1.2,1.3l-2.4-2.1l-1.5,1.6l-2.6-0.5l-1.9,1.6l-1.8-5.5l2.8-1.9
									l1.8,0.5l-0.3-2.7l2.5-0.9c0,0,2.9,2.4,3,2.6C-148.3,318.6-150.5,321.3-150.5,321.3z"/>
							</g>
						</g>
					</g>
				</g>
				<g>
					<path style="fill:#D82C28;" d="M-212.2,302.2c-1.2,0.6-1.7,2-1.2,3.2c0.6,1.2,4.2,3.4,4.2,3.4s0.6-4.2,0.1-5.4
						C-209.5,302.1-211,301.7-212.2,302.2z M-210.4,305.9c-0.9,0.4-2,0.1-2.4-0.8c-0.4-0.9,0-1.9,0.9-2.4c0.9-0.4,2-0.1,2.4,0.8
						S-209.5,305.5-210.4,305.9z"/>
				</g>
				<g>
					<path style="fill:#D82C28;" d="M-174.5,297.9c-1.2,0.6-1.7,2-1.2,3.2c0.6,1.2,4.2,3.4,4.2,3.4s0.6-4.2,0.1-5.4
						C-171.9,297.8-173.4,297.4-174.5,297.9z M-172.8,301.7c-0.9,0.4-2,0.1-2.4-0.8c-0.4-0.9,0-1.9,0.9-2.4c0.9-0.4,2-0.1,2.4,0.8
						C-171.5,300.2-171.9,301.2-172.8,301.7z"/>
				</g>
				<g>
					<path style="fill:#D82C28;" d="M-193.3,325.1c-1.2,0.6-1.7,2-1.2,3.2c0.6,1.2,4.2,3.4,4.2,3.4s0.6-4.2,0.1-5.4
						C-190.6,325-192.1,324.5-193.3,325.1z M-191.5,328.8c-0.9,0.4-2,0.1-2.4-0.8c-0.4-0.9,0-1.9,0.9-2.4c0.9-0.4,2-0.1,2.4,0.8
						C-190.2,327.3-190.6,328.3-191.5,328.8z"/>
				</g>
			</g>
			<g>
				<g>
					
						<rect x="-138.5" y="311.9" transform="matrix(-0.3377 0.9413 -0.9413 -0.3377 141.7298 567.8094)" style="fill:#FFF8E1;" width="19.1" height="43.8"/>
					<g>
						<g>
							
								<rect x="-139.5" y="341.1" transform="matrix(-0.9412 -0.3377 0.3377 -0.9412 -359.8763 620.4573)" style="fill:#C5CED7;" width="27.1" height="0.9"/>
							
								<rect x="-138.8" y="339.2" transform="matrix(-0.9413 -0.3377 0.3377 -0.9413 -357.8664 616.9551)" style="fill:#C5CED7;" width="27.1" height="0.9"/>
							
								<rect x="-138.2" y="337.1" transform="matrix(-0.9412 -0.3377 0.3377 -0.9412 -355.8918 613.2461)" style="fill:#C5CED7;" width="27.1" height="0.9"/>
						</g>
					</g>
					<g>
						<g>
							
								<rect x="-153.4" y="322.3" transform="matrix(-0.3377 0.9413 -0.9413 -0.3377 116.7198 574.5843)" style="fill:#689F38;" width="19.1" height="12"/>
							
								<text transform="matrix(0.9412 0.3377 -0.3377 0.9412 -150.053 334.3118)" style="fill:#FFF8E1; font-family:'ArialMT'; font-size:1.6787px;">TICKETS</text>
							
								<text transform="matrix(0.9412 0.3377 -0.3377 0.9412 -149.4894 332.7383)" style="fill:#FFF8E1; font-family:'ArialMT'; font-size:1.3848px;">AIRPLANE</text>
							<g>
								<path style="fill:#F5C242;" d="M-140.6,329.3l0.5-0.5l-0.4-0.8l0.2-0.2c0.1-0.1,0.1-0.2,0-0.3c-0.1-0.1-0.2-0.1-0.3,0
									l-0.1,0.1l-0.4-0.8l0.2-0.2c0.1-0.1,0.1-0.2,0-0.2c-0.1-0.1-0.2-0.1-0.3,0l-0.1,0.1l-0.5-1c0.2-0.2,0.3-0.3,0.5-0.5
									c1.5-1.6,1.1-2.1,1.1-2.1s-0.5-0.4-2,1.2c-0.2,0.2-0.3,0.3-0.5,0.5l-1-0.5l0.1-0.1c0.1-0.1,0.1-0.2,0-0.2
									c-0.1-0.1-0.2-0.1-0.3,0l-0.2,0.2l-0.8-0.4l0.1-0.1c0.1-0.1,0.1-0.2,0-0.2c-0.1-0.1-0.2-0.1-0.2,0l-0.2,0.2l-0.8-0.4
									l-0.5,0.5l2.7,2.2c-0.7,0.8-1.3,1.6-1.7,2.1l-1.1-0.2l-0.4,0.4l1.1,0.5l0.6,1.1l0.4-0.4l-0.3-1c0.5-0.4,1.3-1,2.1-1.7
									L-140.6,329.3z"/>
							</g>
						</g>
					</g>
				</g>
				
					<rect x="-135.7" y="325.2" transform="matrix(-0.9412 -0.3377 0.3377 -0.9412 -367.0793 594.2513)" style="fill:#C5CED7;" width="7.7" height="7.7"/>
				<g>
					
						<rect x="-112.8" y="328.1" transform="matrix(-0.3373 0.9414 -0.9414 -0.3373 162.1392 550.1229)" style="fill:#404851;" width="0.5" height="8.1"/>
					
						<rect x="-113.1" y="329" transform="matrix(-0.3375 0.9413 -0.9413 -0.3375 162.5346 551.6624)" style="fill:#404851;" width="0.5" height="8.1"/>
					
						<rect x="-113.4" y="329.9" transform="matrix(-0.3387 0.9409 -0.9409 -0.3387 162.694 553.5461)" style="fill:#404851;" width="0.5" height="8.1"/>
					
						<rect x="-113.7" y="330.8" transform="matrix(-0.3377 0.9413 -0.9413 -0.3377 163.3808 554.6626)" style="fill:#404851;" width="0.5" height="8.1"/>
					
						<rect x="-114" y="331.6" transform="matrix(-0.3377 0.9413 -0.9413 -0.3377 163.7975 556.0926)" style="fill:#404851;" width="0.5" height="8.1"/>
				</g>
			</g>
			<g>
				<path style="fill:#083060;" d="M-198.8,331.6l-17.1,13.3l-20.9-26.7l17.1-13.3c0.9-0.7,2.2-0.5,2.9,0.4l18.3,23.5
					C-197.7,329.5-197.9,330.8-198.8,331.6z"/>
				<path style="fill:#003C94;" d="M-199.3,332l-17.1,13.3l-20.9-26.7l17.1-13.3c0.9-0.7,2.2-0.5,2.9,0.4l18.3,23.5
					C-198.3,329.9-198.4,331.3-199.3,332z"/>
				<g>
					<path style="fill:#054DA3;" d="M-234.7,318.4l15.1-11.8c0.6-0.4,1.4-0.3,1.8,0.2l17.5,22.5L-234.7,318.4z"/>
					<g>
						<g>
							<path style="fill:#F5C242;" d="M-218.7,314.6c-0.2,0-0.4,0-0.6-0.1c-1.7-0.1-3.4,0.4-4.8,1.5c0,0-0.1,0-0.1,0.1l-0.1,0.1
								c-1.4,1.1-2.3,2.7-2.6,4.3c0,0.2-0.1,0.4-0.1,0.6c-0.2,1.8,0.3,3.6,1.5,5.2c1.2,1.6,2.9,2.5,4.6,2.7c0.2,0,0.4,0,0.6,0.1
								c1.7,0.1,3.4-0.4,4.8-1.5c0,0,0.1,0,0.1-0.1c0,0,0.1,0,0.1-0.1c1.4-1.1,2.3-2.7,2.6-4.3c0-0.2,0.1-0.4,0.1-0.6
								c0.2-1.8-0.3-3.6-1.5-5.2C-215.2,315.8-216.9,314.9-218.7,314.6z M-214.7,317.5L-214.7,317.5l-2.3,1.8l0,0
								c-0.8-1-1.7-1.8-2.6-2.4c0.3-0.5,0.5-1.1,0.7-1.7C-217.2,315.4-215.7,316.2-214.7,317.5z M-223.9,320.6
								c0.7-0.3,1.4-0.6,2.1-1.1l1.8,2.2l-2.2,1.8l0,0C-223,322.5-223.5,321.5-223.9,320.6z M-223.5,316.4L-223.5,316.4
								c0.8-0.4,2-0.1,3.3,0.7c-0.4,0.6-0.9,1.1-1.5,1.6l0,0L-223.5,316.4z M-224,316.8l1.8,2.3c-0.6,0.4-1.3,0.8-1.9,1
								C-224.6,318.6-224.5,317.5-224,316.8z M-219.8,322.2l1.8,2.2c-0.6,0.5-1.2,1.1-1.6,1.8c-0.8-0.6-1.7-1.4-2.4-2.3
								L-219.8,322.2z M-217.6,324.9l1.8,2.3c-0.8,0.4-2,0.1-3.3-0.7C-218.7,325.9-218.2,325.3-217.6,324.9z M-215.4,326.8
								L-215.4,326.8l-1.8-2.3l0,0c0.6-0.4,1.3-0.8,1.9-1C-214.8,324.9-214.8,326.1-215.4,326.8z M-217.5,324.1L-217.5,324.1
								l-1.8-2.2l2.2-1.8c0.7,1,1.3,1.9,1.6,2.9C-216.2,323.2-216.9,323.6-217.5,324.1z M-219.7,321.4l-1.8-2.3l0,0
								c0.6-0.5,1.2-1.1,1.6-1.8c0.8,0.6,1.7,1.4,2.4,2.3l0,0L-219.7,321.4z M-219.4,315.2c-0.1,0.5-0.3,1-0.6,1.4
								c-0.8-0.5-1.6-0.8-2.3-0.9C-221.4,315.3-220.4,315.1-219.4,315.2z M-225,317.8c-0.1,0.7,0,1.6,0.3,2.5
								c-0.5,0.1-1,0.2-1.5,0.2C-226,319.5-225.6,318.5-225,317.8z M-226.3,321c0.6,0,1.2-0.1,1.8-0.3c0.4,1,1,2,1.7,3.1l0,0
								l-2.3,1.8l0,0C-226.1,324.3-226.5,322.6-226.3,321z M-224.7,326l2.3-1.8c0.8,1,1.7,1.8,2.6,2.4c-0.3,0.5-0.5,1.1-0.7,1.7
								C-222.1,328.1-223.6,327.3-224.7,326z M-220,328.4c0.1-0.5,0.3-1,0.6-1.4c0.8,0.5,1.6,0.8,2.3,0.9
								C-218,328.3-219,328.4-220,328.4z M-214.4,325.7c0.1-0.7,0-1.6-0.3-2.5c0.5-0.1,1-0.2,1.5-0.2
								C-213.4,324.1-213.8,325-214.4,325.7z M-213.1,322.5c-0.6,0-1.2,0.1-1.8,0.3c-0.4-1-1-2-1.7-3.1l2.3-1.8
								C-213.3,319.3-213,320.9-213.1,322.5z"/>
							
								<text transform="matrix(0.7881 -0.6156 0.6156 0.7881 -218.5909 337.7827)" style="fill:#F5C242; font-family:'ArialMT'; font-size:3.0506px;">PASSPORT</text>
						</g>
					</g>
				</g>
			</g>
			<g id="Mala">
				<polygon style="fill:#12171E;" points="-145.6,337.5 -145.6,338.9 -180.4,338.9 -180.5,336.1 				"/>
				<g>
					<g>
						<g>
							<path style="fill:#F5C242;" d="M-226.9,343v86.1c0,2.3,1.9,4.1,4.1,4.1h119.1c2.3,0,4.1-1.9,4.1-4.1V343
								c0-2.3-1.9-4.1-4.1-4.1h-119.1C-225,338.9-226.9,340.7-226.9,343z"/>
							<path style="opacity:0.5;fill:#F5C242;enable-background:new    ;" d="M-108.7,375.2c-11.6,12.3-24.9,22.6-41.7,26.6
								c-2.8,0.7-5.4,1.4-8.6,1.4c-16.1,0-32.8,0.3-47.5-5.4c-7.4-2.9-15.4-8.3-20.5-15.6v46.9c0,2.3,1.9,4.1,4.1,4.1h119.1
								c2.3,0,4.1-1.9,4.1-4.1v-64.3C-102.4,368.5-105.7,372-108.7,375.2z"/>
							<g>
								<g>
									<g>
										<path style="fill:#915620;" d="M-113.5,338.9c0,7.7,6.3,14,14,14V343c0-2.3-1.9-4.1-4.1-4.1H-113.5z"/>
										<path style="fill:#915620;" d="M-226.9,343v9.9c7.7,0,14-6.3,14-14h-9.9C-225,338.9-226.9,340.7-226.9,343z"/>
									</g>
									<g>
										<path style="fill:#915620;" d="M-113.5,433.3h9.9c2.3,0,4.1-1.9,4.1-4.1v-9.9C-107.2,419.3-113.5,425.6-113.5,433.3z"/>
										<path style="fill:#915620;" d="M-226.9,419.3v9.9c0,2.3,1.9,4.1,4.1,4.1h9.9C-212.9,425.6-219.2,419.3-226.9,419.3z"/>
									</g>
								</g>
							</g>
							<g>
								<g>
									<path style="opacity:0.5;fill:#683A15;enable-background:new    ;" d="M-223.3,343.1c-0.9,1.7,0.8,3.4,2.5,2.5
										c0.2-0.1,0.4-0.3,0.5-0.5c1-1.7-0.8-3.4-2.5-2.5C-223,342.8-223.2,342.9-223.3,343.1z"/>
									<path style="opacity:0.5;fill:#683A15;enable-background:new    ;" d="M-223.3,427.1c-0.9,1.7,0.8,3.4,2.5,2.4
										c0.2-0.1,0.4-0.3,0.5-0.5c1-1.7-0.8-3.4-2.5-2.5C-223,426.7-223.2,426.9-223.3,427.1z"/>
								</g>
								<g style="opacity:0.5;">
									<path style="fill:#683A15;" d="M-106,343.1c-0.9,1.7,0.8,3.4,2.5,2.5c0.2-0.1,0.4-0.3,0.5-0.5c0.9-1.7-0.8-3.4-2.5-2.5
										C-105.7,342.8-105.9,342.9-106,343.1z"/>
									<path style="fill:#683A15;" d="M-106,427.1c-0.9,1.7,0.8,3.4,2.5,2.4c0.2-0.1,0.4-0.3,0.5-0.5c1-1.7-0.8-3.4-2.5-2.5
										C-105.7,426.7-105.9,426.9-106,427.1z"/>
								</g>
							</g>
						</g>
						<g>
							<g>
								<g>
									<path style="fill:#683A15;" d="M-180.9,338.9h6.3l0,0c0-2.9,2.4-5.2,5.2-5.2h12.2c2.9,0,5.2,2.4,5.2,5.2l0,0h6.3l0,0
										c0-6.4-5.2-11.6-11.6-11.6h-12C-175.7,327.2-180.9,332.4-180.9,338.9L-180.9,338.9z"/>
								</g>
							</g>
						</g>
						<g>
							<rect x="-212.9" y="433.3" style="fill:#282F39;" width="12" height="2.7"/>
							<rect x="-125.5" y="433.3" style="fill:#282F39;" width="12" height="2.7"/>
						</g>
					</g>
					<g>
						<g>
							<path style="fill:#D82C28;" d="M-183.6,418l7.8,1.7c0.6,0.1,1.2-0.3,1.4-0.9l1.7-7.8c0.1-0.6-0.3-1.2-0.9-1.4l-7.8-1.7
								c-0.6-0.1-1.2,0.3-1.4,0.9l-1.7,7.8C-184.6,417.3-184.2,417.9-183.6,418z"/>
							<polygon style="fill:#FFF8E1;" points="-181.6,412.2 -179.5,412.7 -179,410.5 -177,410.9 -177.4,413.1 -175.3,413.6 
								-175.7,415.5 -177.9,415.1 -178.4,417.3 -180.4,416.8 -179.9,414.6 -182,414.3 							"/>
						</g>
						<g>
							<g>
								<g>
									<path style="fill:#282F39;" d="M-148.3,405.1c3.5-2.9,3.6-6,3.6-6l0.6-0.1l0.6,5.2c0.4,5.9-2.4,8.3-3.4,9L-148.3,405.1z"/>
									<path style="fill:#282F39;" d="M-140.8,418.5l-5.1,0.8l-1-5.9c1.2-0.8,3.8-3.2,3.4-9.2l-0.5-5.1h1.3h0.1h0.5l0,0l3.3-0.1
										c0,0,0.7-0.7,1.2-0.6c0,0,0.3,0,0.3,0.2l0.9-0.1c0,0,0.3-0.1,0,0.3c-0.3,0.3-0.9,0.8-2.6,1c0,0-0.2,0.5-0.7,1.2l0,0
										c0,0.1-0.1,0.1-0.1,0.2l0,0c-0.7,0.8-1.9,1.7-3.5,1.9L-140.8,418.5z"/>
									<path style="fill:#282F39;" d="M-156.3,401.7c0.4,0.2,1.1,0.4,2.7,0.2c0,0,0,0,0.1,0c0,0,2.1,2.4,5.2,1.8l0.2,1
										c0.4-0.3,0.7-0.6,1-1c2.2-2.3,2.3-4.5,2.3-4.7h-0.2l-0.3-2.1v-0.2c-0.1-0.5-0.5-1-1-1.1c-0.2,0-0.4-0.1-0.6,0
										c-0.7,0.1-1.3,0.8-1.1,1.6v0.2l0.3,2.1l-6.1,1.8c0,0-0.9-0.4-1.4-0.2c0,0-0.3,0.1-0.2,0.3l-0.9,0.1
										C-156.4,401.4-156.7,401.5-156.3,401.7z"/>
								</g>
							</g>
						</g>
						<g>
							<path style="fill:#FFF8E1;" d="M-192.3,354.5c-4.5,5.2-0.3,12.6,6.5,11.3c1.3-0.2,2.4-0.9,3.3-1.9c4.5-5.2,0.3-12.6-6.5-11.3
								C-190.2,352.9-191.4,353.5-192.3,354.5z"/>
							<path style="fill:#D82C28;" d="M-189.7,356.9c-2.3,2.6-0.1,6.2,3.2,5.6c0.6-0.1,1.2-0.4,1.6-0.9c2.3-2.6,0.1-6.2-3.2-5.6
								C-188.7,356.2-189.3,356.5-189.7,356.9z"/>
						</g>
						<g>
							
								<rect x="-125.6" y="353.1" transform="matrix(-0.9006 -0.4346 0.4346 -0.9006 -383.2802 630.8203)" style="fill:#FFF8E1;" width="12.2" height="12.2"/>
							
								<rect x="-125.2" y="351.4" transform="matrix(-0.9007 -0.4345 0.4345 -0.9007 -389.3763 625.9543)" style="fill:#D82C28;" width="4.1" height="12.2"/>
							
								<rect x="-117.8" y="354.9" transform="matrix(-0.9006 -0.4346 0.4346 -0.9006 -376.9542 635.8909)" style="fill:#689F38;" width="4.1" height="12.2"/>
						</g>
						<g>
							<path style="fill:#FFF8E1;" d="M-205.4,401.8c1,0.7,1.8,1.4,2.5,1.9l1.5-0.7l1.9,1.2l-2.1,1.7l-0.6,2.7l-1.9-1.2v-1.6
								c-0.8-0.3-1.7-0.8-2.8-1.4l-2.5,4.9l-2-1.3l0.3-1.4l0,0c-0.1-0.1-0.2-0.1-0.2-0.2c-0.3-0.3-0.3-0.8-0.1-1.2
								c0.1-0.2,0.4-0.4,0.6-0.4h0.1v-0.1c-0.1-0.1-0.2-0.1-0.2-0.2c-0.3-0.3-0.3-0.8-0.1-1.2c0.1-0.2,0.4-0.4,0.6-0.4h0.1l0.1-0.5
								c-0.2-0.1-0.3-0.2-0.5-0.3c-1-0.6-1.7-1.2-2.2-1.7c-0.9-1-0.7-1.7-0.6-1.9v-0.1v-0.1c0.3-0.4,1.4-1.1,4.4,0.9
								c0.2,0.1,0.3,0.2,0.5,0.3l0.4-0.3c-0.1-0.3-0.1-0.6,0.1-0.8c0.1-0.2,0.4-0.4,0.6-0.4c0.3-0.1,0.5,0,0.7,0.1l0.1-0.1
								c-0.1-0.3-0.1-0.6,0.1-0.9c0.1-0.2,0.4-0.4,0.6-0.4c0.3-0.1,0.5,0,0.7,0.1l0,0l1.1-0.9l2,1.3L-205.4,401.8z"/>
							<path style="fill:#054DA1;" d="M-203.1,397.6l-1-0.6l-1.1,0.9l-0.4-0.3c-0.1-0.1-0.3,0-0.4,0.1s0,0.3,0.1,0.4l0.3,0.2
								l-1.1,0.8l-0.4-0.3c-0.1-0.1-0.3,0-0.4,0.1c-0.1,0.1,0,0.3,0.1,0.4l0.2,0.2l-1.4,1.1c-0.3-0.2-0.6-0.4-0.9-0.6
								c-3-1.9-3.5-1.1-3.5-1.1s-0.4,0.9,2.5,2.8c0.3,0.2,0.6,0.4,0.9,0.6l-0.4,1.7l-0.2-0.2c-0.1-0.1-0.3,0-0.4,0.1
								c-0.1,0.1,0,0.3,0.1,0.4l0.4,0.3l-0.3,1.3l-0.3-0.2c-0.1-0.1-0.3,0-0.4,0.1c-0.1,0.1,0,0.3,0.1,0.4l0.4,0.3l-0.3,1.4l1,0.6
								l2.5-4.8c1.4,0.8,2.8,1.5,3.7,1.9v1.7l0.8,0.5l0.5-1.9l1.6-1.3l-0.8-0.5l-1.5,0.8c-0.8-0.7-2-1.7-3.3-2.6L-203.1,397.6z"/>
						</g>
						<g>
							<g>
								<g>
									<g>
										<g>
											<g>
												<rect x="-200.9" y="338.9" style="fill:#683A15;" width="10.2" height="94.4"/>
											</g>
										</g>
									</g>
								</g>
								<g>
									<path style="fill:#915620;" d="M-188.9,338.9h-13.8v5.1c0,3.8,3.1,6.9,6.9,6.9l0,0c3.8,0,6.9-3.1,6.9-6.9V338.9z"/>
									<path style="fill:#D3D3D3;" d="M-197.3,343.9c-1,1.7,0.8,3.4,2.5,2.4c0.2-0.1,0.4-0.3,0.5-0.5c0.9-1.7-0.8-3.4-2.5-2.4
										C-197,343.5-197.1,343.7-197.3,343.9z"/>
								</g>
								<g>
									<path style="fill:#915620;" d="M-202.7,433.3h13.8v-5.1c0-3.8-3.1-6.9-6.9-6.9l0,0c-3.8,0-6.9,3.1-6.9,6.9V433.3z"/>
									<path style="fill:#D3D3D3;" d="M-194.3,428.3c0.9-1.7-0.8-3.4-2.4-2.4c-0.2,0.1-0.4,0.3-0.5,0.5c-1,1.7,0.8,3.4,2.5,2.5
										C-194.6,428.5-194.4,428.4-194.3,428.3z"/>
									<g>
										<path style="fill:#D3D3D3;" d="M-194.3,407c0.9-1.7-0.8-3.4-2.4-2.4c-0.2,0.1-0.4,0.3-0.5,0.5c-1,1.7,0.8,3.4,2.5,2.5
											C-194.6,407.3-194.4,407.2-194.3,407z"/>
										<path style="fill:#D3D3D3;" d="M-194.3,387c0.9-1.7-0.8-3.4-2.4-2.5c-0.2,0.1-0.4,0.3-0.5,0.5c-1,1.7,0.8,3.4,2.5,2.5
											C-194.6,387.3-194.4,387.2-194.3,387z"/>
										<path style="fill:#D3D3D3;" d="M-194.3,367c0.9-1.7-0.8-3.4-2.5-2.4c-0.2,0.1-0.4,0.3-0.5,0.5c-1,1.7,0.8,3.4,2.5,2.5
											C-194.6,367.4-194.4,367.2-194.3,367z"/>
									</g>
								</g>
							</g>
							<g>
								<g>
									<g>
										<g>
											<g>
												<rect x="-135.6" y="338.9" style="fill:#683A15;" width="10.2" height="94.4"/>
											</g>
										</g>
									</g>
								</g>
								<g>
									<path style="fill:#915620;" d="M-123.7,338.9h-13.8v5.1c0,3.8,3.1,6.9,6.9,6.9l0,0c3.8,0,6.9-3.1,6.9-6.9V338.9z"/>
									<path style="fill:#D3D3D3;" d="M-132.1,343.9c-1,1.7,0.8,3.4,2.5,2.5c0.2-0.1,0.4-0.3,0.5-0.5c0.9-1.7-0.8-3.4-2.5-2.4
										C-131.8,343.5-132,343.7-132.1,343.9z"/>
								</g>
								<g>
									<path style="fill:#915620;" d="M-137.5,433.3h13.8v-5.1c0-3.8-3.1-6.9-6.9-6.9l0,0c-3.8,0-6.9,3.1-6.9,6.9V433.3z"/>
									<path style="fill:#D3D3D3;" d="M-129.1,428.3c0.9-1.7-0.8-3.4-2.5-2.4c-0.2,0.1-0.4,0.3-0.5,0.5c-0.9,1.7,0.8,3.4,2.5,2.5
										C-129.4,428.5-129.3,428.4-129.1,428.3z"/>
									<g>
										<path style="fill:#D3D3D3;" d="M-129.1,407c0.9-1.7-0.8-3.4-2.5-2.4c-0.2,0.1-0.4,0.3-0.5,0.5c-1,1.7,0.8,3.4,2.5,2.5
											C-129.4,407.3-129.2,407.2-129.1,407z"/>
										<path style="fill:#D3D3D3;" d="M-129.1,387c0.9-1.7-0.8-3.4-2.5-2.5c-0.2,0.1-0.4,0.3-0.5,0.5c-1,1.7,0.8,3.4,2.4,2.5
											C-129.4,387.3-129.3,387.2-129.1,387z"/>
										<path style="fill:#D3D3D3;" d="M-129.1,367c0.9-1.7-0.8-3.4-2.5-2.4c-0.2,0.1-0.4,0.3-0.5,0.5c-1,1.7,0.8,3.4,2.5,2.5
											C-129.4,367.4-129.2,367.2-129.1,367z"/>
									</g>
								</g>
							</g>
						</g>
						<polygon style="fill:#282F39;" points="-213.8,363.5 -211.6,366.1 -208.2,365.7 -210,368.6 -208.6,371.7 -211.9,370.9 
							-214.5,373.2 -214.7,369.8 -217.6,368.1 -214.5,366.8 						"/>
					</g>
				</g>
				<g>
					<animateTransform
						attributeName="transform"
						type="translate"
						values="0,0; -2,0; 2,0; 0,0"
						dur="2s"
						fill="freeze"
					/>
					<g>
						<g>
							<g>
								<polygon style="fill:#283039;" points="-145.7,376.2 -148.4,376.5 -149.3,372.9 -145.6,372.5 								"/>
								<path style="fill:#D5DCE0;" d="M-144.8,373l-5.1,0.6c-0.4,0-0.8-0.3-0.9-0.7l-0.6-5.1c0-0.4,0.3-0.8,0.7-0.9l5.1-0.6
									c0.4,0,0.8,0.3,0.9,0.7l0.6,5.1C-144.1,372.6-144.4,373-144.8,373z"/>
								
									<rect x="-150.2" y="367.5" transform="matrix(-0.9942 0.1076 -0.1076 -0.9942 -254.827 753.5834)" style="fill:#C3CCD5;" width="4.9" height="4.9"/>
								
									<rect x="-149.9" y="367.7" transform="matrix(-0.9942 0.1077 -0.1077 -0.9942 -254.7526 753.5785)" style="fill:#283039;" width="4.3" height="4.3"/>
								
									<rect x="-149.2" y="368.4" transform="matrix(-0.9942 0.1078 -0.1078 -0.9942 -254.6922 753.5852)" style="fill:#12171E;" width="3" height="3"/>
								<path style="opacity:0.2;fill:#2D3842;enable-background:new    ;" d="M-147,368.3l-2.3,0.3l0.3,3h0.4
									C-148.3,370.4-147.8,369.2-147,368.3z"/>
							</g>
							<g>
								<path style="fill:#054DA3;" d="M-169,378.2c-0.6,0.1-1.1,0.6-1.2,1.2v0.1l1.5,13.9c0.1,0.7,0.7,1.3,1.5,1.2l26.2-2.9
									c0.7-0.1,1.3-0.7,1.2-1.5l-1.5-13.7c-0.1-0.7-0.8-1.3-1.5-1.2L-169,378.2z"/>
								<path style="fill:#003C94;" d="M-169.4,387l0.7,6.4c0.1,0.7,0.7,1.3,1.5,1.2l26.2-2.9c0.7-0.1,1.3-0.7,1.2-1.5l-1.1-10.3
									c-0.9,0.7-1.8,1.4-2.8,2C-151.1,386.1-160.9,390.3-169.4,387z"/>
								<g>
									
										<rect x="-168.5" y="376.6" transform="matrix(-0.9942 0.1075 -0.1075 -0.9942 -291.5066 770.2208)" style="fill:#12171E;" width="4" height="1.3"/>
									
										<rect x="-163.7" y="376.1" transform="matrix(-0.9942 0.1078 -0.1078 -0.9942 -282.568 768.8124)" style="fill:#12171E;" width="3.3" height="1.3"/>
								</g>
								<g>
									<path style="fill:#C3CCD5;" d="M-170.2,379.6l0.1,1.2l28.9-3.2l-0.1-1.2c-0.1-0.7-0.7-1.2-1.4-1.2l-26.3,2.9
										C-169.7,378.2-170.3,378.9-170.2,379.6z"/>
									<path style="fill:#D5DCE0;" d="M-142.8,375.3l-26.3,2.9c-0.6,0.1-1,0.5-1.1,1l28.7-3.2
										C-141.7,375.5-142.2,375.2-142.8,375.3z"/>
									<path style="fill:#C3CCD5;" d="M-168.8,392.3l0.1,1.1c0.1,0.7,0.7,1.3,1.5,1.2l26.2-2.9c0.7-0.1,1.3-0.7,1.2-1.5l-0.1-1.1
										L-168.8,392.3z"/>
								</g>
								<path style="fill:#D5DCE0;" d="M-168.3,394.1c0.3,0.3,0.7,0.4,1.1,0.4l26.2-2.9c0.4,0,0.7-0.3,1-0.6L-168.3,394.1z"/>
							</g>
						</g>
						<g>
							<g>
								<path style="fill:#D5DCE0;" d="M-146.1,378.4c5,7.8-2.2,16.8-10.8,13.5c-1.5-0.6-2.8-1.6-3.5-2.9c-5-7.8,2.3-16.8,10.8-13.5
									C-148.2,376-146.9,377-146.1,378.4z"/>
								<circle style="fill:#404751;" cx="-153.2" cy="383.7" r="8.1"/>
								<circle style="fill:#283039;" cx="-153.2" cy="383.7" r="7"/>
								<path style="fill:#12171E;" d="M-147.9,380.1c3.4,5.5-1.8,11.8-7.9,9.6c-1.2-0.4-2.2-1.3-2.9-2.4c-3.4-5.5,1.8-11.7,7.9-9.6
									C-149.6,378.2-148.6,379-147.9,380.1z"/>
							</g>
							<path style="fill:#31476C;" d="M-150.8,381.9c1.7,2.7-0.8,5.6-3.6,4.6c-0.5-0.2-1-0.6-1.3-1c-1.7-2.7,0.8-5.6,3.6-4.6
								C-151.6,381-151.1,381.4-150.8,381.9z"/>
							<path style="opacity:0.2;fill:#2D3842;enable-background:new    ;" d="M-147.7,380.4c-1.3-2.1-3.6-3.4-6.2-3.2
								c-3.5,0.4-6.1,3.5-5.7,7.1c0.1,0.8,0.3,1.6,0.7,2.3C-154.6,386.4-150.5,383.9-147.7,380.4z"/>
							<g>
								<path style="fill:#D5DCE0;" d="M-151.2,382.1c-1.4-0.3-1.6-2.1-0.3-2.6c0.2-0.1,0.4-0.1,0.6-0.1c1.4,0.3,1.6,2.1,0.3,2.6
									C-150.8,382.1-151,382.1-151.2,382.1z"/>
								<path style="fill:#D5DCE0;" d="M-152,383.9c-0.8,0.6-1.8-0.2-1.5-1.1c0-0.1,0.1-0.3,0.3-0.3c0.8-0.6,1.8,0.1,1.5,1.1
									C-151.8,383.7-151.9,383.9-152,383.9z"/>
							</g>
						</g>
					</g>
					<polygon style="fill:#12171E;" points="-170.2,379.2 -183.2,338.9 -180.5,336.1 -180.4,338.9 -170,378.8 					"/>
					<polygon style="fill:#12171E;" points="-142.2,375.4 -145.6,338.9 -145.6,337.5 -143.6,338.9 -141.8,375.6 					"/>
				</g>
			</g>
		</g>
	</g>
</g>
</svg>
