<?xml version="1.0" encoding="utf-8"?>
<!-- Generator: Adobe Illustrator 18.1.1, SVG Export Plug-In . SVG Version: 6.00 Build 0)  -->
<svg version="1.1" id="Layer_1" xmlns="http://www.w3.org/2000/svg" xmlns:xlink="http://www.w3.org/1999/xlink" x="0px" y="0px"
	 viewBox="156 246 300 300" enable-background="new 156 246 300 300" xml:space="preserve">
<g id="OBJECTS">
	<g>
		<path fill="#368FD8" d="M250.4,462c-11.2-4.3-22.2-8.9-32.6-14.1c-5.2-2.6-10.2-5.3-14.9-8.3c-2.3-1.5-4.6-3.1-6.6-4.7
			c-2-1.6-3.9-3.4-5-5.1c-0.6-0.8-0.9-1.6-1-2.1c0-0.1,0-0.1,0-0.2c0,0,0-0.1,0-0.1l0.1-0.6c0-0.4,0.1-1,0.2-1.6
			c0.1-0.5,0.3-1.2,0.4-1.8l0.2-0.9l0.3-0.9l0.6-1.9l0.7-1.9c1.8-5,4.1-10,6.4-14.9c0.2-0.4,0.4-0.9,0.6-1.3
			c13.7,18.7,39.9,43.9,68.2,66.7C262.1,466.4,256.2,464.2,250.4,462z"/>
		<g>
			<g>
				<g>
					
						<ellipse transform="matrix(0.5235 0.852 -0.852 0.5235 384.4673 -67.9031)" fill="#404851" cx="252.9" cy="309.8" rx="0.7" ry="1.9"/>
					
						<ellipse transform="matrix(0.5234 0.8521 -0.8521 0.5234 373.8897 -71.0117)" fill="#404851" cx="250.4" cy="298.7" rx="0.7" ry="1.9"/>
				</g>
				<g>
					
						<ellipse transform="matrix(-0.5233 -0.8522 0.8522 -0.5233 117.3763 590.8081)" fill="#404851" cx="223.9" cy="262.6" rx="0.7" ry="1.9"/>
					
						<ellipse transform="matrix(-0.5231 -0.8523 0.8523 -0.5231 124.3998 609.1141)" fill="#404851" cx="232.6" cy="269.8" rx="0.7" ry="1.9"/>
				</g>
				<g>
					<path fill="#BCBBBB" d="M251.9,321.7l-4.2,2.6l-8.8-15.7l-0.4-0.6l-5-8.9l-1.6-2.9c-8.4,4.5-16.8,8.6-22.5,10.8l0,10l-4.6,2.8
						l-2.6-11.4l-9-7.5l4.6-2.8l8.9,4.5c4.5-4.1,11.9-9.7,19.8-15.2l-11.2-16.6l-0.7-1l-1.2-1.8l-0.6-0.9l-4.3-6.3l4.2-2.6l5.1,4.1
						l1.5,1.2l2.6-1.6c0.8-0.5,1.8-0.2,2.2,0.5c0.5,0.8,0.2,1.8-0.5,2.2l-1.6,1l1.9,1.5l4.2,3.4l2.4-1.5c0.8-0.5,1.8-0.2,2.2,0.5
						c0.5,0.8,0.2,1.8-0.5,2.3l-1.4,0.9l7.9,6.3c1.9-1.2,3.7-2.3,5.4-3.4c17.4-10.7,21.1-6,21.1-6s2.5,5.4-14.9,16.1
						c-1.7,1.1-3.6,2.2-5.5,3.3l0.7,3.4l0.1,0.3l1.3,6.3l1.4-0.9c0.8-0.5,1.8-0.2,2.3,0.5c0.5,0.8,0.2,1.8-0.5,2.2l-2.4,1.5l0.4,2.2
						l1.2,5.6l1.6-1c0.8-0.5,1.8-0.2,2.2,0.5c0.5,0.8,0.2,1.8-0.5,2.2l-2.6,1.6L251.9,321.7z"/>
				</g>
				<path fill="#282F39" d="M257.7,271.4c-0.7-0.1-1.3,0-2,0.6c0,0,1,0.2,2,1c0.6,0.5,1,1.1,1.1,1.8c0.3,1.3,0,2.3,0,2.3
					c0.7-0.3,1.2-0.9,1.4-1.5C261,273.8,259.7,271.7,257.7,271.4z"/>
				
					<ellipse transform="matrix(0.5238 0.8518 -0.8518 0.5238 358.7526 -32.0582)" fill="#E0E1E2" cx="208" cy="304.8" rx="0.7" ry="5.5"/>
				<g>
					
						<rect x="245.4" y="298.2" transform="matrix(0.5234 0.8521 -0.8521 0.5234 373.8956 -71.4578)" fill="#C5CED7" width="10.9" height="0.5"/>
					
						<rect x="247.9" y="309.4" transform="matrix(0.5233 0.8521 -0.8521 0.5233 384.5734 -68.2885)" fill="#C5CED7" width="10.9" height="0.5"/>
				</g>
				<g>
					
						<rect x="227.6" y="269.3" transform="matrix(-0.5234 -0.8521 0.8521 -0.5234 125.3346 609.2317)" fill="#C5CED7" width="10.9" height="0.5"/>
					
						<rect x="218.8" y="262" transform="matrix(-0.5234 -0.8521 0.8521 -0.5234 118.1395 590.6813)" fill="#C5CED7" width="10.9" height="0.5"/>
				</g>
				<path fill="#E0E1E2" d="M245.8,292.3l-12.2,6.8l-1.6-2.9c2.5-1.3,13.1-7.3,13.1-7.3L245.8,292.3z"/>
				<polygon fill="#E0E1E2" points="224.1,267.1 215.4,270.8 214.7,269.8 222.1,265.6 				"/>
				<polygon fill="#E0E1E2" points="248.3,304.5 238.9,308.6 238.6,308 247.9,302.3 				"/>
				<g>
					<g>
						<path fill="#FFFFFF" d="M219.6,294.1c-0.1-0.2-0.1-0.5,0.1-0.6c0.5-0.4,1.1-0.8,1.7-1.3c0.2-0.2,0.5-0.1,0.7,0.1
							c0.2,0.2,0.1,0.5-0.1,0.7c-0.7,0.5-1.2,0.9-1.7,1.3C220,294.4,219.7,294.4,219.6,294.1C219.6,294.1,219.6,294.1,219.6,294.1z
							 M223.1,291.5c-0.1-0.2-0.1-0.5,0.1-0.6c0.6-0.4,1.2-0.8,1.8-1.3c0.2-0.1,0.5-0.1,0.6,0.1c0.2,0.2,0.1,0.5-0.1,0.6
							c-0.6,0.4-1.2,0.9-1.8,1.3C223.5,291.8,223.2,291.8,223.1,291.5C223.1,291.5,223.1,291.5,223.1,291.5z M226.6,289
							c-0.1-0.2-0.1-0.5,0.1-0.6c0.6-0.4,1.2-0.8,1.8-1.2c0.2-0.1,0.5-0.1,0.6,0.1c0.2,0.2,0.1,0.5-0.1,0.6
							c-0.6,0.4-1.2,0.8-1.8,1.2C227.1,289.3,226.8,289.2,226.6,289C226.6,289,226.6,289,226.6,289z M230.2,286.5
							c-0.1-0.2-0.1-0.5,0.1-0.6c0.6-0.4,1.2-0.8,1.8-1.2c0.2-0.1,0.5-0.1,0.6,0.1c0.1,0.2,0.1,0.5-0.1,0.6
							c-0.6,0.4-1.2,0.8-1.8,1.2C230.6,286.8,230.4,286.8,230.2,286.5C230.2,286.5,230.2,286.5,230.2,286.5z M233.8,284.1
							c-0.1-0.2-0.1-0.5,0.1-0.6c0.6-0.4,1.2-0.8,1.8-1.2c0.2-0.1,0.5-0.1,0.6,0.1c0.1,0.2,0.1,0.5-0.1,0.6
							c-0.6,0.4-1.2,0.8-1.8,1.2C234.2,284.3,233.9,284.3,233.8,284.1C233.8,284.1,233.8,284.1,233.8,284.1z M237.4,281.6
							c-0.1-0.2-0.1-0.5,0.1-0.6c0.6-0.4,1.2-0.8,1.8-1.2c0.2-0.1,0.5-0.1,0.6,0.1c0.1,0.2,0.1,0.5-0.1,0.6
							c-0.6,0.4-1.2,0.8-1.8,1.2C237.8,281.9,237.5,281.8,237.4,281.6C237.4,281.6,237.4,281.6,237.4,281.6z M241,279.2
							c-0.1-0.2-0.1-0.5,0.1-0.6l1.8-1.2c0.2-0.1,0.5-0.1,0.6,0.1c0.1,0.2,0.1,0.5-0.1,0.6l-1.8,1.2
							C241.4,279.5,241.2,279.4,241,279.2C241,279.2,241,279.2,241,279.2z M244.6,276.7c-0.1-0.2-0.1-0.5,0.1-0.6
							c1.1-0.8,1.8-1.2,1.8-1.2c0.2-0.1,0.5-0.1,0.6,0.1c0.1,0.2,0.1,0.5-0.1,0.6c0,0-0.7,0.4-1.8,1.2
							C245.1,277,244.8,277,244.6,276.7C244.6,276.8,244.6,276.8,244.6,276.7z"/>
					</g>
					<g>
						<path fill="#FFFFFF" d="M222.8,299.5c-0.1-0.2,0-0.5,0.2-0.6c0.6-0.3,1.2-0.6,1.9-1c0.2-0.1,0.5,0,0.6,0.2
							c0.1,0.2,0,0.5-0.2,0.6c-0.7,0.4-1.4,0.7-2,1C223.2,299.8,223,299.7,222.8,299.5C222.9,299.5,222.8,299.5,222.8,299.5z
							 M226.7,297.5c-0.1-0.2,0-0.5,0.2-0.6c0.6-0.3,1.3-0.7,1.9-1c0.2-0.1,0.5,0,0.6,0.2c0.1,0.2,0,0.5-0.2,0.6
							c-0.7,0.4-1.3,0.7-1.9,1C227.2,297.8,226.9,297.7,226.7,297.5C226.8,297.5,226.7,297.5,226.7,297.5z M230.6,295.5
							c-0.1-0.2,0-0.5,0.2-0.6c0.6-0.3,1.3-0.7,1.9-1c0.2-0.1,0.5,0,0.6,0.2c0.1,0.2,0,0.5-0.2,0.6c-0.7,0.3-1.3,0.7-1.9,1
							C231,295.8,230.7,295.7,230.6,295.5C230.6,295.5,230.6,295.5,230.6,295.5z M234.4,293.4c-0.1-0.2,0-0.5,0.2-0.6
							c0.6-0.3,1.3-0.7,1.9-1c0.2-0.1,0.5,0,0.6,0.2c0.1,0.2,0,0.5-0.2,0.6c-0.6,0.3-1.3,0.7-1.9,1
							C234.8,293.7,234.6,293.7,234.4,293.4C234.4,293.4,234.4,293.4,234.4,293.4z M238.3,291.3c-0.1-0.2,0-0.5,0.2-0.6
							c0.6-0.4,1.3-0.7,1.9-1.1c0.2-0.1,0.5,0,0.6,0.2c0.1,0.2,0,0.5-0.2,0.6c-0.6,0.3-1.3,0.7-1.9,1.1
							C238.7,291.6,238.4,291.6,238.3,291.3C238.3,291.3,238.3,291.3,238.3,291.3z M242.1,289.2c-0.1-0.2,0-0.5,0.2-0.6
							c0.7-0.4,1.3-0.7,1.9-1.1c0.2-0.1,0.5,0,0.6,0.2c0.1,0.2,0,0.5-0.2,0.6c-0.6,0.3-1.2,0.7-1.9,1.1
							C242.5,289.5,242.2,289.5,242.1,289.2C242.1,289.2,242.1,289.2,242.1,289.2z M245.9,287.1c-0.1-0.2,0-0.5,0.2-0.6l1.9-1.1
							c0.2-0.1,0.5-0.1,0.6,0.2c0.1,0.2,0,0.5-0.2,0.6l-1.9,1.1C246.3,287.4,246,287.3,245.9,287.1
							C245.9,287.1,245.9,287.1,245.9,287.1z M249.7,285c-0.1-0.2,0-0.5,0.2-0.6c1.2-0.7,1.9-1.1,1.9-1.1c0.2-0.1,0.5,0,0.6,0.2
							c0.1,0.2,0,0.5-0.2,0.6c0,0-0.7,0.4-1.9,1.1C250.1,285.3,249.8,285.2,249.7,285C249.7,285,249.7,285,249.7,285z"/>
					</g>
				</g>
			</g>
			<g>
				<path fill="#BCBBBB" d="M254.6,437.7C254.6,437.7,254.6,437.7,254.6,437.7c-1.7-0.3-3.4-0.5-5-0.8c-0.5-0.1-0.8-0.5-0.7-1
					c0.1-0.5,0.5-0.8,1-0.7c1.6,0.3,3.3,0.5,4.9,0.8c0.5,0.1,0.8,0.5,0.7,0.9C255.4,437.4,255.1,437.7,254.6,437.7z M244.9,436
					c0,0-0.1,0-0.1,0c-1.6-0.3-3.3-0.7-4.9-1c-0.4-0.1-0.7-0.5-0.6-1c0.1-0.4,0.5-0.7,1-0.6c1.6,0.3,3.2,0.7,4.8,1
					c0.4,0.1,0.7,0.5,0.7,1C245.6,435.8,245.3,436,244.9,436z M235.1,433.9c-0.1,0-0.1,0-0.2,0c-1.6-0.4-3.3-0.8-4.8-1.2
					c-0.4-0.1-0.7-0.6-0.6-1c0.1-0.4,0.6-0.7,1-0.6c1.6,0.4,3.2,0.8,4.8,1.2c0.4,0.1,0.7,0.6,0.6,1
					C235.9,433.7,235.5,433.9,235.1,433.9z M225.6,431.3c-0.1,0-0.1,0-0.2,0c-1.6-0.5-3.2-1-4.7-1.5c-0.4-0.1-0.7-0.6-0.5-1.1
					c0.1-0.4,0.6-0.7,1.1-0.5c1.5,0.5,3.1,1,4.7,1.5c0.4,0.1,0.7,0.6,0.5,1C226.3,431.1,225.9,431.3,225.6,431.3z M216.2,428
					c-0.1,0-0.2,0-0.3-0.1c-1.6-0.6-3.1-1.2-4.6-1.9c-0.4-0.2-0.6-0.7-0.4-1.1c0.2-0.4,0.7-0.6,1.1-0.4c1.5,0.6,3,1.3,4.6,1.9
					c0.4,0.2,0.6,0.6,0.5,1.1C216.9,427.8,216.5,428.1,216.2,428z M207.1,424.1c-0.1,0-0.2,0-0.3-0.1c-1.5-0.7-3-1.5-4.4-2.3
					c-0.4-0.2-0.5-0.7-0.3-1.1c0.2-0.4,0.7-0.5,1.1-0.3c1.4,0.8,2.9,1.5,4.4,2.3c0.4,0.2,0.6,0.7,0.4,1.1
					C207.7,423.9,207.4,424.1,207.1,424.1z M198.4,419.3c-0.1,0-0.3,0-0.4-0.1c-0.9-0.5-1.8-1.1-2.6-1.7c-0.5-0.3-1.1-0.7-1.6-1.1
					c-0.4-0.3-0.5-0.8-0.2-1.2c0.3-0.4,0.8-0.5,1.2-0.2c0.5,0.4,1,0.7,1.6,1c0.9,0.6,1.7,1.1,2.6,1.6c0.4,0.2,0.5,0.7,0.3,1.1
					C198.9,419.2,198.6,419.3,198.4,419.3z M190.2,413.7c-0.2,0-0.3-0.1-0.5-0.2c-1.3-1-2.6-2.1-3.9-3.2c-0.3-0.3-0.4-0.8-0.1-1.2
					c0.3-0.3,0.8-0.4,1.2-0.1c1.2,1.1,2.5,2.1,3.8,3.1c0.4,0.3,0.4,0.8,0.1,1.2C190.7,413.6,190.4,413.7,190.2,413.7z M182.7,407.1
					c-0.2,0-0.4-0.1-0.5-0.2c-1.2-1.2-2.4-2.4-3.5-3.6c-0.3-0.3-0.3-0.9,0.1-1.2c0.3-0.3,0.9-0.3,1.2,0.1c1.1,1.2,2.2,2.4,3.4,3.6
					c0.3,0.3,0.3,0.8,0,1.2C183.2,407,182.9,407.1,182.7,407.1z M176.1,399.7c-0.2,0-0.5-0.1-0.6-0.3c-1-1.3-2-2.7-3-4
					c-0.3-0.4-0.2-0.9,0.2-1.2c0.4-0.3,0.9-0.2,1.2,0.2c0.9,1.3,1.9,2.7,2.9,4c0.3,0.4,0.2,0.9-0.1,1.2
					C176.5,399.7,176.3,399.7,176.1,399.7z M170.5,391.5c-0.3,0-0.5-0.2-0.7-0.4c-0.9-1.4-1.7-2.9-2.4-4.4c-0.2-0.4,0-0.9,0.4-1.1
					c0.4-0.2,0.9,0,1.1,0.4c0.7,1.5,1.5,2.9,2.3,4.3c0.2,0.4,0.1,0.9-0.3,1.1C170.8,391.5,170.6,391.5,170.5,391.5z M166.1,382.6
					c-0.3,0-0.6-0.2-0.7-0.5c-0.6-1.6-1.2-3.2-1.7-4.7c-0.1-0.4,0.1-0.9,0.5-1c0.4-0.1,0.9,0.1,1,0.5c0.5,1.5,1,3.1,1.6,4.6
					c0.2,0.4,0,0.9-0.5,1.1C166.3,382.6,166.2,382.6,166.1,382.6z M163.1,373.2c-0.4,0-0.7-0.3-0.8-0.6c-0.4-1.6-0.7-3.3-0.9-5
					c-0.1-0.5,0.3-0.9,0.7-0.9c0.5-0.1,0.9,0.3,0.9,0.7c0.2,1.6,0.5,3.2,0.8,4.8c0.1,0.4-0.2,0.9-0.6,1
					C163.3,373.2,163.2,373.2,163.1,373.2z M161.9,363.3c-0.4,0-0.8-0.4-0.8-0.8c0-1,0-1.9,0-2.9c0-0.7,0.1-1.5,0.2-2.2
					c0.1-0.5,0.5-0.8,0.9-0.7c0.5,0.1,0.8,0.5,0.7,0.9c-0.1,0.7-0.1,1.4-0.2,2.1c0,0.9-0.1,1.8,0,2.8
					C162.7,362.9,162.4,363.3,161.9,363.3C161.9,363.3,161.9,363.3,161.9,363.3z M163,353.5c-0.1,0-0.1,0-0.2,0
					c-0.4-0.1-0.7-0.6-0.6-1c0.4-1.6,0.9-3.2,1.5-4.8c0.2-0.4,0.6-0.6,1.1-0.5c0.4,0.2,0.6,0.6,0.5,1.1c-0.6,1.5-1.1,3.1-1.5,4.6
					C163.7,353.2,163.3,353.5,163,353.5z M166.5,344.2c-0.1,0-0.2,0-0.3-0.1c-0.4-0.2-0.6-0.7-0.4-1.1c0.7-1.5,1.6-2.9,2.5-4.4
					c0.2-0.4,0.8-0.5,1.1-0.3c0.4,0.2,0.5,0.8,0.3,1.1c-0.9,1.4-1.7,2.8-2.4,4.3C167.1,344.1,166.8,344.2,166.5,344.2z M171.7,335.8
					c-0.2,0-0.3-0.1-0.4-0.2c-0.4-0.3-0.4-0.8-0.2-1.2c1-1.3,2-2.6,3.1-3.9c0.3-0.3,0.8-0.4,1.2-0.1c0.3,0.3,0.4,0.8,0.1,1.2
					c-1.1,1.3-2.1,2.6-3.1,3.8C172.2,335.7,172,335.8,171.7,335.8z M178.1,328.2c-0.2,0-0.4-0.1-0.5-0.2c-0.3-0.3-0.3-0.8,0-1.2
					c1.1-1.2,2.3-2.4,3.6-3.5c0.3-0.3,0.9-0.3,1.2,0c0.3,0.3,0.3,0.9,0,1.2c-1.2,1.1-2.4,2.3-3.5,3.5
					C178.6,328.1,178.4,328.2,178.1,328.2z M185.4,321.4c-0.2,0-0.4-0.1-0.6-0.3c-0.3-0.3-0.3-0.9,0.1-1.2c1.3-1.1,2.6-2.1,3.9-3.1
					c0.4-0.3,0.9-0.2,1.2,0.2c0.3,0.4,0.2,0.9-0.2,1.2c-1.3,1-2.6,2-3.8,3.1C185.8,321.4,185.6,321.4,185.4,321.4z M193.3,315.4
					c-0.2,0-0.5-0.1-0.6-0.3c-0.3-0.4-0.2-0.9,0.2-1.2c1.4-1,2.7-1.9,4.2-2.8c0.4-0.2,0.9-0.1,1.1,0.2c0.2,0.4,0.1,0.9-0.2,1.1
					c-1.4,0.9-2.8,1.8-4.1,2.8C193.6,315.3,193.4,315.4,193.3,315.4z"/>
			</g>
			<g>
				<g>
					<g>
						<g>
							<path fill="#D8761D" d="M414.3,527.3h-85.6c-7.5,0-13.6-6.1-13.6-13.6V389.3c0-7.5,6.1-13.6,13.6-13.6h85.6
								c7.5,0,13.6,6.1,13.6,13.6v124.4C427.9,521.2,421.8,527.3,414.3,527.3z"/>
							<path fill="#E88636" d="M337.8,429.3c25.7-19.9,58.5-29.3,90.1-26v-16.7c0-6-4.9-10.9-10.9-10.9h-91c-6,0-10.9,4.9-10.9,10.9
								v72.7C319.4,447.2,327.6,437.1,337.8,429.3z"/>
							<g>
								<rect x="326.9" y="527.3" fill="#282F39" width="16.9" height="3.7"/>
								<rect x="399.1" y="527.3" fill="#282F39" width="16.9" height="3.7"/>
							</g>
							<g>
								<g>
									<path fill="#8E3D00" d="M416,527.3h-89.1v-81.5c0-6.6,5.3-11.9,11.9-11.9h65.3c6.6,0,11.9,5.3,11.9,11.9V527.3z"/>
									<path fill="#AF550B" d="M414.2,527.3h-85.5v-80.6c0-6.1,4.9-11,11-11h63.6c6.1,0,11,4.9,11,11V527.3z"/>
								</g>
								<g>
									<path fill="#D3D3D3" d="M405.2,450.3h-67.5c-0.4,0-0.7-0.3-0.7-0.7l0,0c0-0.4,0.3-0.7,0.7-0.7h67.5c0.4,0,0.7,0.3,0.7,0.7
										l0,0C405.9,450,405.6,450.3,405.2,450.3z"/>
									<g>
										<path fill="#E5E5E5" d="M340.3,449.6h-1.6l-0.2,2.8c-0.1,0.6,0.4,1.1,1,1.1s1.1-0.5,1-1.1L340.3,449.6z M340,451h-1.1v-1
											h1.1V451z"/>
										<path fill="#BCB7B3" d="M339.5,450.6L339.5,450.6c-0.1,0-0.2-0.1-0.2-0.2v-0.9c0-0.1,0.1-0.2,0.2-0.2l0,0
											c0.1,0,0.2,0.1,0.2,0.2v0.9C339.7,450.5,339.6,450.6,339.5,450.6z"/>
									</g>
								</g>
							</g>
							<g>
								<g>
									<path fill="#8E3D00" d="M410.7,413.6h-78.4c-2.9,0-5.3-2.4-5.3-5.3v-12c0-2.9,2.4-5.3,5.3-5.3h78.4c2.9,0,5.3,2.4,5.3,5.3
										v12C416,411.2,413.6,413.6,410.7,413.6z"/>
									<path fill="#AF550B" d="M410.9,411.9H332c-1.8,0-3.3-1.5-3.3-3.3V396c0-1.8,1.5-3.3,3.3-3.3h78.9c1.8,0,3.3,1.5,3.3,3.3
										v12.6C414.2,410.4,412.7,411.9,410.9,411.9z"/>
								</g>
								<g>
									<path fill="#D3D3D3" d="M405.2,401.3h-67.5c-0.4,0-0.7-0.3-0.7-0.7l0,0c0-0.4,0.3-0.7,0.7-0.7h67.5c0.4,0,0.7,0.3,0.7,0.7
										l0,0C405.9,401,405.6,401.3,405.2,401.3z"/>
									<g>
										<path fill="#E5E5E5" d="M340.3,400.6h-1.6l-0.2,2.8c-0.1,0.6,0.4,1.1,1,1.1s1.1-0.5,1-1.1L340.3,400.6z M340,402h-1.1v-1
											h1.1V402z"/>
										<path fill="#BCB7B3" d="M339.5,401.6L339.5,401.6c-0.1,0-0.2-0.1-0.2-0.2v-0.9c0-0.1,0.1-0.2,0.2-0.2l0,0
											c0.1,0,0.2,0.1,0.2,0.2v0.9C339.7,401.5,339.6,401.6,339.5,401.6z"/>
									</g>
								</g>
							</g>
							<g>
								<g>
									<rect x="311.1" y="498.2" fill="#282F39" width="3.9" height="8"/>
									<rect x="311.1" y="396.8" fill="#282F39" width="3.9" height="8"/>
								</g>
								<g>
									<g>
										<g>
											<g>
												<path fill="#282F39" d="M427.9,438.3v4.7l0,0c1,0,1.9,1.8,1.9,3.9v9.1c0,2.2-0.8,3.9-1.9,3.9l0,0v4.7l0,0
													c2.3,0,4.1-3.9,4.1-8.6V447C432,442.2,430.2,438.3,427.9,438.3L427.9,438.3z"/>
											</g>
										</g>
									</g>
								</g>
							</g>
						</g>
						<g>
							<g>
								<path fill="#282F39" d="M402.6,322.1c0-7.9-6.4-14.2-14.2-14.2h-33.6c-7.9,0-14.2,6.4-14.2,14.2v7h8.3v-4.6
									c0-4.5,3.7-8.2,8.2-8.2h29.1c4.5,0,8.2,3.7,8.2,8.2v4.6h8.3V322.1z"/>
								<g>
									<g>
										<rect x="395.9" y="329.2" fill="#D3D3D3" width="5.1" height="46.5"/>
									</g>
									<g>
										<rect x="342.3" y="329.2" fill="#D3D3D3" width="5.1" height="46.5"/>
									</g>
								</g>
							</g>
							<g>
								<rect x="395.9" y="329.2" fill="#BCB7B3" width="5.1" height="6"/>
								<rect x="342.3" y="329.2" fill="#BCB7B3" width="5.1" height="6"/>
							</g>
						</g>
					</g>
					<g>
						<g>
							<path fill="#D82C28" d="M248.8,366.6L232.6,381l-21.4-1.7l-16.3,14.3l19.4,60.6l17.1-11.8l20.6-0.9l17.1-11.8l20.6-0.9
								l-19.4-60.6L248.8,366.6z"/>
							<g>
								<polygon fill="#FFFFFF" points="210.9,382.3 229.4,439.9 215.3,449.7 197.5,394.1 								"/>
								<polygon fill="#C0C9C8" points="233.5,384 251.1,439 229.4,439.9 210.9,382.3 								"/>
								<polygon fill="#FFFFFF" points="250.7,368.8 269.2,426.5 251.1,439 233.5,384 								"/>
								<polygon fill="#C0C9C8" points="268.4,370.2 286.2,425.8 269.2,426.5 250.7,368.8 								"/>
							</g>
							<g>
								<g>
									<polygon fill="#59A6EC" points="203.4,404.5 207.3,397.6 213.5,398.3 217,396.2 216.3,394.2 213.7,392.2 215.1,388.3 
										227.3,386.5 230.3,389.8 229.1,391.5 225.1,389.9 221.1,392.8 219.5,395.1 220.3,396.4 224.4,398.6 225,394.9 228.8,394.5 
										229.8,395.7 229.3,398.6 232.2,399.3 234.3,402.5 232.2,404.9 229.2,405.5 226.7,412.2 222.3,414.1 222.2,417.3 
										224.8,418.8 226.3,416.5 237,416.6 240.2,420.8 236.5,425.9 238.3,431.8 241,433.9 239.8,435.4 231,433.1 228.4,425.4 
										224.2,425 223.1,421.6 219.4,418.4 218,412.4 212.8,410.6 211.8,403 209.3,401.4 205.5,405.2 									"/>
									<polygon fill="#59A6EC" points="239.1,407.2 236.9,410.7 239.9,417.2 244.2,418.6 250.3,415.4 255,423.3 259.2,426.9 
										261.4,426.1 260.5,413.3 255.7,407.6 257.2,405 254,402.9 257.4,396.4 263,397.8 265.4,399.1 266.5,402.4 269.9,403.4 
										270,401.5 267.3,400.6 267.4,393.5 262.3,389.4 265.7,384.5 262.4,380.5 263.3,376.8 260.6,373.8 249.7,375.6 244.9,382.2 
										236.8,386.4 234.7,394 238.8,398.3 242.4,400.6 245.4,397.9 246.3,400.8 245.8,404.9 242.2,403.8 									"/>
									<path fill="#59A6EC" d="M268,412.3l-3.5,2.4l-0.8,3.9l2.6,1.9l2.7-2.3l2.6,0.5l1.5-1.6l2.4,2.1l1.2-1.3l-3.4-3.2
										c0,0,2.1-2.7,2-2.9c-0.2-0.2-3-2.6-3-2.6l-2.5,0.9l0.3,2.7L268,412.3z"/>
								</g>
								<g opacity="0.5">
									<polygon fill="#59A6EC" points="222.3,414.1 222.2,417.3 224.8,418.8 226.3,416.5 237,416.6 240.2,420.8 236.5,425.9 
										238.3,431.8 241,433.9 239.8,435.4 231,433.1 228.4,425.4 224.6,425.1 215.6,397 217,396.2 216.3,394.2 214.2,392.6 
										213.9,391.6 215.1,388.3 227.3,386.5 230.2,389.8 229.1,391.5 225.1,389.9 221.1,392.8 219.5,395.1 220.3,396.4 
										224.4,398.6 225,394.9 228.8,394.5 229.8,395.7 229.3,398.6 232.2,399.3 234.3,402.5 232.2,404.9 229.2,405.5 226.7,412.2 
																			"/>
									<g>
										<polygon fill="#59A6EC" points="265.7,384.5 262.3,389.4 267.4,393.5 267.3,400.7 270,401.5 269.9,403.4 266.5,402.4 
											265.4,399.1 263,397.8 259.7,397 252.7,375.1 260.6,373.8 263.3,376.8 262.4,380.5 										"/>
										<path fill="#59A6EC" d="M273.1,414.8l3.4,3.2l-1.2,1.3l-2.4-2.1l-1.5,1.6l-2.6-0.5l-1.9,1.6l-1.8-5.6l2.8-1.9l1.8,0.5
											l-0.3-2.7l2.5-0.9c0,0,2.9,2.4,3,2.6C275.3,412.1,273.1,414.8,273.1,414.8z"/>
									</g>
								</g>
							</g>
						</g>
						<g>
							<path fill="#D82C28" d="M210.5,395.4c-1.2,0.6-1.7,2-1.2,3.2c0.6,1.2,4.3,3.4,4.3,3.4s0.6-4.3,0.1-5.5
								C213.2,395.3,211.7,394.9,210.5,395.4z M212.3,399.2c-0.9,0.4-2,0.1-2.4-0.8c-0.4-0.9,0-1.9,0.9-2.4c0.9-0.4,2-0.1,2.4,0.8
								C213.6,397.7,213.2,398.8,212.3,399.2z"/>
						</g>
						<g>
							<path fill="#D82C28" d="M248.7,391.1c-1.2,0.6-1.7,2-1.2,3.2c0.6,1.2,4.3,3.4,4.3,3.4s0.6-4.3,0.1-5.5
								C251.4,391,249.9,390.5,248.7,391.1z M250.5,394.9c-0.9,0.4-2,0.1-2.4-0.8c-0.4-0.9,0-1.9,0.9-2.4c0.9-0.4,2-0.1,2.4,0.8
								C251.8,393.4,251.4,394.4,250.5,394.9z"/>
						</g>
						<g>
							<path fill="#D82C28" d="M229.7,418.6c-1.2,0.6-1.7,2-1.2,3.2c0.6,1.2,4.3,3.4,4.3,3.4s0.6-4.3,0.1-5.5
								C232.4,418.5,230.9,418,229.7,418.6z M231.5,422.4c-0.9,0.4-2,0.1-2.4-0.8c-0.4-0.9,0-1.9,0.9-2.4c0.9-0.4,2-0.1,2.4,0.8
								C232.8,420.9,232.4,421.9,231.5,422.4z"/>
						</g>
					</g>
					<g>
						<g>
							
								<rect x="285.3" y="405.2" transform="matrix(0.3377 -0.9413 0.9413 0.3377 -206.9373 560.7933)" fill="#FFF8E1" width="19.4" height="44.4"/>
							<g>
								<g>
									
										<rect x="284.2" y="434.9" transform="matrix(0.9412 0.3377 -0.3377 0.9412 164.5617 -75.0496)" fill="#C5CED7" width="27.5" height="0.9"/>
									
										<rect x="284.9" y="432.9" transform="matrix(0.9413 0.3377 -0.3377 0.9413 163.9027 -75.404)" fill="#C5CED7" width="27.5" height="0.9"/>
									
										<rect x="285.6" y="430.9" transform="matrix(0.9412 0.3377 -0.3377 0.9412 163.2781 -75.7673)" fill="#C5CED7" width="27.5" height="0.9"/>
								</g>
							</g>
							<g>
								<g>
									
										<rect x="270.2" y="415.9" transform="matrix(0.3377 -0.9413 0.9413 0.3377 -211.8604 542.9128)" fill="#689F38" width="19.4" height="12.2"/>
									
										<text transform="matrix(0.9412 0.3377 -0.3377 0.9412 273.5379 427.9934)" fill="#FFF8E1" font-family="'Montserrat-Bold'" font-size="1.7032">TICKETS</text>
									
										<text transform="matrix(0.9412 0.3377 -0.3377 0.9412 274.1106 426.3972)" fill="#FFF8E1" font-family="'Montserrat-Bold'" font-size="1.405">AIRPLANE</text>
									<g>
										<path fill="#F5C242" d="M283.1,422.9l0.5-0.5l-0.4-0.8l0.2-0.2c0.1-0.1,0.1-0.2,0-0.3c-0.1-0.1-0.2-0.1-0.3,0l-0.1,0.1
											l-0.4-0.8l0.2-0.2c0.1-0.1,0.1-0.2,0-0.2c-0.1-0.1-0.2-0.1-0.3,0l-0.1,0.1l-0.5-1c0.2-0.2,0.3-0.3,0.5-0.5
											c1.5-1.6,1.1-2.1,1.1-2.1s-0.5-0.4-2,1.2c-0.2,0.2-0.3,0.3-0.5,0.5l-1-0.5l0.1-0.1c0.1-0.1,0.1-0.2,0-0.2
											c-0.1-0.1-0.2-0.1-0.3,0l-0.2,0.2l-0.8-0.4l0.1-0.1c0.1-0.1,0.1-0.2,0-0.2c-0.1-0.1-0.2-0.1-0.2,0l-0.2,0.2l-0.8-0.4
											l-0.5,0.5l2.7,2.2c-0.7,0.8-1.3,1.6-1.7,2.1l-1.1-0.2l-0.4,0.4l1.1,0.5l0.6,1.1l0.4-0.4l-0.3-1c0.5-0.4,1.3-1,2.1-1.7
											L283.1,422.9z"/>
									</g>
								</g>
							</g>
						</g>
						
							<rect x="288.1" y="418.8" transform="matrix(0.9412 0.3377 -0.3377 0.9412 159.9233 -73.7922)" fill="#C5CED7" width="7.8" height="7.8"/>
						<g>
							
								<rect x="311.4" y="421.7" transform="matrix(0.3373 -0.9414 0.9414 0.3373 -194.391 575.546)" fill="#404851" width="0.5" height="8.2"/>
							
								<rect x="311.1" y="422.6" transform="matrix(0.3375 -0.9413 0.9413 0.3375 -195.4594 575.752)" fill="#404851" width="0.5" height="8.2"/>
							
								<rect x="310.7" y="423.5" transform="matrix(0.3387 -0.9409 0.9409 0.3387 -196.7 575.3688)" fill="#404851" width="0.5" height="8.2"/>
							
								<rect x="310.4" y="424.4" transform="matrix(0.3377 -0.9413 0.9413 0.3377 -197.5819 576.2123)" fill="#404851" width="0.5" height="8.2"/>
							
								<rect x="310.1" y="425.3" transform="matrix(0.3377 -0.9413 0.9413 0.3377 -198.6268 576.5001)" fill="#404851" width="0.5" height="8.2"/>
						</g>
					</g>
					<g>
						<path fill="#083060" d="M224.1,425.2l-17.3,13.5l-21.2-27.1l17.3-13.5c0.9-0.7,2.2-0.5,2.9,0.4l18.6,23.8
							C225.2,423.1,225,424.4,224.1,425.2z"/>
						<path fill="#003C94" d="M223.6,425.6l-17.3,13.5L185.1,412l17.3-13.5c0.9-0.7,2.2-0.5,2.9,0.4l18.6,23.8
							C224.6,423.5,224.5,424.9,223.6,425.6z"/>
						<g>
							<path fill="#054DA3" d="M187.7,411.8l15.3-12c0.6-0.4,1.4-0.3,1.8,0.2l17.8,22.8L187.7,411.8z"/>
							<g>
								<g>
									<path fill="#F5C242" d="M203.9,408c-0.2,0-0.4,0-0.6-0.1c-1.7-0.1-3.4,0.4-4.9,1.5c0,0-0.1,0-0.1,0.1c0,0-0.1,0.1-0.1,0.1
										c-1.4,1.1-2.3,2.7-2.6,4.4c0,0.2-0.1,0.4-0.1,0.6c-0.2,1.8,0.3,3.7,1.5,5.3c1.2,1.6,2.9,2.5,4.7,2.7c0.2,0,0.4,0,0.6,0.1
										c1.7,0.1,3.4-0.4,4.9-1.5c0,0,0.1,0,0.1-0.1c0,0,0.1,0,0.1-0.1c1.4-1.1,2.3-2.7,2.6-4.4c0-0.2,0.1-0.4,0.1-0.6
										c0.2-1.8-0.3-3.7-1.5-5.3C207.4,409.2,205.7,408.3,203.9,408z M208,410.9C208,410.9,208,410.9,208,410.9l-2.3,1.8l0,0
										c-0.8-1-1.7-1.8-2.6-2.4c0.3-0.5,0.5-1.1,0.7-1.7C205.4,408.8,206.9,409.6,208,410.9z M198.6,414.1
										c0.7-0.3,1.4-0.6,2.1-1.1l1.8,2.2l-2.2,1.8c0,0,0,0,0,0C199.5,416,199,415,198.6,414.1z M199,409.8L199,409.8
										c0.8-0.4,2-0.1,3.3,0.7c-0.4,0.6-0.9,1.1-1.5,1.6l0,0L199,409.8z M198.5,410.2l1.8,2.3c-0.6,0.4-1.3,0.8-1.9,1
										C197.9,412.1,198,410.9,198.5,410.2z M202.8,415.7l1.8,2.2c-0.6,0.5-1.2,1.1-1.6,1.8c-0.8-0.6-1.7-1.4-2.4-2.3L202.8,415.7
										z M205,418.4l1.8,2.3c-0.8,0.4-2,0.1-3.3-0.7C203.9,419.5,204.4,418.9,205,418.4z M207.2,420.4
										C207.2,420.4,207.2,420.4,207.2,420.4l-1.8-2.3l0,0c0.6-0.4,1.3-0.8,1.9-1C207.8,418.4,207.8,419.7,207.2,420.4z
										 M205.1,417.6L205.1,417.6l-1.8-2.2l2.2-1.8c0.7,1,1.3,1.9,1.6,2.9C206.4,416.7,205.7,417.1,205.1,417.6z M202.9,414.9
										l-1.8-2.3l0,0c0.6-0.5,1.2-1.1,1.6-1.8c0.8,0.6,1.7,1.4,2.4,2.3l0,0L202.9,414.9z M203.2,408.6c-0.1,0.5-0.3,1-0.6,1.4
										c-0.8-0.5-1.6-0.8-2.3-0.9C201.2,408.7,202.2,408.5,203.2,408.6z M197.5,411.2c-0.1,0.7,0,1.6,0.3,2.5
										c-0.5,0.1-1,0.2-1.5,0.2C196.5,413,196.9,412,197.5,411.2z M196.2,414.5c0.6,0,1.2-0.1,1.8-0.3c0.4,1,1,2,1.7,3.1l0,0
										l-2.3,1.8c0,0,0,0,0,0C196.4,417.8,196,416.1,196.2,414.5z M197.8,419.6l2.3-1.8c0.8,1,1.7,1.8,2.6,2.4
										c-0.3,0.5-0.5,1.1-0.7,1.7C200.4,421.7,198.9,420.9,197.8,419.6z M202.6,422c0.1-0.5,0.3-1,0.6-1.4
										c0.8,0.5,1.6,0.8,2.3,0.9C204.6,421.9,203.6,422,202.6,422z M208.3,419.3c0.1-0.7,0-1.6-0.3-2.5c0.5-0.1,1-0.2,1.5-0.2
										C209.3,417.6,208.9,418.5,208.3,419.3z M209.6,416c-0.6,0-1.2,0.1-1.8,0.3c-0.4-1-1-2-1.7-3.1l2.3-1.8
										C209.4,412.8,209.7,414.4,209.6,416z"/>
									
										<text transform="matrix(0.7881 -0.6156 0.6156 0.7881 204.003 431.5136)" fill="#F5C242" font-family="'Montserrat-Bold'" font-size="3.0949">PASSPORT</text>
								</g>
							</g>
						</g>
					</g>
					<g>
						<polygon fill="#12171E" points="278.1,431.2 278.1,432.6 242.7,432.6 242.6,429.8 						"/>
						<g>
							<g>
								<g>
									<path fill="#F5C242" d="M195.6,436.8v87.4c0,2.3,1.9,4.2,4.2,4.2h120.8c2.3,0,4.2-1.9,4.2-4.2v-87.4c0-2.3-1.9-4.2-4.2-4.2
										H199.8C197.5,432.6,195.6,434.5,195.6,436.8z"/>
									<path opacity="0.5" fill="#F5C242" d="M315.5,469.5c-11.8,12.5-25.3,22.9-42.3,27c-2.8,0.7-5.5,1.4-8.7,1.4
										c-16.3,0-33.3,0.3-48.2-5.5c-7.5-2.9-15.6-8.4-20.8-15.8v47.6c0,2.3,1.9,4.2,4.2,4.2h120.8c2.3,0,4.2-1.9,4.2-4.2v-65.2
										C321.9,462.7,318.5,466.2,315.5,469.5z"/>
									<g>
										<g>
											<g>
												<path fill="#915620" d="M310.6,432.6c0,7.8,6.4,14.2,14.2,14.2v-10c0-2.3-1.9-4.2-4.2-4.2H310.6z"/>
												<path fill="#915620" d="M195.6,436.8v10c7.8,0,14.2-6.4,14.2-14.2h-10C197.5,432.6,195.6,434.5,195.6,436.8z"/>
											</g>
											<g>
												<path fill="#915620" d="M310.6,528.4h10c2.3,0,4.2-1.9,4.2-4.2v-10C317,514.2,310.6,520.6,310.6,528.4z"/>
												<path fill="#915620" d="M195.6,514.2v10c0,2.3,1.9,4.2,4.2,4.2h10C209.8,520.6,203.4,514.2,195.6,514.2z"/>
											</g>
										</g>
									</g>
									<g>
										<g>
											<path opacity="0.5" fill="#683A15" d="M199.2,436.9c-0.9,1.7,0.8,3.4,2.5,2.5c0.2-0.1,0.4-0.3,0.5-0.5
												c1-1.7-0.8-3.4-2.5-2.5C199.5,436.6,199.3,436.7,199.2,436.9z"/>
											<path opacity="0.5" fill="#683A15" d="M199.2,522.1c-0.9,1.7,0.8,3.4,2.5,2.4c0.2-0.1,0.4-0.3,0.5-0.5
												c1-1.7-0.8-3.4-2.5-2.5C199.5,521.7,199.3,521.9,199.2,522.1z"/>
										</g>
										<g opacity="0.5">
											<path fill="#683A15" d="M318.2,436.9c-0.9,1.7,0.8,3.4,2.5,2.5c0.2-0.1,0.4-0.3,0.5-0.5c0.9-1.7-0.8-3.4-2.5-2.5
												C318.5,436.6,318.3,436.7,318.2,436.9z"/>
											<path fill="#683A15" d="M318.2,522.1c-0.9,1.7,0.8,3.4,2.5,2.4c0.2-0.1,0.4-0.3,0.5-0.5c1-1.7-0.8-3.4-2.5-2.5
												C318.5,521.7,318.3,521.9,318.2,522.1z"/>
										</g>
									</g>
								</g>
								<g>
									<g>
										<g>
											<path fill="#683A15" d="M242.2,432.6h6.4l0,0c0-2.9,2.4-5.3,5.3-5.3h12.4c2.9,0,5.3,2.4,5.3,5.3l0,0h6.4l0,0
												c0-6.5-5.3-11.8-11.8-11.8H254C247.5,420.8,242.2,426.1,242.2,432.6L242.2,432.6z"/>
										</g>
									</g>
								</g>
								<g>
									<rect x="209.8" y="528.4" fill="#282F39" width="12.2" height="2.7"/>
									<rect x="298.4" y="528.4" fill="#282F39" width="12.2" height="2.7"/>
								</g>
							</g>
							<g>
								<g>
									<path fill="#D82C28" d="M239.5,512.9l7.9,1.7c0.6,0.1,1.2-0.3,1.4-0.9l1.7-7.9c0.1-0.6-0.3-1.2-0.9-1.4l-7.9-1.7
										c-0.6-0.1-1.2,0.3-1.4,0.9l-1.7,7.9C238.5,512.2,238.9,512.8,239.5,512.9z"/>
									<polygon fill="#FFF8E1" points="241.5,507 243.7,507.5 244.2,505.3 246.2,505.7 245.8,507.9 247.9,508.4 247.5,510.4 
										245.3,510 244.8,512.2 242.8,511.7 243.3,509.5 241.1,509.1 									"/>
								</g>
								<g>
									<g>
										<g>
											<path fill="#282F39" d="M275.3,499.8c3.6-2.9,3.7-6.1,3.7-6.1l0.6-0.1l0.6,5.3c0.4,6-2.4,8.4-3.5,9.1L275.3,499.8z"/>
											<path fill="#282F39" d="M282.9,513.4l-5.2,0.8l-1-6c1.2-0.8,3.9-3.2,3.5-9.3l-0.5-5.2l1.3,0l0.1,0l0.5,0l0,0l3.3-0.1
												c0,0,0.7-0.7,1.2-0.6c0,0,0.3,0,0.3,0.2l0.9-0.1c0,0,0.3-0.1,0,0.3c-0.3,0.3-0.9,0.8-2.6,1c0,0-0.2,0.5-0.7,1.2
												c0,0,0,0,0,0c0,0.1-0.1,0.1-0.1,0.2c0,0,0,0,0,0c-0.7,0.8-1.9,1.7-3.6,1.9L282.9,513.4z"/>
											<path fill="#282F39" d="M267.2,496.4c0.4,0.2,1.1,0.4,2.7,0.2c0,0,0,0,0.1,0c0,0,2.1,2.4,5.3,1.8l0.2,1
												c0.4-0.3,0.7-0.6,1-1c2.2-2.3,2.3-4.6,2.3-4.8l-0.2,0l-0.3-2.1l0-0.2c-0.1-0.5-0.5-1-1-1.1c-0.2,0-0.4-0.1-0.6,0
												c-0.7,0.1-1.3,0.8-1.1,1.6l0,0.2l0.3,2.1l-6.2,1.8c0,0-0.9-0.4-1.4-0.2c0,0-0.3,0.1-0.2,0.3l-0.9,0.1
												C267.1,496.1,266.8,496.2,267.2,496.4z"/>
										</g>
									</g>
								</g>
								<g>
									<path fill="#FFF8E1" d="M230.7,448.5c-4.6,5.3-0.3,12.8,6.6,11.5c1.3-0.2,2.4-0.9,3.3-1.9c4.6-5.3,0.3-12.8-6.6-11.5
										C232.8,446.9,231.6,447.5,230.7,448.5z"/>
									<path fill="#D82C28" d="M233.3,450.9c-2.3,2.6-0.1,6.3,3.2,5.7c0.6-0.1,1.2-0.4,1.6-0.9c2.3-2.6,0.1-6.3-3.2-5.7
										C234.3,450.2,233.7,450.5,233.3,450.9z"/>
								</g>
								<g>
									
										<rect x="298.3" y="447.1" transform="matrix(0.9006 0.4346 -0.4346 0.9006 227.2918 -87.3008)" fill="#FFF8E1" width="12.4" height="12.4"/>
									
										<rect x="298.7" y="445.3" transform="matrix(0.9007 0.4345 -0.4345 0.9007 226.0873 -85.8619)" fill="#D82C28" width="4.2" height="12.4"/>
									
										<rect x="306.2" y="448.9" transform="matrix(0.9006 0.4346 -0.4346 0.9006 228.449 -88.7349)" fill="#689F38" width="4.2" height="12.4"/>
								</g>
								<g>
									<path fill="#FFF8E1" d="M217.4,496.5c1,0.7,1.8,1.4,2.5,1.9l1.5-0.7l1.9,1.2l-2.1,1.7l-0.6,2.7l-1.9-1.2l0-1.6
										c-0.8-0.3-1.7-0.8-2.8-1.4l-2.5,5l-2-1.3l0.3-1.4l0,0c-0.1-0.1-0.2-0.1-0.2-0.2c-0.3-0.3-0.3-0.8-0.1-1.2
										c0.1-0.2,0.4-0.4,0.6-0.4c0,0,0.1,0,0.1,0l0-0.1c-0.1-0.1-0.2-0.1-0.2-0.2c-0.3-0.3-0.3-0.8-0.1-1.2
										c0.1-0.2,0.4-0.4,0.6-0.4c0,0,0.1,0,0.1,0l0.1-0.5c-0.2-0.1-0.3-0.2-0.5-0.3c-1-0.6-1.7-1.2-2.2-1.7
										c-0.9-1-0.7-1.7-0.6-1.9l0-0.1l0-0.1c0.3-0.4,1.4-1.1,4.5,0.9c0.2,0.1,0.3,0.2,0.5,0.3l0.4-0.3c-0.1-0.3-0.1-0.6,0.1-0.8
										c0.1-0.2,0.4-0.4,0.6-0.4c0.3-0.1,0.5,0,0.7,0.1l0.1-0.1c-0.1-0.3-0.1-0.6,0.1-0.9c0.1-0.2,0.4-0.4,0.6-0.4
										c0.3-0.1,0.5,0,0.7,0.1l0,0l1.1-0.9l2,1.3L217.4,496.5z"/>
									<path fill="#054DA1" d="M219.7,492.2l-1-0.6l-1.1,0.9l-0.4-0.3c-0.1-0.1-0.3,0-0.4,0.1c-0.1,0.1,0,0.3,0.1,0.4l0.3,0.2
										l-1.1,0.8l-0.4-0.3c-0.1-0.1-0.3,0-0.4,0.1c-0.1,0.1,0,0.3,0.1,0.4l0.2,0.2l-1.4,1.1c-0.3-0.2-0.6-0.4-0.9-0.6
										c-3-1.9-3.6-1.1-3.6-1.1s-0.4,0.9,2.5,2.8c0.3,0.2,0.6,0.4,0.9,0.6l-0.4,1.7l-0.2-0.2c-0.1-0.1-0.3,0-0.4,0.1
										c-0.1,0.1,0,0.3,0.1,0.4l0.4,0.3l-0.3,1.3l-0.3-0.2c-0.1-0.1-0.3,0-0.4,0.1c-0.1,0.1,0,0.3,0.1,0.4l0.4,0.3l-0.3,1.4l1,0.6
										l2.5-4.9c1.4,0.8,2.8,1.5,3.8,1.9l0,1.7l0.8,0.5l0.5-1.9l1.6-1.3l-0.8-0.5l-1.5,0.8c-0.8-0.7-2-1.7-3.3-2.6L219.7,492.2z"
										/>
								</g>
								<g>
									<g>
										<g>
											<g>
												<g>
													<g>
														<rect x="222" y="432.6" fill="#683A15" width="10.3" height="95.8"/>
													</g>
												</g>
											</g>
										</g>
										<g>
											<path fill="#915620" d="M234.1,432.6h-14v5.2c0,3.9,3.1,7,7,7l0,0c3.9,0,7-3.1,7-7V432.6z"/>
											<path fill="#D3D3D3" d="M225.6,437.7c-1,1.7,0.8,3.4,2.5,2.4c0.2-0.1,0.4-0.3,0.5-0.5c0.9-1.7-0.8-3.4-2.5-2.4
												C225.9,437.3,225.8,437.5,225.6,437.7z"/>
										</g>
										<g>
											<path fill="#915620" d="M220.1,528.4h14v-5.2c0-3.9-3.1-7-7-7l0,0c-3.9,0-7,3.1-7,7V528.4z"/>
											<path fill="#D3D3D3" d="M228.6,523.3c0.9-1.7-0.8-3.4-2.4-2.4c-0.2,0.1-0.4,0.3-0.5,0.5c-1,1.7,0.8,3.4,2.5,2.5
												C228.3,523.6,228.5,523.5,228.6,523.3z"/>
											<g>
												<path fill="#D3D3D3" d="M228.6,501.7c0.9-1.7-0.8-3.4-2.4-2.4c-0.2,0.1-0.4,0.3-0.5,0.5c-1,1.7,0.8,3.4,2.5,2.5
													C228.3,502,228.5,501.9,228.6,501.7z"/>
												<path fill="#D3D3D3" d="M228.6,481.5c0.9-1.7-0.8-3.4-2.4-2.5c-0.2,0.1-0.4,0.3-0.5,0.5c-1,1.7,0.8,3.4,2.5,2.5
													C228.3,481.8,228.5,481.7,228.6,481.5z"/>
												<path fill="#D3D3D3" d="M228.6,461.2c0.9-1.7-0.8-3.4-2.5-2.4c-0.2,0.1-0.4,0.3-0.5,0.5c-1,1.7,0.8,3.4,2.5,2.5
													C228.3,461.6,228.5,461.4,228.6,461.2z"/>
											</g>
										</g>
									</g>
									<g>
										<g>
											<g>
												<g>
													<g>
														<rect x="288.2" y="432.6" fill="#683A15" width="10.3" height="95.8"/>
													</g>
												</g>
											</g>
										</g>
										<g>
											<path fill="#915620" d="M300.3,432.6h-14v5.2c0,3.9,3.1,7,7,7l0,0c3.9,0,7-3.1,7-7V432.6z"/>
											<path fill="#D3D3D3" d="M291.8,437.7c-1,1.7,0.8,3.4,2.5,2.5c0.2-0.1,0.4-0.3,0.5-0.5c0.9-1.7-0.8-3.4-2.5-2.4
												C292.1,437.3,291.9,437.5,291.8,437.7z"/>
										</g>
										<g>
											<path fill="#915620" d="M286.3,528.4h14v-5.2c0-3.9-3.1-7-7-7l0,0c-3.9,0-7,3.1-7,7V528.4z"/>
											<path fill="#D3D3D3" d="M294.8,523.3c0.9-1.7-0.8-3.4-2.5-2.4c-0.2,0.1-0.4,0.3-0.5,0.5c-0.9,1.7,0.8,3.4,2.5,2.5
												C294.5,523.6,294.6,523.5,294.8,523.3z"/>
											<g>
												<path fill="#D3D3D3" d="M294.8,501.7c0.9-1.7-0.8-3.4-2.5-2.4c-0.2,0.1-0.4,0.3-0.5,0.5c-1,1.7,0.8,3.4,2.5,2.5
													C294.5,502,294.7,501.9,294.8,501.7z"/>
												<path fill="#D3D3D3" d="M294.8,481.5c0.9-1.7-0.8-3.4-2.5-2.5c-0.2,0.1-0.4,0.3-0.5,0.5c-1,1.7,0.8,3.4,2.4,2.5
													C294.5,481.8,294.6,481.7,294.8,481.5z"/>
												<path fill="#D3D3D3" d="M294.8,461.2c0.9-1.7-0.8-3.4-2.5-2.4c-0.2,0.1-0.4,0.3-0.5,0.5c-1,1.7,0.8,3.4,2.5,2.5
													C294.5,461.6,294.7,461.4,294.8,461.2z"/>
											</g>
										</g>
									</g>
								</g>
								<polygon fill="#282F39" points="208.9,457.6 211.1,460.2 214.5,459.8 212.7,462.8 214.1,465.9 210.8,465.1 208.2,467.4 
									208,464 205,462.3 208.2,461 								"/>
							</g>
						</g>
						<g>
							<g>
								<g>
									<g>
										<polygon fill="#283039" points="278,470.5 275.2,470.8 274.3,467.1 278.1,466.7 										"/>
										<path fill="#D5DCE0" d="M278.9,467.2l-5.2,0.6c-0.4,0-0.8-0.3-0.9-0.7l-0.6-5.2c0-0.4,0.3-0.8,0.7-0.9l5.2-0.6
											c0.4,0,0.8,0.3,0.9,0.7l0.6,5.2C279.6,466.8,279.3,467.2,278.9,467.2z"/>
										
											<rect x="273.4" y="461.6" transform="matrix(0.9942 -0.1076 0.1076 0.9942 -48.3553 32.3961)" fill="#C3CCD5" width="5" height="5"/>
										
											<rect x="273.7" y="461.9" transform="matrix(0.9942 -0.1077 0.1077 0.9942 -48.3829 32.4168)" fill="#283039" width="4.4" height="4.4"/>
										
											<rect x="274.4" y="462.6" transform="matrix(0.9942 -0.1078 0.1078 0.9942 -48.4179 32.443)" fill="#12171E" width="3" height="3"/>
										<path opacity="0.2" fill="#2D3842" d="M276.6,462.5l-2.3,0.3l0.3,3l0.4,0C275.3,464.6,275.8,463.4,276.6,462.5z"/>
									</g>
									<g>
										<path fill="#054DA3" d="M254.3,472.5c-0.6,0.1-1.1,0.6-1.2,1.2c0,0,0,0.1,0,0.1l1.5,14.1c0.1,0.7,0.7,1.3,1.5,1.2
											l26.6-2.9c0.7-0.1,1.3-0.7,1.2-1.5l-1.5-13.9c-0.1-0.7-0.8-1.3-1.5-1.2L254.3,472.5z"/>
										<path fill="#003C94" d="M253.9,481.4l0.7,6.5c0.1,0.7,0.7,1.3,1.5,1.2l26.6-2.9c0.7-0.1,1.3-0.7,1.2-1.5l-1.1-10.4
											c-0.9,0.7-1.8,1.4-2.8,2C272.5,480.5,262.5,484.8,253.9,481.4z"/>
										<g>
											
												<rect x="254.8" y="470.9" transform="matrix(0.9942 -0.1075 0.1075 0.9942 -49.213 30.3571)" fill="#12171E" width="4.1" height="1.3"/>
											
												<rect x="259.7" y="470.4" transform="matrix(0.9942 -0.1078 0.1078 0.9942 -49.2599 30.9249)" fill="#12171E" width="3.3" height="1.3"/>
										</g>
										<g>
											<path fill="#C3CCD5" d="M253.1,473.9l0.1,1.2l29.3-3.2l-0.1-1.2c-0.1-0.7-0.7-1.2-1.4-1.2l-26.7,2.9
												C253.6,472.5,253,473.2,253.1,473.9z"/>
											<path fill="#D5DCE0" d="M280.9,469.6l-26.7,2.9c-0.6,0.1-1,0.5-1.1,1l29.1-3.2C282,469.8,281.5,469.5,280.9,469.6z"/>
											<path fill="#C3CCD5" d="M254.5,486.8l0.1,1.1c0.1,0.7,0.7,1.3,1.5,1.2l26.6-2.9c0.7-0.1,1.3-0.7,1.2-1.5l-0.1-1.1
												L254.5,486.8z"/>
										</g>
										<path fill="#D5DCE0" d="M255,488.7c0.3,0.3,0.7,0.4,1.1,0.4l26.6-2.9c0.4,0,0.7-0.3,1-0.6L255,488.7z"/>
									</g>
								</g>
								<g>
									<g>
										<path fill="#D5DCE0" d="M277.6,472.7c5.1,7.9-2.2,17-11,13.7c-1.5-0.6-2.8-1.6-3.6-2.9c-5.1-7.9,2.3-17,11-13.7
											C275.4,470.3,276.7,471.3,277.6,472.7z"/>
										<circle fill="#404751" cx="270.3" cy="478.1" r="8.2"/>
										<circle fill="#283039" cx="270.3" cy="478.1" r="7.1"/>
										<path fill="#12171E" d="M275.7,474.4c3.4,5.6-1.8,12-8,9.7c-1.2-0.4-2.2-1.3-2.9-2.4c-3.4-5.6,1.8-11.9,8-9.7
											C274,472.5,275,473.3,275.7,474.4z"/>
									</g>
									<path fill="#31476C" d="M272.8,476.3c1.7,2.7-0.8,5.7-3.7,4.7c-0.5-0.2-1-0.6-1.3-1c-1.7-2.7,0.8-5.7,3.7-4.7
										C272,475.4,272.5,475.8,272.8,476.3z"/>
									<path opacity="0.2" fill="#2D3842" d="M275.9,474.8c-1.3-2.1-3.7-3.5-6.3-3.2c-3.6,0.4-6.2,3.6-5.8,7.2
										c0.1,0.8,0.3,1.6,0.7,2.3C268.9,480.8,273.1,478.3,275.9,474.8z"/>
									<g>
										<path fill="#D5DCE0" d="M272.4,476.5c-1.4-0.3-1.6-2.1-0.3-2.6c0.2-0.1,0.4-0.1,0.6-0.1c1.4,0.3,1.6,2.1,0.3,2.6
											C272.8,476.5,272.6,476.5,272.4,476.5z"/>
										<path fill="#D5DCE0" d="M271.6,478.3c-0.8,0.6-1.8-0.2-1.5-1.1c0-0.1,0.1-0.3,0.3-0.3c0.8-0.6,1.8,0.1,1.5,1.1
											C271.8,478.1,271.7,478.3,271.6,478.3z"/>
									</g>
								</g>
							</g>
							<polygon fill="#12171E" points="253.1,473.5 239.9,432.6 242.6,429.8 242.7,432.6 253.3,473.1 							"/>
							<polygon fill="#12171E" points="281.5,469.7 278.1,432.6 278.1,431.2 280.1,432.6 281.9,469.9 							"/>
						</g>
					</g>
					<g>
						<path fill="#D6D7D8" d="M280,355.5l0.6,2.3l0.6-2.3c0.8-2.9,2.4-5.3,4.5-6.8c-2.1-1.5-3.7-3.9-4.5-6.8l-0.6-2.3l-0.6,2.3
							c-0.8,2.9-2.4,5.3-4.5,6.8C277.6,350.2,279.2,352.6,280,355.5z"/>
						<path fill="#D6D7D8" d="M293.3,370.5l0.8,3.1l0.8-3.1c1.1-4,3.3-7.3,6.2-9.4c-2.9-2-5.1-5.4-6.2-9.4l-0.8-3.1l-0.8,3.1
							c-1.1,4-3.3,7.3-6.2,9.4C290,363.1,292.2,366.5,293.3,370.5z"/>
					</g>
					<g>
						<path fill="#D6D7D8" d="M443.3,471.4l0.4-1.4l0.4,1.4c0.5,1.8,1.5,3.3,2.8,4.2c-1.3,0.9-2.3,2.4-2.8,4.2l-0.4,1.4l-0.4-1.4
							c-0.5-1.8-1.5-3.3-2.8-4.2C441.8,474.7,442.8,473.2,443.3,471.4z"/>
						<path fill="#D6D7D8" d="M451.4,462.3l0.5-1.9l0.5,1.9c0.7,2.5,2,4.5,3.8,5.7c-1.8,1.2-3.1,3.3-3.8,5.7l-0.5,1.9l-0.5-1.9
							c-0.7-2.5-2-4.5-3.8-5.7C449.4,466.8,450.8,464.7,451.4,462.3z"/>
					</g>
					<g>
						<path fill="#D6D7D8" d="M332.1,294.2l0.5-1.7l0.5,1.7c0.6,2.2,1.8,4.1,3.4,5.2c-1.6,1.1-2.8,3-3.4,5.2l-0.5,1.7l-0.5-1.7
							c-0.6-2.2-1.8-4.1-3.4-5.2C330.3,298.2,331.5,296.4,332.1,294.2z"/>
						<path fill="#D6D7D8" d="M342.3,282.8l0.6-2.4l0.6,2.4c0.8,3,2.5,5.6,4.7,7.1c-2.2,1.5-3.9,4.1-4.7,7.1l-0.6,2.4l-0.6-2.4
							c-0.8-3-2.5-5.6-4.7-7.1C339.8,288.4,341.4,285.8,342.3,282.8z"/>
					</g>
					<g>
						<path fill="#D6D7D8" d="M169.6,413.6l-0.4-1.4l-0.4,1.4c-0.5,1.8-1.5,3.3-2.8,4.2c1.3,0.9,2.3,2.4,2.8,4.2l0.4,1.4l0.4-1.4
							c0.5-1.8,1.5-3.3,2.8-4.2C171,416.8,170,415.4,169.6,413.6z"/>
						<path fill="#D6D7D8" d="M161.4,404.4l-0.5-1.9l-0.5,1.9c-0.7,2.5-2,4.5-3.8,5.7c1.8,1.2,3.1,3.3,3.8,5.7l0.5,1.9l0.5-1.9
							c0.7-2.5,2-4.5,3.8-5.7C163.4,408.9,162.1,406.8,161.4,404.4z"/>
					</g>
				</g>
			</g>
		</g>
	</g>
</g>
</svg>
