<svg version="1.1" id="artwork" xmlns="http://www.w3.org/2000/svg" xmlns:xlink="http://www.w3.org/1999/xlink" x="0px" y="0px"
	viewBox="-238 377 135 40" style="enable-background:new -238 377 135 40;" xml:space="preserve">
	<style type="text/css">
		.st0{fill:#A6A6A6;}
		.st1{opacity:0.2;enable-background:new    ;}
		.st2{opacity:0.12;enable-background:new    ;}
		.st3{fill:#FFFFFF;}
		.st4{enable-background:new    ;}
	</style>
	<title>pt-br_get</title>
	<path d="M-233,377.3h125c2.8,0,5,2.2,5,5v30c0,2.8-2.2,5-5,5h-125c-2.8,0-5-2.2-5-5v-30C-238,379.5-235.8,377.3-233,377.3z"/>
	<path class="st0" d="M-108,378.1c2.3,0,4.2,1.9,4.2,4.2v30c0,2.3-1.9,4.2-4.2,4.2h-125c-2.3,0-4.2-1.9-4.2-4.2l0,0v-30
		c0-2.3,1.9-4.2,4.2-4.2l0,0H-108 M-108,377.3h-125c-2.8,0-5,2.2-5,5v30c0,2.8,2.2,5,5,5h125c2.8,0,5-2.2,5-5v-30
		C-103,379.5-105.2,377.3-108,377.3z"/>
		<path class="st1" d="M-211,401.4l-14.5,8.3c-0.6,0.4-1.4,0.4-2,0l0,0l-0.1,0.1l0,0l0.1,0.1l0,0c0.6,0.4,1.4,0.4,2,0l14.6-8.3
			L-211,401.4z"/>
			<path class="st2" d="M-227.6,409.6c-0.3-0.4-0.5-0.9-0.5-1.4v0.2c0,0.5,0.1,1,0.5,1.4V409.6L-227.6,409.6z"/>
			<path class="st2" d="M-206,398.6l-5,2.8l0.1,0.1L-206,398.6c0.6-0.2,0.9-0.7,1-1.3l0,0C-205.1,397.9-205.5,398.3-206,398.6z"/>
			<g>
				<path class="st3" d="M-207.7,405.5c2-2.2,3.2-5.1,3.2-8.3c0-3.3-1.3-6.3-3.4-8.6l0,0l0,0c-2.2-2.3-5.3-3.8-8.7-3.9l0,0h-0.2
					c-0.1,0-0.1,0-0.2,0s-0.1,0-0.2,0h-0.2l0,0c-3.4,0.1-6.5,1.6-8.7,3.9l0,0l0,0c-2.1,2.2-3.4,5.3-3.4,8.6c0,3.2,1.2,6.1,3.2,8.3l0,0
					l0,0c2.2,2.5,5.4,4.1,8.9,4.2l0,0h0.2c0.1,0,0.1,0,0.2,0s0.1,0,0.2,0h0.2l0,0C-213.1,409.6-209.9,408-207.7,405.5L-207.7,405.5
					L-207.7,405.5z M-228.7,397.6h5.2c0,1.8,0.4,3.6,1,5.3c-1.2,0.4-2.4,1-3.5,1.8C-227.6,402.7-228.6,400.3-228.7,397.6z
					M-225.7,389.4c1.1,0.7,2.2,1.3,3.4,1.7c-0.7,1.8-1.1,3.7-1.2,5.7h-5.2C-228.6,393.9-227.5,391.4-225.7,389.4z M-205.4,396.7h-5.2
					c-0.1-2-0.5-3.9-1.2-5.7c1.2-0.4,2.3-1,3.4-1.7C-206.6,391.4-205.5,393.9-205.4,396.7z M-217.5,391.1c-1.2,0-2.5-0.2-3.7-0.6
					c0.9-1.8,2.1-3.4,3.7-4.8V391.1z M-217.5,392v4.8h-5.2c0.1-1.9,0.4-3.7,1.2-5.4C-220.2,391.7-218.8,391.9-217.5,392z M-216.6,392
					c1.4,0,2.7-0.2,4-0.6c0.7,1.7,1.1,3.5,1.2,5.4h-5.2V392z M-216.6,391.1v-5.3c1.5,1.4,2.8,3,3.7,4.8
					C-214.1,390.9-215.4,391.1-216.6,391.1z M-212.1,390.3c-0.8-1.7-2-3.3-3.4-4.7c2.5,0.3,4.8,1.5,6.6,3.2
					C-209.9,389.4-211,389.9-212.1,390.3z M-222,390.3c-1.1-0.4-2.2-0.9-3.2-1.5c1.8-1.7,4-2.8,6.6-3.2C-220,387-221.1,388.5-222,390.3
					z M-222.6,397.6h5.2v4.3c-1.4,0-2.8,0.3-4.2,0.7C-222.3,401-222.6,399.3-222.6,397.6z M-217.5,402.8v5.8c-1.7-1.4-3-3.2-3.8-5.2
					C-220.1,403-218.8,402.8-217.5,402.8z M-216.6,408.6v-5.8c1.3,0,2.6,0.2,3.8,0.6C-213.6,405.3-214.9,407.1-216.6,408.6z
					M-216.6,401.9v-4.3h5.2c0,1.7-0.4,3.4-1,5C-213.8,402.2-215.2,402-216.6,401.9z M-210.6,397.6h5.2c-0.1,2.7-1.1,5.1-2.7,7.1
					c-1.1-0.7-2.3-1.3-3.5-1.8C-211,401.2-210.6,399.4-210.6,397.6z M-225.4,405.3c1-0.7,2.1-1.2,3.2-1.6c0.8,1.9,2,3.6,3.6,5.1
					C-221.2,408.4-223.6,407.1-225.4,405.3z M-215.5,408.7c1.5-1.5,2.7-3.2,3.6-5.1c1.1,0.4,2.2,1,3.2,1.6
					C-210.5,407.1-212.9,408.4-215.5,408.7z"/>
				</g>
				<g>
					<path class="st3" d="M-193.2,405.9l2.8-8.1h1.4l-3.6,9.8h-1.1l-3.6-9.8h1.4L-193.2,405.9z"/>
					<path class="st3" d="M-182.2,403.1h-4.2v3.5h4.9v1.1h-6.2v-9.8h6.2v1.1h-4.9v3.2h4.2V403.1z"/>
					<path class="st3" d="M-176.3,403.7h-2.3v4h-1.3v-9.8h3.2c1.1,0,2,0.3,2.5,0.8c0.6,0.5,0.9,1.2,0.9,2.2c0,0.6-0.2,1.1-0.5,1.6
						s-0.8,0.8-1.4,1l2.3,4.2v0.1h-1.4L-176.3,403.7z M-178.6,402.6h2c0.6,0,1.2-0.2,1.5-0.5s0.6-0.8,0.6-1.3c0-0.6-0.2-1.1-0.5-1.4
						c-0.3-0.3-0.9-0.5-1.6-0.5h-2V402.6z"/>
						<path class="st3" d="M-168.5,403.3c-1.1-0.3-1.9-0.7-2.4-1.2s-0.8-1-0.8-1.7c0-0.8,0.3-1.4,0.9-1.9s1.4-0.8,2.4-0.8
							c0.7,0,1.3,0.1,1.8,0.4s0.9,0.6,1.2,1.1c0.3,0.5,0.4,1,0.4,1.5h-1.3c0-0.6-0.2-1.1-0.6-1.4s-0.9-0.5-1.6-0.5
							c-0.6,0-1.1,0.1-1.5,0.4c-0.4,0.3-0.5,0.7-0.5,1.2c0,0.4,0.2,0.7,0.5,1s0.9,0.5,1.7,0.8c0.8,0.2,1.4,0.5,1.9,0.8s0.8,0.6,1,1
							s0.3,0.8,0.3,1.3c0,0.8-0.3,1.4-0.9,1.9s-1.4,0.7-2.5,0.7c-0.7,0-1.3-0.1-1.9-0.4c-0.6-0.3-1-0.6-1.3-1.1s-0.5-1-0.5-1.5h1.3
							c0,0.6,0.2,1.1,0.7,1.4c0.4,0.3,1,0.5,1.8,0.5c0.7,0,1.2-0.1,1.6-0.4s0.5-0.7,0.5-1.1c0-0.5-0.2-0.9-0.5-1.1
							C-167,403.8-167.7,403.5-168.5,403.3z"/>
							<path class="st3" d="M-157.8,405.1h-4.1l-0.9,2.6h-1.3l3.7-9.8h1.1l3.7,9.8h-1.3L-157.8,405.1z M-157.5,395.4
								c0,0.5-0.1,0.9-0.4,1.2s-0.6,0.5-1,0.5c-0.2,0-0.3,0-0.5-0.1c-0.1,0-0.3-0.1-0.5-0.3c-0.2-0.1-0.4-0.2-0.5-0.3c-0.1,0-0.2,0-0.3,0
								c-0.2,0-0.3,0.1-0.5,0.2c-0.1,0.1-0.2,0.3-0.2,0.5h-0.8c0-0.5,0.1-0.9,0.4-1.2s0.6-0.5,1-0.5c0.2,0,0.3,0,0.4,0.1
								c0.1,0,0.3,0.1,0.5,0.3c0.2,0.1,0.4,0.2,0.5,0.3s0.2,0.1,0.4,0.1c0.2,0,0.4-0.1,0.5-0.2c0.1-0.2,0.2-0.3,0.2-0.5L-157.5,395.4z
								M-161.6,404h3.3l-1.7-4.6L-161.6,404z"/>
								<path class="st3" d="M-146.8,403c0,1-0.2,1.8-0.5,2.5s-0.8,1.3-1.4,1.6c-0.6,0.4-1.3,0.6-2.1,0.6c-0.8,0-1.5-0.2-2.1-0.6
									c-0.6-0.4-1.1-0.9-1.4-1.6c-0.3-0.7-0.5-1.5-0.5-2.4v-0.7c0-0.9,0.2-1.8,0.5-2.5s0.8-1.3,1.4-1.7s1.3-0.6,2.1-0.6
									c0.8,0,1.5,0.2,2.1,0.6c0.6,0.4,1.1,0.9,1.4,1.6c0.3,0.7,0.5,1.6,0.5,2.5C-146.8,402.3-146.8,403-146.8,403z M-148.1,402.4
									c0-1.2-0.2-2.1-0.7-2.7c-0.5-0.6-1.1-0.9-2-0.9c-0.8,0-1.5,0.3-1.9,0.9c-0.5,0.6-0.7,1.5-0.7,2.6v0.7c0,1.1,0.2,2,0.7,2.7
									c0.5,0.6,1.1,1,2,1c0.8,0,1.5-0.3,1.9-0.9c0.5-0.6,0.7-1.5,0.7-2.6V402.4z"/>
									<path class="st3" d="M-139.3,404.5l0.2,1.3l0.3-1.2l1.9-6.8h1.1l1.9,6.8l0.3,1.2l0.2-1.3l1.5-6.7h1.3l-2.4,9.8h-1.2l-2-7.1
										l-0.2-0.7l-0.2,0.7l-2.1,7.1h-1.2l-2.4-9.8h1.3L-139.3,404.5z"/>
										<path class="st3" d="M-123.7,403.1h-4.2v3.5h4.9v1.1h-6.2v-9.8h6.2v1.1h-4.9v3.2h4.2V403.1z"/>
										<path class="st3" d="M-121.4,407.6v-9.8h3.2c1.1,0,1.9,0.2,2.4,0.7c0.5,0.4,0.8,1.1,0.8,2c0,0.5-0.1,0.9-0.4,1.2
											c-0.3,0.4-0.6,0.6-1.1,0.8c0.5,0.1,0.9,0.4,1.3,0.8c0.3,0.4,0.5,0.9,0.5,1.5c0,0.9-0.3,1.6-0.9,2.1s-1.4,0.8-2.4,0.8L-121.4,407.6
											L-121.4,407.6z M-120.1,402h2c0.6,0,1-0.1,1.4-0.4c0.4-0.3,0.5-0.7,0.5-1.2s-0.2-0.9-0.5-1.2c-0.3-0.2-0.8-0.4-1.4-0.4h-1.9v3.2
											L-120.1,402L-120.1,402z M-120.1,403v3.5h2.1c0.6,0,1.1-0.2,1.4-0.5s0.5-0.7,0.5-1.3c0-1.2-0.6-1.8-1.9-1.8L-120.1,403L-120.1,403z
											"/>
										</g>
										<g class="st4">
											<path class="st3" d="M-192.9,388.1h-3v2.1h3.6v1.3h-5.1v-7.7h5.1v1.3h-3.5v1.8h3V388.1z"/>
											<path class="st3" d="M-189.4,383.7l2,5.6l2-5.6h2.1v7.7h-1.6v-2.1l0.2-3.6l-2.1,5.7h-1.1l-2.1-5.7l0.2,3.6v2.1h-1.6v-7.7H-189.4z"
												/>
												<path class="st3" d="M-179.3,391.4v-7.7h2.7c0.9,0,1.6,0.2,2.1,0.5c0.5,0.4,0.7,0.9,0.7,1.6c0,0.4-0.1,0.7-0.3,1
													c-0.2,0.3-0.5,0.5-0.8,0.6c0.4,0.1,0.7,0.3,0.9,0.6c0.2,0.3,0.3,0.7,0.3,1.1c0,0.7-0.2,1.3-0.7,1.7c-0.5,0.4-1.1,0.6-2,0.6H-179.3z
													M-177.7,386.9h1.2c0.8,0,1.2-0.3,1.2-1c0-0.3-0.1-0.6-0.3-0.8s-0.5-0.2-1-0.2h-1.1V386.9z M-177.7,388.1v2.1h1.4
													c0.4,0,0.7-0.1,0.9-0.3c0.2-0.2,0.3-0.4,0.3-0.7c0-0.7-0.4-1.1-1.1-1.1H-177.7z"/>
													<path class="st3" d="M-169.6,388.6h-1.3v2.8h-1.6v-7.7h2.8c0.9,0,1.6,0.2,2.1,0.6c0.5,0.4,0.7,1,0.7,1.7c0,0.5-0.1,1-0.3,1.3
														c-0.2,0.3-0.6,0.6-1,0.8l1.7,3.1v0.1h-1.7L-169.6,388.6z M-170.8,387.3h1.3c0.4,0,0.7-0.1,0.9-0.3c0.2-0.2,0.3-0.5,0.3-0.8
														c0-0.4-0.1-0.6-0.3-0.9s-0.5-0.3-0.9-0.3h-1.3V387.3z"/>
														<path class="st3" d="M-160.9,388.1h-3v2.1h3.6v1.3h-5.1v-7.7h5.1v1.3h-3.5v1.8h3V388.1z"/>
														<path class="st3" d="M-156.7,389.5l1.7-5.8h1.8l-2.7,7.7h-1.6l-2.7-7.7h1.8L-156.7,389.5z"/>
														<path class="st3" d="M-147.8,388.1h-3v2.1h3.6v1.3h-5.1v-7.7h5.1v1.3h-3.5v1.8h3V388.1z"/>
														<path class="st3" d="M-137.5,391.4h-1.6l-3.1-5v5h-1.6v-7.7h1.6l3.1,5.1v-5.1h1.6V391.4z"/>
														<path class="st3" d="M-129.8,387.7c0,0.8-0.1,1.4-0.4,2s-0.6,1-1.1,1.3s-1.1,0.5-1.7,0.5c-0.6,0-1.2-0.2-1.7-0.5
															c-0.5-0.3-0.9-0.7-1.2-1.3s-0.4-1.2-0.4-2v-0.4c0-0.8,0.1-1.4,0.4-2s0.7-1,1.2-1.3c0.5-0.3,1.1-0.5,1.7-0.5c0.6,0,1.2,0.2,1.7,0.5
															c0.5,0.3,0.9,0.7,1.2,1.3c0.3,0.6,0.4,1.2,0.4,2V387.7z M-131.4,387.4c0-0.8-0.1-1.4-0.4-1.8c-0.3-0.4-0.7-0.6-1.2-0.6
															c-0.5,0-0.9,0.2-1.2,0.6s-0.4,1-0.4,1.8v0.4c0,0.8,0.1,1.4,0.4,1.8c0.3,0.4,0.7,0.6,1.2,0.6c0.5,0,0.9-0.2,1.2-0.6
															c0.3-0.4,0.4-1,0.4-1.8V387.4z"/>
														</g>
													</svg>
