<?xml version="1.0" encoding="utf-8"?>
<!-- Generator: Adobe Illustrator 19.0.0, SVG Export Plug-In . SVG Version: 6.00 Build 0)  -->
<svg version="1.1" id="artwork" xmlns="http://www.w3.org/2000/svg" xmlns:xlink="http://www.w3.org/1999/xlink" x="0px" y="0px"
	 viewBox="-218 377 135 40" style="enable-background:new -218 377 135 40;" xml:space="preserve">
<style type="text/css">
	.st0{fill:#FFFFFF;fill-opacity:0;}
	.st1{fill:#A6A6A6;}
	.st2{opacity:0.2;enable-background:new    ;}
	.st3{opacity:0.12;enable-background:new    ;}
	.st4{fill:#FFFFFF;}
</style>
<title>pt-br_get</title>
<rect x="-228" y="367" class="st0" width="155" height="60"/>
<path d="M-213,377h125c2.8,0,5,2.2,5,5v30c0,2.8-2.2,5-5,5h-125c-2.8,0-5-2.2-5-5v-30C-218,379.2-215.8,377-213,377z"/>
<path class="st1" d="M-88,377.8c2.3,0,4.2,1.9,4.2,4.2v30c0,2.3-1.9,4.2-4.2,4.2h-125c-2.3,0-4.2-1.9-4.2-4.2l0,0v-30
	c0-2.3,1.9-4.2,4.2-4.2l0,0H-88 M-88,377h-125c-2.8,0-5,2.2-5,5v30c0,2.8,2.2,5,5,5h125c2.8,0,5-2.2,5-5v-30
	C-83,379.2-85.2,377-88,377z"/>
<path class="st2" d="M-191,401.1l-14.5,8.3c-0.6,0.4-1.4,0.4-2,0l0,0l-0.1,0.1l0,0l0.1,0.1l0,0c0.6,0.4,1.4,0.4,2,0l14.6-8.3
	L-191,401.1z"/>
<path class="st3" d="M-207.6,409.3c-0.3-0.4-0.5-0.9-0.5-1.4v0.2c0,0.5,0.1,1,0.5,1.4V409.3L-207.6,409.3z"/>
<path class="st3" d="M-186,398.3l-5,2.8l0.1,0.1l4.9-2.8c0.6-0.3,0.9-0.8,1-1.4l0,0C-185.1,397.6-185.5,398-186,398.3z"/>
<g>
	<path class="st4" d="M-187.7,405.2c2-2.2,3.2-5.1,3.2-8.3c0-3.3-1.3-6.3-3.4-8.6v0c0,0,0,0,0,0c-2.2-2.3-5.3-3.8-8.7-3.9l0,0
		l-0.2,0c-0.1,0-0.1,0-0.2,0c-0.1,0-0.1,0-0.2,0l-0.2,0l0,0c-3.4,0.1-6.5,1.6-8.7,3.9c0,0,0,0,0,0c0,0,0,0,0,0
		c-2.1,2.2-3.4,5.3-3.4,8.6c0,3.2,1.2,6.1,3.2,8.3c0,0,0,0,0,0c0,0,0,0,0,0c2.2,2.5,5.4,4.1,8.9,4.2l0,0l0.2,0c0.1,0,0.1,0,0.2,0
		c0.1,0,0.1,0,0.2,0l0.2,0l0,0C-193.1,409.3-189.9,407.7-187.7,405.2C-187.7,405.2-187.7,405.2-187.7,405.2
		C-187.7,405.2-187.7,405.2-187.7,405.2z M-208.7,397.3h5.2c0,1.8,0.4,3.6,1,5.3c-1.2,0.4-2.4,1-3.5,1.8
		C-207.6,402.4-208.6,400-208.7,397.3z M-205.7,389.1c1.1,0.7,2.2,1.3,3.4,1.7c-0.7,1.8-1.1,3.7-1.2,5.7h-5.2
		C-208.6,393.6-207.5,391.1-205.7,389.1z M-185.4,396.4h-5.2c-0.1-2-0.5-3.9-1.2-5.7c1.2-0.4,2.3-1,3.4-1.7
		C-186.6,391.1-185.5,393.6-185.4,396.4z M-197.5,390.8c-1.2,0-2.5-0.2-3.7-0.6c0.9-1.8,2.1-3.4,3.7-4.8V390.8z M-197.5,391.7v4.8
		h-5.2c0.1-1.9,0.4-3.7,1.2-5.4C-200.2,391.4-198.8,391.6-197.5,391.7z M-196.6,391.7c1.4,0,2.7-0.2,4-0.6c0.7,1.7,1.1,3.5,1.2,5.4
		h-5.2V391.7z M-196.6,390.8v-5.3c1.5,1.4,2.8,3,3.7,4.8C-194.1,390.6-195.4,390.8-196.6,390.8z M-192.1,390c-0.8-1.7-2-3.3-3.4-4.7
		c2.5,0.3,4.8,1.5,6.6,3.2C-189.9,389.1-191,389.6-192.1,390z M-202,390c-1.1-0.4-2.2-0.9-3.2-1.5c1.8-1.7,4-2.8,6.6-3.2
		C-200,386.7-201.1,388.2-202,390z M-202.6,397.3h5.2v4.3c-1.4,0-2.8,0.3-4.2,0.7C-202.3,400.7-202.6,399-202.6,397.3z
		 M-197.5,402.5v5.8c-1.7-1.4-3-3.2-3.8-5.2C-200.1,402.7-198.8,402.5-197.5,402.5z M-196.6,408.3v-5.8c1.3,0,2.6,0.2,3.8,0.6
		C-193.6,405-194.9,406.8-196.6,408.3z M-196.6,401.6v-4.3h5.2c0,1.7-0.4,3.4-1,5C-193.8,401.9-195.2,401.7-196.6,401.6z
		 M-190.6,397.3h5.2c-0.1,2.7-1.1,5.1-2.7,7.1c-1.1-0.7-2.3-1.3-3.5-1.8C-191,400.9-190.6,399.1-190.6,397.3z M-205.4,405
		c1-0.7,2.1-1.2,3.2-1.6c0.8,1.9,2,3.6,3.6,5.1C-201.2,408.1-203.6,406.8-205.4,405z M-195.5,408.4c1.5-1.5,2.7-3.2,3.6-5.1
		c1.1,0.4,2.2,1,3.2,1.6C-190.5,406.8-192.9,408.1-195.5,408.4z"/>
</g>
<g>
	<path class="st4" d="M-173.2,405.6l2.8-8.1h1.4l-3.6,9.8h-1.1l-3.6-9.8h1.4L-173.2,405.6z"/>
	<path class="st4" d="M-162.2,402.8h-4.2v3.5h4.9v1.1h-6.2v-9.8h6.2v1.1h-4.9v3.2h4.2V402.8z"/>
	<path class="st4" d="M-156.3,403.4h-2.3v4h-1.3v-9.8h3.2c1.1,0,2,0.3,2.5,0.8c0.6,0.5,0.9,1.2,0.9,2.2c0,0.6-0.2,1.1-0.5,1.6
		c-0.3,0.5-0.8,0.8-1.4,1l2.3,4.2v0.1h-1.4L-156.3,403.4z M-158.6,402.3h2c0.6,0,1.2-0.2,1.5-0.5s0.6-0.8,0.6-1.3
		c0-0.6-0.2-1.1-0.5-1.4s-0.9-0.5-1.6-0.5h-2V402.3z"/>
	<path class="st4" d="M-148.5,403c-1.1-0.3-1.9-0.7-2.4-1.2c-0.5-0.5-0.8-1-0.8-1.7c0-0.8,0.3-1.4,0.9-1.9c0.6-0.5,1.4-0.8,2.4-0.8
		c0.7,0,1.3,0.1,1.8,0.4c0.5,0.3,0.9,0.6,1.2,1.1c0.3,0.5,0.4,1,0.4,1.5h-1.3c0-0.6-0.2-1.1-0.6-1.4s-0.9-0.5-1.6-0.5
		c-0.6,0-1.1,0.1-1.5,0.4c-0.4,0.3-0.5,0.7-0.5,1.2c0,0.4,0.2,0.7,0.5,1s0.9,0.5,1.7,0.8c0.8,0.2,1.4,0.5,1.9,0.8
		c0.5,0.3,0.8,0.6,1,1c0.2,0.4,0.3,0.8,0.3,1.3c0,0.8-0.3,1.4-0.9,1.9s-1.4,0.7-2.5,0.7c-0.7,0-1.3-0.1-1.9-0.4
		c-0.6-0.3-1-0.6-1.3-1.1s-0.5-1-0.5-1.5h1.3c0,0.6,0.2,1.1,0.7,1.4c0.4,0.3,1,0.5,1.8,0.5c0.7,0,1.2-0.1,1.6-0.4
		c0.4-0.3,0.5-0.7,0.5-1.1c0-0.5-0.2-0.9-0.5-1.1C-147,403.5-147.7,403.2-148.5,403z"/>
	<path class="st4" d="M-137.8,404.8h-4.1l-0.9,2.6h-1.3l3.7-9.8h1.1l3.7,9.8h-1.3L-137.8,404.8z M-137.5,395.1
		c0,0.5-0.1,0.9-0.4,1.2c-0.3,0.3-0.6,0.5-1,0.5c-0.2,0-0.3,0-0.5-0.1c-0.1,0-0.3-0.1-0.5-0.3c-0.2-0.1-0.4-0.2-0.5-0.3
		c-0.1,0-0.2,0-0.3,0c-0.2,0-0.3,0.1-0.5,0.2c-0.1,0.1-0.2,0.3-0.2,0.5l-0.8,0c0-0.5,0.1-0.9,0.4-1.2c0.3-0.3,0.6-0.5,1-0.5
		c0.2,0,0.3,0,0.4,0.1c0.1,0,0.3,0.1,0.5,0.3c0.2,0.1,0.4,0.2,0.5,0.3s0.2,0.1,0.4,0.1c0.2,0,0.4-0.1,0.5-0.2
		c0.1-0.2,0.2-0.3,0.2-0.5L-137.5,395.1z M-141.6,403.7h3.3l-1.7-4.6L-141.6,403.7z"/>
	<path class="st4" d="M-126.8,402.7c0,1-0.2,1.8-0.5,2.5c-0.3,0.7-0.8,1.3-1.4,1.6c-0.6,0.4-1.3,0.6-2.1,0.6c-0.8,0-1.5-0.2-2.1-0.6
		c-0.6-0.4-1.1-0.9-1.4-1.6c-0.3-0.7-0.5-1.5-0.5-2.4v-0.7c0-0.9,0.2-1.8,0.5-2.5c0.3-0.7,0.8-1.3,1.4-1.7c0.6-0.4,1.3-0.6,2.1-0.6
		c0.8,0,1.5,0.2,2.1,0.6c0.6,0.4,1.1,0.9,1.4,1.6c0.3,0.7,0.5,1.6,0.5,2.5V402.7z M-128.1,402.1c0-1.2-0.2-2.1-0.7-2.7
		c-0.5-0.6-1.1-0.9-2-0.9c-0.8,0-1.5,0.3-1.9,0.9c-0.5,0.6-0.7,1.5-0.7,2.6v0.7c0,1.1,0.2,2,0.7,2.7c0.5,0.6,1.1,1,2,1
		c0.8,0,1.5-0.3,1.9-0.9c0.5-0.6,0.7-1.5,0.7-2.6V402.1z"/>
	<path class="st4" d="M-119.3,404.2l0.2,1.3l0.3-1.2l1.9-6.8h1.1l1.9,6.8l0.3,1.2l0.2-1.3l1.5-6.7h1.3l-2.4,9.8h-1.2l-2-7.1
		l-0.2-0.7l-0.2,0.7l-2.1,7.1h-1.2l-2.4-9.8h1.3L-119.3,404.2z"/>
	<path class="st4" d="M-103.7,402.8h-4.2v3.5h4.9v1.1h-6.2v-9.8h6.2v1.1h-4.9v3.2h4.2V402.8z"/>
	<path class="st4" d="M-101.4,407.3v-9.8h3.2c1.1,0,1.9,0.2,2.4,0.7c0.5,0.4,0.8,1.1,0.8,2c0,0.5-0.1,0.9-0.4,1.2
		c-0.3,0.4-0.6,0.6-1.1,0.8c0.5,0.1,0.9,0.4,1.3,0.8c0.3,0.4,0.5,0.9,0.5,1.5c0,0.9-0.3,1.6-0.9,2.1s-1.4,0.8-2.4,0.8H-101.4z
		 M-100.1,401.7h2c0.6,0,1-0.1,1.4-0.4s0.5-0.7,0.5-1.2c0-0.5-0.2-0.9-0.5-1.2c-0.3-0.2-0.8-0.4-1.4-0.4h-1.9V401.7z M-100.1,402.7
		v3.5h2.1c0.6,0,1.1-0.2,1.4-0.5s0.5-0.7,0.5-1.3c0-1.2-0.6-1.8-1.9-1.8H-100.1z"/>
</g>
<g>
	<path class="st4" d="M-173.1,391.7c-0.4,0.5-1,0.7-1.7,0.7c-0.6,0-1.1-0.2-1.5-0.6c-0.3-0.4-0.5-0.9-0.5-1.6v-3.9h1.3v3.9
		c0,0.8,0.3,1.1,0.9,1.1c0.7,0,1.1-0.2,1.3-0.7v-4.3h1.3v6h-1.3L-173.1,391.7z"/>
	<path class="st4" d="M-167.1,390.7c0-0.2-0.1-0.4-0.3-0.5c-0.2-0.1-0.5-0.2-1-0.3s-0.8-0.2-1.1-0.4c-0.7-0.3-1-0.8-1-1.4
		c0-0.5,0.2-0.9,0.7-1.3c0.4-0.3,1-0.5,1.7-0.5c0.7,0,1.3,0.2,1.7,0.5s0.7,0.8,0.7,1.4h-1.3c0-0.3-0.1-0.5-0.3-0.6
		c-0.2-0.2-0.4-0.3-0.8-0.3c-0.3,0-0.5,0.1-0.7,0.2c-0.2,0.1-0.3,0.3-0.3,0.5c0,0.2,0.1,0.4,0.3,0.5c0.2,0.1,0.5,0.2,1,0.3
		c0.5,0.1,0.9,0.3,1.2,0.4s0.5,0.4,0.7,0.6s0.2,0.5,0.2,0.8c0,0.5-0.2,1-0.7,1.3c-0.4,0.3-1,0.5-1.8,0.5c-0.5,0-0.9-0.1-1.3-0.3
		c-0.4-0.2-0.7-0.4-0.9-0.7c-0.2-0.3-0.3-0.6-0.3-1h1.3c0,0.3,0.1,0.6,0.4,0.7c0.2,0.2,0.5,0.3,0.9,0.3c0.4,0,0.6-0.1,0.8-0.2
		C-167.2,391.1-167.1,390.9-167.1,390.7z"/>
	<path class="st4" d="M-162,392.4c-0.9,0-1.5-0.3-2.1-0.8s-0.8-1.2-0.8-2.1v-0.2c0-0.6,0.1-1.1,0.3-1.6s0.6-0.8,1-1.1
		c0.4-0.3,0.9-0.4,1.4-0.4c0.8,0,1.4,0.3,1.9,0.8c0.4,0.5,0.7,1.3,0.7,2.2v0.5h-3.9c0,0.5,0.2,0.9,0.5,1.2s0.7,0.4,1.1,0.4
		c0.6,0,1.1-0.2,1.5-0.7l0.7,0.7c-0.2,0.4-0.6,0.6-1,0.8S-161.5,392.4-162,392.4z M-162.2,387.3c-0.4,0-0.7,0.1-0.9,0.4
		s-0.4,0.6-0.4,1.1h2.6v-0.1c0-0.4-0.1-0.8-0.4-1S-161.8,387.3-162.2,387.3z"/>
	<path class="st4" d="M-154.1,384.9v1.5h1.1v1h-1.1v3.3c0,0.2,0,0.4,0.1,0.5c0.1,0.1,0.3,0.2,0.5,0.2c0.2,0,0.3,0,0.5-0.1v1
		c-0.3,0.1-0.6,0.1-0.9,0.1c-1,0-1.5-0.6-1.5-1.7v-3.4h-1v-1h1v-1.5H-154.1z"/>
	<path class="st4" d="M-148.4,392.3c-0.1-0.1-0.1-0.3-0.2-0.6c-0.4,0.4-0.9,0.7-1.6,0.7c-0.6,0-1.1-0.2-1.5-0.5
		c-0.4-0.3-0.6-0.8-0.6-1.3c0-0.6,0.2-1.1,0.7-1.5c0.5-0.3,1.1-0.5,2-0.5h0.8v-0.4c0-0.3-0.1-0.6-0.3-0.7c-0.2-0.2-0.4-0.3-0.8-0.3
		c-0.3,0-0.6,0.1-0.8,0.2s-0.3,0.3-0.3,0.6h-1.3c0-0.3,0.1-0.6,0.3-0.9s0.5-0.5,0.9-0.7s0.8-0.2,1.3-0.2c0.7,0,1.3,0.2,1.7,0.5
		s0.6,0.8,0.6,1.5v2.7c0,0.5,0.1,1,0.2,1.3v0.1H-148.4z M-149.9,391.3c0.3,0,0.5-0.1,0.7-0.2c0.2-0.1,0.4-0.3,0.5-0.5v-1.1h-0.7
		c-0.5,0-0.9,0.1-1.1,0.3c-0.3,0.2-0.4,0.4-0.4,0.7c0,0.3,0.1,0.5,0.3,0.6C-150.4,391.3-150.2,391.3-149.9,391.3z"/>
	<path class="st4" d="M-144.6,386.3l0,0.6c0.4-0.5,1-0.7,1.7-0.7c0.8,0,1.3,0.3,1.6,0.9c0.4-0.6,1-0.9,1.8-0.9
		c0.7,0,1.1,0.2,1.5,0.5c0.3,0.4,0.5,0.9,0.5,1.6v3.9h-1.3v-3.9c0-0.4-0.1-0.7-0.2-0.8c-0.2-0.2-0.4-0.3-0.8-0.3
		c-0.3,0-0.6,0.1-0.7,0.2c-0.2,0.2-0.3,0.4-0.4,0.6l0,4.1h-1.3v-3.9c0-0.7-0.4-1.1-1.1-1.1c-0.5,0-0.9,0.2-1.1,0.7v4.3h-1.3v-6
		H-144.6z"/>
	<path class="st4" d="M-130.8,389.4c0,0.9-0.2,1.7-0.6,2.2c-0.4,0.5-1,0.8-1.7,0.8c-0.7,0-1.2-0.3-1.6-0.8l-0.1,0.6h-1.2v-8.5h1.3
		v3.1c0.4-0.5,0.9-0.7,1.6-0.7c0.7,0,1.3,0.3,1.7,0.8C-131,387.6-130.8,388.3-130.8,389.4L-130.8,389.4z M-132.1,389.3
		c0-0.6-0.1-1.1-0.3-1.5c-0.2-0.3-0.6-0.5-1-0.5c-0.6,0-1,0.3-1.2,0.8v2.5c0.2,0.5,0.7,0.8,1.2,0.8c0.4,0,0.7-0.2,1-0.5
		c0.2-0.3,0.3-0.8,0.4-1.4V389.3z"/>
	<path class="st4" d="M-127,392.4c-0.9,0-1.5-0.3-2.1-0.8s-0.8-1.2-0.8-2.1v-0.2c0-0.6,0.1-1.1,0.3-1.6c0.2-0.5,0.6-0.8,1-1.1
		c0.4-0.3,0.9-0.4,1.4-0.4c0.8,0,1.4,0.3,1.9,0.8c0.4,0.5,0.7,1.3,0.7,2.2v0.5h-3.9c0,0.5,0.2,0.9,0.5,1.2c0.3,0.3,0.7,0.4,1.1,0.4
		c0.6,0,1.1-0.2,1.5-0.7l0.7,0.7c-0.2,0.4-0.6,0.6-1,0.8S-126.5,392.4-127,392.4z M-127.2,387.3c-0.4,0-0.7,0.1-0.9,0.4
		s-0.4,0.6-0.4,1.1h2.6v-0.1c0-0.4-0.1-0.8-0.4-1C-126.5,387.4-126.8,387.3-127.2,387.3z M-126.9,383.8h1.5l-1.5,1.7l-1.1,0
		L-126.9,383.8z"/>
	<path class="st4" d="M-122.3,386.3l0,0.6c0.4-0.5,1-0.7,1.7-0.7c0.8,0,1.3,0.3,1.6,0.9c0.4-0.6,1-0.9,1.8-0.9
		c0.7,0,1.1,0.2,1.5,0.5c0.3,0.4,0.5,0.9,0.5,1.6v3.9h-1.3v-3.9c0-0.4-0.1-0.7-0.2-0.8c-0.2-0.2-0.4-0.3-0.8-0.3
		c-0.3,0-0.6,0.1-0.7,0.2c-0.2,0.2-0.3,0.4-0.4,0.6l0,4.1h-1.3v-3.9c0-0.7-0.4-1.1-1.1-1.1c-0.5,0-0.9,0.2-1.1,0.7v4.3h-1.3v-6
		H-122.3z"/>
	<path class="st4" d="M-107.4,392.3c-0.1-0.1-0.1-0.3-0.2-0.6c-0.4,0.4-0.9,0.7-1.6,0.7c-0.6,0-1.1-0.2-1.5-0.5
		c-0.4-0.3-0.6-0.8-0.6-1.3c0-0.6,0.2-1.1,0.7-1.5c0.5-0.3,1.1-0.5,2-0.5h0.8v-0.4c0-0.3-0.1-0.6-0.3-0.7c-0.2-0.2-0.4-0.3-0.8-0.3
		c-0.3,0-0.6,0.1-0.8,0.2c-0.2,0.2-0.3,0.3-0.3,0.6h-1.3c0-0.3,0.1-0.6,0.3-0.9c0.2-0.3,0.5-0.5,0.9-0.7s0.8-0.2,1.3-0.2
		c0.7,0,1.3,0.2,1.7,0.5s0.6,0.8,0.6,1.5v2.7c0,0.5,0.1,1,0.2,1.3v0.1H-107.4z M-108.8,391.3c0.3,0,0.5-0.1,0.7-0.2
		c0.2-0.1,0.4-0.3,0.5-0.5v-1.1h-0.7c-0.5,0-0.9,0.1-1.1,0.3c-0.3,0.2-0.4,0.4-0.4,0.7c0,0.3,0.1,0.5,0.3,0.6
		C-109.4,391.3-109.1,391.3-108.8,391.3z"/>
</g>
</svg>
